<svg width="94" height="46" viewBox="0 0 94 46" fill="none" xmlns="http://www.w3.org/2000/svg">
<path d="M29.8734 43.329C29.8734 43.329 32.3153 43.107 35.9411 42.959C37.717 42.885 39.8629 42.811 42.1568 42.811C43.2668 42.811 44.4507 42.811 45.6346 42.811C46.8186 42.811 48.0025 42.811 49.1865 42.811C50.3704 42.811 51.6284 42.811 52.8123 42.811C53.9963 42.811 55.1802 42.811 56.2902 42.811C58.584 42.811 60.6559 42.885 62.5059 42.885C66.1317 42.959 68.5735 43.033 68.5735 43.033C68.5735 43.033 66.2057 43.403 62.5799 43.6989C60.8039 43.8469 58.658 43.9949 56.3641 44.0689C55.2542 44.0689 54.0703 44.1429 52.8863 44.1429C51.7024 44.1429 50.5184 44.1429 49.2605 44.2169C48.0765 44.2169 46.8186 44.2169 45.6346 44.1429C44.4507 44.1429 43.2668 44.0689 42.1568 43.9949C39.8629 43.9209 37.791 43.7729 35.9411 43.6989C32.2413 43.6249 29.8734 43.329 29.8734 43.329Z" fill="#D0ECF4"/>
<path d="M71.9034 42.441C71.9034 42.441 71.6814 42.441 71.3114 42.367C70.9414 42.367 70.3495 42.293 69.6835 42.293C68.2776 42.219 66.2797 42.293 63.8378 42.293C58.954 42.293 52.5163 42.367 46.0046 42.367C39.5669 42.367 33.0553 42.367 28.1715 42.367C25.7296 42.367 23.7317 42.367 22.3258 42.515C22.1778 42.515 21.9558 42.515 21.8078 42.589C21.7338 42.589 21.6598 42.589 21.5858 42.663C21.5118 42.663 21.4378 42.737 21.4378 42.663C21.4378 42.589 21.4378 42.663 21.5118 42.663C21.5858 42.663 21.5858 42.737 21.6598 42.737C21.7338 42.737 21.8818 42.811 21.9558 42.811C22.3258 42.885 22.5478 42.959 22.5478 42.959C22.5478 42.959 22.3258 42.959 21.9558 42.885C21.8818 42.885 21.7338 42.885 21.6598 42.811C21.5858 42.811 21.5118 42.811 21.4378 42.737C21.4378 42.737 21.3638 42.737 21.3638 42.663C21.3638 42.663 21.2158 42.589 21.2898 42.515C21.3638 42.367 21.4378 42.367 21.5118 42.367C21.5858 42.367 21.6598 42.293 21.7338 42.293C21.8818 42.219 22.0298 42.219 22.2518 42.219C23.6577 41.9971 25.6556 41.7011 28.0975 41.5531C30.5394 41.3312 33.3513 41.1832 36.3851 41.1092C37.939 41.0352 39.493 41.0352 41.0469 40.9612C42.6748 40.9612 44.2287 40.9612 45.8567 40.8872C47.4846 40.8872 49.1125 40.8872 50.6664 40.9612C52.2943 40.9612 53.8483 41.0352 55.3282 41.0352C58.362 41.1092 61.1739 41.2572 63.6158 41.4791C66.0577 41.6271 68.0556 41.8491 69.4615 42.0711C71.0894 42.219 71.9034 42.441 71.9034 42.441Z" fill="#D0ECF4"/>
<path d="M75.0853 43.9208C75.0853 43.9208 75.3072 43.8468 75.8252 43.7728C76.2692 43.6248 77.0092 43.5508 77.7491 43.1809C77.8231 43.1069 77.8971 43.0329 77.8971 43.0329C77.8971 43.0329 77.8971 43.0329 77.8231 42.9589C77.6751 42.8849 77.3791 42.8109 77.1571 42.7369C76.6392 42.5889 76.0472 42.5149 75.4552 42.4409C74.1973 42.293 72.8654 42.219 71.3114 42.145C68.2776 41.997 64.7257 41.849 60.8779 41.775C58.954 41.775 57.0301 41.701 55.0322 41.701C53.0343 41.701 50.9624 41.701 48.9645 41.627C44.8947 41.627 40.8249 41.627 36.9771 41.627C33.1293 41.627 29.5774 41.701 26.5436 41.775C24.9897 41.849 23.6577 41.849 22.3998 41.923C21.1418 41.997 20.1059 42.071 19.2179 42.145C18.33 42.219 17.664 42.293 17.146 42.3669C16.7021 42.4409 16.4061 42.5149 16.4061 42.5149C16.4061 42.5149 16.6281 42.4409 17.146 42.293C17.59 42.145 18.33 41.997 19.1439 41.849C20.9198 41.5531 23.4357 41.1831 26.4696 40.9611C29.5034 40.6652 33.0553 40.4432 36.9031 40.2952C38.827 40.2212 40.8249 40.1472 42.8228 40.1472C44.8207 40.1472 46.8926 40.1472 48.8905 40.0732C50.9624 40.0732 52.9603 40.1472 54.9582 40.1472C56.9561 40.2212 58.954 40.2952 60.8779 40.3692C64.7257 40.5912 68.2776 40.8131 71.3114 41.1831C72.8654 41.3311 74.1973 41.5531 75.4552 41.775C76.0472 41.923 76.6392 41.997 77.1571 42.219C77.4531 42.293 77.6751 42.367 77.8971 42.5889C77.9711 42.6629 78.1931 42.8109 78.1191 43.1069C78.0451 43.2548 77.8971 43.3288 77.7491 43.4028C76.8612 43.7728 76.1952 43.7728 75.6772 43.8468C75.3072 43.9208 75.0853 43.9208 75.0853 43.9208Z" fill="#D0ECF4"/>
<path d="M16.1101 43.4028C16.1101 43.4028 16.1841 43.4028 16.3321 43.4768C16.4801 43.4768 16.7021 43.5508 16.9241 43.5508C17.442 43.6248 18.256 43.6988 19.144 43.7728C20.0319 43.8468 21.1419 43.9208 22.3258 43.9948C23.5098 44.0688 24.6937 44.1427 25.9516 44.2167C27.2096 44.2907 28.3935 44.3647 29.5775 44.4387C30.7614 44.5127 31.7974 44.5867 32.7593 44.6607C33.7213 44.7347 34.4612 44.8087 34.9792 44.8826C35.4972 44.9566 35.7932 44.9566 35.7932 44.9566C35.7932 44.9566 35.4972 44.9566 34.9052 45.0306C34.3872 45.0306 33.5733 45.1046 32.6853 45.1046C31.7234 45.1046 30.6874 45.1046 29.5035 45.1046C28.3195 45.1046 27.1356 45.0306 25.8776 44.9566C24.6197 44.8826 23.4358 44.8087 22.2518 44.6607C21.0679 44.5127 20.0319 44.3647 19.07 44.2167C18.626 44.1427 18.182 44.0688 17.812 43.9948C17.442 43.9208 17.1461 43.8468 16.8501 43.7728C16.5541 43.6988 16.4061 43.6248 16.2581 43.5508C16.1841 43.4028 16.1101 43.4028 16.1101 43.4028Z" fill="#D0ECF4"/>
<path d="M38.827 45.0307C38.827 45.0307 39.345 45.0307 40.233 44.9567C41.1209 44.9567 42.3789 44.8827 43.9328 44.8827C46.9666 44.8087 51.0364 44.7347 55.1062 44.6607C59.1761 44.5867 63.2459 44.5127 66.2797 44.4388C69.3136 44.3648 71.3855 44.2908 71.3855 44.2908C71.3855 44.2908 69.3876 44.5867 66.2797 44.8827C64.7258 45.0307 62.9499 45.1787 61.026 45.2527C59.1021 45.3266 57.1041 45.4006 55.0322 45.4746C52.9603 45.4746 50.9624 45.5486 49.0385 45.4746C47.1146 45.4746 45.3387 45.4006 43.7848 45.3266C42.2308 45.2526 40.9729 45.1787 40.085 45.1787C39.345 45.1047 38.827 45.0307 38.827 45.0307Z" fill="#D0ECF4"/>
<path d="M9.82039 27.7169C10.6344 28.9007 13.5942 33.1182 16.7761 36.7437C16.8501 36.8177 16.9241 36.8917 16.9981 37.0397C19.5879 40.0733 22.3258 42.737 23.9537 42.885C27.1356 43.1809 58.3621 42.959 67.0936 42.885C68.5736 42.885 70.0535 42.441 71.3114 41.6271C74.1973 39.7773 79.0811 36.5218 77.7491 36.2258C77.1572 36.0778 76.7872 35.7819 76.7132 35.4119C76.4912 34.746 77.0092 33.7101 77.3792 32.6002C77.8971 30.9724 84.0388 22.3895 82.3369 23.5734C80.709 24.7572 77.8971 26.237 78.9331 24.4613C79.969 22.6855 81.7449 17.9501 80.709 17.9501C79.673 17.9501 79.969 14.9165 80.487 14.0286C80.857 13.4366 80.117 13.6586 79.1551 14.7685C78.7111 15.2864 78.1191 16.1003 77.6751 17.1362C77.1572 18.246 75.4552 20.4658 73.5313 22.8335C70.2015 26.755 66.2797 30.8245 66.3537 30.0846C66.5017 28.8267 67.9076 22.6855 67.0936 23.2034C66.3537 23.7214 53.4043 36.9657 53.9223 35.3379C54.4403 33.6361 52.8863 31.8603 50.0005 36.8917C50.0005 36.8917 49.2605 38.4455 47.9286 36.8917C46.6706 35.3379 36.0891 24.5353 36.3111 25.4971C36.5331 26.533 36.6811 28.3088 34.9052 26.681C33.1293 25.0532 18.552 9.07118 18.552 10.625C18.552 12.1788 20.1059 14.1765 18.552 13.5846C16.9981 12.9187 12.0403 8.25729 12.7803 10.551C13.5202 12.8447 14.1862 14.6205 13.5202 13.9546C12.8542 13.2887 11.9663 12.7707 12.7063 15.8783C13.4462 18.912 17.368 33.7101 15.5921 31.9343C13.9642 30.0106 8.34046 25.5711 9.82039 27.7169Z" fill="#D9F7FF"/>
<path d="M9.82039 27.7169C10.6344 28.9007 13.5942 33.1182 16.7761 36.7437C16.8501 36.8177 16.9241 36.8917 16.9981 37.0397C19.5879 40.0733 22.3258 42.737 23.9537 42.885C27.1356 43.1809 58.3621 42.959 67.0936 42.885C68.5736 42.885 70.0535 42.441 71.3114 41.6271C74.1973 39.7773 79.0811 36.5218 77.7491 36.2258C77.1572 36.0778 76.7872 35.7819 76.7132 35.4119C76.4912 34.746 77.0092 33.7101 77.3792 32.6002C77.8971 30.9724 84.0388 22.3895 82.3369 23.5734C80.709 24.7572 77.8971 26.237 78.9331 24.4613C79.969 22.6855 81.7449 17.9501 80.709 17.9501C79.673 17.9501 79.969 14.9165 80.487 14.0286C80.857 13.4366 80.117 13.6586 79.1551 14.7685C78.7111 15.2864 78.1191 16.1003 77.6751 17.1362C77.1572 18.246 75.4552 20.4658 73.5313 22.8335C70.2015 26.755 66.2797 30.8245 66.3537 30.0846C66.5017 28.8267 67.9076 22.6855 67.0936 23.2034C66.3537 23.7214 53.4043 36.9657 53.9223 35.3379C54.4403 33.6361 52.8863 31.8603 50.0005 36.8917C50.0005 36.8917 49.2605 38.4455 47.9286 36.8917C46.6706 35.3379 36.0891 24.5353 36.3111 25.4971C36.5331 26.533 36.6811 28.3088 34.9052 26.681C33.1293 25.0532 18.552 9.07118 18.552 10.625C18.552 12.1788 20.1059 14.1765 18.552 13.5846C16.9981 12.9187 12.0403 8.25729 12.7803 10.551C13.5202 12.8447 14.1862 14.6205 13.5202 13.9546C12.8542 13.2887 11.9663 12.7707 12.7063 15.8783C13.4462 18.912 17.368 33.7101 15.5921 31.9343C13.9642 30.0106 8.34046 25.5711 9.82039 27.7169Z" fill="url(#paint0_radial)"/>
<path opacity="0.1" d="M9.82039 27.7169C10.6344 28.9007 13.5942 33.1182 16.7761 36.7437C16.8501 36.8177 16.9241 36.8917 16.9981 37.0397C19.5879 40.0733 22.3258 42.737 23.9537 42.885C27.1356 43.1809 58.3621 42.959 67.0936 42.885C68.5736 42.885 70.0535 42.441 71.3114 41.6271C74.1973 39.7773 79.0811 36.5218 77.7491 36.2258C77.1572 36.0778 76.7872 35.7819 76.7132 35.4119C76.4912 34.746 77.0092 33.7101 77.3792 32.6002C77.8971 30.9724 84.0388 22.3895 82.3369 23.5734C80.709 24.7572 77.8971 26.237 78.9331 24.4613C79.969 22.6855 81.7449 17.9501 80.709 17.9501C79.673 17.9501 79.969 14.9165 80.487 14.0286C80.857 13.4366 80.117 13.6586 79.1551 14.7685C78.7111 15.2864 78.1191 16.1003 77.6751 17.1362C77.1572 18.246 75.4552 20.4658 73.5313 22.8335C70.2015 26.755 66.2797 30.8245 66.3537 30.0846C66.5017 28.8267 67.9076 22.6855 67.0936 23.2034C66.3537 23.7214 53.4043 36.9657 53.9223 35.3379C54.4403 33.6361 52.8863 31.8603 50.0005 36.8917C50.0005 36.8917 49.2605 38.4455 47.9286 36.8917C46.6706 35.3379 36.0891 24.5353 36.3111 25.4971C36.5331 26.533 36.6811 28.3088 34.9052 26.681C33.1293 25.0532 18.552 9.07118 18.552 10.625C18.552 12.1788 20.1059 14.1765 18.552 13.5846C16.9981 12.9187 12.0403 8.25729 12.7803 10.551C13.5202 12.8447 14.1862 14.6205 13.5202 13.9546C12.8542 13.2887 11.9663 12.7707 12.7063 15.8783C13.4462 18.912 17.368 33.7101 15.5921 31.9343C13.9642 30.0106 8.34046 25.5711 9.82039 27.7169Z" fill="url(#paint1_linear)"/>
<path opacity="0.8" d="M79.0071 26.089C79.895 25.867 81.4489 25.2011 80.857 26.089C80.191 26.9769 76.6392 32.3782 76.7872 31.4164C76.9352 30.4545 78.2671 26.459 77.4531 26.8289C76.6392 27.1989 76.5652 26.163 77.3052 24.1653C78.0451 22.1675 79.673 19.5778 78.5631 19.9478C77.4531 20.3177 76.5652 19.0599 76.5652 19.0599L79.377 13.0667C79.377 13.0667 79.3771 15.0644 79.599 16.4702C79.821 17.876 80.487 18.8379 80.191 19.5038C79.821 20.1698 77.3051 26.533 79.0071 26.089Z" fill="url(#paint2_linear)"/>
<path opacity="0.8" d="M65.5397 31.5643C65.5397 31.5643 67.0197 25.7191 65.5397 26.9769C64.0598 28.2348 55.5502 34.9679 57.8441 34.228C60.138 33.4881 63.5418 29.7886 63.7638 31.4903C63.9858 33.2661 65.5397 31.5643 65.5397 31.5643Z" fill="url(#paint3_linear)"/>
<path opacity="0.8" d="M37.1251 26.3849C37.1251 26.3849 37.1251 29.4925 35.2012 28.0127C33.2773 26.5329 27.2836 20.0217 27.2836 20.0217C27.2836 20.0217 27.6535 22.9814 28.9115 24.2392C30.1694 25.497 35.2752 31.2683 36.0891 30.1585C36.8291 29.0486 38.753 28.8266 40.085 30.5284C41.4169 32.2302 44.9687 34.3019 44.9687 34.3019C44.9687 34.3019 39.271 27.5688 37.1251 26.3849Z" fill="url(#paint4_linear)"/>
<path opacity="0.8" d="M19.8839 12.1047C19.8839 12.1047 20.0319 16.1742 19.2919 15.0643C18.5519 13.9545 14.6301 10.107 15.0741 12.1047C15.5921 14.1025 14.1121 15.5823 13.8901 14.6944C13.5942 13.8065 16.258 27.1988 16.258 27.1988C16.258 27.1988 17.294 26.3849 16.924 24.6831C16.554 22.9813 14.4821 16.3962 15.2221 16.1002C15.962 15.8042 15.2221 13.8805 16.48 14.6204C17.738 15.4343 20.9938 18.1719 20.9938 16.3222C21.0678 14.4724 19.8839 12.1047 19.8839 12.1047Z" fill="url(#paint5_linear)"/>
<path opacity="0.8" d="M20.7719 21.7236C20.7719 21.7236 24.8417 25.2012 26.1736 26.681C27.5055 28.0868 30.6134 33.2662 28.7635 31.7864C26.8396 30.3066 25.2116 29.4187 25.0636 30.2326C24.9157 31.0465 23.1397 30.0106 22.3258 29.0487C21.4378 28.0128 20.7719 21.7236 20.7719 21.7236Z" fill="url(#paint6_linear)"/>
<path opacity="0.2" d="M16.998 37.0397C19.5879 40.0733 22.3258 42.737 23.9537 42.8849C27.1356 43.1809 58.362 42.9589 67.0936 42.8849C68.5736 42.8849 70.0535 42.441 71.3114 41.6271C74.1973 39.7773 79.0811 36.5217 77.7491 36.2258C77.1572 36.0778 76.7872 35.7818 76.7132 35.4119C76.7132 35.4119 65.8357 42.8849 66.0577 41.1831C66.2797 39.4074 65.6137 36.4477 64.5778 37.3356C63.5418 38.2975 51.1104 43.2549 44.6727 41.997C38.235 40.7392 31.6493 36.6697 31.2794 38.1495C30.9094 39.6293 26.5436 38.5935 25.9516 38.1495C25.5816 37.7796 19.7359 40.3692 16.998 37.0397Z" fill="#0071BC"/>
<path d="M16.943 4.64937C17.4565 4.51326 17.6607 3.60242 17.3989 2.61495C17.1371 1.62747 16.5087 0.937291 15.9951 1.07339C15.4816 1.20949 15.2775 2.12033 15.5393 3.10781C15.801 4.09529 16.4295 4.78547 16.943 4.64937Z" fill="#D0ECF4"/>
<path d="M15.5921 3.15204C15.8881 4.11392 16.4801 4.77984 16.998 4.70585C17.516 4.55786 17.738 3.66998 17.442 2.7081C17.146 1.74622 16.5541 1.0803 16.0361 1.15429C15.5181 1.22828 15.2961 2.19016 15.5921 3.15204Z" fill="url(#paint7_radial)"/>
<path opacity="0.1" d="M15.5921 3.15204C15.8881 4.11392 16.4801 4.77984 16.998 4.70585C17.516 4.55786 17.738 3.66998 17.442 2.7081C17.146 1.74622 16.5541 1.0803 16.0361 1.15429C15.5181 1.22828 15.2961 2.19016 15.5921 3.15204Z" fill="url(#paint8_linear)"/>
<path d="M3.06132 3.73439C3.68791 3.43428 3.88099 2.5337 3.49259 1.72289C3.10419 0.912071 2.28138 0.498061 1.6548 0.798166C1.02821 1.09827 0.835124 1.99885 1.22352 2.80966C1.61193 3.62048 2.43474 4.03449 3.06132 3.73439Z" fill="#D0ECF4"/>
<path d="M1.23678 2.78185C1.60677 3.59575 2.49472 3.9657 3.0867 3.66974C3.75266 3.37378 3.90065 2.48589 3.53067 1.67199C3.16069 0.858092 2.27273 0.488134 1.68076 0.784097C1.01479 1.08006 0.792806 1.96795 1.23678 2.78185Z" fill="url(#paint9_radial)"/>
<path opacity="0.1" d="M1.23678 2.78185C1.60677 3.59575 2.49472 3.9657 3.0867 3.66974C3.75266 3.37378 3.90065 2.48589 3.53067 1.67199C3.16069 0.858092 2.27273 0.488134 1.68076 0.784097C1.01479 1.08006 0.792806 1.96795 1.23678 2.78185Z" fill="url(#paint10_linear)"/>
<path d="M5.12622 26.1562C5.60538 25.9267 5.67894 25.0834 5.29054 24.2725C4.90214 23.4617 4.19885 22.9905 3.7197 23.22C3.24055 23.4495 3.16697 24.2928 3.55537 25.1036C3.94377 25.9144 4.64707 26.3857 5.12622 26.1562Z" fill="#D0ECF4"/>
<path d="M3.60469 25.1272C3.97467 25.9411 4.71464 26.385 5.15862 26.163C5.6026 25.9411 5.67659 25.1272 5.30661 24.3133C4.93663 23.4994 4.19666 23.0554 3.75268 23.2774C3.3087 23.4254 3.23471 24.3133 3.60469 25.1272Z" fill="url(#paint11_radial)"/>
<path opacity="0.1" d="M3.60469 25.1272C3.97467 25.9411 4.71464 26.385 5.15862 26.163C5.6026 25.9411 5.67659 25.1272 5.30661 24.3133C4.93663 23.4994 4.19666 23.0554 3.75268 23.2774C3.3087 23.4254 3.23471 24.3133 3.60469 25.1272Z" fill="url(#paint12_linear)"/>
<path d="M72.7667 12.7184C73.0994 11.8832 72.9689 11.0468 72.4754 10.8503C71.9818 10.6537 71.3121 11.1714 70.9794 12.0066C70.6467 12.8418 70.7772 13.6781 71.2707 13.8747C71.7643 14.0713 72.4341 13.5536 72.7667 12.7184Z" fill="#D0ECF4"/>
<path d="M71.0154 12.0307C70.7194 12.8446 70.7934 13.7325 71.3114 13.8805C71.8294 14.1024 72.4213 13.5845 72.7913 12.6966C73.0873 11.8827 73.0133 10.9948 72.4953 10.8468C72.0514 10.6249 71.3854 11.2168 71.0154 12.0307Z" fill="url(#paint13_radial)"/>
<path opacity="0.1" d="M71.0154 12.0307C70.7194 12.8446 70.7934 13.7325 71.3114 13.8805C71.8294 14.1024 72.4213 13.5845 72.7913 12.6966C73.0873 11.8827 73.0133 10.9948 72.4953 10.8468C72.0514 10.6249 71.3854 11.2168 71.0154 12.0307Z" fill="url(#paint14_linear)"/>
<path d="M93.0468 23.7431C93.3795 22.9079 93.1259 22.0225 92.4805 21.7654C91.8351 21.5084 91.0422 21.9771 90.7096 22.8123C90.3769 23.6474 90.6305 24.5328 91.2759 24.7899C91.9213 25.0469 92.7142 24.5782 93.0468 23.7431Z" fill="#D0ECF4"/>
<path d="M90.6985 22.8334C90.4025 23.6473 90.6245 24.5352 91.2165 24.8311C91.8825 25.0531 92.6224 24.6092 92.9924 23.7953C93.2884 22.9814 93.0664 22.0935 92.4744 21.7975C91.8085 21.5016 91.0685 22.0195 90.6985 22.8334Z" fill="url(#paint15_radial)"/>
<path opacity="0.1" d="M90.6985 22.8334C90.4025 23.6473 90.6245 24.5352 91.2165 24.8311C91.8825 25.0531 92.6224 24.6092 92.9924 23.7953C93.2884 22.9814 93.0664 22.0935 92.4744 21.7975C91.8085 21.5016 91.0685 22.0195 90.6985 22.8334Z" fill="url(#paint16_linear)"/>
<defs>
<radialGradient id="paint0_radial" cx="0" cy="0" r="1" gradientUnits="userSpaceOnUse" gradientTransform="translate(45.6984 19.0033) rotate(180) scale(44.0575 44.0541)">
<stop stop-color="white"/>
<stop offset="0.2169" stop-color="#FCFCFD"/>
<stop offset="0.3559" stop-color="#F4F4F8"/>
<stop offset="0.4731" stop-color="#E6E5EE"/>
<stop offset="0.5781" stop-color="#D1D0E0"/>
<stop offset="0.6751" stop-color="#B7B5CE"/>
<stop offset="0.7661" stop-color="#9793B8"/>
<stop offset="0.8525" stop-color="#706C9E"/>
<stop offset="0.9331" stop-color="#453F81"/>
<stop offset="1" stop-color="#1B1464"/>
</radialGradient>
<linearGradient id="paint1_linear" x1="46.1615" y1="43.0655" x2="46.1615" y2="9.76307" gradientUnits="userSpaceOnUse">
<stop stop-color="#1B1464"/>
<stop offset="0.0669379" stop-color="#453F81"/>
<stop offset="0.1475" stop-color="#706C9E"/>
<stop offset="0.2339" stop-color="#9793B8"/>
<stop offset="0.3249" stop-color="#B7B5CE"/>
<stop offset="0.4219" stop-color="#D1D0E0"/>
<stop offset="0.5269" stop-color="#E6E5EE"/>
<stop offset="0.6441" stop-color="#F4F4F8"/>
<stop offset="0.7831" stop-color="#FCFCFD"/>
<stop offset="1" stop-color="white"/>
</linearGradient>
<linearGradient id="paint2_linear" x1="81.6101" y1="29.8034" x2="76.4595" y2="19.1198" gradientUnits="userSpaceOnUse">
<stop stop-color="white"/>
<stop offset="1"/>
</linearGradient>
<linearGradient id="paint3_linear" x1="66.8311" y1="28.071" x2="58.5851" y2="35.1649" gradientUnits="userSpaceOnUse">
<stop stop-color="white"/>
<stop offset="1"/>
</linearGradient>
<linearGradient id="paint4_linear" x1="43.9638" y1="35.3352" x2="27.5483" y2="20.6197" gradientUnits="userSpaceOnUse">
<stop/>
<stop offset="1" stop-color="white"/>
</linearGradient>
<linearGradient id="paint5_linear" x1="20.8683" y1="22.1301" x2="12.7073" y2="14.8141" gradientUnits="userSpaceOnUse">
<stop/>
<stop offset="1" stop-color="white"/>
</linearGradient>
<linearGradient id="paint6_linear" x1="29.1806" y1="32.1694" x2="19.5917" y2="23.5735" gradientUnits="userSpaceOnUse">
<stop/>
<stop offset="1" stop-color="white"/>
</linearGradient>
<radialGradient id="paint7_radial" cx="0" cy="0" r="1" gradientUnits="userSpaceOnUse" gradientTransform="translate(16.2917 2.10449) rotate(165.156) scale(2.86084 2.86066)">
<stop stop-color="white"/>
<stop offset="0.2169" stop-color="#FCFCFD"/>
<stop offset="0.3559" stop-color="#F4F4F8"/>
<stop offset="0.4731" stop-color="#E6E5EE"/>
<stop offset="0.5781" stop-color="#D1D0E0"/>
<stop offset="0.6751" stop-color="#B7B5CE"/>
<stop offset="0.7661" stop-color="#9793B8"/>
<stop offset="0.8525" stop-color="#706C9E"/>
<stop offset="0.9331" stop-color="#453F81"/>
<stop offset="1" stop-color="#1B1464"/>
</radialGradient>
<linearGradient id="paint8_linear" x1="16.9823" y1="4.66127" x2="16.0433" y2="1.11816" gradientUnits="userSpaceOnUse">
<stop stop-color="#1B1464"/>
<stop offset="0.0669379" stop-color="#453F81"/>
<stop offset="0.1475" stop-color="#706C9E"/>
<stop offset="0.2339" stop-color="#9793B8"/>
<stop offset="0.3249" stop-color="#B7B5CE"/>
<stop offset="0.4219" stop-color="#D1D0E0"/>
<stop offset="0.5269" stop-color="#E6E5EE"/>
<stop offset="0.6441" stop-color="#F4F4F8"/>
<stop offset="0.7831" stop-color="#FCFCFD"/>
<stop offset="1" stop-color="white"/>
</linearGradient>
<radialGradient id="paint9_radial" cx="0" cy="0" r="1" gradientUnits="userSpaceOnUse" gradientTransform="translate(2.0429 1.60755) rotate(154.412) scale(3.79577 2.53965)">
<stop stop-color="white"/>
<stop offset="0.2169" stop-color="#FCFCFD"/>
<stop offset="0.3559" stop-color="#F4F4F8"/>
<stop offset="0.4731" stop-color="#E6E5EE"/>
<stop offset="0.5781" stop-color="#D1D0E0"/>
<stop offset="0.6751" stop-color="#B7B5CE"/>
<stop offset="0.7661" stop-color="#9793B8"/>
<stop offset="0.8525" stop-color="#706C9E"/>
<stop offset="0.9331" stop-color="#453F81"/>
<stop offset="1" stop-color="#1B1464"/>
</radialGradient>
<linearGradient id="paint10_linear" x1="3.07338" y1="3.72094" x2="1.66795" y2="0.786005" gradientUnits="userSpaceOnUse">
<stop stop-color="#1B1464"/>
<stop offset="0.0669379" stop-color="#453F81"/>
<stop offset="0.1475" stop-color="#706C9E"/>
<stop offset="0.2339" stop-color="#9793B8"/>
<stop offset="0.3249" stop-color="#B7B5CE"/>
<stop offset="0.4219" stop-color="#D1D0E0"/>
<stop offset="0.5269" stop-color="#E6E5EE"/>
<stop offset="0.6441" stop-color="#F4F4F8"/>
<stop offset="0.7831" stop-color="#FCFCFD"/>
<stop offset="1" stop-color="white"/>
</linearGradient>
<radialGradient id="paint11_radial" cx="0" cy="0" r="1" gradientUnits="userSpaceOnUse" gradientTransform="translate(4.1196 24.0437) rotate(154.409) scale(2.76016 2.53958)">
<stop stop-color="white"/>
<stop offset="0.2169" stop-color="#FCFCFD"/>
<stop offset="0.3559" stop-color="#F4F4F8"/>
<stop offset="0.4731" stop-color="#E6E5EE"/>
<stop offset="0.5781" stop-color="#D1D0E0"/>
<stop offset="0.6751" stop-color="#B7B5CE"/>
<stop offset="0.7661" stop-color="#9793B8"/>
<stop offset="0.8525" stop-color="#706C9E"/>
<stop offset="0.9331" stop-color="#453F81"/>
<stop offset="1" stop-color="#1B1464"/>
</radialGradient>
<linearGradient id="paint12_linear" x1="5.14608" y1="26.159" x2="3.74054" y2="23.2242" gradientUnits="userSpaceOnUse">
<stop stop-color="#1B1464"/>
<stop offset="0.0669379" stop-color="#453F81"/>
<stop offset="0.1475" stop-color="#706C9E"/>
<stop offset="0.2339" stop-color="#9793B8"/>
<stop offset="0.3249" stop-color="#B7B5CE"/>
<stop offset="0.4219" stop-color="#D1D0E0"/>
<stop offset="0.5269" stop-color="#E6E5EE"/>
<stop offset="0.6441" stop-color="#F4F4F8"/>
<stop offset="0.7831" stop-color="#FCFCFD"/>
<stop offset="1" stop-color="white"/>
</linearGradient>
<radialGradient id="paint13_radial" cx="0" cy="0" r="1" gradientUnits="userSpaceOnUse" gradientTransform="translate(72.1613 11.6853) rotate(-158.286) scale(2.76033 2.53962)">
<stop stop-color="white"/>
<stop offset="0.2169" stop-color="#FCFCFD"/>
<stop offset="0.3559" stop-color="#F4F4F8"/>
<stop offset="0.4731" stop-color="#E6E5EE"/>
<stop offset="0.5781" stop-color="#D1D0E0"/>
<stop offset="0.6751" stop-color="#B7B5CE"/>
<stop offset="0.7661" stop-color="#9793B8"/>
<stop offset="0.8525" stop-color="#706C9E"/>
<stop offset="0.9331" stop-color="#453F81"/>
<stop offset="1" stop-color="#1B1464"/>
</radialGradient>
<linearGradient id="paint14_linear" x1="71.3026" y1="13.8741" x2="72.5065" y2="10.8509" gradientUnits="userSpaceOnUse">
<stop stop-color="#1B1464"/>
<stop offset="0.0669379" stop-color="#453F81"/>
<stop offset="0.1475" stop-color="#706C9E"/>
<stop offset="0.2339" stop-color="#9793B8"/>
<stop offset="0.3249" stop-color="#B7B5CE"/>
<stop offset="0.4219" stop-color="#D1D0E0"/>
<stop offset="0.5269" stop-color="#E6E5EE"/>
<stop offset="0.6441" stop-color="#F4F4F8"/>
<stop offset="0.7831" stop-color="#FCFCFD"/>
<stop offset="1" stop-color="white"/>
</linearGradient>
<radialGradient id="paint15_radial" cx="0" cy="0" r="1" gradientUnits="userSpaceOnUse" gradientTransform="translate(92.1234 22.5972) rotate(-158.289) scale(3.60982 2.53961)">
<stop stop-color="white"/>
<stop offset="0.2169" stop-color="#FCFCFD"/>
<stop offset="0.3559" stop-color="#F4F4F8"/>
<stop offset="0.4731" stop-color="#E6E5EE"/>
<stop offset="0.5781" stop-color="#D1D0E0"/>
<stop offset="0.6751" stop-color="#B7B5CE"/>
<stop offset="0.7661" stop-color="#9793B8"/>
<stop offset="0.8525" stop-color="#706C9E"/>
<stop offset="0.9331" stop-color="#453F81"/>
<stop offset="1" stop-color="#1B1464"/>
</radialGradient>
<linearGradient id="paint16_linear" x1="91.268" y1="24.7873" x2="92.4717" y2="21.7641" gradientUnits="userSpaceOnUse">
<stop stop-color="#1B1464"/>
<stop offset="0.0669379" stop-color="#453F81"/>
<stop offset="0.1475" stop-color="#706C9E"/>
<stop offset="0.2339" stop-color="#9793B8"/>
<stop offset="0.3249" stop-color="#B7B5CE"/>
<stop offset="0.4219" stop-color="#D1D0E0"/>
<stop offset="0.5269" stop-color="#E6E5EE"/>
<stop offset="0.6441" stop-color="#F4F4F8"/>
<stop offset="0.7831" stop-color="#FCFCFD"/>
<stop offset="1" stop-color="white"/>
</linearGradient>
</defs>
</svg>
