<svg width="114" height="52" viewBox="0 0 114 52" fill="none" xmlns="http://www.w3.org/2000/svg">
<path d="M22.4096 31.4254C22.4096 31.4254 25.2955 34.829 27.8113 38.5285C29.6613 41.2662 31.2891 44.2258 31.2891 45.9276C31.2891 46.0016 31.2891 46.0756 31.2891 46.0756C31.4371 50.0711 35.433 50.0711 36.9869 50.219C37.4309 50.219 38.6888 50.367 40.3907 50.441C41.5747 50.515 42.9806 50.589 44.3865 50.663C45.2005 50.737 46.0145 50.737 46.7544 50.811C47.4944 50.885 48.1603 50.885 48.8263 50.885C50.8242 50.959 52.4521 51.0329 53.0441 50.959C53.4141 50.959 53.9321 50.885 54.672 50.885C55.634 50.811 56.8919 50.811 58.2239 50.737C58.8898 50.737 59.6298 50.663 60.3698 50.663C61.6277 50.663 62.8856 50.589 64.1436 50.589C66.0675 50.589 67.9174 50.589 69.3233 50.737C71.3952 50.885 73.4671 50.811 75.317 50.663C75.761 50.663 76.205 50.589 76.575 50.589C78.4249 50.515 80.0528 50.367 81.2367 50.589C81.9027 50.737 82.6427 50.737 83.4566 50.663C83.9006 50.663 84.4186 50.589 84.8626 50.441C86.7865 50.1451 88.7104 49.5531 89.5984 49.4052C90.9303 49.1832 94.0382 50.959 94.6301 45.1877C94.6301 45.1877 94.6301 45.1137 94.6301 44.9657C94.6301 44.8177 94.6301 44.6697 94.6301 44.5218C94.6301 44.3738 94.6301 44.2258 94.6301 44.0778C94.6301 43.7818 94.6301 43.5599 94.6301 43.2639C94.6301 42.894 94.6301 42.524 94.6301 42.1541C94.9261 37.3447 96.998 32.9792 98.478 30.3155C99.3659 28.7617 100.032 27.8738 100.032 27.8738L104.028 21.7326L98.0339 21.1407L96.554 20.9927L96.1101 20.9187L81.4588 24.8402L69.0273 28.1698L62.1457 28.8357L57.1879 27.2079L36.0989 23.2864C36.0989 23.2864 28.6253 25.3581 24.6295 26.764C24.0375 26.9859 23.5935 27.1339 23.1495 27.3559C22.5576 27.6519 22.1876 27.7998 22.1876 27.9478C22.5576 28.8357 22.4096 31.4254 22.4096 31.4254Z" fill="#81D0D3"/>
<path d="M22.4096 31.4254C22.4096 31.4254 25.2955 34.829 27.8113 38.5285C29.6613 41.2662 31.2891 44.2258 31.2891 45.9276C31.2891 46.0016 31.2891 46.0756 31.2891 46.0756C31.4371 50.0711 35.433 50.0711 36.9869 50.219C37.4309 50.219 38.6888 50.367 40.3907 50.441C41.5747 50.515 42.9806 50.589 44.3865 50.663C45.2005 50.737 46.0145 50.737 46.7544 50.811C47.4944 50.885 48.1603 50.885 48.8263 50.885C50.8242 50.959 52.4521 51.0329 53.0441 50.959C53.4141 50.959 53.9321 50.885 54.672 50.885C55.634 50.811 56.8919 50.811 58.2239 50.737C58.8898 50.737 59.6298 50.663 60.3698 50.663C61.6277 50.663 62.8856 50.589 64.1436 50.589C66.0675 50.589 67.9174 50.589 69.3233 50.737C71.3952 50.885 73.4671 50.811 75.317 50.663C75.761 50.663 76.205 50.589 76.575 50.589C78.4249 50.515 80.0528 50.367 81.2367 50.589C81.9027 50.737 82.6427 50.737 83.4566 50.663C83.9006 50.663 84.4186 50.589 84.8626 50.441C86.7865 50.1451 88.7104 49.5531 89.5984 49.4052C90.9303 49.1832 94.0382 50.959 94.6301 45.1877C94.6301 45.1877 94.6301 45.1137 94.6301 44.9657C94.6301 44.8177 94.6301 44.6697 94.6301 44.5218C94.6301 44.3738 94.6301 44.2258 94.6301 44.0778C94.6301 43.7818 94.6301 43.5599 94.6301 43.2639C94.6301 42.894 94.6301 42.524 94.6301 42.1541C94.9261 37.3447 96.998 32.9792 98.478 30.3155C99.3659 28.7617 100.032 27.8738 100.032 27.8738L104.028 21.7326L98.0339 21.1407L96.554 20.9927L96.1101 20.9187L81.4588 24.8402L69.0273 28.1698L62.1457 28.8357L57.1879 27.2079L36.0989 23.2864C36.0989 23.2864 28.6253 25.3581 24.6295 26.764C24.0375 26.9859 23.5935 27.1339 23.1495 27.3559C22.5576 27.6519 22.1876 27.7998 22.1876 27.9478C22.5576 28.8357 22.4096 31.4254 22.4096 31.4254Z" fill="url(#paint0_radial)"/>
<path opacity="0.1" d="M22.4096 31.4254C22.4096 31.4254 25.2955 34.829 27.8113 38.5285C29.6613 41.2662 31.2891 44.2258 31.2891 45.9276C31.2891 46.0016 31.2891 46.0756 31.2891 46.0756C31.4371 50.0711 35.433 50.0711 36.9869 50.219C37.4309 50.219 38.6888 50.367 40.3907 50.441C41.5747 50.515 42.9806 50.589 44.3865 50.663C45.2005 50.737 46.0145 50.737 46.7544 50.811C47.4944 50.885 48.1603 50.885 48.8263 50.885C50.8242 50.959 52.4521 51.0329 53.0441 50.959C53.4141 50.959 53.9321 50.885 54.672 50.885C55.634 50.811 56.8919 50.811 58.2239 50.737C58.8898 50.737 59.6298 50.663 60.3698 50.663C61.6277 50.663 62.8856 50.589 64.1436 50.589C66.0675 50.589 67.9174 50.589 69.3233 50.737C71.3952 50.885 73.4671 50.811 75.317 50.663C75.761 50.663 76.205 50.589 76.575 50.589C78.4249 50.515 80.0528 50.367 81.2367 50.589C81.9027 50.737 82.6427 50.737 83.4566 50.663C83.9006 50.663 84.4186 50.589 84.8626 50.441C86.7865 50.1451 88.7104 49.5531 89.5984 49.4052C90.9303 49.1832 94.0382 50.959 94.6301 45.1877C94.6301 45.1877 94.6301 45.1137 94.6301 44.9657C94.6301 44.8177 94.6301 44.6697 94.6301 44.5218C94.6301 44.3738 94.6301 44.2258 94.6301 44.0778C94.6301 43.7818 94.6301 43.5599 94.6301 43.2639C94.6301 42.894 94.6301 42.524 94.6301 42.1541C94.9261 37.3447 96.998 32.9792 98.478 30.3155C99.3659 28.7617 100.032 27.8738 100.032 27.8738L104.028 21.7326L98.0339 21.1407L96.554 20.9927L96.1101 20.9187L81.4588 24.8402L69.0273 28.1698L62.1457 28.8357L57.1879 27.2079L36.0989 23.2864C36.0989 23.2864 28.6253 25.3581 24.6295 26.764C24.0375 26.9859 23.5935 27.1339 23.1495 27.3559C22.5576 27.6519 22.1876 27.7998 22.1876 27.9478C22.5576 28.8357 22.4096 31.4254 22.4096 31.4254Z" fill="url(#paint1_linear)"/>
<path opacity="0.2" d="M22.4095 31.4253C22.4095 31.4253 25.2954 34.8289 27.8113 38.5285C27.8113 38.5285 30.9931 36.9007 31.2891 35.1989C31.5851 33.4231 35.5069 36.6787 37.3568 36.6047C39.2067 36.5307 38.5407 32.2392 40.1686 33.5711C41.7226 34.9029 42.3145 35.0509 43.8685 34.237C45.4964 33.4231 50.6761 40.4522 52.0081 41.5621C53.34 42.6719 56.0779 32.2392 59.8517 35.9388C63.6255 39.6383 66.5854 35.8648 67.6213 34.8289C68.6573 33.867 70.6552 34.9769 71.0992 36.0868C71.5432 37.1966 73.763 33.941 75.8349 32.6092C77.8328 31.3513 78.0549 41.5621 78.1289 43.4118C78.2029 45.2616 85.4545 33.941 86.1205 33.3491C86.8604 32.7572 88.3404 38.6764 87.9704 40.8222C87.6004 42.8939 98.2559 30.8334 98.5519 30.4635C99.4398 28.9097 100.106 28.0218 100.106 28.0218L104.102 21.8805L96.258 21.1406L81.6067 25.0621L69.1753 28.3917L62.2936 29.0576L57.3358 27.4298L36.2468 23.5083C36.2468 23.5083 22.2615 27.4298 22.4095 28.1697C22.5575 28.8357 22.4095 31.4253 22.4095 31.4253Z" fill="#0071BC"/>
<path opacity="0.2" d="M64.2176 50.7371C66.1415 50.7371 67.9914 50.7371 69.3973 50.8851C74.2071 51.255 78.7209 50.2931 81.3108 50.8111C83.9007 51.255 88.2665 49.8492 89.6724 49.6272C91.0043 49.4052 94.1122 51.181 94.7041 45.4097C94.7041 45.4097 94.7041 45.3357 94.7041 45.1878C94.7041 45.0398 94.7041 44.8918 94.7041 44.7438C94.7041 44.5958 94.7041 44.4479 94.7041 44.2999C94.7041 43.708 94.7782 43.042 94.7782 42.3021C94.7782 40.8963 94.6301 39.4905 94.1122 39.4905C93.0762 39.4905 87.4525 46.2976 87.0825 44.6698C86.7125 43.042 86.2685 43.19 84.5666 45.4097C82.8647 47.6295 78.4249 50.0712 77.981 48.2954C77.537 46.5196 76.057 39.1205 74.9471 41.6362C73.8371 44.1519 71.5433 48.9613 71.0993 47.8514C70.6553 46.7416 69.6933 45.0398 68.8054 46.1496C68.2134 46.8896 66.5115 49.1833 64.2176 50.7371Z" fill="#0071BC"/>
<path opacity="0.2" d="M48.8263 51.033C50.8242 51.107 52.4521 51.181 53.0441 51.107C53.4141 51.107 53.9321 51.033 54.672 51.033C53.5621 50.3671 52.8961 49.5532 51.9342 48.8873C50.8242 48.0734 50.0842 49.7012 48.8263 51.033Z" fill="#0071BC"/>
<path opacity="0.2" d="M31.2892 46.1496C31.4372 50.1451 35.433 50.1451 36.9869 50.2931C37.4309 50.2931 38.6889 50.4411 40.3908 50.5151C39.1328 49.9231 38.0969 49.2572 37.5049 48.8873C36.099 47.9254 34.693 46.1496 33.9531 45.9276C33.5831 45.8536 32.3251 46.0016 31.2892 46.1496Z" fill="#0071BC"/>
<path opacity="0.8" d="M83.5306 50.8849C83.9746 50.8849 84.4926 50.8109 84.9365 50.6629C85.0105 50.5889 85.0106 50.5149 85.0845 50.441C85.3805 42.45 97.146 25.2101 97.146 25.2101C97.146 25.2101 98.1819 22.6944 98.2559 21.3626C98.3299 20.4747 98.0339 20.1047 96.776 21.2146C96.036 21.8805 94.9261 23.1384 93.3722 25.2101C85.2325 35.8648 83.5306 50.8849 83.5306 50.8849Z" fill="url(#paint2_linear)"/>
<path opacity="0.8" d="M75.3911 50.8109V50.8849C75.835 50.8849 76.279 50.8109 76.649 50.8109C76.649 50.8109 77.463 35.2729 82.7907 28.9836C88.0444 22.6944 78.7949 29.4276 78.7949 29.4276C78.7949 29.4276 75.465 39.4903 75.3911 50.8109Z" fill="url(#paint3_linear)"/>
<path opacity="0.8" d="M37.2829 27.356V28.6138C37.2829 28.6138 43.4985 31.9434 43.8685 34.2371C44.3125 36.5308 43.3506 38.4546 46.3844 40.0084C49.4183 41.5622 56.5959 48.3693 58.0019 50.5151C58.0759 50.6631 58.1499 50.737 58.2239 50.885C58.8898 50.885 59.6298 50.811 60.3698 50.811C60.3698 50.811 52.6741 41.6362 54.968 32.8313C57.1879 24.1004 52.4521 32.9792 52.4521 32.9792C52.4521 32.9792 52.4521 41.6362 53.0441 42.3021C51.0462 40.6743 48.3823 38.3066 48.2343 36.0129C48.0863 33.7192 46.5324 31.7214 43.6465 30.0936C40.7607 28.4658 37.2829 27.356 37.2829 27.356Z" fill="url(#paint4_linear)"/>
<path opacity="0.8" d="M23.3715 27.5039C24.1115 28.6138 25.7393 30.2416 25.7393 30.2416C25.7393 30.2416 37.2828 37.8626 44.3865 50.811C45.2004 50.885 46.0144 50.885 46.7544 50.959C46.7544 50.959 35.2849 32.6833 27.0713 28.0959C26.1094 27.5779 25.3694 27.208 24.7774 26.912C22.8535 26.0981 22.8535 26.616 23.3715 27.5039Z" fill="url(#paint5_linear)"/>
<path d="M2.80048 16.0353C3.68844 16.9232 4.50243 17.5891 5.0944 18.255C6.87031 19.9568 7.53626 20.7707 7.38827 21.1407C7.16628 21.6586 7.53629 22.1765 9.31221 23.1384C9.3862 23.2124 9.53417 23.2864 9.60816 23.2864C9.53417 23.3604 9.46018 23.4344 9.38618 23.5824C8.79421 24.7662 8.72022 27.7259 10.8661 28.0958C13.16 28.5398 13.678 28.9097 13.974 30.3895C14.27 31.7953 15.8979 33.4231 19.3017 32.5353C20.1897 32.3133 21.2996 31.9433 22.4836 31.4994C23.5195 31.1294 24.7035 30.6855 25.8134 30.2415C26.8494 29.8716 27.8853 29.5016 28.8472 29.2057C30.1052 28.8357 31.1412 28.5397 31.8811 28.5397C33.0651 28.5397 35.0629 28.3178 37.3568 28.3178C38.2448 28.3178 39.2068 28.3178 40.2427 28.3918C42.2406 28.5397 44.2385 28.9097 46.1624 29.6496C48.0123 30.3895 50.3062 31.7213 52.6001 32.9792C53.3401 33.3491 54.0801 33.7931 54.82 34.0891C55.708 34.533 56.6699 34.903 57.4839 35.1989C58.2978 35.4949 59.1118 35.7169 59.9258 35.8648C61.4057 36.0868 62.8116 35.9388 63.9216 35.1249C68.3614 32.0173 71.5432 28.0218 75.021 28.5397C76.057 28.6877 77.3889 28.9837 78.7948 29.4276C79.7568 29.7236 80.7928 30.0196 81.8287 30.2415C84.4926 30.9814 87.0824 31.5734 88.2664 31.1294C88.9324 30.9074 89.5243 30.6115 90.1163 30.1676C91.0042 29.5016 91.6702 28.6877 91.5222 27.7259C91.4482 27.1339 91.0043 26.542 90.1903 25.9501C90.7823 25.5061 92.0402 25.2102 93.3722 25.0622C94.6301 24.9142 95.962 24.9142 97.146 25.0622C98.4039 25.2102 99.3659 25.5801 99.5879 26.0241C99.5879 26.0241 99.8098 26.838 100.254 27.9478C101.364 30.6115 104.102 34.681 108.837 30.6855C112.019 32.3873 116.163 29.5016 112.611 24.1003C112.167 22.1765 111.057 21.0667 110.983 20.9927C110.983 20.9927 113.943 19.0689 111.575 16.4053C109.133 13.6676 106.84 15.2214 106.84 15.2214C106.84 15.2214 107.431 11.0779 103.288 10.19C101.068 9.7461 97.22 10.412 93.6682 11.3739C90.5603 12.1878 87.7484 13.2977 86.7125 13.9636C87.8964 10.856 81.8287 10.856 80.6448 14.9255C79.5348 12.2618 74.0591 16.9972 72.3571 22.6205C72.3571 22.6945 72.3572 22.7685 72.2832 22.8425C72.2832 22.8425 71.0992 23.2124 69.6933 23.9523C69.3233 24.1743 68.9533 24.3223 68.5833 24.6182C67.5474 25.2842 66.5854 26.172 65.9935 27.2079C64.1436 26.246 61.1097 26.246 60.5177 27.2079C59.9257 24.8402 57.1879 21.5846 52.5261 22.6205C52.3781 22.6205 52.2301 22.6945 52.0821 22.6945C50.0842 17.5151 45.3485 11.0039 42.0926 11.4479C38.8368 11.8178 34.175 13.9636 34.693 18.403C33.805 17.9591 32.991 17.5151 32.3991 17.1452C32.2511 17.0712 32.1031 16.9232 31.9551 16.8492C31.3631 16.4053 30.8452 15.9613 30.4752 15.6654C30.3272 15.5174 30.2532 15.4434 30.1792 15.2954C30.1792 15.2954 30.1792 15.2954 30.1792 15.2214C30.1052 15.1474 30.0312 15.0734 30.0312 14.9994C29.8092 14.7035 29.6612 14.4815 29.5872 14.3335C29.5132 14.2595 29.5132 14.1855 29.5132 14.1855C29.5132 14.1116 29.5132 14.1116 29.5132 14.1116C29.5132 14.1116 32.9911 8.78421 27.8113 3.97481C27.5893 3.82683 27.4413 3.60486 27.2193 3.45688C23.0015 -0.0946748 17.4518 -0.686599 16.1198 1.82909C15.8239 2.34702 15.6759 3.08693 15.8239 3.90083C14.418 3.16092 12.3461 2.79097 10.2742 2.93895C6.64832 3.08693 3.17048 4.49275 3.83645 6.93445C4.8724 10.708 3.24449 9.22816 2.50452 9.59812C1.54257 10.264 -0.67735 12.7797 2.80048 16.0353Z" fill="#E4FFFF"/>
<path d="M2.80048 16.0353C3.68844 16.9232 4.50243 17.5891 5.0944 18.255C6.87031 19.9568 7.53626 20.7707 7.38827 21.1407C7.16628 21.6586 7.53629 22.1765 9.31221 23.1384C9.3862 23.2124 9.53417 23.2864 9.60816 23.2864C9.53417 23.3604 9.46018 23.4344 9.38618 23.5824C8.79421 24.7662 8.72022 27.7259 10.8661 28.0958C13.16 28.5398 13.678 28.9097 13.974 30.3895C14.27 31.7953 15.8979 33.4231 19.3017 32.5353C20.1897 32.3133 21.2996 31.9433 22.4836 31.4994C23.5195 31.1294 24.7035 30.6855 25.8134 30.2415C26.8494 29.8716 27.8853 29.5016 28.8472 29.2057C30.1052 28.8357 31.1412 28.5397 31.8811 28.5397C33.0651 28.5397 35.0629 28.3178 37.3568 28.3178C38.2448 28.3178 39.2068 28.3178 40.2427 28.3918C42.2406 28.5397 44.2385 28.9097 46.1624 29.6496C48.0123 30.3895 50.3062 31.7213 52.6001 32.9792C53.3401 33.3491 54.0801 33.7931 54.82 34.0891C55.708 34.533 56.6699 34.903 57.4839 35.1989C58.2978 35.4949 59.1118 35.7169 59.9258 35.8648C61.4057 36.0868 62.8116 35.9388 63.9216 35.1249C68.3614 32.0173 71.5432 28.0218 75.021 28.5397C76.057 28.6877 77.3889 28.9837 78.7948 29.4276C79.7568 29.7236 80.7928 30.0196 81.8287 30.2415C84.4926 30.9814 87.0824 31.5734 88.2664 31.1294C88.9324 30.9074 89.5243 30.6115 90.1163 30.1676C91.0042 29.5016 91.6702 28.6877 91.5222 27.7259C91.4482 27.1339 91.0043 26.542 90.1903 25.9501C90.7823 25.5061 92.0402 25.2102 93.3722 25.0622C94.6301 24.9142 95.962 24.9142 97.146 25.0622C98.4039 25.2102 99.3659 25.5801 99.5879 26.0241C99.5879 26.0241 99.8098 26.838 100.254 27.9478C101.364 30.6115 104.102 34.681 108.837 30.6855C112.019 32.3873 116.163 29.5016 112.611 24.1003C112.167 22.1765 111.057 21.0667 110.983 20.9927C110.983 20.9927 113.943 19.0689 111.575 16.4053C109.133 13.6676 106.84 15.2214 106.84 15.2214C106.84 15.2214 107.431 11.0779 103.288 10.19C101.068 9.7461 97.22 10.412 93.6682 11.3739C90.5603 12.1878 87.7484 13.2977 86.7125 13.9636C87.8964 10.856 81.8287 10.856 80.6448 14.9255C79.5348 12.2618 74.0591 16.9972 72.3571 22.6205C72.3571 22.6945 72.3572 22.7685 72.2832 22.8425C72.2832 22.8425 71.0992 23.2124 69.6933 23.9523C69.3233 24.1743 68.9533 24.3223 68.5833 24.6182C67.5474 25.2842 66.5854 26.172 65.9935 27.2079C64.1436 26.246 61.1097 26.246 60.5177 27.2079C59.9257 24.8402 57.1879 21.5846 52.5261 22.6205C52.3781 22.6205 52.2301 22.6945 52.0821 22.6945C50.0842 17.5151 45.3485 11.0039 42.0926 11.4479C38.8368 11.8178 34.175 13.9636 34.693 18.403C33.805 17.9591 32.991 17.5151 32.3991 17.1452C32.2511 17.0712 32.1031 16.9232 31.9551 16.8492C31.3631 16.4053 30.8452 15.9613 30.4752 15.6654C30.3272 15.5174 30.2532 15.4434 30.1792 15.2954C30.1792 15.2954 30.1792 15.2954 30.1792 15.2214C30.1052 15.1474 30.0312 15.0734 30.0312 14.9994C29.8092 14.7035 29.6612 14.4815 29.5872 14.3335C29.5132 14.2595 29.5132 14.1855 29.5132 14.1855C29.5132 14.1116 29.5132 14.1116 29.5132 14.1116C29.5132 14.1116 32.9911 8.78421 27.8113 3.97481C27.5893 3.82683 27.4413 3.60486 27.2193 3.45688C23.0015 -0.0946748 17.4518 -0.686599 16.1198 1.82909C15.8239 2.34702 15.6759 3.08693 15.8239 3.90083C14.418 3.16092 12.3461 2.79097 10.2742 2.93895C6.64832 3.08693 3.17048 4.49275 3.83645 6.93445C4.8724 10.708 3.24449 9.22816 2.50452 9.59812C1.54257 10.264 -0.67735 12.7797 2.80048 16.0353Z" fill="url(#paint6_radial)"/>
<path opacity="0.1" d="M2.80048 16.0353C3.68844 16.9232 4.50243 17.5891 5.0944 18.255C6.87031 19.9568 7.53626 20.7707 7.38827 21.1407C7.16628 21.6586 7.53629 22.1765 9.31221 23.1384C9.3862 23.2124 9.53417 23.2864 9.60816 23.2864C9.53417 23.3604 9.46018 23.4344 9.38618 23.5824C8.79421 24.7662 8.72022 27.7259 10.8661 28.0958C13.16 28.5398 13.678 28.9097 13.974 30.3895C14.27 31.7953 15.8979 33.4231 19.3017 32.5353C20.1897 32.3133 21.2996 31.9433 22.4836 31.4994C23.5195 31.1294 24.7035 30.6855 25.8134 30.2415C26.8494 29.8716 27.8853 29.5016 28.8472 29.2057C30.1052 28.8357 31.1412 28.5397 31.8811 28.5397C33.0651 28.5397 35.0629 28.3178 37.3568 28.3178C38.2448 28.3178 39.2068 28.3178 40.2427 28.3918C42.2406 28.5397 44.2385 28.9097 46.1624 29.6496C48.0123 30.3895 50.3062 31.7213 52.6001 32.9792C53.3401 33.3491 54.0801 33.7931 54.82 34.0891C55.708 34.533 56.6699 34.903 57.4839 35.1989C58.2978 35.4949 59.1118 35.7169 59.9258 35.8648C61.4057 36.0868 62.8116 35.9388 63.9216 35.1249C68.3614 32.0173 71.5432 28.0218 75.021 28.5397C76.057 28.6877 77.3889 28.9837 78.7948 29.4276C79.7568 29.7236 80.7928 30.0196 81.8287 30.2415C84.4926 30.9814 87.0824 31.5734 88.2664 31.1294C88.9324 30.9074 89.5243 30.6115 90.1163 30.1676C91.0042 29.5016 91.6702 28.6877 91.5222 27.7259C91.4482 27.1339 91.0043 26.542 90.1903 25.9501C90.7823 25.5061 92.0402 25.2102 93.3722 25.0622C94.6301 24.9142 95.962 24.9142 97.146 25.0622C98.4039 25.2102 99.3659 25.5801 99.5879 26.0241C99.5879 26.0241 99.8098 26.838 100.254 27.9478C101.364 30.6115 104.102 34.681 108.837 30.6855C112.019 32.3873 116.163 29.5016 112.611 24.1003C112.167 22.1765 111.057 21.0667 110.983 20.9927C110.983 20.9927 113.943 19.0689 111.575 16.4053C109.133 13.6676 106.84 15.2214 106.84 15.2214C106.84 15.2214 107.431 11.0779 103.288 10.19C101.068 9.7461 97.22 10.412 93.6682 11.3739C90.5603 12.1878 87.7484 13.2977 86.7125 13.9636C87.8964 10.856 81.8287 10.856 80.6448 14.9255C79.5348 12.2618 74.0591 16.9972 72.3571 22.6205C72.3571 22.6945 72.3572 22.7685 72.2832 22.8425C72.2832 22.8425 71.0992 23.2124 69.6933 23.9523C69.3233 24.1743 68.9533 24.3223 68.5833 24.6182C67.5474 25.2842 66.5854 26.172 65.9935 27.2079C64.1436 26.246 61.1097 26.246 60.5177 27.2079C59.9257 24.8402 57.1879 21.5846 52.5261 22.6205C52.3781 22.6205 52.2301 22.6945 52.0821 22.6945C50.0842 17.5151 45.3485 11.0039 42.0926 11.4479C38.8368 11.8178 34.175 13.9636 34.693 18.403C33.805 17.9591 32.991 17.5151 32.3991 17.1452C32.2511 17.0712 32.1031 16.9232 31.9551 16.8492C31.3631 16.4053 30.8452 15.9613 30.4752 15.6654C30.3272 15.5174 30.2532 15.4434 30.1792 15.2954C30.1792 15.2954 30.1792 15.2954 30.1792 15.2214C30.1052 15.1474 30.0312 15.0734 30.0312 14.9994C29.8092 14.7035 29.6612 14.4815 29.5872 14.3335C29.5132 14.2595 29.5132 14.1855 29.5132 14.1855C29.5132 14.1116 29.5132 14.1116 29.5132 14.1116C29.5132 14.1116 32.9911 8.78421 27.8113 3.97481C27.5893 3.82683 27.4413 3.60486 27.2193 3.45688C23.0015 -0.0946748 17.4518 -0.686599 16.1198 1.82909C15.8239 2.34702 15.6759 3.08693 15.8239 3.90083C14.418 3.16092 12.3461 2.79097 10.2742 2.93895C6.64832 3.08693 3.17048 4.49275 3.83645 6.93445C4.8724 10.708 3.24449 9.22816 2.50452 9.59812C1.54257 10.264 -0.67735 12.7797 2.80048 16.0353Z" fill="url(#paint7_linear)"/>
<path opacity="0.8" d="M110.909 21.1406C110.909 21.1406 112.019 24.4702 110.909 25.0621C110.909 25.0621 113.721 28.5397 109.725 29.0576C105.73 29.5756 107.284 31.4253 105.508 31.1294C103.732 30.8334 100.994 26.9859 101.216 26.5419C101.512 26.098 105.878 28.3177 106.544 27.4298C107.136 26.5419 109.207 27.6518 109.429 26.246C109.651 24.8402 108.763 23.6563 109.355 23.2124C109.873 22.7684 110.909 21.1406 110.909 21.1406Z" fill="url(#paint8_linear)"/>
<path opacity="0.8" d="M88.3404 25.802C88.3404 25.802 91.3743 29.8715 88.3404 29.9455C85.3066 30.0195 76.871 27.9477 74.4291 27.8737C71.9872 27.7998 74.2811 26.5419 77.7589 26.9859C81.1628 27.3558 88.7844 28.9836 88.3404 25.802Z" fill="url(#paint9_linear)"/>
<path opacity="0.8" d="M111.131 18.329C111.131 18.329 110.835 15.1474 106.692 15.4434C105.804 13.1497 105.212 8.93219 90.1164 14.0375C95.3701 14.0375 102.992 13.0017 103.88 14.0375C104.768 15.0734 105.434 17.5891 106.544 17.0712C107.58 16.4053 111.131 18.329 111.131 18.329Z" fill="url(#paint10_linear)"/>
<path opacity="0.8" d="M27.1454 28.0959C27.1454 28.0959 16.4899 32.3874 16.0459 30.5376C15.6019 28.6878 12.7901 27.9479 11.5321 27.356C10.2742 26.7641 10.1262 21.3627 10.1262 21.3627L8.86823 20.4749C8.86823 20.4749 11.3841 20.6968 11.6801 21.3627C11.9761 22.0287 13.382 24.6923 14.7879 24.9883C16.1939 25.2843 17.5998 27.208 19.0057 27.356C20.4117 27.504 27.1454 28.0959 27.1454 28.0959Z" fill="url(#paint11_linear)"/>
<path opacity="0.8" d="M38.3928 26.32C38.3928 26.32 18.3398 19.8088 16.6378 19.5129C14.9359 19.2169 14.492 20.4747 14.862 20.4747C15.1579 20.4747 21.5216 22.3245 21.5956 22.9164C21.6696 23.5084 30.0312 24.5442 30.6972 25.0622C31.4371 25.5061 38.3928 26.32 38.3928 26.32Z" fill="url(#paint12_linear)"/>
<path opacity="0.8" d="M22.4096 12.3359C22.4096 12.3359 15.3799 5.6027 16.4159 3.23499C17.4518 0.867289 25.4434 2.93903 24.2595 3.23499C23.0755 3.45697 15.8979 3.90091 22.4096 12.3359Z" fill="url(#paint13_linear)"/>
<path opacity="0.2" d="M10.9402 18.3292C13.974 17.5153 26.9234 21.9547 28.1814 22.3247H28.2553L33.5831 24.1744L39.7248 26.2462C39.7988 26.2462 39.7988 26.3202 39.8728 26.3202L40.0208 26.3942C40.0948 26.3942 40.0948 26.3942 40.1688 26.3942C42.2407 26.6161 44.9786 27.948 45.2005 28.0219C45.3485 27.874 47.7904 25.6542 48.6783 25.6542C48.8263 25.6542 48.9744 25.6542 49.1223 25.7282C49.4183 25.8022 49.6403 25.9502 49.8623 26.0982C50.3063 26.3942 50.6023 26.7641 50.6023 26.7641C50.6023 26.7641 50.8983 26.9121 51.4902 27.1341C52.9702 27.726 56.078 29.0578 59.1119 30.3157C61.1098 30.0937 62.6637 29.4278 63.7736 28.7619C65.1056 28.0219 65.7715 27.282 65.7715 27.282C63.9216 26.3202 60.8878 26.3202 60.2958 27.282C59.7038 24.9143 56.966 21.6587 52.3042 22.6946C52.1562 22.6946 52.0082 22.7686 51.8602 22.7686C49.8623 17.5893 45.1265 11.0781 41.8707 11.522C38.6149 11.892 33.9531 14.0377 34.4711 18.4771C33.5831 18.0332 32.7691 17.5893 32.1771 17.2193C32.0292 17.1453 31.8812 16.9973 31.7332 16.9233C31.1412 16.4794 30.6232 16.0354 30.2533 15.7395C30.1053 15.5915 30.0312 15.5175 29.9573 15.3695C29.9573 15.3695 29.9573 15.3695 29.9573 15.2955C29.8833 15.2215 29.8092 15.1476 29.8092 15.0736C29.5873 14.7776 29.4393 14.5556 29.3653 14.4077C29.2913 14.3337 29.2913 14.2597 29.2913 14.2597C29.2913 14.1857 29.2913 14.1857 29.2913 14.1857C29.2913 14.1857 32.7691 8.85834 27.5894 4.04894C27.3674 3.90096 27.2194 3.67899 26.9974 3.53101C30.6972 8.78435 28.1073 14.2597 26.9974 16.1094C26.9234 16.2574 26.8494 16.4054 26.7754 16.4794C26.6274 16.7014 26.5534 16.7754 26.5534 16.7754L29.0693 20.6229C29.0693 20.6229 28.6993 20.5489 28.0334 20.3269C27.0714 20.1049 25.4435 19.661 23.5936 19.291H23.5196C23.3716 19.291 23.2976 19.2171 23.1496 19.2171C18.3398 18.4032 12.2721 17.3673 10.9402 18.3292Z" fill="#0071BC"/>
<path opacity="0.8" d="M11.2361 3.67896C11.2361 3.67896 4.50246 4.86281 4.87244 8.1184C5.24242 11.374 2.57852 10.6341 2.43052 11.448C2.28253 12.2619 4.28047 15.1475 4.50246 13.8897C4.72445 12.5578 6.20436 12.4099 6.79633 10.93C7.4623 9.45023 7.0183 6.34262 8.72022 6.19464C10.4961 6.04665 11.2361 3.67896 11.2361 3.67896Z" fill="url(#paint14_linear)"/>
<path opacity="0.8" d="M68.9533 29.9456C68.9533 29.9456 60.5177 34.9769 49.7142 30.9814C55.9299 34.681 60.5917 38.3065 68.9533 29.9456Z" fill="url(#paint15_linear)"/>
<path opacity="0.8" d="M49.7142 19.5128C49.7142 19.5128 45.0524 12.5577 42.3146 12.8537C39.5767 13.1496 34.9149 16.4792 34.9149 18.6989C35.9509 19.2169 37.5048 20.4007 37.5048 20.4007C37.5048 20.4007 34.9889 19.0689 36.9868 17.6631C38.9847 16.2572 41.7966 14.4075 43.2765 15.1474C44.8304 15.9613 49.7142 19.5128 49.7142 19.5128Z" fill="url(#paint16_linear)"/>
<path opacity="0.8" d="M56.078 30.0195C56.078 30.0195 54.0801 29.3536 52.6741 28.3178C51.2682 27.2819 50.5283 26.616 49.6403 26.616C48.7523 26.616 44.6825 28.3178 44.6825 28.3178C44.6825 28.3178 47.7904 27.7998 48.8263 27.7998C49.8623 27.8738 56.078 30.0195 56.078 30.0195Z" fill="url(#paint17_linear)"/>
<path d="M50.6762 26.838C50.7502 26.912 50.8982 26.9859 51.1202 27.2079C52.6001 28.2438 57.0399 31.2034 59.1858 30.3895C59.2598 30.3895 59.3338 30.3155 59.3338 30.3155C59.3338 30.3155 58.1499 26.32 56.5959 26.172C55.116 26.0241 50.3802 26.542 50.6762 26.838Z" fill="#81D0D3"/>
<path opacity="0.1" d="M50.6762 26.838C50.7502 26.912 50.8982 26.9859 51.1202 27.2079C52.6001 28.2438 57.0399 31.2034 59.1858 30.3895C59.2598 30.3895 59.3338 30.3155 59.3338 30.3155C59.3338 30.3155 58.1499 26.32 56.5959 26.172C55.116 26.0241 50.3802 26.542 50.6762 26.838Z" fill="url(#paint18_linear)"/>
<path d="M40.3908 22.3245C40.3908 22.3985 40.4647 22.5465 40.5387 22.6205C41.2787 23.8783 44.2385 26.542 45.1265 28.0218C46.1625 27.5039 48.2344 26.764 49.3443 26.32C49.7883 26.1721 50.0843 26.0241 50.0843 26.0241C50.0843 26.0241 43.1286 19.2169 41.8707 19.4389C40.6127 19.6609 39.6508 20.3268 40.3908 21.0667C41.1307 21.8806 40.1688 21.3627 40.3908 22.3245Z" fill="#81D0D3"/>
<path opacity="0.1" d="M40.3908 22.3245C40.3908 22.3985 40.4647 22.5465 40.5387 22.6205C41.2787 23.8783 44.2385 26.542 45.1265 28.0218C46.1625 27.5039 48.2344 26.764 49.3443 26.32C49.7883 26.1721 50.0843 26.0241 50.0843 26.0241C50.0843 26.0241 43.1286 19.2169 41.8707 19.4389C40.6127 19.6609 39.6508 20.3268 40.3908 21.0667C41.1307 21.8806 40.1688 21.3627 40.3908 22.3245Z" fill="url(#paint19_linear)"/>
<path d="M23.9636 15.8873C25.9615 17.3671 29.2913 21.5846 28.1073 22.3245H28.1814L40.0948 26.468C39.2808 25.8021 26.0355 15.2954 23.9636 14.3335C21.8917 13.3716 21.9657 14.4075 23.9636 15.8873Z" fill="#81D0D3"/>
<path opacity="0.1" d="M23.9636 15.8873C25.9615 17.3671 29.2913 21.5846 28.1073 22.3245H28.1814L40.0948 26.468C39.2808 25.8021 26.0355 15.2954 23.9636 14.3335C21.8917 13.3716 21.9657 14.4075 23.9636 15.8873Z" fill="url(#paint20_linear)"/>
<path d="M20.6337 17.737C20.6337 17.737 20.7076 17.811 20.9296 18.033C21.5216 18.5509 22.7795 19.5868 23.8895 19.5128C24.1855 19.5128 24.2595 19.3648 24.2595 19.2168C24.2595 18.6249 22.4096 17.2931 22.4096 17.2931C21.2996 16.3312 20.6337 17.737 20.6337 17.737Z" fill="#81D0D3"/>
<path opacity="0.1" d="M20.6337 17.737C20.6337 17.737 20.7076 17.811 20.9296 18.033C21.5216 18.5509 22.7795 19.5868 23.8895 19.5128C24.1855 19.5128 24.2595 19.3648 24.2595 19.2168C24.2595 18.6249 22.4096 17.2931 22.4096 17.2931C21.2996 16.3312 20.6337 17.737 20.6337 17.737Z" fill="url(#paint21_linear)"/>
<path opacity="0.2" d="M50.6762 26.838C50.7502 26.912 50.8982 26.9859 51.1202 27.2079C52.3042 27.2079 54.524 27.1339 55.782 27.0599C57.4099 26.9859 59.1858 30.3895 59.1858 30.3895C59.2598 30.3895 59.3338 30.3155 59.3338 30.3155C59.3338 30.3155 58.1499 26.32 56.5959 26.172C55.116 26.0241 50.3802 26.542 50.6762 26.838Z" fill="#0071BC"/>
<path opacity="0.2" d="M40.3908 22.3245C40.3908 22.3985 40.4647 22.5465 40.5387 22.6205C40.9087 22.4725 41.3527 22.3245 41.3527 22.0286C41.3527 21.5846 41.5007 21.4367 42.3146 20.9187C43.1286 20.3268 49.2703 26.2461 49.2703 26.2461L49.3443 26.32C49.7883 26.1721 50.0843 26.0241 50.0843 26.0241C50.0843 26.0241 43.1286 19.2169 41.8707 19.4389C40.6127 19.6609 39.6508 20.3268 40.3908 21.0667C41.1307 21.8806 40.1688 21.3627 40.3908 22.3245Z" fill="#0071BC"/>
<path opacity="0.2" d="M23.9636 15.8875C25.9615 17.3673 29.2913 21.5847 28.1073 22.3246H28.1814C28.5513 21.8807 28.9953 21.3628 28.9953 20.7708C28.9953 19.809 26.1834 16.6274 25.8874 16.1094C25.6655 15.6655 39.2808 25.7282 40.0948 26.3941C39.2808 25.7282 26.0355 15.2215 23.9636 14.2597C21.8917 13.3718 21.9657 14.4076 23.9636 15.8875Z" fill="#0071BC"/>
<path opacity="0.2" d="M20.6337 17.7371C20.6337 17.7371 20.7076 17.8111 20.9296 18.033C21.8916 17.2191 23.8155 18.8469 24.3335 19.2909C24.3335 18.699 22.4836 17.3671 22.4836 17.3671C21.2996 16.3312 20.6337 17.7371 20.6337 17.7371Z" fill="#0071BC"/>
<path opacity="0.2" d="M17.6738 8.34025C17.5998 8.19227 17.4518 7.9703 17.1558 7.60034C17.3038 7.82231 17.4518 8.11828 17.6738 8.34025Z" fill="#0071BC"/>
<path opacity="0.2" d="M10.0522 3.23486C13.9001 3.90078 16.1939 6.26849 17.1559 7.52633C15.602 4.93665 15.8239 2.42096 15.8979 2.125C15.602 2.64294 15.454 3.38285 15.602 4.19674C14.196 3.45684 12.1241 3.16087 10.0522 3.23486Z" fill="#0071BC"/>
<path opacity="0.2" d="M9.60815 23.2864C9.53415 23.3604 9.46017 23.4344 9.38617 23.5823C9.68216 23.4344 9.75614 23.3604 9.60815 23.2864Z" fill="#0071BC"/>
<path opacity="0.2" d="M7.38834 21.1408C7.16635 21.6587 7.53636 22.1766 9.31228 23.1385C8.7943 22.6946 8.27632 21.6587 8.05433 20.9188C7.83234 20.0309 10.9402 19.439 9.75624 19.513C8.64629 19.6609 5.24244 18.3291 5.02045 18.2551C6.87036 19.9569 7.53633 20.7708 7.38834 21.1408Z" fill="#0071BC"/>
<path opacity="0.2" d="M72.2093 22.9905C72.2093 22.9905 71.0253 23.3605 69.6194 24.1004C70.7293 23.7304 72.8752 23.5085 76.723 24.7663C80.9408 21.5107 83.3827 20.1789 83.3827 20.1789C83.3827 20.1789 83.3827 19.9569 83.5307 19.661C84.0487 18.1811 86.0466 14.1856 93.5942 11.522C90.4864 12.3359 87.6745 13.4457 86.6386 14.1116C87.8225 11.004 81.7548 11.004 80.5708 15.0735C79.4609 12.4099 73.9852 17.1453 72.2832 22.7686C72.2092 22.9166 72.2093 22.9905 72.2093 22.9905Z" fill="#0071BC"/>
<path opacity="0.2" d="M92.5583 17.7371C92.5583 17.7371 100.032 17.5151 102.844 19.5128C105.656 21.5106 100.328 19.3649 99.1439 19.5128C97.96 19.6608 89.4504 20.3267 87.6745 20.4747C86.0466 20.5487 92.5583 17.7371 92.5583 17.7371Z" fill="#0071BC"/>
<path opacity="0.2" d="M84.6406 21.3625C84.6406 21.3625 89.7464 23.4343 87.4525 23.5083C85.1586 23.5823 81.5327 22.2504 79.9048 22.9163C83.3826 20.1787 84.6406 21.3625 84.6406 21.3625Z" fill="#0071BC"/>
<path d="M81.0888 22.3985C82.1987 21.6586 87.1564 20.8447 88.5624 20.6967C88.7104 20.6967 88.8584 20.6967 88.8584 20.6967C89.4504 20.6967 92.4842 17.7371 92.4842 17.7371C92.4842 17.7371 83.0867 18.255 78.4989 22.5465C78.3509 22.6944 78.2769 22.7684 78.1289 22.9164C73.7631 27.5038 79.9048 23.2864 81.0888 22.3985Z" fill="#81D0D3"/>
<path opacity="0.1" d="M81.0888 22.3985C82.1987 21.6586 87.1564 20.8447 88.5624 20.6967C88.7104 20.6967 88.8584 20.6967 88.8584 20.6967C89.4504 20.6967 92.4842 17.7371 92.4842 17.7371C92.4842 17.7371 83.0867 18.255 78.4989 22.5465C78.3509 22.6944 78.2769 22.7684 78.1289 22.9164C73.7631 27.5038 79.9048 23.2864 81.0888 22.3985Z" fill="url(#paint22_linear)"/>
<path opacity="0.2" d="M88.6363 20.6967C88.7843 20.6967 88.9323 20.6967 88.9323 20.6967C89.5243 20.6967 92.5582 17.7371 92.5582 17.7371C92.5582 17.7371 83.1606 18.255 78.5728 22.5465C81.2367 20.1048 88.0444 19.1429 89.0063 19.1429C89.8203 19.1429 89.0063 20.2527 88.6363 20.6967Z" fill="#0071BC"/>
<path opacity="0.8" d="M78.6469 24.7661C78.6469 24.7661 77.537 25.654 75.3911 24.9881C73.2452 24.3962 70.0633 24.2482 69.4713 24.7661C68.9534 25.2101 65.6235 28.7616 64.6616 29.1316C63.6256 29.5015 67.9174 28.6136 69.0273 27.1338C70.1373 25.654 71.1733 25.802 72.5792 25.728C73.9111 25.654 77.6849 26.024 78.6469 24.7661Z" fill="url(#paint23_linear)"/>
<defs>
<radialGradient id="paint0_radial" cx="0" cy="0" r="1" gradientUnits="userSpaceOnUse" gradientTransform="translate(63.0811 34.2928) rotate(180) scale(46.5241 46.5205)">
<stop stop-color="white"/>
<stop offset="0.2169" stop-color="#FCFCFD"/>
<stop offset="0.3559" stop-color="#F4F4F8"/>
<stop offset="0.4731" stop-color="#E6E5EE"/>
<stop offset="0.5781" stop-color="#D1D0E0"/>
<stop offset="0.6751" stop-color="#B7B5CE"/>
<stop offset="0.7661" stop-color="#9793B8"/>
<stop offset="0.8525" stop-color="#706C9E"/>
<stop offset="0.9331" stop-color="#453F81"/>
<stop offset="1" stop-color="#1B1464"/>
</radialGradient>
<linearGradient id="paint1_linear" x1="63.3148" y1="51.1348" x2="63.3148" y2="26.7259" gradientUnits="userSpaceOnUse">
<stop stop-color="white"/>
<stop offset="0.2169" stop-color="#FCFCFD"/>
<stop offset="0.3559" stop-color="#F4F4F8"/>
<stop offset="0.4731" stop-color="#E6E5EE"/>
<stop offset="0.5781" stop-color="#D1D0E0"/>
<stop offset="0.6751" stop-color="#B7B5CE"/>
<stop offset="0.7661" stop-color="#9793B8"/>
<stop offset="0.8525" stop-color="#706C9E"/>
<stop offset="0.9331" stop-color="#453F81"/>
<stop offset="1" stop-color="#1B1464"/>
</linearGradient>
<linearGradient id="paint2_linear" x1="95.0029" y1="39.4558" x2="87.074" y2="32.3479" gradientUnits="userSpaceOnUse">
<stop/>
<stop offset="1" stop-color="white"/>
</linearGradient>
<linearGradient id="paint3_linear" x1="84.1322" y1="42.4596" x2="74.9535" y2="34.2314" gradientUnits="userSpaceOnUse">
<stop/>
<stop offset="1" stop-color="white"/>
</linearGradient>
<linearGradient id="paint4_linear" x1="64.2737" y1="46.6051" x2="40.3944" y2="25.1986" gradientUnits="userSpaceOnUse">
<stop/>
<stop offset="1" stop-color="white"/>
</linearGradient>
<linearGradient id="paint5_linear" x1="47.7777" y1="49.8915" x2="23.1946" y2="27.854" gradientUnits="userSpaceOnUse">
<stop/>
<stop offset="1" stop-color="white"/>
</linearGradient>
<radialGradient id="paint6_radial" cx="0" cy="0" r="1" gradientUnits="userSpaceOnUse" gradientTransform="translate(57.2359 15.2904) rotate(180) scale(62.3374 62.3326)">
<stop stop-color="white"/>
<stop offset="0.2169" stop-color="#FCFCFD"/>
<stop offset="0.3559" stop-color="#F4F4F8"/>
<stop offset="0.4731" stop-color="#E6E5EE"/>
<stop offset="0.5781" stop-color="#D1D0E0"/>
<stop offset="0.6751" stop-color="#B7B5CE"/>
<stop offset="0.7661" stop-color="#9793B8"/>
<stop offset="0.8525" stop-color="#706C9E"/>
<stop offset="0.9331" stop-color="#453F81"/>
<stop offset="1" stop-color="#1B1464"/>
</radialGradient>
<linearGradient id="paint7_linear" x1="57.3961" y1="36.0254" x2="57.3961" y2="7.1252" gradientUnits="userSpaceOnUse">
<stop stop-color="white"/>
<stop offset="0.2169" stop-color="#FCFCFD"/>
<stop offset="0.3559" stop-color="#F4F4F8"/>
<stop offset="0.4731" stop-color="#E6E5EE"/>
<stop offset="0.5781" stop-color="#D1D0E0"/>
<stop offset="0.6751" stop-color="#B7B5CE"/>
<stop offset="0.7661" stop-color="#9793B8"/>
<stop offset="0.8525" stop-color="#706C9E"/>
<stop offset="0.9331" stop-color="#453F81"/>
<stop offset="1" stop-color="#1B1464"/>
</linearGradient>
<linearGradient id="paint8_linear" x1="113.532" y1="22.1122" x2="102.394" y2="30.3199" gradientUnits="userSpaceOnUse">
<stop/>
<stop offset="1" stop-color="white"/>
</linearGradient>
<linearGradient id="paint9_linear" x1="88.6411" y1="23.1863" x2="75.6756" y2="32.7405" gradientUnits="userSpaceOnUse">
<stop/>
<stop offset="1" stop-color="white"/>
</linearGradient>
<linearGradient id="paint10_linear" x1="108.362" y1="10.4466" x2="93.7935" y2="21.1819" gradientUnits="userSpaceOnUse">
<stop/>
<stop offset="1" stop-color="white"/>
</linearGradient>
<linearGradient id="paint11_linear" x1="23.4347" y1="20.2452" x2="11.3186" y2="29.1736" gradientUnits="userSpaceOnUse">
<stop/>
<stop offset="1" stop-color="white"/>
</linearGradient>
<linearGradient id="paint12_linear" x1="34.4763" y1="17.3982" x2="19.135" y2="28.7032" gradientUnits="userSpaceOnUse">
<stop/>
<stop offset="1" stop-color="white"/>
</linearGradient>
<linearGradient id="paint13_linear" x1="25.6663" y1="3.05091" x2="18.1108" y2="8.61851" gradientUnits="userSpaceOnUse">
<stop/>
<stop offset="1" stop-color="white"/>
</linearGradient>
<linearGradient id="paint14_linear" x1="13.5004" y1="3.95487" x2="1.49166" y2="12.8042" gradientUnits="userSpaceOnUse">
<stop/>
<stop offset="1" stop-color="white"/>
</linearGradient>
<linearGradient id="paint15_linear" x1="67.7125" y1="24.5041" x2="51.7844" y2="36.2415" gradientUnits="userSpaceOnUse">
<stop/>
<stop offset="1" stop-color="white"/>
</linearGradient>
<linearGradient id="paint16_linear" x1="47.8345" y1="14.2262" x2="36.4672" y2="22.6028" gradientUnits="userSpaceOnUse">
<stop/>
<stop offset="1" stop-color="white"/>
</linearGradient>
<linearGradient id="paint17_linear" x1="54.5917" y1="26.1034" x2="46.5241" y2="32.0484" gradientUnits="userSpaceOnUse">
<stop/>
<stop offset="1" stop-color="white"/>
</linearGradient>
<linearGradient id="paint18_linear" x1="54.9992" y1="30.54" x2="54.9992" y2="26.9602" gradientUnits="userSpaceOnUse">
<stop stop-color="white"/>
<stop offset="0.2169" stop-color="#FCFCFD"/>
<stop offset="0.3559" stop-color="#F4F4F8"/>
<stop offset="0.4731" stop-color="#E6E5EE"/>
<stop offset="0.5781" stop-color="#D1D0E0"/>
<stop offset="0.6751" stop-color="#B7B5CE"/>
<stop offset="0.7661" stop-color="#9793B8"/>
<stop offset="0.8525" stop-color="#706C9E"/>
<stop offset="0.9331" stop-color="#453F81"/>
<stop offset="1" stop-color="#1B1464"/>
</linearGradient>
<linearGradient id="paint19_linear" x1="45.1263" y1="28.0737" x2="45.1263" y2="21.122" gradientUnits="userSpaceOnUse">
<stop stop-color="white"/>
<stop offset="0.2169" stop-color="#FCFCFD"/>
<stop offset="0.3559" stop-color="#F4F4F8"/>
<stop offset="0.4731" stop-color="#E6E5EE"/>
<stop offset="0.5781" stop-color="#D1D0E0"/>
<stop offset="0.6751" stop-color="#B7B5CE"/>
<stop offset="0.7661" stop-color="#9793B8"/>
<stop offset="0.8525" stop-color="#706C9E"/>
<stop offset="0.9331" stop-color="#453F81"/>
<stop offset="1" stop-color="#1B1464"/>
</linearGradient>
<linearGradient id="paint20_linear" x1="31.2882" y1="26.4607" x2="31.2882" y2="16.2851" gradientUnits="userSpaceOnUse">
<stop stop-color="white"/>
<stop offset="0.2169" stop-color="#FCFCFD"/>
<stop offset="0.3559" stop-color="#F4F4F8"/>
<stop offset="0.4731" stop-color="#E6E5EE"/>
<stop offset="0.5781" stop-color="#D1D0E0"/>
<stop offset="0.6751" stop-color="#B7B5CE"/>
<stop offset="0.7661" stop-color="#9793B8"/>
<stop offset="0.8525" stop-color="#706C9E"/>
<stop offset="0.9331" stop-color="#453F81"/>
<stop offset="1" stop-color="#1B1464"/>
</linearGradient>
<linearGradient id="paint21_linear" x1="22.4434" y1="19.5388" x2="22.4434" y2="17.453" gradientUnits="userSpaceOnUse">
<stop stop-color="white"/>
<stop offset="0.2169" stop-color="#FCFCFD"/>
<stop offset="0.3559" stop-color="#F4F4F8"/>
<stop offset="0.4731" stop-color="#E6E5EE"/>
<stop offset="0.5781" stop-color="#D1D0E0"/>
<stop offset="0.6751" stop-color="#B7B5CE"/>
<stop offset="0.7661" stop-color="#9793B8"/>
<stop offset="0.8525" stop-color="#706C9E"/>
<stop offset="0.9331" stop-color="#453F81"/>
<stop offset="1" stop-color="#1B1464"/>
</linearGradient>
<linearGradient id="paint22_linear" x1="84.6105" y1="25.0306" x2="84.6105" y2="19.1133" gradientUnits="userSpaceOnUse">
<stop stop-color="white"/>
<stop offset="0.2169" stop-color="#FCFCFD"/>
<stop offset="0.3559" stop-color="#F4F4F8"/>
<stop offset="0.4731" stop-color="#E6E5EE"/>
<stop offset="0.5781" stop-color="#D1D0E0"/>
<stop offset="0.6751" stop-color="#B7B5CE"/>
<stop offset="0.7661" stop-color="#9793B8"/>
<stop offset="0.8525" stop-color="#706C9E"/>
<stop offset="0.9331" stop-color="#453F81"/>
<stop offset="1" stop-color="#1B1464"/>
</linearGradient>
<linearGradient id="paint23_linear" x1="78.5655" y1="21.4691" x2="64.6994" y2="31.687" gradientUnits="userSpaceOnUse">
<stop/>
<stop offset="1" stop-color="white"/>
</linearGradient>
</defs>
</svg>
