<svg width="335" height="73" viewBox="0 0 335 73" fill="none" xmlns="http://www.w3.org/2000/svg">
<path d="M104.293 54.5807C105.329 54.4327 109.325 54.5807 112.359 54.7287C115.393 54.8767 116.724 54.5807 117.908 54.2847C119.092 53.9147 116.354 53.4708 113.173 53.6188C109.991 53.7668 105.921 53.6928 103.479 53.7668C103.479 53.7668 103.257 54.7287 104.293 54.5807Z" fill="#D9F7FF"/>
<path d="M104.293 54.5807C105.329 54.4327 109.325 54.5807 112.359 54.7287C115.393 54.8767 116.724 54.5807 117.908 54.2847C119.092 53.9147 116.354 53.4708 113.173 53.6188C109.991 53.7668 105.921 53.6928 103.479 53.7668C103.479 53.7668 103.257 54.7287 104.293 54.5807Z" fill="url(#paint0_radial)"/>
<path opacity="0.1" d="M104.293 54.5807C105.329 54.4327 109.325 54.5807 112.359 54.7287C115.393 54.8767 116.724 54.5807 117.908 54.2847C119.092 53.9147 116.354 53.4708 113.173 53.6188C109.991 53.7668 105.921 53.6928 103.479 53.7668C103.479 53.7668 103.257 54.7287 104.293 54.5807Z" fill="url(#paint1_linear)"/>
<path d="M131.006 54.4325C131.006 54.4325 142.031 54.8765 150.911 55.0985C154.389 55.1724 157.496 55.2464 159.568 55.2464C160.826 55.2464 161.714 55.2464 161.936 55.1724C163.564 54.8025 173.48 55.2464 175.33 55.2464C177.179 55.2464 183.025 55.8383 183.025 54.6545C183.025 54.4325 181.619 54.2845 181.397 54.2845C181.175 54.3585 180.583 53.9146 180.213 53.6926C179.843 53.4706 160.456 52.8047 160.456 53.1747C160.456 53.5446 158.902 53.7666 158.754 53.8406C158.754 53.8406 158.384 53.8406 157.792 53.8406C156.682 53.8406 154.685 53.7666 152.317 53.7666C144.251 53.6186 131.45 53.3227 131.45 53.5446C131.45 53.9146 131.006 54.4325 131.006 54.4325Z" fill="#D9F7FF"/>
<path d="M131.006 54.4325C131.006 54.4325 142.031 54.8765 150.911 55.0985C154.389 55.1724 157.496 55.2464 159.568 55.2464C160.826 55.2464 161.714 55.2464 161.936 55.1724C163.564 54.8025 173.48 55.2464 175.33 55.2464C177.179 55.2464 183.025 55.8383 183.025 54.6545C183.025 54.4325 181.619 54.2845 181.397 54.2845C181.175 54.3585 180.583 53.9146 180.213 53.6926C179.843 53.4706 160.456 52.8047 160.456 53.1747C160.456 53.5446 158.902 53.7666 158.754 53.8406C158.754 53.8406 158.384 53.8406 157.792 53.8406C156.682 53.8406 154.685 53.7666 152.317 53.7666C144.251 53.6186 131.45 53.3227 131.45 53.5446C131.45 53.9146 131.006 54.4325 131.006 54.4325Z" fill="url(#paint2_radial)"/>
<path opacity="0.1" d="M131.006 54.4325C131.006 54.4325 142.031 54.8765 150.911 55.0985C154.389 55.1724 157.496 55.2464 159.568 55.2464C160.826 55.2464 161.714 55.2464 161.936 55.1724C163.564 54.8025 173.48 55.2464 175.33 55.2464C177.179 55.2464 183.025 55.8383 183.025 54.6545C183.025 54.4325 181.619 54.2845 181.397 54.2845C181.175 54.3585 180.583 53.9146 180.213 53.6926C179.843 53.4706 160.456 52.8047 160.456 53.1747C160.456 53.5446 158.902 53.7666 158.754 53.8406C158.754 53.8406 158.384 53.8406 157.792 53.8406C156.682 53.8406 154.685 53.7666 152.317 53.7666C144.251 53.6186 131.45 53.3227 131.45 53.5446C131.45 53.9146 131.006 54.4325 131.006 54.4325Z" fill="url(#paint3_linear)"/>
<path d="M0.0320435 62.2017C0.0320435 62.2017 0.698002 62.3496 1.73395 62.5716C3.13989 62.9416 5.28578 63.3855 7.28369 63.9775C10.8355 64.9393 14.7573 66.1232 18.0132 66.0492C21.269 65.9752 21.343 65.3833 24.8209 65.9012C28.2987 66.4191 32.4425 67.751 35.1804 67.899C37.9182 67.973 50.9416 67.9729 53.9755 68.7128C57.0093 69.4528 57.8973 69.4527 62.1891 70.0447C66.4809 70.6366 76.6924 70.1187 79.5042 70.0447C82.3161 69.9707 89.2718 69.7487 91.1957 69.8967C93.0456 70.0447 93.9335 71.0806 96.5974 70.8586C99.2613 70.6366 102.369 70.1927 105.255 70.8586C108.141 71.5245 122.126 72.6343 127.01 72.2644C131.894 71.9684 151.281 72.3384 155.499 72.3384C159.716 72.2644 169.04 72.7084 173.036 72.7084C177.032 72.7084 182.951 72.1164 187.095 72.3384C191.239 72.4864 198.195 71.6725 198.639 71.6725C199.083 71.6725 210.996 70.7846 218.1 70.9326C225.203 71.0805 228.607 70.0447 232.677 70.2667C236.747 70.4886 239.781 70.9326 242.814 70.4886C245.848 70.0447 247.846 69.2308 249.326 69.2308C250.806 69.2308 274.855 70.7106 278.999 70.0447C283.068 69.3788 291.356 67.0111 293.206 66.7891C295.13 66.5671 303.048 64.9393 305.933 64.9393C308.819 64.9393 315.923 64.0514 315.923 64.0514C315.923 64.0514 334.57 62.7936 334.274 61.7577C334.274 61.6837 334.274 61.6097 334.274 61.6097C334.052 60.4999 333.534 58.5761 327.392 58.2802C320.955 57.9102 319.105 57.9842 317.033 57.4662C314.887 56.9483 308.227 57.9842 310.151 58.9461C310.521 59.168 318.957 58.5021 320.215 58.9461C321.473 59.39 331.832 60.2039 330.796 60.8698C330.13 61.3138 326.652 62.0537 324.506 62.2756H324.284C324.062 62.2756 323.915 62.2756 323.693 62.2756C323.101 62.2756 322.731 62.2756 322.731 62.0537C322.731 61.3138 322.139 60.5739 321.029 61.0178C319.993 61.4618 315.997 61.6097 315.035 61.2398C314.147 60.8698 314.073 61.6837 312.593 62.2756C311.187 62.8676 302.678 62.4976 299.496 63.2376C296.314 63.9775 289.506 64.9393 286.842 63.9775C284.178 63.0896 280.553 61.5357 280.701 59.316C283.364 59.094 299.792 59.538 300.014 58.6501C300.236 57.7622 299.2 57.1703 296.388 57.2443C293.576 57.3183 280.701 56.6524 280.701 56.6524C280.701 56.6524 280.923 51.695 279.147 51.473C277.297 51.325 276.557 53.3968 276.927 55.1725C273.967 55.3205 272.931 56.1344 271.155 55.9864C269.379 55.8384 265.161 55.3205 265.235 56.0604C265.309 56.8003 276.927 56.8003 276.927 57.1703C276.927 57.5403 277.445 58.5021 276.631 58.4282C275.817 58.3542 275.151 58.5761 274.855 59.538C274.559 60.4999 274.263 65.5312 272.043 65.5312C269.823 65.5312 258.206 65.9752 257.91 66.5671C257.614 67.1591 247.698 67.233 245.33 67.0111C242.962 66.7891 239.559 66.8631 239.411 67.1591C239.263 67.381 237.117 67.603 234.971 67.381C234.971 67.381 234.749 67.381 234.305 67.307C234.083 67.307 233.861 67.233 233.639 67.233C231.123 66.7151 220.467 65.0133 220.467 65.0133C220.467 65.0133 230.901 64.0515 231.641 62.8676C232.381 61.7577 230.975 61.4618 230.087 60.2779C229.273 59.1681 233.713 56.8743 237.857 56.2084C237.857 56.2084 231.493 54.5066 228.385 56.0604C226.905 52.8788 226.609 53.5447 226.609 52.0649C226.609 50.5851 225.721 50.6591 225.425 51.473C225.129 52.2129 222.761 57.6882 221.725 56.4304C220.689 55.1726 218.618 52.1389 218.396 53.0268C218.174 53.9147 216.028 58.7981 214.77 57.4662C213.512 56.2084 211.366 53.4708 211.144 53.8407C210.922 54.2107 209.442 54.9506 209.072 54.2107C208.702 53.4708 208.11 52.3609 206.926 53.9887C205.816 55.5425 204.336 57.7622 203.596 57.7622C203.522 57.7622 203.448 57.7622 203.3 57.7622C202.782 57.6882 202.19 57.3183 201.82 57.1703C201.598 57.0963 201.45 57.0963 201.45 57.2443C201.45 57.6882 198.491 55.7645 198.195 56.3564C197.899 56.9483 197.455 57.9842 196.567 57.6142C195.679 57.2443 194.051 55.8385 192.645 57.1703C191.239 58.4281 190.943 60.5739 189.981 59.908C189.093 59.2421 186.503 57.6882 186.207 58.1322C185.911 58.5021 186.059 58.9461 184.801 57.8362C183.543 56.7263 183.247 56.1344 182.951 56.5044C182.729 56.8743 181.841 58.5021 180.435 58.5021C179.103 58.5021 177.624 58.3542 176.884 57.6882C176.144 57.0223 175.7 56.6524 174.368 57.5403C173.11 58.4281 170.964 58.4281 169.78 58.5021C168.596 58.5761 165.118 58.7241 164.23 58.0582C163.564 57.5403 160.382 55.9865 159.124 55.4685C158.754 55.3205 158.606 55.2465 158.606 55.2465C158.606 55.2465 158.088 54.7286 157.348 54.1367C156.017 53.0268 154.093 51.473 153.797 51.843C153.649 52.1389 152.761 53.1008 151.873 54.0627C151.429 54.5066 150.911 54.9506 150.467 55.3205C149.875 55.7645 149.357 56.1344 149.135 55.9864C148.321 55.6905 145.953 55.7645 145.805 56.1344C145.657 56.5044 143.881 55.8385 142.993 56.4304C142.179 57.0223 141.661 59.316 140.255 58.7981C138.923 58.2802 139.219 56.6524 138.109 56.9483C137.073 57.2443 136.186 56.7264 135.594 56.4304C135.002 56.1344 135.002 56.5784 134.706 57.2443C134.41 57.9102 130.636 57.7622 130.118 57.0223C129.6 56.2824 129.008 53.3228 127.824 53.8407C126.714 54.3587 126.714 55.6165 125.604 53.7667C124.568 51.9169 124.716 50.4371 124.124 51.103C123.532 51.769 124.642 57.6882 124.124 58.8721C123.606 59.9819 121.164 62.2016 121.534 62.6456C121.904 63.0895 135.224 64.7174 139.219 64.7913C143.215 64.8653 161.566 65.6052 165.932 65.6052C170.224 65.6052 183.839 65.6053 187.169 66.1972C190.499 66.7891 196.641 66.7151 196.641 66.7151C196.641 66.7151 194.199 70.8586 193.089 71.0066C191.979 71.1546 178.141 71.8945 172.666 71.0066C167.19 70.1187 156.609 69.8227 152.021 68.7869C147.433 67.825 139.293 69.0088 136.482 69.1568C133.67 69.3048 115.319 72.4864 107.253 68.9348C116.058 66.8631 122.052 64.1254 121.46 64.3474C120.868 64.5694 114.431 64.6434 111.471 65.6792C108.511 66.7151 104.959 67.0851 102.073 67.381C99.1873 67.677 96.2274 68.1209 96.2274 68.1209C96.2274 68.1209 92.3056 63.0895 92.2316 63.5335C92.1576 63.9034 91.8616 66.2712 90.6777 65.6792C89.4938 65.0873 87.1999 61.9797 86.8299 63.3115C86.4599 64.6434 88.1618 65.9752 87.7918 66.7891C87.4218 67.603 81.6501 69.1568 77.3583 68.7869C73.0665 68.4169 64.335 67.9729 65.5189 67.751C66.6288 67.529 76.8403 65.8272 79.8002 65.6792C82.7601 65.5313 78.4683 64.9393 76.3964 65.0873C74.3245 65.2353 59.3772 65.4573 57.3793 66.4191C55.8994 63.3855 54.9374 59.538 54.3455 60.4259C53.7535 61.3138 52.7915 60.7218 52.7915 60.7218L52.2735 58.8721C52.2735 58.8721 78.0983 60.2039 79.3562 60.7218C80.6142 61.1658 80.3922 59.76 79.4302 59.76C78.4683 59.76 69.8107 59.538 70.3287 58.4282C70.8466 57.3183 78.0243 56.2824 83.352 56.4304C88.6798 56.5784 104.367 57.6142 105.403 58.1322C106.365 58.5761 107.105 57.0963 107.105 57.0963C107.105 57.0963 91.4177 55.6905 93.9336 55.6165C96.4494 55.5425 99.4833 53.9147 98.2993 54.2846C97.1894 54.5806 84.832 54.6546 81.8721 54.9506C78.9122 55.2465 71.8826 56.0604 69.5887 57.0223C67.2948 57.9102 52.2735 58.2802 51.9035 57.3923C51.5336 56.5044 51.2376 53.5447 50.2016 54.1367C49.1657 54.7286 49.6836 57.2443 49.3137 57.3183C48.9437 57.3923 43.6159 57.6882 42.654 56.8743C41.692 56.0604 40.1381 55.6165 38.8062 56.5784C37.4743 57.5403 35.2544 57.9102 33.1085 57.6882C30.9626 57.4663 30.9626 57.4663 28.8907 57.7622C26.7448 58.0582 24.1549 57.5403 21.121 58.0582C18.0872 58.5761 17.4212 59.0941 16.4593 59.1681C15.4973 59.2421 10.8355 60.2779 8.91162 60.3519C6.98771 60.4259 5.50776 60.2039 3.06588 61.2398C1.06798 62.1277 0.0320435 62.2017 0.0320435 62.2017ZM14.6094 61.9797C14.3134 61.9057 14.0174 61.9057 13.8694 61.9057C13.2034 62.0537 11.6495 61.5357 13.2774 61.0918C14.8314 60.7218 17.1252 61.3878 19.7891 60.6479C22.453 59.908 20.6771 59.76 24.2289 59.76C27.7807 59.76 25.1908 59.834 31.9245 59.612C38.6582 59.39 46.9458 58.9461 47.6118 58.7981C48.2037 58.7241 49.6836 58.3541 49.6836 58.3541C49.6836 58.3541 49.7577 58.5761 49.7577 58.9461C49.9057 60.1299 50.2016 62.4236 49.6836 62.4236C48.9437 62.4236 48.2777 62.0537 48.1297 62.9416C47.9817 63.7555 47.0938 64.7913 46.9458 65.2353C46.7978 65.6792 47.0198 64.7913 45.9098 64.4214C44.7999 64.0514 37.8442 63.9034 37.7702 64.6434C37.6962 65.3833 35.5503 66.0492 35.1804 65.3093C34.8104 64.5694 33.8484 64.1994 32.8125 64.2734C31.7765 64.3474 32.4425 63.6815 30.5186 63.6815C28.5947 63.6815 27.1147 64.2734 26.5228 63.5335C25.9308 62.7936 23.4149 61.1658 22.379 61.6097C21.343 61.9797 21.565 62.8676 19.0491 62.6456C16.9772 62.6456 15.4973 62.2017 14.6094 61.9797Z" fill="#D9F7FF"/>
<path d="M0.0320435 62.2017C0.0320435 62.2017 0.698002 62.3496 1.73395 62.5716C3.13989 62.9416 5.28578 63.3855 7.28369 63.9775C10.8355 64.9393 14.7573 66.1232 18.0132 66.0492C21.269 65.9752 21.343 65.3833 24.8209 65.9012C28.2987 66.4191 32.4425 67.751 35.1804 67.899C37.9182 67.973 50.9416 67.9729 53.9755 68.7128C57.0093 69.4528 57.8973 69.4527 62.1891 70.0447C66.4809 70.6366 76.6924 70.1187 79.5042 70.0447C82.3161 69.9707 89.2718 69.7487 91.1957 69.8967C93.0456 70.0447 93.9335 71.0806 96.5974 70.8586C99.2613 70.6366 102.369 70.1927 105.255 70.8586C108.141 71.5245 122.126 72.6343 127.01 72.2644C131.894 71.9684 151.281 72.3384 155.499 72.3384C159.716 72.2644 169.04 72.7084 173.036 72.7084C177.032 72.7084 182.951 72.1164 187.095 72.3384C191.239 72.4864 198.195 71.6725 198.639 71.6725C199.083 71.6725 210.996 70.7846 218.1 70.9326C225.203 71.0805 228.607 70.0447 232.677 70.2667C236.747 70.4886 239.781 70.9326 242.814 70.4886C245.848 70.0447 247.846 69.2308 249.326 69.2308C250.806 69.2308 274.855 70.7106 278.999 70.0447C283.068 69.3788 291.356 67.0111 293.206 66.7891C295.13 66.5671 303.048 64.9393 305.933 64.9393C308.819 64.9393 315.923 64.0514 315.923 64.0514C315.923 64.0514 334.57 62.7936 334.274 61.7577C334.274 61.6837 334.274 61.6097 334.274 61.6097C334.052 60.4999 333.534 58.5761 327.392 58.2802C320.955 57.9102 319.105 57.9842 317.033 57.4662C314.887 56.9483 308.227 57.9842 310.151 58.9461C310.521 59.168 318.957 58.5021 320.215 58.9461C321.473 59.39 331.832 60.2039 330.796 60.8698C330.13 61.3138 326.652 62.0537 324.506 62.2756H324.284C324.062 62.2756 323.915 62.2756 323.693 62.2756C323.101 62.2756 322.731 62.2756 322.731 62.0537C322.731 61.3138 322.139 60.5739 321.029 61.0178C319.993 61.4618 315.997 61.6097 315.035 61.2398C314.147 60.8698 314.073 61.6837 312.593 62.2756C311.187 62.8676 302.678 62.4976 299.496 63.2376C296.314 63.9775 289.506 64.9393 286.842 63.9775C284.178 63.0896 280.553 61.5357 280.701 59.316C283.364 59.094 299.792 59.538 300.014 58.6501C300.236 57.7622 299.2 57.1703 296.388 57.2443C293.576 57.3183 280.701 56.6524 280.701 56.6524C280.701 56.6524 280.923 51.695 279.147 51.473C277.297 51.325 276.557 53.3968 276.927 55.1725C273.967 55.3205 272.931 56.1344 271.155 55.9864C269.379 55.8384 265.161 55.3205 265.235 56.0604C265.309 56.8003 276.927 56.8003 276.927 57.1703C276.927 57.5403 277.445 58.5021 276.631 58.4282C275.817 58.3542 275.151 58.5761 274.855 59.538C274.559 60.4999 274.263 65.5312 272.043 65.5312C269.823 65.5312 258.206 65.9752 257.91 66.5671C257.614 67.1591 247.698 67.233 245.33 67.0111C242.962 66.7891 239.559 66.8631 239.411 67.1591C239.263 67.381 237.117 67.603 234.971 67.381C234.971 67.381 234.749 67.381 234.305 67.307C234.083 67.307 233.861 67.233 233.639 67.233C231.123 66.7151 220.467 65.0133 220.467 65.0133C220.467 65.0133 230.901 64.0515 231.641 62.8676C232.381 61.7577 230.975 61.4618 230.087 60.2779C229.273 59.1681 233.713 56.8743 237.857 56.2084C237.857 56.2084 231.493 54.5066 228.385 56.0604C226.905 52.8788 226.609 53.5447 226.609 52.0649C226.609 50.5851 225.721 50.6591 225.425 51.473C225.129 52.2129 222.761 57.6882 221.725 56.4304C220.689 55.1726 218.618 52.1389 218.396 53.0268C218.174 53.9147 216.028 58.7981 214.77 57.4662C213.512 56.2084 211.366 53.4708 211.144 53.8407C210.922 54.2107 209.442 54.9506 209.072 54.2107C208.702 53.4708 208.11 52.3609 206.926 53.9887C205.816 55.5425 204.336 57.7622 203.596 57.7622C203.522 57.7622 203.448 57.7622 203.3 57.7622C202.782 57.6882 202.19 57.3183 201.82 57.1703C201.598 57.0963 201.45 57.0963 201.45 57.2443C201.45 57.6882 198.491 55.7645 198.195 56.3564C197.899 56.9483 197.455 57.9842 196.567 57.6142C195.679 57.2443 194.051 55.8385 192.645 57.1703C191.239 58.4281 190.943 60.5739 189.981 59.908C189.093 59.2421 186.503 57.6882 186.207 58.1322C185.911 58.5021 186.059 58.9461 184.801 57.8362C183.543 56.7263 183.247 56.1344 182.951 56.5044C182.729 56.8743 181.841 58.5021 180.435 58.5021C179.103 58.5021 177.624 58.3542 176.884 57.6882C176.144 57.0223 175.7 56.6524 174.368 57.5403C173.11 58.4281 170.964 58.4281 169.78 58.5021C168.596 58.5761 165.118 58.7241 164.23 58.0582C163.564 57.5403 160.382 55.9865 159.124 55.4685C158.754 55.3205 158.606 55.2465 158.606 55.2465C158.606 55.2465 158.088 54.7286 157.348 54.1367C156.017 53.0268 154.093 51.473 153.797 51.843C153.649 52.1389 152.761 53.1008 151.873 54.0627C151.429 54.5066 150.911 54.9506 150.467 55.3205C149.875 55.7645 149.357 56.1344 149.135 55.9864C148.321 55.6905 145.953 55.7645 145.805 56.1344C145.657 56.5044 143.881 55.8385 142.993 56.4304C142.179 57.0223 141.661 59.316 140.255 58.7981C138.923 58.2802 139.219 56.6524 138.109 56.9483C137.073 57.2443 136.186 56.7264 135.594 56.4304C135.002 56.1344 135.002 56.5784 134.706 57.2443C134.41 57.9102 130.636 57.7622 130.118 57.0223C129.6 56.2824 129.008 53.3228 127.824 53.8407C126.714 54.3587 126.714 55.6165 125.604 53.7667C124.568 51.9169 124.716 50.4371 124.124 51.103C123.532 51.769 124.642 57.6882 124.124 58.8721C123.606 59.9819 121.164 62.2016 121.534 62.6456C121.904 63.0895 135.224 64.7174 139.219 64.7913C143.215 64.8653 161.566 65.6052 165.932 65.6052C170.224 65.6052 183.839 65.6053 187.169 66.1972C190.499 66.7891 196.641 66.7151 196.641 66.7151C196.641 66.7151 194.199 70.8586 193.089 71.0066C191.979 71.1546 178.141 71.8945 172.666 71.0066C167.19 70.1187 156.609 69.8227 152.021 68.7869C147.433 67.825 139.293 69.0088 136.482 69.1568C133.67 69.3048 115.319 72.4864 107.253 68.9348C116.058 66.8631 122.052 64.1254 121.46 64.3474C120.868 64.5694 114.431 64.6434 111.471 65.6792C108.511 66.7151 104.959 67.0851 102.073 67.381C99.1873 67.677 96.2274 68.1209 96.2274 68.1209C96.2274 68.1209 92.3056 63.0895 92.2316 63.5335C92.1576 63.9034 91.8616 66.2712 90.6777 65.6792C89.4938 65.0873 87.1999 61.9797 86.8299 63.3115C86.4599 64.6434 88.1618 65.9752 87.7918 66.7891C87.4218 67.603 81.6501 69.1568 77.3583 68.7869C73.0665 68.4169 64.335 67.9729 65.5189 67.751C66.6288 67.529 76.8403 65.8272 79.8002 65.6792C82.7601 65.5313 78.4683 64.9393 76.3964 65.0873C74.3245 65.2353 59.3772 65.4573 57.3793 66.4191C55.8994 63.3855 54.9374 59.538 54.3455 60.4259C53.7535 61.3138 52.7915 60.7218 52.7915 60.7218L52.2735 58.8721C52.2735 58.8721 78.0983 60.2039 79.3562 60.7218C80.6142 61.1658 80.3922 59.76 79.4302 59.76C78.4683 59.76 69.8107 59.538 70.3287 58.4282C70.8466 57.3183 78.0243 56.2824 83.352 56.4304C88.6798 56.5784 104.367 57.6142 105.403 58.1322C106.365 58.5761 107.105 57.0963 107.105 57.0963C107.105 57.0963 91.4177 55.6905 93.9336 55.6165C96.4494 55.5425 99.4833 53.9147 98.2993 54.2846C97.1894 54.5806 84.832 54.6546 81.8721 54.9506C78.9122 55.2465 71.8826 56.0604 69.5887 57.0223C67.2948 57.9102 52.2735 58.2802 51.9035 57.3923C51.5336 56.5044 51.2376 53.5447 50.2016 54.1367C49.1657 54.7286 49.6836 57.2443 49.3137 57.3183C48.9437 57.3923 43.6159 57.6882 42.654 56.8743C41.692 56.0604 40.1381 55.6165 38.8062 56.5784C37.4743 57.5403 35.2544 57.9102 33.1085 57.6882C30.9626 57.4663 30.9626 57.4663 28.8907 57.7622C26.7448 58.0582 24.1549 57.5403 21.121 58.0582C18.0872 58.5761 17.4212 59.0941 16.4593 59.1681C15.4973 59.2421 10.8355 60.2779 8.91162 60.3519C6.98771 60.4259 5.50776 60.2039 3.06588 61.2398C1.06798 62.1277 0.0320435 62.2017 0.0320435 62.2017ZM14.6094 61.9797C14.3134 61.9057 14.0174 61.9057 13.8694 61.9057C13.2034 62.0537 11.6495 61.5357 13.2774 61.0918C14.8314 60.7218 17.1252 61.3878 19.7891 60.6479C22.453 59.908 20.6771 59.76 24.2289 59.76C27.7807 59.76 25.1908 59.834 31.9245 59.612C38.6582 59.39 46.9458 58.9461 47.6118 58.7981C48.2037 58.7241 49.6836 58.3541 49.6836 58.3541C49.6836 58.3541 49.7577 58.5761 49.7577 58.9461C49.9057 60.1299 50.2016 62.4236 49.6836 62.4236C48.9437 62.4236 48.2777 62.0537 48.1297 62.9416C47.9817 63.7555 47.0938 64.7913 46.9458 65.2353C46.7978 65.6792 47.0198 64.7913 45.9098 64.4214C44.7999 64.0514 37.8442 63.9034 37.7702 64.6434C37.6962 65.3833 35.5503 66.0492 35.1804 65.3093C34.8104 64.5694 33.8484 64.1994 32.8125 64.2734C31.7765 64.3474 32.4425 63.6815 30.5186 63.6815C28.5947 63.6815 27.1147 64.2734 26.5228 63.5335C25.9308 62.7936 23.4149 61.1658 22.379 61.6097C21.343 61.9797 21.565 62.8676 19.0491 62.6456C16.9772 62.6456 15.4973 62.2017 14.6094 61.9797Z" fill="url(#paint4_radial)"/>
<g opacity="0.1">
<path opacity="0.1" d="M0.0320435 62.2017C0.0320435 62.2017 0.698002 62.3496 1.73395 62.5716C3.13989 62.9416 5.28578 63.3855 7.28369 63.9775C10.8355 64.9393 14.7573 66.1232 18.0132 66.0492C21.269 65.9752 21.343 65.3833 24.8209 65.9012C28.2987 66.4191 32.4425 67.751 35.1804 67.899C37.9182 67.973 50.9416 67.9729 53.9755 68.7128C57.0093 69.4528 57.8973 69.4527 62.1891 70.0447C66.4809 70.6366 76.6924 70.1187 79.5042 70.0447C82.3161 69.9707 89.2718 69.7487 91.1957 69.8967C93.0456 70.0447 93.9335 71.0806 96.5974 70.8586C99.2613 70.6366 102.369 70.1927 105.255 70.8586C108.141 71.5245 122.126 72.6343 127.01 72.2644C131.894 71.9684 151.281 72.3384 155.499 72.3384C159.716 72.2644 169.04 72.7084 173.036 72.7084C177.032 72.7084 182.951 72.1164 187.095 72.3384C191.239 72.4864 198.195 71.6725 198.639 71.6725C199.083 71.6725 210.996 70.7846 218.1 70.9326C225.203 71.0805 228.607 70.0447 232.677 70.2667C236.747 70.4886 239.781 70.9326 242.814 70.4886C245.848 70.0447 247.846 69.2308 249.326 69.2308C250.806 69.2308 274.855 70.7106 278.999 70.0447C283.068 69.3788 291.356 67.0111 293.206 66.7891C295.13 66.5671 303.048 64.9393 305.933 64.9393C308.819 64.9393 315.923 64.0514 315.923 64.0514C315.923 64.0514 334.57 62.7936 334.274 61.7577C334.274 61.6837 334.274 61.6097 334.274 61.6097C334.052 60.4999 333.534 58.5761 327.392 58.2802C320.955 57.9102 319.105 57.9842 317.033 57.4662C314.887 56.9483 308.227 57.9842 310.151 58.9461C310.521 59.168 318.957 58.5021 320.215 58.9461C321.473 59.39 331.832 60.2039 330.796 60.8698C330.13 61.3138 326.652 62.0537 324.506 62.2756H324.284C324.062 62.2756 323.915 62.2756 323.693 62.2756C323.101 62.2756 322.731 62.2756 322.731 62.0537C322.731 61.3138 322.139 60.5739 321.029 61.0178C319.993 61.4618 315.997 61.6097 315.035 61.2398C314.147 60.8698 314.073 61.6837 312.593 62.2756C311.187 62.8676 302.678 62.4976 299.496 63.2376C296.314 63.9775 289.506 64.9393 286.842 63.9775C284.178 63.0896 280.553 61.5357 280.701 59.316C283.364 59.094 299.792 59.538 300.014 58.6501C300.236 57.7622 299.2 57.1703 296.388 57.2443C293.576 57.3183 280.701 56.6524 280.701 56.6524C280.701 56.6524 280.923 51.695 279.147 51.473C277.297 51.325 276.557 53.3968 276.927 55.1725C273.967 55.3205 272.931 56.1344 271.155 55.9864C269.379 55.8384 265.161 55.3205 265.235 56.0604C265.309 56.8003 276.927 56.8003 276.927 57.1703C276.927 57.5403 277.445 58.5021 276.631 58.4282C275.817 58.3542 275.151 58.5761 274.855 59.538C274.559 60.4999 274.263 65.5312 272.043 65.5312C269.823 65.5312 258.206 65.9752 257.91 66.5671C257.614 67.1591 247.698 67.233 245.33 67.0111C242.962 66.7891 239.559 66.8631 239.411 67.1591C239.263 67.381 237.117 67.603 234.971 67.381C234.971 67.381 234.749 67.381 234.305 67.307C234.083 67.307 233.861 67.233 233.639 67.233C231.123 66.7151 220.467 65.0133 220.467 65.0133C220.467 65.0133 230.901 64.0515 231.641 62.8676C232.381 61.7577 230.975 61.4618 230.087 60.2779C229.273 59.1681 233.713 56.8743 237.857 56.2084C237.857 56.2084 231.493 54.5066 228.385 56.0604C226.905 52.8788 226.609 53.5447 226.609 52.0649C226.609 50.5851 225.721 50.6591 225.425 51.473C225.129 52.2129 222.761 57.6882 221.725 56.4304C220.689 55.1726 218.618 52.1389 218.396 53.0268C218.174 53.9147 216.028 58.7981 214.77 57.4662C213.512 56.2084 211.366 53.4708 211.144 53.8407C210.922 54.2107 209.442 54.9506 209.072 54.2107C208.702 53.4708 208.11 52.3609 206.926 53.9887C205.816 55.5425 204.336 57.7622 203.596 57.7622C203.522 57.7622 203.448 57.7622 203.3 57.7622C202.782 57.6882 202.19 57.3183 201.82 57.1703C201.598 57.0963 201.45 57.0963 201.45 57.2443C201.45 57.6882 198.491 55.7645 198.195 56.3564C197.899 56.9483 197.455 57.9842 196.567 57.6142C195.679 57.2443 194.051 55.8385 192.645 57.1703C191.239 58.4281 190.943 60.5739 189.981 59.908C189.093 59.2421 186.503 57.6882 186.207 58.1322C185.911 58.5021 186.059 58.9461 184.801 57.8362C183.543 56.7263 183.247 56.1344 182.951 56.5044C182.729 56.8743 181.841 58.5021 180.435 58.5021C179.103 58.5021 177.624 58.3542 176.884 57.6882C176.144 57.0223 175.7 56.6524 174.368 57.5403C173.11 58.4281 170.964 58.4281 169.78 58.5021C168.596 58.5761 165.118 58.7241 164.23 58.0582C163.564 57.5403 160.382 55.9865 159.124 55.4685C158.754 55.3205 158.606 55.2465 158.606 55.2465C158.606 55.2465 158.088 54.7286 157.348 54.1367C156.017 53.0268 154.093 51.473 153.797 51.843C153.649 52.1389 152.761 53.1008 151.873 54.0627C151.429 54.5066 150.911 54.9506 150.467 55.3205C149.875 55.7645 149.357 56.1344 149.135 55.9864C148.321 55.6905 145.953 55.7645 145.805 56.1344C145.657 56.5044 143.881 55.8385 142.993 56.4304C142.179 57.0223 141.661 59.316 140.255 58.7981C138.923 58.2802 139.219 56.6524 138.109 56.9483C137.073 57.2443 136.186 56.7264 135.594 56.4304C135.002 56.1344 135.002 56.5784 134.706 57.2443C134.41 57.9102 130.636 57.7622 130.118 57.0223C129.6 56.2824 129.008 53.3228 127.824 53.8407C126.714 54.3587 126.714 55.6165 125.604 53.7667C124.568 51.9169 124.716 50.4371 124.124 51.103C123.532 51.769 124.642 57.6882 124.124 58.8721C123.606 59.9819 121.164 62.2016 121.534 62.6456C121.904 63.0895 135.224 64.7174 139.219 64.7913C143.215 64.8653 161.566 65.6052 165.932 65.6052C170.224 65.6052 183.839 65.6053 187.169 66.1972C190.499 66.7891 196.641 66.7151 196.641 66.7151C196.641 66.7151 194.199 70.8586 193.089 71.0066C191.979 71.1546 178.141 71.8945 172.666 71.0066C167.19 70.1187 156.609 69.8227 152.021 68.7869C147.433 67.825 139.293 69.0088 136.482 69.1568C133.67 69.3048 115.319 72.4864 107.253 68.9348C116.058 66.8631 122.052 64.1254 121.46 64.3474C120.868 64.5694 114.431 64.6434 111.471 65.6792C108.511 66.7151 104.959 67.0851 102.073 67.381C99.1873 67.677 96.2274 68.1209 96.2274 68.1209C96.2274 68.1209 92.3056 63.0895 92.2316 63.5335C92.1576 63.9034 91.8616 66.2712 90.6777 65.6792C89.4938 65.0873 87.1999 61.9797 86.8299 63.3115C86.4599 64.6434 88.1618 65.9752 87.7918 66.7891C87.4218 67.603 81.6501 69.1568 77.3583 68.7869C73.0665 68.4169 64.335 67.9729 65.5189 67.751C66.6288 67.529 76.8403 65.8272 79.8002 65.6792C82.7601 65.5313 78.4683 64.9393 76.3964 65.0873C74.3245 65.2353 59.3772 65.4573 57.3793 66.4191C55.8994 63.3855 54.9374 59.538 54.3455 60.4259C53.7535 61.3138 52.7915 60.7218 52.7915 60.7218L52.2735 58.8721C52.2735 58.8721 78.0983 60.2039 79.3562 60.7218C80.6142 61.1658 80.3922 59.76 79.4302 59.76C78.4683 59.76 69.8107 59.538 70.3287 58.4282C70.8466 57.3183 78.0243 56.2824 83.352 56.4304C88.6798 56.5784 104.367 57.6142 105.403 58.1322C106.365 58.5761 107.105 57.0963 107.105 57.0963C107.105 57.0963 91.4177 55.6905 93.9336 55.6165C96.4494 55.5425 99.4833 53.9147 98.2993 54.2846C97.1894 54.5806 84.832 54.6546 81.8721 54.9506C78.9122 55.2465 71.8826 56.0604 69.5887 57.0223C67.2948 57.9102 52.2735 58.2802 51.9035 57.3923C51.5336 56.5044 51.2376 53.5447 50.2016 54.1367C49.1657 54.7286 49.6836 57.2443 49.3137 57.3183C48.9437 57.3923 43.6159 57.6882 42.654 56.8743C41.692 56.0604 40.1381 55.6165 38.8062 56.5784C37.4743 57.5403 35.2544 57.9102 33.1085 57.6882C30.9626 57.4663 30.9626 57.4663 28.8907 57.7622C26.7448 58.0582 24.1549 57.5403 21.121 58.0582C18.0872 58.5761 17.4212 59.0941 16.4593 59.1681C15.4973 59.2421 10.8355 60.2779 8.91162 60.3519C6.98771 60.4259 5.50776 60.2039 3.06588 61.2398C1.06798 62.1277 0.0320435 62.2017 0.0320435 62.2017ZM14.6094 61.9797C14.3134 61.9057 14.0174 61.9057 13.8694 61.9057C13.2034 62.0537 11.6495 61.5357 13.2774 61.0918C14.8314 60.7218 17.1252 61.3878 19.7891 60.6479C22.453 59.908 20.6771 59.76 24.2289 59.76C27.7807 59.76 25.1908 59.834 31.9245 59.612C38.6582 59.39 46.9458 58.9461 47.6118 58.7981C48.2037 58.7241 49.6836 58.3541 49.6836 58.3541C49.6836 58.3541 49.7577 58.5761 49.7577 58.9461C49.9057 60.1299 50.2016 62.4236 49.6836 62.4236C48.9437 62.4236 48.2777 62.0537 48.1297 62.9416C47.9817 63.7555 47.0938 64.7913 46.9458 65.2353C46.7978 65.6792 47.0198 64.7913 45.9098 64.4214C44.7999 64.0514 37.8442 63.9034 37.7702 64.6434C37.6962 65.3833 35.5503 66.0492 35.1804 65.3093C34.8104 64.5694 33.8484 64.1994 32.8125 64.2734C31.7765 64.3474 32.4425 63.6815 30.5186 63.6815C28.5947 63.6815 27.1147 64.2734 26.5228 63.5335C25.9308 62.7936 23.4149 61.1658 22.379 61.6097C21.343 61.9797 21.565 62.8676 19.0491 62.6456C16.9772 62.6456 15.4973 62.2017 14.6094 61.9797Z" fill="url(#paint5_linear)"/>
</g>
<path d="M56.5653 46.8855C57.1573 47.9214 57.9713 48.4393 57.5273 49.6232C57.0833 50.7331 56.6393 51.6209 55.6774 51.177C54.6414 50.733 53.9755 50.0671 53.9755 49.4012C53.9755 48.7353 53.3835 49.1053 53.9755 48.0694C54.5674 46.9595 54.4194 46.7376 54.8634 46.5896C55.3074 46.4416 55.9734 45.8497 56.5653 46.8855Z" fill="#D9F7FF"/>
<path opacity="0.1" d="M56.5653 46.8855C57.1573 47.9214 57.9713 48.4393 57.5273 49.6232C57.0833 50.7331 56.6393 51.6209 55.6774 51.177C54.6414 50.733 53.9755 50.0671 53.9755 49.4012C53.9755 48.7353 53.3835 49.1053 53.9755 48.0694C54.5674 46.9595 54.4194 46.7376 54.8634 46.5896C55.3074 46.4416 55.9734 45.8497 56.5653 46.8855Z" fill="url(#paint6_linear)"/>
<path d="M58.9332 29.128C58.4892 30.1638 57.5273 32.3096 57.6753 33.4934C57.7493 34.6773 58.3412 34.6033 57.6753 35.5652C57.0093 36.5271 56.5653 36.0831 54.7894 35.4172C53.0135 34.7513 52.5695 34.8993 52.4215 32.7535C52.2735 30.6078 51.6815 30.5338 52.2735 29.202C52.8655 27.8701 52.5695 27.3522 53.6055 27.2042C54.6414 27.0562 54.5674 26.6123 55.6033 26.7603C56.6393 26.9082 59.3032 28.2401 58.9332 29.128Z" fill="#D9F7FF"/>
<path opacity="0.1" d="M58.9332 29.128C58.4892 30.1638 57.5273 32.3096 57.6753 33.4934C57.7493 34.6773 58.3412 34.6033 57.6753 35.5652C57.0093 36.5271 56.5653 36.0831 54.7894 35.4172C53.0135 34.7513 52.5695 34.8993 52.4215 32.7535C52.2735 30.6078 51.6815 30.5338 52.2735 29.202C52.8655 27.8701 52.5695 27.3522 53.6055 27.2042C54.6414 27.0562 54.5674 26.6123 55.6033 26.7603C56.6393 26.9082 59.3032 28.2401 58.9332 29.128Z" fill="url(#paint7_linear)"/>
<path d="M96.5234 43.926C96.7454 44.5919 98.0773 45.9978 97.4113 47.2556C96.8194 48.5135 96.2274 50.2152 95.9314 50.8072C95.6354 51.3991 94.8215 50.4372 94.5255 49.1794C94.2295 47.8476 93.9335 47.3296 94.1555 45.9238C94.3775 44.518 96.2274 42.8902 96.5234 43.926Z" fill="#D9F7FF"/>
<path opacity="0.1" d="M96.5234 43.926C96.7454 44.5919 98.0773 45.9978 97.4113 47.2556C96.8194 48.5135 96.2274 50.2152 95.9314 50.8072C95.6354 51.3991 94.8215 50.4372 94.5255 49.1794C94.2295 47.8476 93.9335 47.3296 94.1555 45.9238C94.3775 44.518 96.2274 42.8902 96.5234 43.926Z" fill="url(#paint8_linear)"/>
<path d="M98.2993 25.9464C99.4092 27.0562 100.075 26.9082 98.8913 28.4621C97.7813 30.0159 96.9673 29.7199 96.6714 31.4217C96.3754 33.1235 96.4494 34.1593 96.3014 34.3073C96.1534 34.4553 94.3775 34.3813 94.4515 32.3836C94.5995 30.3858 94.3775 29.4979 95.2655 28.61C96.1534 27.7221 96.3754 26.0203 96.3754 26.0203C96.5234 25.2804 97.4113 25.1325 98.2993 25.9464Z" fill="#D9F7FF"/>
<path opacity="0.1" d="M98.2993 25.9464C99.4092 27.0562 100.075 26.9082 98.8913 28.4621C97.7813 30.0159 96.9673 29.7199 96.6714 31.4217C96.3754 33.1235 96.4494 34.1593 96.3014 34.3073C96.1534 34.4553 94.3775 34.3813 94.4515 32.3836C94.5995 30.3858 94.3775 29.4979 95.2655 28.61C96.1534 27.7221 96.3754 26.0203 96.3754 26.0203C96.5234 25.2804 97.4113 25.1325 98.2993 25.9464Z" fill="url(#paint9_linear)"/>
<path d="M111.767 17.2153C111.915 17.9552 112.655 18.7691 111.175 19.583C109.695 20.3969 109.621 21.8767 109.103 19.953C108.585 18.0292 107.993 19.0651 108.511 17.7332C109.029 16.4014 107.327 16.4754 109.029 16.4014C110.731 16.4754 111.767 17.2153 111.767 17.2153Z" fill="#D9F7FF"/>
<path opacity="0.1" d="M111.767 17.2153C111.915 17.9552 112.655 18.7691 111.175 19.583C109.695 20.3969 109.621 21.8767 109.103 19.953C108.585 18.0292 107.993 19.0651 108.511 17.7332C109.029 16.4014 107.327 16.4754 109.029 16.4014C110.731 16.4754 111.767 17.2153 111.767 17.2153Z" fill="url(#paint10_linear)"/>
<path d="M135.963 45.4797C136.259 45.6277 137.295 46.0716 137.073 46.8115C136.851 47.5514 136.185 49.1792 135.594 49.1792C135.002 49.1792 133.3 48.3653 133.3 47.5514C133.3 46.6635 133.078 45.7756 133.596 45.4797C134.114 45.1837 135.963 45.4797 135.963 45.4797Z" fill="#D9F7FF"/>
<path opacity="0.1" d="M135.963 45.4797C136.259 45.6277 137.295 46.0716 137.073 46.8115C136.851 47.5514 136.185 49.1792 135.594 49.1792C135.002 49.1792 133.3 48.3653 133.3 47.5514C133.3 46.6635 133.078 45.7756 133.596 45.4797C134.114 45.1837 135.963 45.4797 135.963 45.4797Z" fill="url(#paint11_linear)"/>
<path d="M134.484 37.4149C134.78 38.1548 135.298 38.3028 134.484 38.7467C133.67 39.2646 133.596 39.7086 132.782 39.2647C131.968 38.8207 131.376 38.7467 131.894 37.9328C132.412 37.1189 132.338 36.8229 132.856 36.8969C133.3 37.0449 134.484 37.4149 134.484 37.4149Z" fill="#D9F7FF"/>
<path opacity="0.1" d="M134.484 37.4149C134.78 38.1548 135.298 38.3028 134.484 38.7467C133.67 39.2646 133.596 39.7086 132.782 39.2647C131.968 38.8207 131.376 38.7467 131.894 37.9328C132.412 37.1189 132.338 36.8229 132.856 36.8969C133.3 37.0449 134.484 37.4149 134.484 37.4149Z" fill="url(#paint12_linear)"/>
<path d="M169.04 48.8094C169.484 49.8453 170.298 49.7713 169.114 50.4372C167.856 51.1031 167.412 51.769 166.968 50.4372C166.598 49.1053 166.302 49.4013 166.82 48.8094C167.338 48.2175 168.818 48.2175 169.04 48.8094Z" fill="#D9F7FF"/>
<path opacity="0.1" d="M169.04 48.8094C169.484 49.8453 170.298 49.7713 169.114 50.4372C167.856 51.1031 167.412 51.769 166.968 50.4372C166.598 49.1053 166.302 49.4013 166.82 48.8094C167.338 48.2175 168.818 48.2175 169.04 48.8094Z" fill="url(#paint13_linear)"/>
<path d="M176.588 45.9978C175.996 46.3678 176.588 47.2557 176.44 48.3655C176.292 49.4754 176.366 50.9552 174.738 50.3633C173.036 49.8454 172.592 48.2176 172.592 47.3297C172.592 46.3678 172.37 45.7759 171.334 44.666C170.372 43.5561 169.04 41.9284 170.446 40.5225C171.852 39.1167 171.852 38.4508 171.926 37.045C172 35.6391 172.296 34.7513 173.48 33.8634C174.738 33.0495 175.108 31.8656 175.626 32.9015C176.144 33.8634 176.588 34.3073 176.588 35.4912C176.588 36.749 177.106 37.4889 177.032 38.3028C176.958 39.1167 178.141 39.7086 178.289 40.8925C178.363 41.9284 178.659 44.74 176.588 45.9978Z" fill="#D9F7FF"/>
<path opacity="0.1" d="M176.588 45.9978C175.996 46.3678 176.588 47.2557 176.44 48.3655C176.292 49.4754 176.366 50.9552 174.738 50.3633C173.036 49.8454 172.592 48.2176 172.592 47.3297C172.592 46.3678 172.37 45.7759 171.334 44.666C170.372 43.5561 169.04 41.9284 170.446 40.5225C171.852 39.1167 171.852 38.4508 171.926 37.045C172 35.6391 172.296 34.7513 173.48 33.8634C174.738 33.0495 175.108 31.8656 175.626 32.9015C176.144 33.8634 176.588 34.3073 176.588 35.4912C176.588 36.749 177.106 37.4889 177.032 38.3028C176.958 39.1167 178.141 39.7086 178.289 40.8925C178.363 41.9284 178.659 44.74 176.588 45.9978Z" fill="url(#paint14_linear)"/>
<path d="M201.598 41.4845C201.45 41.8544 202.042 43.0383 202.338 44.0741C202.634 45.11 203.892 45.11 202.634 46.5898C201.376 48.0696 201.228 47.5517 200.858 48.6616C200.414 49.8454 200.34 50.5853 200.34 51.5472C200.266 52.5091 199.896 53.175 199.896 53.175C199.896 53.175 199.748 51.1772 199.23 50.4373C198.712 49.7714 198.638 48.4396 198.046 48.2916C197.454 48.2176 196.493 45.184 197.233 42.8163C197.898 40.4486 198.638 38.4508 199.378 38.5988C200.192 38.7468 202.264 39.1907 201.598 41.4845Z" fill="#D9F7FF"/>
<path opacity="0.1" d="M201.598 41.4845C201.45 41.8544 202.042 43.0383 202.338 44.0741C202.634 45.11 203.892 45.11 202.634 46.5898C201.376 48.0696 201.228 47.5517 200.858 48.6616C200.414 49.8454 200.34 50.5853 200.34 51.5472C200.266 52.5091 199.896 53.175 199.896 53.175C199.896 53.175 199.748 51.1772 199.23 50.4373C198.712 49.7714 198.638 48.4396 198.046 48.2916C197.454 48.2176 196.493 45.184 197.233 42.8163C197.898 40.4486 198.638 38.4508 199.378 38.5988C200.192 38.7468 202.264 39.1907 201.598 41.4845Z" fill="url(#paint15_linear)"/>
<path d="M236.673 40.8923C236.673 42.0762 236.155 43.408 236.895 45.1098C237.635 46.7376 238.671 47.1075 237.487 48.3654C236.229 49.6232 234.231 49.4013 234.157 48.3654C234.083 47.3295 233.343 43.778 233.861 42.8161C234.379 41.7802 236.673 40.8923 236.673 40.8923Z" fill="#D9F7FF"/>
<path opacity="0.1" d="M236.673 40.8923C236.673 42.0762 236.155 43.408 236.895 45.1098C237.635 46.7376 238.671 47.1075 237.487 48.3654C236.229 49.6232 234.231 49.4013 234.157 48.3654C234.083 47.3295 233.343 43.778 233.861 42.8161C234.379 41.7802 236.673 40.8923 236.673 40.8923Z" fill="url(#paint16_linear)"/>
<path d="M237.117 28.3141C237.561 28.462 238.819 29.6459 238.005 30.3858C237.265 31.1997 236.525 31.7176 236.377 32.4575C236.229 33.1974 235.785 32.1616 235.341 31.1257C234.971 30.0898 236.007 27.8701 237.117 28.3141Z" fill="#D9F7FF"/>
<path opacity="0.1" d="M237.117 28.3141C237.561 28.462 238.819 29.6459 238.005 30.3858C237.265 31.1997 236.525 31.7176 236.377 32.4575C236.229 33.1974 235.785 32.1616 235.341 31.1257C234.971 30.0898 236.007 27.8701 237.117 28.3141Z" fill="url(#paint17_linear)"/>
<path d="M278.925 39.3386C279.147 40.5224 278.999 41.8543 278.629 41.8543C278.259 41.8543 278.111 41.1883 277.519 40.8184C276.927 40.4484 275.891 39.6345 276.705 39.2646C277.519 38.9686 278.777 38.5247 278.925 39.3386Z" fill="#D9F7FF"/>
<path opacity="0.1" d="M278.925 39.3386C279.147 40.5224 278.999 41.8543 278.629 41.8543C278.259 41.8543 278.111 41.1883 277.519 40.8184C276.927 40.4484 275.891 39.6345 276.705 39.2646C277.519 38.9686 278.777 38.5247 278.925 39.3386Z" fill="url(#paint18_linear)"/>
<path d="M279.813 29.424C279.813 29.424 280.775 31.2737 279.813 31.7176C278.851 32.1616 279.147 33.7154 278.407 34.1593C277.667 34.6033 275.373 35.2692 275.225 34.1593C275.077 33.0495 274.559 29.5719 275.225 28.684C275.891 27.7962 279.369 28.0921 279.813 29.424Z" fill="#D9F7FF"/>
<path opacity="0.1" d="M279.813 29.424C279.813 29.424 280.775 31.2737 279.813 31.7176C278.851 32.1616 279.147 33.7154 278.407 34.1593C277.667 34.6033 275.373 35.2692 275.225 34.1593C275.077 33.0495 274.559 29.5719 275.225 28.684C275.891 27.7962 279.369 28.0921 279.813 29.424Z" fill="url(#paint19_linear)"/>
<path d="M242.962 14.6998C243.036 14.9218 245.182 17.2155 244.294 18.6213C243.332 20.0271 242.074 21.285 241.778 22.3949C241.482 23.5047 239.337 23.2827 239.115 21.507C238.893 19.8052 240.077 18.1034 240.225 16.6976C240.299 15.2177 241.482 12.0361 242.962 14.6998Z" fill="#D9F7FF"/>
<path opacity="0.1" d="M242.962 14.6998C243.036 14.9218 245.182 17.2155 244.294 18.6213C243.332 20.0271 242.074 21.285 241.778 22.3949C241.482 23.5047 239.337 23.2827 239.115 21.507C238.893 19.8052 240.077 18.1034 240.225 16.6976C240.299 15.2177 241.482 12.0361 242.962 14.6998Z" fill="url(#paint20_linear)"/>
<path d="M174.072 23.5787C174.294 24.5405 174.59 24.8365 174.072 25.7244C173.554 26.5383 173.554 26.7603 172.518 25.7244C171.482 24.6885 170.742 24.0226 172 23.5787C173.332 23.1347 174.072 23.5787 174.072 23.5787Z" fill="#D9F7FF"/>
<path opacity="0.1" d="M174.072 23.5787C174.294 24.5405 174.59 24.8365 174.072 25.7244C173.554 26.5383 173.554 26.7603 172.518 25.7244C171.482 24.6885 170.742 24.0226 172 23.5787C173.332 23.1347 174.072 23.5787 174.072 23.5787Z" fill="url(#paint21_linear)"/>
<path d="M172.888 6.26465C172.814 7.15254 173.924 7.59645 172.888 7.89241C171.852 8.18837 171.112 9.00231 170.964 8.11442C170.816 7.22653 170.964 6.33862 170.964 6.33862H172.888V6.26465Z" fill="#D9F7FF"/>
<path opacity="0.1" d="M172.888 6.26465C172.814 7.15254 173.924 7.59645 172.888 7.89241C171.852 8.18837 171.112 9.00231 170.964 8.11442C170.816 7.22653 170.964 6.33862 170.964 6.33862H172.888V6.26465Z" fill="url(#paint22_linear)"/>
<path d="M134.854 16.4755C135.15 17.0674 135.89 18.8432 135.15 20.6189C134.484 22.3207 134.336 24.7624 133.226 22.8387C132.116 20.9889 131.524 19.879 131.598 18.6952C131.672 17.5853 132.486 15.5876 132.782 15.4396C133.078 15.3656 134.854 16.4755 134.854 16.4755Z" fill="#D9F7FF"/>
<path opacity="0.1" d="M134.854 16.4755C135.15 17.0674 135.89 18.8432 135.15 20.6189C134.484 22.3207 134.336 24.7624 133.226 22.8387C132.116 20.9889 131.524 19.879 131.598 18.6952C131.672 17.5853 132.486 15.5876 132.782 15.4396C133.078 15.3656 134.854 16.4755 134.854 16.4755Z" fill="url(#paint23_linear)"/>
<path d="M131.672 1.45532C131.746 2.63917 131.82 3.30508 131.672 4.26696C131.524 5.22884 131.45 6.3387 130.266 5.74678C129.082 5.08086 128.49 3.823 128.49 2.86112C128.49 1.97323 128.564 0.419434 129.008 0.419434C129.452 0.419434 131.598 0.641424 131.672 1.45532Z" fill="#D9F7FF"/>
<path opacity="0.1" d="M131.672 1.45532C131.746 2.63917 131.82 3.30508 131.672 4.26696C131.524 5.22884 131.45 6.3387 130.266 5.74678C129.082 5.08086 128.49 3.823 128.49 2.86112C128.49 1.97323 128.564 0.419434 129.008 0.419434C129.452 0.419434 131.598 0.641424 131.672 1.45532Z" fill="url(#paint24_linear)"/>
<path opacity="0.2" d="M203.818 57.7622C204.188 59.02 206.334 65.6792 206.63 67.159C206.926 68.6389 208.332 68.3429 209.294 68.9348C210.256 69.5267 213.66 68.8608 215.51 68.9348C217.434 69.0088 223.205 68.0469 224.315 67.159C225.277 66.4191 232.381 67.159 234.601 67.381C234.379 67.381 234.157 67.307 233.935 67.307C231.419 66.7891 220.763 65.0873 220.763 65.0873C220.763 65.0873 231.197 64.1254 231.937 62.9416C232.677 61.8317 231.271 61.5357 230.383 60.3519C229.569 59.242 234.009 56.9483 238.153 56.2824C238.153 56.2824 231.789 54.5806 228.681 56.1344C227.201 52.9528 226.905 53.6187 226.905 52.1389C226.905 50.6591 226.017 50.7331 225.721 51.547C225.425 52.2869 223.057 57.7622 222.021 56.5043C220.985 55.2465 218.914 52.2129 218.692 53.1008C218.47 53.9887 216.324 58.8721 215.066 57.5402C213.808 56.2824 211.662 53.5447 211.44 53.9147C211.218 54.2846 209.738 55.0245 209.368 54.2846C208.998 53.5447 208.406 52.4349 207.222 54.0627C206.112 55.6165 204.632 57.8362 203.892 57.8362C203.966 57.7622 203.892 57.7622 203.818 57.7622Z" fill="#476B82"/>
<path opacity="0.2" d="M122.052 62.4979C122.422 62.9418 135.741 64.5696 139.737 64.6436C143.733 64.7176 162.084 65.4575 166.45 65.4575C170.742 65.4575 184.357 65.4575 187.687 66.0494C191.017 66.6414 197.159 66.5674 197.159 66.5674C197.159 66.5674 198.49 65.0875 198.638 64.7916C198.786 64.4956 199.97 65.3835 200.636 66.3454C201.302 67.3072 201.672 64.4956 202.19 62.7938C202.56 61.61 202.412 58.7983 202.264 57.1705C202.042 57.0965 201.894 57.0965 201.894 57.2445C201.894 57.6885 198.934 55.7647 198.638 56.3566C198.342 56.9485 197.898 57.9844 197.011 57.6145C196.123 57.2445 194.495 55.8387 193.089 57.1705C191.683 58.4284 191.387 60.5741 190.425 59.9082C189.537 59.2423 186.947 57.6885 186.651 58.1324C186.355 58.5024 186.503 58.9463 185.245 57.8364C183.987 56.7266 183.691 56.1346 183.395 56.5046C183.173 56.8746 182.285 58.5024 180.879 58.5024C179.547 58.5024 178.067 58.3544 177.327 57.6885C176.587 57.0226 176.144 56.6526 174.812 57.5405C173.554 58.4284 171.408 58.4284 170.224 58.5024C169.04 58.5764 165.562 58.7244 164.674 58.0584C164.008 57.5405 160.826 55.9867 159.568 55.4688C160.826 55.4688 161.714 55.4687 161.936 55.3947C163.564 55.0248 173.48 55.4688 175.33 55.4688C177.179 55.4688 183.025 56.0606 183.025 54.8768C183.025 54.6548 181.619 54.5068 181.397 54.5068C181.175 54.5808 180.583 54.1369 180.213 53.9149C179.843 53.693 160.456 53.027 160.456 53.397C160.456 53.7669 158.902 53.9889 158.754 54.0629C158.754 54.0629 158.384 54.0629 157.792 54.0629C156.46 52.9531 154.537 51.3993 154.241 51.7692C154.093 52.0652 153.205 53.0271 152.317 53.9889C144.251 53.841 131.45 53.545 131.45 53.7669C131.45 54.0629 131.006 54.5809 131.006 54.5809C131.006 54.5809 142.031 55.0248 150.911 55.2468C150.319 55.6907 149.801 56.0607 149.579 55.9127C148.765 55.6167 146.397 55.6907 146.249 56.0607C146.101 56.4306 144.325 55.7647 143.437 56.3566C142.623 56.9485 142.105 59.2423 140.699 58.7243C139.367 58.2064 139.663 56.5786 138.553 56.8746C137.517 57.1705 136.629 56.6526 136.037 56.3566C135.445 56.0606 135.445 56.5046 135.149 57.1705C134.853 57.8365 131.08 57.6885 130.562 56.9486C130.044 56.2087 129.452 53.249 128.268 53.7669C127.158 54.2849 127.158 55.5427 126.048 53.693C125.012 51.8432 125.16 50.3634 124.568 51.0293C123.976 51.6952 125.086 57.6145 124.568 58.7983C124.124 59.8342 121.682 62.0539 122.052 62.4979Z" fill="#476B82"/>
<path opacity="0.2" d="M280.923 56.6523C280.923 56.6523 280.923 59.0201 280.923 59.39C283.586 59.168 300.014 59.612 300.236 58.7241C300.458 57.8362 299.422 57.2443 296.61 57.3183C293.798 57.3183 280.923 56.6523 280.923 56.6523Z" fill="#476B82"/>
<path opacity="0.2" d="M265.531 56.1345C265.605 56.8744 277.223 56.8744 277.223 57.2443V55.1726C274.263 55.3206 273.227 56.1345 271.451 55.9865C269.675 55.9125 265.457 55.3946 265.531 56.1345Z" fill="#476B82"/>
<path opacity="0.2" d="M310.299 58.9461C310.669 59.1681 319.105 58.5022 320.363 58.9461C321.621 59.3901 331.98 60.204 330.944 60.8699C330.278 61.3139 326.8 62.0537 324.654 62.2757L334.422 61.6098C334.2 60.5 333.682 58.5762 327.54 58.2802C321.103 57.9103 319.253 57.9843 317.181 57.4663C315.035 56.8744 308.375 57.9103 310.299 58.9461Z" fill="#476B82"/>
<path opacity="0.2" d="M112.359 54.7287C115.393 54.8767 116.724 54.5807 117.908 54.2847C119.092 53.9147 116.354 53.4708 113.173 53.6188C109.991 53.7668 105.921 53.6928 103.479 53.7668C103.479 53.7668 103.257 54.6547 104.293 54.5807C105.329 54.4327 109.251 54.5807 112.359 54.7287Z" fill="#476B82"/>
<path opacity="0.2" d="M52.4955 57.0965L52.8655 58.7983C52.8655 58.7983 78.6903 60.1301 79.9482 60.6481C81.2061 61.092 80.9841 59.6862 80.0222 59.6862C79.0602 59.6862 70.4027 59.4642 70.9206 58.3543C71.4386 57.2445 78.6163 56.2086 83.944 56.3566C89.2718 56.5046 104.959 57.5405 105.995 58.0584C106.957 58.5023 107.697 57.0225 107.697 57.0225C107.697 57.0225 92.0096 55.6167 94.5255 55.5427C97.0414 55.4687 100.075 53.8409 98.8913 54.2109C97.7813 54.5068 85.424 54.5808 82.4641 54.8768C79.5042 55.1727 72.4746 55.9867 70.1807 56.9485C67.8868 57.6145 52.8655 57.9844 52.4955 57.0965Z" fill="#476B82"/>
<path opacity="0.2" d="M0.0320435 62.2016C0.0320435 62.2016 0.698002 62.3496 1.73395 62.5716C5.95175 62.2756 14.5353 61.9797 14.5353 61.9797C14.2393 61.9057 13.9434 61.9056 13.7954 61.9056C13.1294 62.0536 11.5755 61.5357 13.2034 61.0918C14.7573 60.7218 17.0512 61.3878 19.7151 60.6478C22.379 59.9079 20.603 59.7599 24.1549 59.7599C27.7067 59.7599 25.1168 59.8339 31.8505 59.612C38.5842 59.39 46.8718 58.9461 47.5378 58.7981C48.1297 58.7241 49.6097 58.3541 49.6097 58.3541C49.6097 58.3541 49.6836 58.5761 49.6836 58.946L49.8316 56.8743C49.4617 56.9483 44.1339 57.2443 43.172 56.4304C42.21 55.6165 40.6561 55.1725 39.3241 56.1344C37.9922 57.0963 35.7723 57.4662 33.6264 57.2442C31.4805 57.0223 31.4805 57.0223 29.4086 57.3183C27.2627 57.6142 24.6729 57.0963 21.639 57.6142C18.6052 58.1321 17.9392 58.6501 16.9772 58.7241C16.0153 58.798 11.3535 59.8339 9.4296 59.9079C7.50569 59.9819 6.02575 59.7599 3.58386 60.7958C1.06798 62.1276 0.0320435 62.2016 0.0320435 62.2016Z" fill="#476B82"/>
<path opacity="0.8" d="M169.188 59.6122C169.188 59.6122 162.972 59.9821 162.232 58.7243C161.492 57.4664 155.869 52.657 155.499 53.249C155.129 53.8409 151.429 58.5023 150.171 57.8364C148.913 57.1704 147.581 55.5427 146.175 56.9485C144.843 58.3543 143.067 57.6144 142.771 58.2063C142.475 58.8722 139.515 61.3879 139.885 61.3139C140.255 61.2399 144.917 58.2803 146.397 58.7243C147.877 59.2422 150.467 61.5359 152.317 59.2422C154.241 56.9485 156.387 55.0987 156.979 55.9866C157.57 56.8005 162.972 64.5695 169.188 59.6122Z" fill="url(#paint25_linear)"/>
<path opacity="0.8" d="M132.708 58.6502C132.708 58.6502 128.564 57.4663 128.712 56.4305C128.86 55.3946 126.64 57.1703 126.122 55.7645C125.53 54.4327 125.16 53.0269 125.16 53.0269C125.16 53.0269 125.604 59.0941 125.16 59.982C124.716 60.8699 125.382 57.2443 126.714 58.1322C128.12 59.0941 132.708 58.6502 132.708 58.6502Z" fill="url(#paint26_linear)"/>
<path opacity="0.8" d="M203.152 59.4641C203.152 59.4641 201.524 68.639 201.302 67.8991C201.08 67.1592 199.156 65.5313 198.934 65.9753C198.712 66.4192 194.495 71.3026 194.495 71.3026C194.495 71.3026 198.934 66.9372 199.674 67.5291C200.414 68.121 202.708 71.2287 203.226 68.491C203.67 65.8273 203.152 59.4641 203.152 59.4641Z" fill="url(#paint27_linear)"/>
<path opacity="0.8" d="M230.679 56.6525C230.679 56.6525 228.681 58.0583 228.237 56.6525C227.719 55.2467 226.239 53.3229 225.573 54.2848C224.907 55.2467 222.465 59.3902 222.317 57.9103C222.169 56.4305 219.728 54.2108 219.358 54.9507C218.988 55.6906 217.582 59.0202 215.806 58.7242C214.03 58.4283 211.736 55.4687 211.736 55.4687C211.736 55.4687 214.178 61.4619 216.176 60.204C218.174 58.9462 219.654 55.9126 220.245 57.1704C220.837 58.4283 222.391 61.9058 223.501 60.352C224.611 58.7982 225.129 56.5045 226.239 57.1704C227.201 57.8364 229.273 59.6121 230.679 56.6525Z" fill="url(#paint28_linear)"/>
<path opacity="0.8" d="M234.379 67.9729C234.379 67.9729 227.719 66.5671 225.795 67.233C223.797 67.8989 215.066 69.2308 215.066 69.2308C215.066 69.2308 223.205 69.2308 225.129 68.5648C227.053 67.8249 234.379 67.9729 234.379 67.9729Z" fill="url(#paint29_linear)"/>
<path opacity="0.8" d="M279.295 51.843C279.295 51.843 277.667 52.213 277.593 54.0627C277.519 55.9125 278.555 59.686 277.741 59.3901C276.927 59.0941 275.817 58.6501 275.299 61.1658C274.781 63.6815 274.707 66.0492 271.969 66.2712C269.231 66.4932 259.686 67.0111 259.686 67.0111C259.686 67.0111 272.635 68.047 273.967 67.0111C275.299 65.9753 275.447 59.76 276.927 60.056C278.333 60.3519 279.295 60.204 279.369 57.9842C279.369 55.7645 279.295 51.843 279.295 51.843Z" fill="url(#paint30_linear)"/>
<path opacity="0.8" d="M284.474 63.9036C284.474 63.9036 288.1 65.5314 291.134 64.8654C294.168 64.1995 305.563 63.9036 305.563 63.9036C305.563 63.9036 295.5 65.1614 294.168 65.4574C292.762 65.7534 285.436 67.9731 284.474 63.9036Z" fill="url(#paint31_linear)"/>
<path opacity="0.8" d="M277.149 64.3474C277.149 64.3474 280.035 66.4191 281.588 66.2712C283.142 66.1232 279.665 66.6411 278.259 67.0111C276.853 67.455 276.335 65.1613 277.149 64.3474Z" fill="url(#paint32_linear)"/>
<path opacity="0.8" d="M211.588 63.7554C211.366 63.3115 209.96 59.538 209.294 60.0559C208.628 60.5738 206.852 60.4259 206.112 60.0559C205.372 59.6859 203.744 57.7622 203.744 57.7622C203.744 57.7622 204.484 60.9438 205.594 61.2398C206.704 61.6097 208.184 61.3878 208.998 62.2017C209.812 63.0895 211.588 63.7554 211.588 63.7554Z" fill="url(#paint33_linear)"/>
<path opacity="0.8" d="M193.533 60.0559C193.533 60.0559 192.571 63.0156 190.647 62.4976C188.723 61.9057 187.391 60.3519 185.171 61.3138C182.951 62.2756 179.621 61.5358 179.103 61.7577C178.66 61.9797 174.22 62.8676 179.991 63.2375C185.763 63.6075 185.763 63.9774 186.799 63.7554C187.835 63.5335 187.169 62.7936 188.427 63.1635C189.685 63.5335 193.459 63.3115 193.533 60.0559Z" fill="url(#paint34_linear)"/>
<path opacity="0.8" d="M161.862 70.8586C161.862 70.8586 151.429 68.7869 150.319 68.7869C149.135 68.7869 122.052 71.3025 122.052 71.3025C122.052 71.3025 144.621 70.5626 147.137 70.5626C149.653 70.5626 161.862 70.8586 161.862 70.8586Z" fill="url(#paint35_linear)"/>
<path opacity="0.8" d="M96.1534 68.7869C96.1534 68.7869 93.9335 65.3094 93.4895 65.8273C93.0456 66.3452 89.9377 65.9753 89.2717 65.3094C88.6798 64.7174 89.1238 68.8609 88.2358 68.7869C87.3478 68.7129 90.8996 67.0851 92.2316 67.825C93.4895 68.4909 96.1534 68.7869 96.1534 68.7869Z" fill="url(#paint36_linear)"/>
<path opacity="0.8" d="M56.8613 66.5671C56.8613 66.5671 55.9734 60.8699 54.7154 61.7577C53.4575 62.6456 51.3856 62.4236 51.0896 59.0941C50.7196 55.8385 50.6456 61.7577 50.4976 62.4977C50.3496 63.2376 49.9796 62.3496 49.3137 63.3855C48.7217 64.3474 47.2418 66.4931 47.2418 66.4931C47.2418 66.4931 50.7936 63.9035 51.6076 64.2734C52.4215 64.7174 56.8613 66.5671 56.8613 66.5671Z" fill="url(#paint37_linear)"/>
<path opacity="0.8" d="M26.3747 64.4955C26.3747 64.4955 22.453 61.8318 22.157 62.3498C21.861 62.8677 18.1612 63.6076 16.0893 63.3856C14.0174 63.1636 7.20969 62.9417 7.20969 62.9417C7.20969 62.9417 15.0533 64.8654 18.6051 64.4215C22.1569 64.0515 26.3747 64.4955 26.3747 64.4955Z" fill="url(#paint38_linear)"/>
<path opacity="0.8" d="M174.072 34.3071C174.072 34.3071 173.924 35.343 174.072 37.0448C174.22 38.7466 173.924 38.8945 173.702 40.0784C173.48 41.2623 173.776 42.3721 174.072 43.556C174.368 44.7398 174.96 47.9954 174.96 47.9954C174.96 47.9954 173.924 45.4058 173.406 44.2219C172.888 43.0381 171.852 43.112 172.148 41.1883C172.444 39.2645 173.406 36.2309 173.406 36.0089C173.332 35.7129 174.072 34.3071 174.072 34.3071Z" fill="url(#paint39_linear)"/>
<path opacity="0.8" d="M200.414 40.0044C200.414 40.0044 199.304 42.5201 199.526 43.7779C199.748 44.9618 200.192 45.9976 200.044 46.8855C199.97 47.7734 200.044 49.6972 200.044 49.6972C200.044 49.6972 199.156 47.4035 198.861 45.8497C198.639 44.3699 199.23 40.0784 200.414 40.0044Z" fill="url(#paint40_linear)"/>
<path opacity="0.8" d="M133.966 16.4753C133.966 16.4753 134.114 17.5112 133.966 18.6951C133.818 19.8789 133.966 22.0246 133.966 22.0246C133.966 22.0246 132.708 20.3969 132.708 19.213C132.708 18.1031 133.448 15.8834 133.966 16.4753Z" fill="url(#paint41_linear)"/>
<path opacity="0.8" d="M235.267 42.2981V47.5515C235.267 47.5515 234.231 49.8452 234.379 47.8474C234.453 45.8497 233.935 42.668 235.267 42.2981Z" fill="url(#paint42_linear)"/>
<path opacity="0.8" d="M278.333 28.9799C278.333 28.9799 277.445 31.4216 277.149 32.6794C276.927 33.9373 275.151 34.8992 275.447 32.6794C275.743 30.4597 276.631 28.092 278.333 28.9799Z" fill="url(#paint43_linear)"/>
<path opacity="0.8" d="M242.074 14.9216C242.074 14.9216 240.964 17.8073 241.186 18.8432C241.334 19.953 241.482 21.5808 241.186 21.8028C241.186 21.8028 239.411 22.9127 239.707 20.7669C240.003 18.6952 242.074 14.9216 242.074 14.9216Z" fill="url(#paint44_linear)"/>
<path opacity="0.8" d="M55.5293 28.092C55.5293 28.092 53.5314 30.3858 54.1974 31.7916C54.9374 33.1234 56.0473 34.6032 56.0473 34.6032C56.0473 34.6032 53.3095 35.1951 53.2355 33.3454C53.0875 31.5696 52.9395 29.8678 53.6794 28.9799C54.4194 28.092 55.5293 28.092 55.5293 28.092Z" fill="url(#paint45_linear)"/>
<path opacity="0.8" d="M96.2274 44.814C96.2274 44.814 96.5974 50.5112 95.8574 49.6973C95.1175 48.8834 94.9695 46.8117 96.2274 44.814Z" fill="url(#paint46_linear)"/>
<path opacity="0.8" d="M97.5593 26.6863C97.5593 26.6863 98.2993 27.9441 97.2633 28.832C96.2274 29.7199 96.3754 33.5674 95.7834 32.6055C95.1914 31.6437 94.6735 29.7199 95.7834 28.758C96.8934 27.8701 97.5593 26.6863 97.5593 26.6863Z" fill="url(#paint47_linear)"/>
<defs>
<radialGradient id="paint0_radial" cx="0" cy="0" r="1" gradientUnits="userSpaceOnUse" gradientTransform="translate(111.026 53.3088) rotate(180) scale(7.161 7.16045)">
<stop stop-color="#1B1464"/>
<stop offset="0.0669379" stop-color="#453F81"/>
<stop offset="0.1475" stop-color="#706C9E"/>
<stop offset="0.2339" stop-color="#9793B8"/>
<stop offset="0.3249" stop-color="#B7B5CE"/>
<stop offset="0.4219" stop-color="#D1D0E0"/>
<stop offset="0.5269" stop-color="#E6E5EE"/>
<stop offset="0.6441" stop-color="#F4F4F8"/>
<stop offset="0.7831" stop-color="#FCFCFD"/>
<stop offset="1" stop-color="white"/>
</radialGradient>
<linearGradient id="paint1_linear" x1="110.815" y1="54.7947" x2="110.815" y2="53.5943" gradientUnits="userSpaceOnUse">
<stop stop-color="#1B1464"/>
<stop offset="0.0669379" stop-color="#453F81"/>
<stop offset="0.1475" stop-color="#706C9E"/>
<stop offset="0.2339" stop-color="#9793B8"/>
<stop offset="0.3249" stop-color="#B7B5CE"/>
<stop offset="0.4219" stop-color="#D1D0E0"/>
<stop offset="0.5269" stop-color="#E6E5EE"/>
<stop offset="0.6441" stop-color="#F4F4F8"/>
<stop offset="0.7831" stop-color="#FCFCFD"/>
<stop offset="1" stop-color="white"/>
</linearGradient>
<radialGradient id="paint2_radial" cx="0" cy="0" r="1" gradientUnits="userSpaceOnUse" gradientTransform="translate(157.774 52.6436) rotate(180) scale(24.9603 24.9583)">
<stop stop-color="#1B1464"/>
<stop offset="0.0669379" stop-color="#453F81"/>
<stop offset="0.1475" stop-color="#706C9E"/>
<stop offset="0.2339" stop-color="#9793B8"/>
<stop offset="0.3249" stop-color="#B7B5CE"/>
<stop offset="0.4219" stop-color="#D1D0E0"/>
<stop offset="0.5269" stop-color="#E6E5EE"/>
<stop offset="0.6441" stop-color="#F4F4F8"/>
<stop offset="0.7831" stop-color="#FCFCFD"/>
<stop offset="1" stop-color="white"/>
</radialGradient>
<linearGradient id="paint3_linear" x1="157.027" y1="55.4512" x2="157.027" y2="53.1833" gradientUnits="userSpaceOnUse">
<stop stop-color="#1B1464"/>
<stop offset="0.0669379" stop-color="#453F81"/>
<stop offset="0.1475" stop-color="#706C9E"/>
<stop offset="0.2339" stop-color="#9793B8"/>
<stop offset="0.3249" stop-color="#B7B5CE"/>
<stop offset="0.4219" stop-color="#D1D0E0"/>
<stop offset="0.5269" stop-color="#E6E5EE"/>
<stop offset="0.6441" stop-color="#F4F4F8"/>
<stop offset="0.7831" stop-color="#FCFCFD"/>
<stop offset="1" stop-color="white"/>
</linearGradient>
<radialGradient id="paint4_radial" cx="0" cy="0" r="1" gradientUnits="userSpaceOnUse" gradientTransform="translate(172.028 45.5614) rotate(180) scale(161.667 161.655)">
<stop stop-color="#1B1464"/>
<stop offset="0.0669379" stop-color="#453F81"/>
<stop offset="0.1475" stop-color="#706C9E"/>
<stop offset="0.2339" stop-color="#9793B8"/>
<stop offset="0.3249" stop-color="#B7B5CE"/>
<stop offset="0.4219" stop-color="#D1D0E0"/>
<stop offset="0.5269" stop-color="#E6E5EE"/>
<stop offset="0.6441" stop-color="#F4F4F8"/>
<stop offset="0.7831" stop-color="#FCFCFD"/>
<stop offset="1" stop-color="white"/>
</radialGradient>
<linearGradient id="paint5_linear" x1="167.225" y1="72.7602" x2="167.225" y2="50.7891" gradientUnits="userSpaceOnUse">
<stop stop-color="#1B1464"/>
<stop offset="0.0669379" stop-color="#453F81"/>
<stop offset="0.1475" stop-color="#706C9E"/>
<stop offset="0.2339" stop-color="#9793B8"/>
<stop offset="0.3249" stop-color="#B7B5CE"/>
<stop offset="0.4219" stop-color="#D1D0E0"/>
<stop offset="0.5269" stop-color="#E6E5EE"/>
<stop offset="0.6441" stop-color="#F4F4F8"/>
<stop offset="0.7831" stop-color="#FCFCFD"/>
<stop offset="1" stop-color="white"/>
</linearGradient>
<linearGradient id="paint6_linear" x1="55.6555" y1="51.2968" x2="55.6555" y2="46.2785" gradientUnits="userSpaceOnUse">
<stop stop-color="#1B1464"/>
<stop offset="0.0669379" stop-color="#453F81"/>
<stop offset="0.1475" stop-color="#706C9E"/>
<stop offset="0.2339" stop-color="#9793B8"/>
<stop offset="0.3249" stop-color="#B7B5CE"/>
<stop offset="0.4219" stop-color="#D1D0E0"/>
<stop offset="0.5269" stop-color="#E6E5EE"/>
<stop offset="0.6441" stop-color="#F4F4F8"/>
<stop offset="0.7831" stop-color="#FCFCFD"/>
<stop offset="1" stop-color="white"/>
</linearGradient>
<linearGradient id="paint7_linear" x1="55.4925" y1="36.1231" x2="55.4925" y2="26.6845" gradientUnits="userSpaceOnUse">
<stop stop-color="#1B1464"/>
<stop offset="0.0669379" stop-color="#453F81"/>
<stop offset="0.1475" stop-color="#706C9E"/>
<stop offset="0.2339" stop-color="#9793B8"/>
<stop offset="0.3249" stop-color="#B7B5CE"/>
<stop offset="0.4219" stop-color="#D1D0E0"/>
<stop offset="0.5269" stop-color="#E6E5EE"/>
<stop offset="0.6441" stop-color="#F4F4F8"/>
<stop offset="0.7831" stop-color="#FCFCFD"/>
<stop offset="1" stop-color="white"/>
</linearGradient>
<linearGradient id="paint8_linear" x1="95.8294" y1="50.9546" x2="95.8294" y2="43.5855" gradientUnits="userSpaceOnUse">
<stop stop-color="#1B1464"/>
<stop offset="0.0669379" stop-color="#453F81"/>
<stop offset="0.1475" stop-color="#706C9E"/>
<stop offset="0.2339" stop-color="#9793B8"/>
<stop offset="0.3249" stop-color="#B7B5CE"/>
<stop offset="0.4219" stop-color="#D1D0E0"/>
<stop offset="0.5269" stop-color="#E6E5EE"/>
<stop offset="0.6441" stop-color="#F4F4F8"/>
<stop offset="0.7831" stop-color="#FCFCFD"/>
<stop offset="1" stop-color="white"/>
</linearGradient>
<linearGradient id="paint9_linear" x1="97.0214" y1="34.2995" x2="97.0214" y2="25.4017" gradientUnits="userSpaceOnUse">
<stop stop-color="#1B1464"/>
<stop offset="0.0669379" stop-color="#453F81"/>
<stop offset="0.1475" stop-color="#706C9E"/>
<stop offset="0.2339" stop-color="#9793B8"/>
<stop offset="0.3249" stop-color="#B7B5CE"/>
<stop offset="0.4219" stop-color="#D1D0E0"/>
<stop offset="0.5269" stop-color="#E6E5EE"/>
<stop offset="0.6441" stop-color="#F4F4F8"/>
<stop offset="0.7831" stop-color="#FCFCFD"/>
<stop offset="1" stop-color="white"/>
</linearGradient>
<linearGradient id="paint10_linear" x1="110.168" y1="20.9716" x2="110.168" y2="16.5031" gradientUnits="userSpaceOnUse">
<stop stop-color="#1B1464"/>
<stop offset="0.0669379" stop-color="#453F81"/>
<stop offset="0.1475" stop-color="#706C9E"/>
<stop offset="0.2339" stop-color="#9793B8"/>
<stop offset="0.3249" stop-color="#B7B5CE"/>
<stop offset="0.4219" stop-color="#D1D0E0"/>
<stop offset="0.5269" stop-color="#E6E5EE"/>
<stop offset="0.6441" stop-color="#F4F4F8"/>
<stop offset="0.7831" stop-color="#FCFCFD"/>
<stop offset="1" stop-color="white"/>
</linearGradient>
<linearGradient id="paint11_linear" x1="135.186" y1="49.2433" x2="135.186" y2="45.3473" gradientUnits="userSpaceOnUse">
<stop stop-color="#1B1464"/>
<stop offset="0.0669379" stop-color="#453F81"/>
<stop offset="0.1475" stop-color="#706C9E"/>
<stop offset="0.2339" stop-color="#9793B8"/>
<stop offset="0.3249" stop-color="#B7B5CE"/>
<stop offset="0.4219" stop-color="#D1D0E0"/>
<stop offset="0.5269" stop-color="#E6E5EE"/>
<stop offset="0.6441" stop-color="#F4F4F8"/>
<stop offset="0.7831" stop-color="#FCFCFD"/>
<stop offset="1" stop-color="white"/>
</linearGradient>
<linearGradient id="paint12_linear" x1="133.272" y1="39.5011" x2="133.272" y2="36.9812" gradientUnits="userSpaceOnUse">
<stop stop-color="#1B1464"/>
<stop offset="0.0669379" stop-color="#453F81"/>
<stop offset="0.1475" stop-color="#706C9E"/>
<stop offset="0.2339" stop-color="#9793B8"/>
<stop offset="0.3249" stop-color="#B7B5CE"/>
<stop offset="0.4219" stop-color="#D1D0E0"/>
<stop offset="0.5269" stop-color="#E6E5EE"/>
<stop offset="0.6441" stop-color="#F4F4F8"/>
<stop offset="0.7831" stop-color="#FCFCFD"/>
<stop offset="1" stop-color="white"/>
</linearGradient>
<linearGradient id="paint13_linear" x1="168.137" y1="51.1629" x2="168.137" y2="48.3395" gradientUnits="userSpaceOnUse">
<stop stop-color="#1B1464"/>
<stop offset="0.0669379" stop-color="#453F81"/>
<stop offset="0.1475" stop-color="#706C9E"/>
<stop offset="0.2339" stop-color="#9793B8"/>
<stop offset="0.3249" stop-color="#B7B5CE"/>
<stop offset="0.4219" stop-color="#D1D0E0"/>
<stop offset="0.5269" stop-color="#E6E5EE"/>
<stop offset="0.6441" stop-color="#F4F4F8"/>
<stop offset="0.7831" stop-color="#FCFCFD"/>
<stop offset="1" stop-color="white"/>
</linearGradient>
<linearGradient id="paint14_linear" x1="174.077" y1="50.4724" x2="174.077" y2="32.449" gradientUnits="userSpaceOnUse">
<stop stop-color="#1B1464"/>
<stop offset="0.0669379" stop-color="#453F81"/>
<stop offset="0.1475" stop-color="#706C9E"/>
<stop offset="0.2339" stop-color="#9793B8"/>
<stop offset="0.3249" stop-color="#B7B5CE"/>
<stop offset="0.4219" stop-color="#D1D0E0"/>
<stop offset="0.5269" stop-color="#E6E5EE"/>
<stop offset="0.6441" stop-color="#F4F4F8"/>
<stop offset="0.7831" stop-color="#FCFCFD"/>
<stop offset="1" stop-color="white"/>
</linearGradient>
<linearGradient id="paint15_linear" x1="200.057" y1="53.1823" x2="200.057" y2="38.6466" gradientUnits="userSpaceOnUse">
<stop stop-color="#1B1464"/>
<stop offset="0.0669379" stop-color="#453F81"/>
<stop offset="0.1475" stop-color="#706C9E"/>
<stop offset="0.2339" stop-color="#9793B8"/>
<stop offset="0.3249" stop-color="#B7B5CE"/>
<stop offset="0.4219" stop-color="#D1D0E0"/>
<stop offset="0.5269" stop-color="#E6E5EE"/>
<stop offset="0.6441" stop-color="#F4F4F8"/>
<stop offset="0.7831" stop-color="#FCFCFD"/>
<stop offset="1" stop-color="white"/>
</linearGradient>
<linearGradient id="paint16_linear" x1="235.852" y1="49.2101" x2="235.852" y2="40.8795" gradientUnits="userSpaceOnUse">
<stop stop-color="#1B1464"/>
<stop offset="0.0669379" stop-color="#453F81"/>
<stop offset="0.1475" stop-color="#706C9E"/>
<stop offset="0.2339" stop-color="#9793B8"/>
<stop offset="0.3249" stop-color="#B7B5CE"/>
<stop offset="0.4219" stop-color="#D1D0E0"/>
<stop offset="0.5269" stop-color="#E6E5EE"/>
<stop offset="0.6441" stop-color="#F4F4F8"/>
<stop offset="0.7831" stop-color="#FCFCFD"/>
<stop offset="1" stop-color="white"/>
</linearGradient>
<linearGradient id="paint17_linear" x1="236.774" y1="32.6773" x2="236.774" y2="28.2418" gradientUnits="userSpaceOnUse">
<stop stop-color="#1B1464"/>
<stop offset="0.0669379" stop-color="#453F81"/>
<stop offset="0.1475" stop-color="#706C9E"/>
<stop offset="0.2339" stop-color="#9793B8"/>
<stop offset="0.3249" stop-color="#B7B5CE"/>
<stop offset="0.4219" stop-color="#D1D0E0"/>
<stop offset="0.5269" stop-color="#E6E5EE"/>
<stop offset="0.6441" stop-color="#F4F4F8"/>
<stop offset="0.7831" stop-color="#FCFCFD"/>
<stop offset="1" stop-color="white"/>
</linearGradient>
<linearGradient id="paint18_linear" x1="277.731" y1="41.892" x2="277.731" y2="38.9031" gradientUnits="userSpaceOnUse">
<stop stop-color="#1B1464"/>
<stop offset="0.0669379" stop-color="#453F81"/>
<stop offset="0.1475" stop-color="#706C9E"/>
<stop offset="0.2339" stop-color="#9793B8"/>
<stop offset="0.3249" stop-color="#B7B5CE"/>
<stop offset="0.4219" stop-color="#D1D0E0"/>
<stop offset="0.5269" stop-color="#E6E5EE"/>
<stop offset="0.6441" stop-color="#F4F4F8"/>
<stop offset="0.7831" stop-color="#FCFCFD"/>
<stop offset="1" stop-color="white"/>
</linearGradient>
<linearGradient id="paint19_linear" x1="277.547" y1="34.8203" x2="277.547" y2="28.1893" gradientUnits="userSpaceOnUse">
<stop stop-color="#1B1464"/>
<stop offset="0.0669379" stop-color="#453F81"/>
<stop offset="0.1475" stop-color="#706C9E"/>
<stop offset="0.2339" stop-color="#9793B8"/>
<stop offset="0.3249" stop-color="#B7B5CE"/>
<stop offset="0.4219" stop-color="#D1D0E0"/>
<stop offset="0.5269" stop-color="#E6E5EE"/>
<stop offset="0.6441" stop-color="#F4F4F8"/>
<stop offset="0.7831" stop-color="#FCFCFD"/>
<stop offset="1" stop-color="white"/>
</linearGradient>
<linearGradient id="paint20_linear" x1="241.771" y1="23.0301" x2="241.771" y2="13.6832" gradientUnits="userSpaceOnUse">
<stop stop-color="#1B1464"/>
<stop offset="0.0669379" stop-color="#453F81"/>
<stop offset="0.1475" stop-color="#706C9E"/>
<stop offset="0.2339" stop-color="#9793B8"/>
<stop offset="0.3249" stop-color="#B7B5CE"/>
<stop offset="0.4219" stop-color="#D1D0E0"/>
<stop offset="0.5269" stop-color="#E6E5EE"/>
<stop offset="0.6441" stop-color="#F4F4F8"/>
<stop offset="0.7831" stop-color="#FCFCFD"/>
<stop offset="1" stop-color="white"/>
</linearGradient>
<linearGradient id="paint21_linear" x1="172.863" y1="26.4239" x2="172.863" y2="23.4036" gradientUnits="userSpaceOnUse">
<stop stop-color="#1B1464"/>
<stop offset="0.0669379" stop-color="#453F81"/>
<stop offset="0.1475" stop-color="#706C9E"/>
<stop offset="0.2339" stop-color="#9793B8"/>
<stop offset="0.3249" stop-color="#B7B5CE"/>
<stop offset="0.4219" stop-color="#D1D0E0"/>
<stop offset="0.5269" stop-color="#E6E5EE"/>
<stop offset="0.6441" stop-color="#F4F4F8"/>
<stop offset="0.7831" stop-color="#FCFCFD"/>
<stop offset="1" stop-color="white"/>
</linearGradient>
<linearGradient id="paint22_linear" x1="172.097" y1="8.44219" x2="172.097" y2="6.2406" gradientUnits="userSpaceOnUse">
<stop stop-color="#1B1464"/>
<stop offset="0.0669379" stop-color="#453F81"/>
<stop offset="0.1475" stop-color="#706C9E"/>
<stop offset="0.2339" stop-color="#9793B8"/>
<stop offset="0.3249" stop-color="#B7B5CE"/>
<stop offset="0.4219" stop-color="#D1D0E0"/>
<stop offset="0.5269" stop-color="#E6E5EE"/>
<stop offset="0.6441" stop-color="#F4F4F8"/>
<stop offset="0.7831" stop-color="#FCFCFD"/>
<stop offset="1" stop-color="white"/>
</linearGradient>
<linearGradient id="paint23_linear" x1="133.574" y1="23.5609" x2="133.574" y2="15.4844" gradientUnits="userSpaceOnUse">
<stop stop-color="#1B1464"/>
<stop offset="0.0669379" stop-color="#453F81"/>
<stop offset="0.1475" stop-color="#706C9E"/>
<stop offset="0.2339" stop-color="#9793B8"/>
<stop offset="0.3249" stop-color="#B7B5CE"/>
<stop offset="0.4219" stop-color="#D1D0E0"/>
<stop offset="0.5269" stop-color="#E6E5EE"/>
<stop offset="0.6441" stop-color="#F4F4F8"/>
<stop offset="0.7831" stop-color="#FCFCFD"/>
<stop offset="1" stop-color="white"/>
</linearGradient>
<linearGradient id="paint24_linear" x1="130.114" y1="5.92421" x2="130.114" y2="0.455393" gradientUnits="userSpaceOnUse">
<stop stop-color="#1B1464"/>
<stop offset="0.0669379" stop-color="#453F81"/>
<stop offset="0.1475" stop-color="#706C9E"/>
<stop offset="0.2339" stop-color="#9793B8"/>
<stop offset="0.3249" stop-color="#B7B5CE"/>
<stop offset="0.4219" stop-color="#D1D0E0"/>
<stop offset="0.5269" stop-color="#E6E5EE"/>
<stop offset="0.6441" stop-color="#F4F4F8"/>
<stop offset="0.7831" stop-color="#FCFCFD"/>
<stop offset="1" stop-color="white"/>
</linearGradient>
<linearGradient id="paint25_linear" x1="162.27" y1="67.3562" x2="147.184" y2="53.8328" gradientUnits="userSpaceOnUse">
<stop/>
<stop offset="1" stop-color="white"/>
</linearGradient>
<linearGradient id="paint26_linear" x1="130.668" y1="61.0201" x2="123.898" y2="54.9512" gradientUnits="userSpaceOnUse">
<stop/>
<stop offset="1" stop-color="white"/>
</linearGradient>
<linearGradient id="paint27_linear" x1="203.012" y1="69.1757" x2="198.391" y2="65.0331" gradientUnits="userSpaceOnUse">
<stop/>
<stop offset="1" stop-color="white"/>
</linearGradient>
<linearGradient id="paint28_linear" x1="226.395" y1="61.7417" x2="215.37" y2="51.8581" gradientUnits="userSpaceOnUse">
<stop/>
<stop offset="1" stop-color="white"/>
</linearGradient>
<linearGradient id="paint29_linear" x1="229.759" y1="73.1254" x2="219.878" y2="64.2679" gradientUnits="userSpaceOnUse">
<stop/>
<stop offset="1" stop-color="white"/>
</linearGradient>
<linearGradient id="paint30_linear" x1="275.703" y1="65.033" x2="267.974" y2="58.1052" gradientUnits="userSpaceOnUse">
<stop/>
<stop offset="1" stop-color="white"/>
</linearGradient>
<linearGradient id="paint31_linear" x1="300.692" y1="69.3725" x2="289.288" y2="59.149" gradientUnits="userSpaceOnUse">
<stop/>
<stop offset="1" stop-color="white"/>
</linearGradient>
<linearGradient id="paint32_linear" x1="280.794" y1="67.6403" x2="277.25" y2="64.463" gradientUnits="userSpaceOnUse">
<stop/>
<stop offset="1" stop-color="white"/>
</linearGradient>
<linearGradient id="paint33_linear" x1="211.363" y1="64.0399" x2="204.235" y2="57.6502" gradientUnits="userSpaceOnUse">
<stop/>
<stop offset="1" stop-color="white"/>
</linearGradient>
<linearGradient id="paint34_linear" x1="189.823" y1="65.4104" x2="181.601" y2="58.0399" gradientUnits="userSpaceOnUse">
<stop/>
<stop offset="1" stop-color="white"/>
</linearGradient>
<linearGradient id="paint35_linear" x1="152.906" y1="80.8961" x2="131.599" y2="61.7952" gradientUnits="userSpaceOnUse">
<stop/>
<stop offset="1" stop-color="white"/>
</linearGradient>
<linearGradient id="paint36_linear" x1="94.5952" y1="70.5365" x2="89.0911" y2="65.6024" gradientUnits="userSpaceOnUse">
<stop/>
<stop offset="1" stop-color="white"/>
</linearGradient>
<linearGradient id="paint37_linear" x1="55.5938" y1="68.049" x2="48.2775" y2="61.4903" gradientUnits="userSpaceOnUse">
<stop/>
<stop offset="1" stop-color="white"/>
</linearGradient>
<linearGradient id="paint38_linear" x1="22.4795" y1="68.8621" x2="11.3961" y2="58.9264" gradientUnits="userSpaceOnUse">
<stop/>
<stop offset="1" stop-color="white"/>
</linearGradient>
<linearGradient id="paint39_linear" x1="178.097" y1="44.3323" x2="171.061" y2="38.0254" gradientUnits="userSpaceOnUse">
<stop/>
<stop offset="1" stop-color="white"/>
</linearGradient>
<linearGradient id="paint40_linear" x1="202.557" y1="46.9796" x2="197.911" y2="42.815" gradientUnits="userSpaceOnUse">
<stop/>
<stop offset="1" stop-color="white"/>
</linearGradient>
<linearGradient id="paint41_linear" x1="135.387" y1="20.5311" x2="132.462" y2="17.9086" gradientUnits="userSpaceOnUse">
<stop/>
<stop offset="1" stop-color="white"/>
</linearGradient>
<linearGradient id="paint42_linear" x1="236.297" y1="46.7283" x2="233.5" y2="44.2216" gradientUnits="userSpaceOnUse">
<stop/>
<stop offset="1" stop-color="white"/>
</linearGradient>
<linearGradient id="paint43_linear" x1="277.881" y1="32.262" x2="275.78" y2="30.3786" gradientUnits="userSpaceOnUse">
<stop/>
<stop offset="1" stop-color="white"/>
</linearGradient>
<linearGradient id="paint44_linear" x1="242.766" y1="20.0708" x2="239.913" y2="17.5137" gradientUnits="userSpaceOnUse">
<stop/>
<stop offset="1" stop-color="white"/>
</linearGradient>
<linearGradient id="paint45_linear" x1="57.0994" y1="33.4249" x2="53.1008" y2="29.8405" gradientUnits="userSpaceOnUse">
<stop/>
<stop offset="1" stop-color="white"/>
</linearGradient>
<linearGradient id="paint46_linear" x1="97.2631" y1="48.3984" x2="94.9728" y2="46.3452" gradientUnits="userSpaceOnUse">
<stop/>
<stop offset="1" stop-color="white"/>
</linearGradient>
<linearGradient id="paint47_linear" x1="97.8837" y1="30.7298" x2="95.7573" y2="28.8236" gradientUnits="userSpaceOnUse">
<stop/>
<stop offset="1" stop-color="white"/>
</linearGradient>
</defs>
</svg>
