<svg width="168" height="83" viewBox="0 0 168 83" fill="none" xmlns="http://www.w3.org/2000/svg">
<path d="M27.9416 36.4164C27.9416 36.4164 35.9332 42.4836 42.0009 52.1024C42.8149 53.4343 43.6289 54.8401 44.3688 56.3199C48.5126 64.6069 51.3984 72.6719 52.8044 76.8893C52.9524 77.4073 53.1004 77.8512 53.2484 78.2212C53.5444 79.257 54.5063 79.9969 55.5423 79.9969C56.5782 80.0709 57.9101 80.1449 59.3901 80.2189C59.7601 80.2189 60.13 80.2929 60.574 80.2929C63.4599 80.4409 66.4197 80.5889 67.5297 80.5149C68.1217 80.5149 69.3796 80.5149 71.0076 80.5149C71.6735 80.5149 72.3394 80.5149 73.1534 80.5889C74.0413 80.5889 75.0033 80.6629 76.0393 80.6629C77.9632 80.7369 80.0351 80.8848 82.255 81.0328C86.0288 81.3288 90.0986 81.6987 93.9465 82.3647C96.0184 82.6606 98.2382 82.7346 100.458 82.5866C100.976 82.5866 101.42 82.5126 101.938 82.4386C103.862 82.2167 105.786 81.9207 107.636 81.4768C108.82 81.2548 109.93 80.9588 111.04 80.6629C113.334 80.0709 115.405 79.331 117.107 78.7391C117.773 78.5171 118.439 78.2212 118.957 78.0732C120.215 77.5553 121.177 76.4454 121.473 75.1136C122.065 72.3019 123.767 66.2347 129.021 54.2482C131.759 47.9589 134.422 43.6675 136.716 40.6339C141.156 34.8626 144.338 34.1227 144.338 34.1227L146.336 24.0599L135.31 20.2124L120.363 26.7236L103.862 34.9366L90.4686 42.7796L81.441 43.0016L51.8425 39.376L42.0749 38.1922L38.8931 37.8222L27.9416 36.4164Z" fill="#81D0D3"/>
<path d="M27.9416 36.4164C27.9416 36.4164 35.9332 42.4836 42.0009 52.1024C42.8149 53.4343 43.6289 54.8401 44.3688 56.3199C48.5126 64.6069 51.3984 72.6719 52.8044 76.8893C52.9524 77.4073 53.1004 77.8512 53.2484 78.2212C53.5444 79.257 54.5063 79.9969 55.5423 79.9969C56.5782 80.0709 57.9101 80.1449 59.3901 80.2189C59.7601 80.2189 60.13 80.2929 60.574 80.2929C63.4599 80.4409 66.4197 80.5889 67.5297 80.5149C68.1217 80.5149 69.3796 80.5149 71.0076 80.5149C71.6735 80.5149 72.3394 80.5149 73.1534 80.5889C74.0413 80.5889 75.0033 80.6629 76.0393 80.6629C77.9632 80.7369 80.0351 80.8848 82.255 81.0328C86.0288 81.3288 90.0986 81.6987 93.9465 82.3647C96.0184 82.6606 98.2382 82.7346 100.458 82.5866C100.976 82.5866 101.42 82.5126 101.938 82.4386C103.862 82.2167 105.786 81.9207 107.636 81.4768C108.82 81.2548 109.93 80.9588 111.04 80.6629C113.334 80.0709 115.405 79.331 117.107 78.7391C117.773 78.5171 118.439 78.2212 118.957 78.0732C120.215 77.5553 121.177 76.4454 121.473 75.1136C122.065 72.3019 123.767 66.2347 129.021 54.2482C131.759 47.9589 134.422 43.6675 136.716 40.6339C141.156 34.8626 144.338 34.1227 144.338 34.1227L146.336 24.0599L135.31 20.2124L120.363 26.7236L103.862 34.9366L90.4686 42.7796L81.441 43.0016L51.8425 39.376L42.0749 38.1922L38.8931 37.8222L27.9416 36.4164Z" fill="url(#paint0_radial)"/>
<path opacity="0.1" d="M27.9416 36.4164C27.9416 36.4164 35.9332 42.4836 42.0009 52.1024C42.8149 53.4343 43.6289 54.8401 44.3688 56.3199C48.5126 64.6069 51.3984 72.6719 52.8044 76.8893C52.9524 77.4073 53.1004 77.8512 53.2484 78.2212C53.5444 79.257 54.5063 79.9969 55.5423 79.9969C56.5782 80.0709 57.9101 80.1449 59.3901 80.2189C59.7601 80.2189 60.13 80.2929 60.574 80.2929C63.4599 80.4409 66.4197 80.5889 67.5297 80.5149C68.1217 80.5149 69.3796 80.5149 71.0076 80.5149C71.6735 80.5149 72.3394 80.5149 73.1534 80.5889C74.0413 80.5889 75.0033 80.6629 76.0393 80.6629C77.9632 80.7369 80.0351 80.8848 82.255 81.0328C86.0288 81.3288 90.0986 81.6987 93.9465 82.3647C96.0184 82.6606 98.2382 82.7346 100.458 82.5866C100.976 82.5866 101.42 82.5126 101.938 82.4386C103.862 82.2167 105.786 81.9207 107.636 81.4768C108.82 81.2548 109.93 80.9588 111.04 80.6629C113.334 80.0709 115.405 79.331 117.107 78.7391C117.773 78.5171 118.439 78.2212 118.957 78.0732C120.215 77.5553 121.177 76.4454 121.473 75.1136C122.065 72.3019 123.767 66.2347 129.021 54.2482C131.759 47.9589 134.422 43.6675 136.716 40.6339C141.156 34.8626 144.338 34.1227 144.338 34.1227L146.336 24.0599L135.31 20.2124L120.363 26.7236L103.862 34.9366L90.4686 42.7796L81.441 43.0016L51.8425 39.376L42.0749 38.1922L38.8931 37.8222L27.9416 36.4164Z" fill="url(#paint1_linear)"/>
<path opacity="0.2" d="M27.9416 36.4164C27.9416 36.4164 35.9332 42.4836 42.0009 52.1024C42.0009 52.1024 42.4449 50.8446 45.0347 52.1764C47.6246 53.5082 49.7706 51.8065 50.3625 50.1047C50.9545 48.4029 53.9143 51.2145 55.9862 53.4343C58.0582 55.654 60.2041 56.7638 62.128 57.0598C64.0519 57.3558 67.7516 62.0172 72.0434 62.0172C76.3352 62.0172 77.2972 56.8378 84.6228 56.8378C91.9485 56.8378 103.862 46.3311 107.192 44.1114C110.522 41.8917 111.114 50.8446 111.114 50.8446C111.114 50.8446 116.441 40.4859 117.329 41.8917C118.217 43.2975 120.585 42.1877 121.843 41.9657C123.027 41.7437 118.143 55.802 117.995 56.1719C118.217 55.802 126.135 44.5554 128.355 41.7437C130.649 38.8581 130.945 38.1922 131.907 39.82C132.869 41.4478 136.642 40.6339 136.642 40.6339C141.082 34.8626 144.264 34.1227 144.264 34.1227L146.262 24.0599L135.236 20.2124L120.289 26.7236L103.788 34.9366L90.3946 42.7796L81.3671 43.0016L51.7685 39.376L27.9416 36.4164Z" fill="#0071BC"/>
<path opacity="0.2" d="M82.255 80.9588C86.0288 81.2547 90.0986 81.6247 93.9465 82.2906C101.716 83.5484 111.558 80.6628 117.033 78.739C116.885 78.6651 114.147 77.9991 115.035 75.7054C115.997 73.2637 122.139 60.9813 121.547 61.2772C120.955 61.5732 117.847 64.0889 117.403 66.0126C116.959 67.9364 113.704 72.2279 112.816 73.0418C111.928 73.8557 108.746 80.7368 107.562 81.0328C106.378 81.3287 100.828 81.9207 100.976 80.0709C101.124 78.2211 105.786 60.2414 104.676 61.6472C103.64 62.979 102.308 66.0126 100.976 70.822C99.6442 75.6314 95.6484 81.4767 94.3904 80.2929C93.2065 79.109 92.8365 76.2974 91.8005 77.5552C90.8386 78.6651 82.551 80.8848 82.255 80.9588Z" fill="#0071BC"/>
<path opacity="0.2" d="M52.7304 76.8154C52.9524 77.4813 53.1004 78.0732 53.2484 78.5171C53.4704 79.331 54.2103 79.849 55.0243 79.923C58.1321 80.1449 65.4578 80.5889 67.3817 80.5149C68.4917 80.4409 71.6735 80.4409 75.9653 80.6629C75.9653 80.6629 73.0795 78.5171 72.4875 78.0732C71.8955 77.6293 71.5255 78.3692 69.7496 78.8131C67.9737 79.2571 61.9799 79.997 61.24 79.331C60.5 78.6651 56.2822 69.7122 56.1342 70.7481C55.9862 71.784 57.7621 78.4432 55.7642 78.4432C53.8403 78.3692 52.7304 76.8154 52.7304 76.8154Z" fill="#0071BC"/>
<path opacity="0.8" d="M107.562 80.9589L107.636 81.4768C108.82 81.2548 109.93 80.9589 111.04 80.6629C110.374 77.6293 114.591 63.719 119.253 52.5464C123.915 41.3738 132.055 33.3088 135.088 30.1272C138.122 27.0196 140.49 28.5734 140.49 28.5734C140.49 28.5734 140.564 20.1385 134.126 25.0218C127.689 29.9792 119.771 46.0352 116.071 53.8782C112.224 61.6473 107.562 80.9589 107.562 80.9589Z" fill="url(#paint2_linear)"/>
<path opacity="0.8" d="M100.458 82.5127C100.976 82.5127 101.42 82.4387 101.938 82.3647C102.382 80.071 106.23 60.9074 108.45 54.8402C110.818 48.329 113.407 37.0824 119.327 34.6407C118.143 32.5689 113.26 35.4546 113.26 35.4546C113.26 35.4546 108.672 44.9994 105.86 55.7281C103.418 64.8289 101.124 78.4432 100.458 82.5127Z" fill="url(#paint3_linear)"/>
<path opacity="0.8" d="M59.6861 48.6989C59.6861 48.6989 63.6079 54.8401 64.3479 56.8379C65.0878 58.8356 66.6418 63.571 68.7877 65.3468C70.9336 67.1226 70.0456 67.6405 70.1196 69.7863C70.1936 71.3401 70.6375 77.4813 70.8595 80.4409C71.5255 80.4409 72.1915 80.4409 73.0054 80.5149C73.0054 80.5149 71.8955 65.2728 72.1915 64.3849C72.4875 63.497 74.4854 61.2033 74.4854 58.7616C74.4854 56.3199 75.0034 50.4747 77.2973 47.885C79.5912 45.2953 73.3754 50.4007 73.3754 50.4007C73.3754 50.4007 72.0435 56.4679 72.1175 58.1697C72.1915 59.8715 70.1936 62.3872 70.0456 63.2751C69.9716 64.163 68.4177 59.7235 66.7157 57.1338C65.0138 54.5442 63.0159 50.7706 63.0159 48.9948C63.0899 47.2191 59.6861 48.6989 59.6861 48.6989Z" fill="url(#paint4_linear)"/>
<path opacity="0.8" d="M37.9311 36.4165C37.9311 36.4165 38.2271 36.9344 38.745 37.8223C41.1129 41.8178 47.8466 53.2124 49.3266 56.0981C50.8065 59.1317 57.6142 74.4478 59.3161 80.219C59.6861 80.219 60.056 80.293 60.5 80.293C59.7601 77.1854 57.5401 68.2325 53.9143 61.2774C50.2885 54.3963 44.2208 42.6317 42.0009 38.1923C41.4089 37.0824 41.113 36.4165 41.113 36.4165H37.9311Z" fill="url(#paint5_linear)"/>
<path d="M0.636918 22.0622C1.45088 25.0218 7.37061 28.4994 9.81249 27.8335C9.44251 30.5712 7.88861 35.9725 17.8781 36.1205C22.0219 36.1945 25.5738 36.4904 28.6076 36.9344C32.8994 37.5263 36.1552 38.4882 38.6711 39.524C39.1151 39.746 39.6331 39.894 40.151 40.116C41.335 40.5599 42.519 41.0778 43.7029 41.5958C45.8488 42.4837 48.0687 43.5195 50.1406 44.7774C50.6585 45.1473 51.2506 45.5173 51.7685 45.8872C52.5085 46.4052 53.4704 47.0711 54.5064 47.737C56.2823 48.8469 58.5022 50.0307 61.0921 50.8446C61.98 51.1406 62.9419 51.4366 63.9039 51.6585C66.7897 52.2505 69.9716 52.3984 73.3015 51.5845C74.1894 51.3626 75.0034 51.0666 75.8913 50.7706C75.9653 50.7706 76.0393 50.6966 76.0393 50.6966C86.5468 46.4052 88.2487 49.3648 89.0627 48.033C89.8766 46.7011 94.0945 40.2639 98.4603 39.0061C101.716 38.1182 107.562 35.8245 113.26 35.4545C114.739 35.3066 116.293 35.3806 117.699 35.5285C118.217 35.6025 118.735 35.6765 119.253 35.8245C126.431 37.6003 126.209 33.1608 126.061 32.4949C125.913 31.903 131.981 30.7191 125.987 26.4277C125.987 26.4277 129.021 25.9097 132.647 26.2057C135.236 26.4277 138.122 27.0196 140.49 28.4994C141.674 29.2393 142.784 30.2012 143.598 31.459C143.228 32.125 143.524 33.1608 144.338 34.1227C145.448 35.4545 147.52 36.7864 150.702 37.0823C156.177 37.6003 157.657 34.1967 157.657 34.1967C157.657 34.1967 161.801 35.8985 163.355 33.3828C164.983 30.8671 162.097 26.3537 160.025 25.2438C160.469 24.2819 160.173 23.2461 159.655 22.3582C159.655 22.3582 159.655 22.3582 159.655 22.2842C158.989 21.1743 158.101 20.2864 157.953 20.1385C158.323 20.2864 164.021 22.6541 166.463 17.1788C168.979 11.5555 163.355 7.85599 161.431 8.89186C161.357 7.19008 160.765 5.4143 158.915 4.37843C158.915 4.37843 158.915 4.37843 158.841 4.37843C158.693 4.30444 158.619 4.23045 158.471 4.15646C158.175 4.00847 157.953 3.93448 157.583 3.7865C157.435 3.71251 157.287 3.71251 157.065 3.63852C156.917 3.63852 156.695 3.56453 156.547 3.56453C153.81 3.12058 149.74 3.71251 143.672 6.37618C144.264 4.67439 143.746 3.12058 142.414 2.01072C140.49 0.456916 137.086 -0.0610186 133.609 1.56678C132.573 2.01072 131.611 2.52866 130.797 3.04659C126.949 5.26632 125.395 7.48604 125.395 7.48604C125.395 7.48604 123.619 5.26631 122.657 6.9681C121.695 8.66989 110.004 27.5375 106.156 29.3873C103.492 28.1295 97.6463 29.9052 95.7964 32.7169C93.9465 35.4545 89.8767 40.042 89.8767 40.042C89.8767 40.042 82.181 39.1541 79.9612 35.3806C77.7413 31.607 73.2275 17.4008 67.4557 14.9591C67.3077 14.8851 67.0858 14.8111 66.9378 14.7371C66.7158 14.6631 66.4198 14.5152 66.1978 14.4412C66.0498 14.3672 65.9018 14.3672 65.7538 14.2932C65.5318 14.2192 65.3839 14.1452 65.1619 14.1452C65.1619 14.1452 65.1619 14.1452 65.0879 14.1452C64.9399 14.0712 64.7918 14.0712 64.6438 13.9972H64.5699C64.4219 13.9232 64.2739 13.9232 64.1259 13.9232C63.9779 13.8492 63.8299 13.8492 63.6819 13.8492C63.5339 13.8492 63.386 13.7753 63.312 13.7753C63.312 13.7753 63.312 13.7753 63.238 13.7753C62.942 13.7013 62.72 13.7013 62.498 13.7013H62.4239C62.276 13.7013 62.202 13.7013 62.054 13.7013C61.462 13.7013 60.944 13.7013 60.5001 13.7753C59.9081 13.8492 59.3901 14.0712 59.0201 14.2932C58.3542 14.6631 57.9842 15.1811 57.9102 15.773C57.5402 17.7708 55.9123 25.9837 52.2865 22.8021C48.6606 19.6945 41.557 14.4412 42.0009 11.9255C42.4449 9.4098 40.299 5.56228 36.3772 2.82462C35.1933 2.01072 33.2694 1.3448 31.1975 1.12283C28.6076 0.90086 25.7217 1.41879 23.9458 3.19457C22.5399 4.6004 21.7259 6.74613 22.0959 9.92773C20.024 9.11383 19.5801 11.9995 19.5801 11.9995C19.5801 11.9995 17.4342 10.8156 15.5843 11.1856C14.6223 10.8896 12.9203 10.8156 11.2924 11.0376C9.14653 11.3336 7.07464 12.2954 6.40868 14.3672C6.18669 15.1071 6.11271 15.995 6.3347 17.1048C4.41079 16.6609 2.70884 17.2528 1.67289 18.2887C0.710932 19.2506 0.266935 20.6564 0.636918 22.0622Z" fill="#D9F7FF"/>
<path d="M0.636918 22.0622C1.45088 25.0218 7.37061 28.4994 9.81249 27.8335C9.44251 30.5712 7.88861 35.9725 17.8781 36.1205C22.0219 36.1945 25.5738 36.4904 28.6076 36.9344C32.8994 37.5263 36.1552 38.4882 38.6711 39.524C39.1151 39.746 39.6331 39.894 40.151 40.116C41.335 40.5599 42.519 41.0778 43.7029 41.5958C45.8488 42.4837 48.0687 43.5195 50.1406 44.7774C50.6585 45.1473 51.2506 45.5173 51.7685 45.8872C52.5085 46.4052 53.4704 47.0711 54.5064 47.737C56.2823 48.8469 58.5022 50.0307 61.0921 50.8446C61.98 51.1406 62.9419 51.4366 63.9039 51.6585C66.7897 52.2505 69.9716 52.3984 73.3015 51.5845C74.1894 51.3626 75.0034 51.0666 75.8913 50.7706C75.9653 50.7706 76.0393 50.6966 76.0393 50.6966C86.5468 46.4052 88.2487 49.3648 89.0627 48.033C89.8766 46.7011 94.0945 40.2639 98.4603 39.0061C101.716 38.1182 107.562 35.8245 113.26 35.4545C114.739 35.3066 116.293 35.3806 117.699 35.5285C118.217 35.6025 118.735 35.6765 119.253 35.8245C126.431 37.6003 126.209 33.1608 126.061 32.4949C125.913 31.903 131.981 30.7191 125.987 26.4277C125.987 26.4277 129.021 25.9097 132.647 26.2057C135.236 26.4277 138.122 27.0196 140.49 28.4994C141.674 29.2393 142.784 30.2012 143.598 31.459C143.228 32.125 143.524 33.1608 144.338 34.1227C145.448 35.4545 147.52 36.7864 150.702 37.0823C156.177 37.6003 157.657 34.1967 157.657 34.1967C157.657 34.1967 161.801 35.8985 163.355 33.3828C164.983 30.8671 162.097 26.3537 160.025 25.2438C160.469 24.2819 160.173 23.2461 159.655 22.3582C159.655 22.3582 159.655 22.3582 159.655 22.2842C158.989 21.1743 158.101 20.2864 157.953 20.1385C158.323 20.2864 164.021 22.6541 166.463 17.1788C168.979 11.5555 163.355 7.85599 161.431 8.89186C161.357 7.19008 160.765 5.4143 158.915 4.37843C158.915 4.37843 158.915 4.37843 158.841 4.37843C158.693 4.30444 158.619 4.23045 158.471 4.15646C158.175 4.00847 157.953 3.93448 157.583 3.7865C157.435 3.71251 157.287 3.71251 157.065 3.63852C156.917 3.63852 156.695 3.56453 156.547 3.56453C153.81 3.12058 149.74 3.71251 143.672 6.37618C144.264 4.67439 143.746 3.12058 142.414 2.01072C140.49 0.456916 137.086 -0.0610186 133.609 1.56678C132.573 2.01072 131.611 2.52866 130.797 3.04659C126.949 5.26632 125.395 7.48604 125.395 7.48604C125.395 7.48604 123.619 5.26631 122.657 6.9681C121.695 8.66989 110.004 27.5375 106.156 29.3873C103.492 28.1295 97.6463 29.9052 95.7964 32.7169C93.9465 35.4545 89.8767 40.042 89.8767 40.042C89.8767 40.042 82.181 39.1541 79.9612 35.3806C77.7413 31.607 73.2275 17.4008 67.4557 14.9591C67.3077 14.8851 67.0858 14.8111 66.9378 14.7371C66.7158 14.6631 66.4198 14.5152 66.1978 14.4412C66.0498 14.3672 65.9018 14.3672 65.7538 14.2932C65.5318 14.2192 65.3839 14.1452 65.1619 14.1452C65.1619 14.1452 65.1619 14.1452 65.0879 14.1452C64.9399 14.0712 64.7918 14.0712 64.6438 13.9972H64.5699C64.4219 13.9232 64.2739 13.9232 64.1259 13.9232C63.9779 13.8492 63.8299 13.8492 63.6819 13.8492C63.5339 13.8492 63.386 13.7753 63.312 13.7753C63.312 13.7753 63.312 13.7753 63.238 13.7753C62.942 13.7013 62.72 13.7013 62.498 13.7013H62.4239C62.276 13.7013 62.202 13.7013 62.054 13.7013C61.462 13.7013 60.944 13.7013 60.5001 13.7753C59.9081 13.8492 59.3901 14.0712 59.0201 14.2932C58.3542 14.6631 57.9842 15.1811 57.9102 15.773C57.5402 17.7708 55.9123 25.9837 52.2865 22.8021C48.6606 19.6945 41.557 14.4412 42.0009 11.9255C42.4449 9.4098 40.299 5.56228 36.3772 2.82462C35.1933 2.01072 33.2694 1.3448 31.1975 1.12283C28.6076 0.90086 25.7217 1.41879 23.9458 3.19457C22.5399 4.6004 21.7259 6.74613 22.0959 9.92773C20.024 9.11383 19.5801 11.9995 19.5801 11.9995C19.5801 11.9995 17.4342 10.8156 15.5843 11.1856C14.6223 10.8896 12.9203 10.8156 11.2924 11.0376C9.14653 11.3336 7.07464 12.2954 6.40868 14.3672C6.18669 15.1071 6.11271 15.995 6.3347 17.1048C4.41079 16.6609 2.70884 17.2528 1.67289 18.2887C0.710932 19.2506 0.266935 20.6564 0.636918 22.0622Z" fill="url(#paint6_radial)"/>
<path opacity="0.1" d="M0.636918 22.0622C1.45088 25.0218 7.37061 28.4994 9.81249 27.8335C9.44251 30.5712 7.88861 35.9725 17.8781 36.1205C22.0219 36.1945 25.5738 36.4904 28.6076 36.9344C32.8994 37.5263 36.1552 38.4882 38.6711 39.524C39.1151 39.746 39.6331 39.894 40.151 40.116C41.335 40.5599 42.519 41.0778 43.7029 41.5958C45.8488 42.4837 48.0687 43.5195 50.1406 44.7774C50.6585 45.1473 51.2506 45.5173 51.7685 45.8872C52.5085 46.4052 53.4704 47.0711 54.5064 47.737C56.2823 48.8469 58.5022 50.0307 61.0921 50.8446C61.98 51.1406 62.9419 51.4366 63.9039 51.6585C66.7897 52.2505 69.9716 52.3984 73.3015 51.5845C74.1894 51.3626 75.0034 51.0666 75.8913 50.7706C75.9653 50.7706 76.0393 50.6966 76.0393 50.6966C86.5468 46.4052 88.2487 49.3648 89.0627 48.033C89.8766 46.7011 94.0945 40.2639 98.4603 39.0061C101.716 38.1182 107.562 35.8245 113.26 35.4545C114.739 35.3066 116.293 35.3806 117.699 35.5285C118.217 35.6025 118.735 35.6765 119.253 35.8245C126.431 37.6003 126.209 33.1608 126.061 32.4949C125.913 31.903 131.981 30.7191 125.987 26.4277C125.987 26.4277 129.021 25.9097 132.647 26.2057C135.236 26.4277 138.122 27.0196 140.49 28.4994C141.674 29.2393 142.784 30.2012 143.598 31.459C143.228 32.125 143.524 33.1608 144.338 34.1227C145.448 35.4545 147.52 36.7864 150.702 37.0823C156.177 37.6003 157.657 34.1967 157.657 34.1967C157.657 34.1967 161.801 35.8985 163.355 33.3828C164.983 30.8671 162.097 26.3537 160.025 25.2438C160.469 24.2819 160.173 23.2461 159.655 22.3582C159.655 22.3582 159.655 22.3582 159.655 22.2842C158.989 21.1743 158.101 20.2864 157.953 20.1385C158.323 20.2864 164.021 22.6541 166.463 17.1788C168.979 11.5555 163.355 7.85599 161.431 8.89186C161.357 7.19008 160.765 5.4143 158.915 4.37843C158.915 4.37843 158.915 4.37843 158.841 4.37843C158.693 4.30444 158.619 4.23045 158.471 4.15646C158.175 4.00847 157.953 3.93448 157.583 3.7865C157.435 3.71251 157.287 3.71251 157.065 3.63852C156.917 3.63852 156.695 3.56453 156.547 3.56453C153.81 3.12058 149.74 3.71251 143.672 6.37618C144.264 4.67439 143.746 3.12058 142.414 2.01072C140.49 0.456916 137.086 -0.0610186 133.609 1.56678C132.573 2.01072 131.611 2.52866 130.797 3.04659C126.949 5.26632 125.395 7.48604 125.395 7.48604C125.395 7.48604 123.619 5.26631 122.657 6.9681C121.695 8.66989 110.004 27.5375 106.156 29.3873C103.492 28.1295 97.6463 29.9052 95.7964 32.7169C93.9465 35.4545 89.8767 40.042 89.8767 40.042C89.8767 40.042 82.181 39.1541 79.9612 35.3806C77.7413 31.607 73.2275 17.4008 67.4557 14.9591C67.3077 14.8851 67.0858 14.8111 66.9378 14.7371C66.7158 14.6631 66.4198 14.5152 66.1978 14.4412C66.0498 14.3672 65.9018 14.3672 65.7538 14.2932C65.5318 14.2192 65.3839 14.1452 65.1619 14.1452C65.1619 14.1452 65.1619 14.1452 65.0879 14.1452C64.9399 14.0712 64.7918 14.0712 64.6438 13.9972H64.5699C64.4219 13.9232 64.2739 13.9232 64.1259 13.9232C63.9779 13.8492 63.8299 13.8492 63.6819 13.8492C63.5339 13.8492 63.386 13.7753 63.312 13.7753C63.312 13.7753 63.312 13.7753 63.238 13.7753C62.942 13.7013 62.72 13.7013 62.498 13.7013H62.4239C62.276 13.7013 62.202 13.7013 62.054 13.7013C61.462 13.7013 60.944 13.7013 60.5001 13.7753C59.9081 13.8492 59.3901 14.0712 59.0201 14.2932C58.3542 14.6631 57.9842 15.1811 57.9102 15.773C57.5402 17.7708 55.9123 25.9837 52.2865 22.8021C48.6606 19.6945 41.557 14.4412 42.0009 11.9255C42.4449 9.4098 40.299 5.56228 36.3772 2.82462C35.1933 2.01072 33.2694 1.3448 31.1975 1.12283C28.6076 0.90086 25.7217 1.41879 23.9458 3.19457C22.5399 4.6004 21.7259 6.74613 22.0959 9.92773C20.024 9.11383 19.5801 11.9995 19.5801 11.9995C19.5801 11.9995 17.4342 10.8156 15.5843 11.1856C14.6223 10.8896 12.9203 10.8156 11.2924 11.0376C9.14653 11.3336 7.07464 12.2954 6.40868 14.3672C6.18669 15.1071 6.11271 15.995 6.3347 17.1048C4.41079 16.6609 2.70884 17.2528 1.67289 18.2887C0.710932 19.2506 0.266935 20.6564 0.636918 22.0622Z" fill="url(#paint7_linear)"/>
<path opacity="0.2" d="M106.008 29.4613C106.008 29.4613 113.038 31.4591 116.885 29.4613C120.733 27.4636 126.431 17.7708 131.463 17.9927C136.494 18.2147 139.01 17.5488 142.932 19.6945C146.854 21.7663 152.7 27.9075 152.7 27.9075C152.7 27.9075 150.258 13.9972 142.044 15.0331C127.763 16.8089 119.623 11.0376 130.575 3.19458C126.727 5.4143 125.173 7.63403 125.173 7.63403C125.173 7.63403 123.397 5.41431 122.435 7.11609C121.547 8.74389 109.856 27.5375 106.008 29.4613Z" fill="#0071BC"/>
<path opacity="0.2" d="M37.9311 11.8515C37.9311 11.8515 39.337 13.1833 47.5506 21.7662C55.7642 30.3492 60.5 46.2572 60.5 46.2572L66.0498 47.2191L62.7939 34.1967L75.2993 42.9276H85.6588L89.8026 40.042C89.8026 40.042 82.107 39.1541 79.8871 35.3805C77.6672 31.607 73.1534 17.4008 67.3817 14.9591C61.61 12.4434 58.2801 13.7012 57.9101 15.699C57.5402 17.6967 55.9123 25.9097 52.2864 22.7281C48.6606 19.6205 41.5569 14.3672 42.0009 11.8515C42.4449 9.3358 40.299 5.48827 36.3772 2.75062C35.1932 1.93672 33.2693 1.2708 31.1974 1.04883C39.929 6.0802 37.9311 11.8515 37.9311 11.8515Z" fill="#0071BC"/>
<path d="M60.574 37.0084C60.7219 37.3043 61.092 38.0442 61.5359 39.0801C62.9419 42.1137 65.3838 47.2191 65.9757 47.2191C66.7897 47.2191 75.0773 47.1451 78.1112 45.8873C79.7391 45.2213 81.589 44.6294 83.0689 44.1115C84.3268 43.6675 85.3628 43.2236 85.6588 42.9276C85.6588 42.9276 81.441 40.9299 78.8511 38.3402C76.2613 35.7505 73.6714 31.4591 67.3077 29.6093C60.944 27.7595 58.576 25.7618 58.724 27.3896C58.872 29.0174 58.65 30.4972 57.6141 30.0532C56.7261 29.6093 59.982 35.9725 60.574 37.0084Z" fill="#81D0D3"/>
<path opacity="0.1" d="M60.574 37.0084C60.7219 37.3043 61.092 38.0442 61.5359 39.0801C62.9419 42.1137 65.3838 47.2191 65.9757 47.2191C66.7897 47.2191 75.0773 47.1451 78.1112 45.8873C79.7391 45.2213 81.589 44.6294 83.0689 44.1115C84.3268 43.6675 85.3628 43.2236 85.6588 42.9276C85.6588 42.9276 81.441 40.9299 78.8511 38.3402C76.2613 35.7505 73.6714 31.4591 67.3077 29.6093C60.944 27.7595 58.576 25.7618 58.724 27.3896C58.872 29.0174 58.65 30.4972 57.6141 30.0532C56.7261 29.6093 59.982 35.9725 60.574 37.0084Z" fill="url(#paint8_linear)"/>
<path d="M25.7217 26.7976C26.6837 27.3895 32.6774 31.311 39.5591 35.4545C49.1786 41.2998 60.4261 47.663 61.536 45.9612C61.536 45.9612 58.2802 41.0038 54.5063 35.8985C51.8425 32.3469 48.9566 28.7954 46.6627 26.7976C41.039 21.9142 29.4955 16.1429 29.4955 16.8828C29.4955 17.3268 33.7873 22.6541 37.2651 27.0936C39.929 30.5711 42.1489 33.4568 41.483 33.1608C40.521 32.7169 36.3032 27.9815 32.6034 24.4299C30.0875 21.9882 27.7936 19.9905 27.1277 20.3604C25.4257 21.2483 28.4596 24.4299 27.1277 24.4299C25.7217 24.4299 23.5018 25.3918 25.7217 26.7976Z" fill="#81D0D3"/>
<path opacity="0.1" d="M25.7217 26.7976C26.6837 27.3895 32.6774 31.311 39.5591 35.4545C49.1786 41.2998 60.4261 47.663 61.536 45.9612C61.536 45.9612 58.2802 41.0038 54.5063 35.8985C51.8425 32.3469 48.9566 28.7954 46.6627 26.7976C41.039 21.9142 29.4955 16.1429 29.4955 16.8828C29.4955 17.3268 33.7873 22.6541 37.2651 27.0936C39.929 30.5711 42.1489 33.4568 41.483 33.1608C40.521 32.7169 36.3032 27.9815 32.6034 24.4299C30.0875 21.9882 27.7936 19.9905 27.1277 20.3604C25.4257 21.2483 28.4596 24.4299 27.1277 24.4299C25.7217 24.4299 23.5018 25.3918 25.7217 26.7976Z" fill="url(#paint9_linear)"/>
<path d="M131.463 17.9926C135.236 17.5487 141.378 19.1025 142.192 19.6204C142.192 19.6204 142.488 19.6204 142.932 19.6944C144.708 19.7684 149.37 19.5464 149.37 16.3648C149.37 13.9231 144.634 13.7752 139.824 14.811C136.642 15.477 133.461 16.5868 131.463 17.9926Z" fill="#81D0D3"/>
<path opacity="0.1" d="M131.463 17.9926C135.236 17.5487 141.378 19.1025 142.192 19.6204C142.192 19.6204 142.488 19.6204 142.932 19.6944C144.708 19.7684 149.37 19.5464 149.37 16.3648C149.37 13.9231 144.634 13.7752 139.824 14.811C136.642 15.477 133.461 16.5868 131.463 17.9926Z" fill="url(#paint10_linear)"/>
<path opacity="0.2" d="M60.574 37.0084C60.722 37.3043 61.092 38.0442 61.536 39.0801C61.536 38.8581 61.832 33.8268 62.202 32.7169C62.572 31.681 65.6058 34.1967 66.6418 33.9007C67.7517 33.6048 69.0837 33.3828 69.5277 34.4187C70.0456 35.3806 73.8934 36.7124 75.2993 38.4882C76.7053 40.19 82.995 44.1115 82.995 44.1115C84.2529 43.6675 85.2889 43.2236 85.5849 42.9276C85.5849 42.9276 81.3671 40.9299 78.7772 38.3402C76.1873 35.7505 73.5974 31.4591 67.2337 29.6093C60.87 27.7595 58.5021 25.7618 58.6501 27.3896C58.7981 29.0174 58.5761 30.4972 57.5402 30.0532C56.7262 29.6093 59.9821 35.9725 60.574 37.0084Z" fill="#0071BC"/>
<path opacity="0.2" d="M54.5063 35.8985C51.8424 32.3469 48.9566 28.7954 46.6627 26.7976C41.039 21.9142 29.4955 16.1429 29.4955 16.8828C29.4955 17.3268 33.7873 22.6541 37.2651 27.0936C37.1911 25.6878 37.5611 25.5398 39.115 24.5039C40.6689 23.542 54.0623 35.5285 54.5063 35.8985Z" fill="#0071BC"/>
<path opacity="0.2" d="M25.7217 26.7977C26.6837 27.3896 32.6774 31.3111 39.5591 35.4546C36.7472 32.643 30.0135 26.2798 30.9015 24.43C31.1974 23.9121 31.7894 23.986 32.6034 24.356C30.0875 21.9143 27.7936 19.9166 27.1277 20.2865C25.4257 21.1744 28.4596 24.356 27.1277 24.356C25.7217 24.43 23.5018 25.3919 25.7217 26.7977Z" fill="#0071BC"/>
<path opacity="0.2" d="M139.824 14.7371C141.378 15.403 142.932 16.8088 142.932 19.6205C144.708 19.6944 149.37 19.4725 149.37 16.2909C149.37 13.8492 144.708 13.7012 139.824 14.7371Z" fill="#0071BC"/>
<path opacity="0.2" d="M20.9119 14.3672C20.5419 12.9614 21.7999 10.6677 23.8718 11.4815C21.7999 8.22596 23.8718 3.19458 23.8718 3.19458C22.4658 4.6004 21.6519 6.74614 22.0219 9.92774C19.95 9.11384 19.506 11.9995 19.506 11.9995C19.506 11.9995 17.3601 10.8156 15.5102 11.1856C14.5483 10.8896 12.8463 10.8156 11.2184 11.0376C14.9922 11.3336 18.692 12.5914 20.9119 14.3672Z" fill="#0071BC"/>
<path opacity="0.2" d="M1.67284 18.2147C1.96882 18.1407 5.07673 17.4748 7.00064 18.2147C6.18668 16.4389 6.33465 14.2932 6.33465 14.2932C6.11266 15.0331 6.03868 15.921 6.26067 17.0309C4.33676 16.5869 2.70879 17.1789 1.67284 18.2147Z" fill="#0071BC"/>
<path opacity="0.2" d="M21.5779 23.32C21.7999 22.2102 23.3539 22.3581 24.7598 22.7281C26.3877 21.7662 26.7576 18.7326 26.0917 17.1048C25.2777 15.255 29.8655 16.8088 29.8655 16.8088L39.1891 25.3918L43.9248 35.8984L33.1953 28.7953C33.1953 28.7953 32.0854 28.2774 30.6795 27.5375L34.9712 32.5689C34.8973 32.6429 21.0599 25.4657 21.5779 23.32Z" fill="#0071BC"/>
<path opacity="0.2" d="M159.951 25.3178C159.951 25.3178 158.915 20.3604 152.774 20.8783C156.991 19.2505 156.769 19.9165 157.879 20.2124C158.841 20.5824 160.617 23.764 159.951 25.3178Z" fill="#0071BC"/>
<path opacity="0.2" d="M141.452 8.81786C148.112 5.48827 154.254 2.75062 158.693 4.4524C158.693 4.4524 158.693 4.4524 158.767 4.4524C156.325 3.04658 151.738 2.97259 143.598 6.52414C144.19 4.82236 143.672 3.26855 142.34 2.15869C142.34 2.15869 144.412 5.48827 141.452 8.81786Z" fill="#0071BC"/>
<path opacity="0.8" d="M91.8745 42.5576C91.8745 42.5576 89.4326 47.071 88.2487 47.219C87.0647 47.441 81.589 47.7369 77.8892 48.5508C74.1893 49.3647 78.7771 46.1092 81.515 46.2571C84.2529 46.4051 86.6947 45.8872 88.6186 44.1114C90.4686 42.3356 92.5405 41.3737 91.8745 42.5576Z" fill="url(#paint11_linear)"/>
<path opacity="0.8" d="M114.739 30.6451C114.739 30.6451 107.488 30.4232 105.268 29.9792C103.048 29.5353 97.2762 30.6451 93.4284 36.0465C89.5806 41.4478 99.2741 31.977 102.308 31.977C105.342 31.977 113.925 31.755 114.739 30.6451Z" fill="url(#paint12_linear)"/>
<path opacity="0.8" d="M142.488 20.2863C142.488 20.2863 131.907 15.8469 126.579 20.7303C129.909 20.2863 133.017 19.3984 135.976 20.2863C138.936 21.1742 143.45 21.3222 142.488 20.2863Z" fill="url(#paint13_linear)"/>
<path opacity="0.8" d="M155.807 33.8267C155.881 33.6047 147.002 33.8267 146.632 29.4613C146.262 25.0958 143.968 30.5711 143.968 29.9052C143.894 29.2393 144.338 35.8245 149.37 35.2325C154.401 34.6406 155.215 35.3805 155.807 33.8267Z" fill="url(#paint14_linear)"/>
<path opacity="0.8" d="M161.135 33.2348C161.135 33.2348 161.283 26.7976 158.767 25.9097C156.251 25.0958 159.951 26.8716 159.285 28.8693C158.619 30.9411 161.135 33.2348 161.135 33.2348Z" fill="url(#paint15_linear)"/>
<path opacity="0.8" d="M164.317 17.6968C164.317 17.6968 165.131 10.7416 161.209 10.3717C157.287 10.0017 160.395 5.2663 156.769 5.48828C153.144 5.71025 141.008 8.37391 143.154 8.81786C145.3 9.18781 154.402 7.708 156.399 9.70575C158.397 11.7035 163.355 11.4815 164.317 17.6968Z" fill="url(#paint16_linear)"/>
<path opacity="0.8" d="M138.048 3.12061C138.048 3.12061 129.687 5.85826 129.317 9.92775C129.021 13.9233 123.767 3.34258 138.048 3.12061Z" fill="url(#paint17_linear)"/>
<path opacity="0.8" d="M127.985 29.9052C127.985 29.9052 125.469 30.8671 125.395 32.0509C125.321 33.2348 125.247 36.3424 120.437 35.4545C115.627 34.5666 122.731 35.1585 123.175 34.0487C123.619 32.9388 124.877 29.1653 127.985 29.9052Z" fill="url(#paint18_linear)"/>
<path opacity="0.8" d="M75.0033 26.4277C75.0033 26.4277 69.0836 14.8112 65.0138 14.1453C60.944 13.4793 57.5401 14.2932 58.7241 15.4031C59.908 16.513 61.832 15.3291 63.9779 16.5869C66.1238 17.8448 73.8193 24.43 75.0033 26.4277Z" fill="url(#paint19_linear)"/>
<path opacity="0.8" d="M123.323 7.63403C123.323 7.63403 125.617 7.93 121.621 12.8874C117.699 17.8448 111.854 24.134 111.854 24.134L123.323 7.63403Z" fill="url(#paint20_linear)"/>
<path opacity="0.8" d="M33.8613 4.30441C33.8613 4.30441 27.0537 4.89633 25.9437 10.0757C24.8338 15.255 22.3919 5.1923 25.2778 3.63849C28.0896 2.08468 32.2334 3.19454 33.8613 4.30441Z" fill="url(#paint21_linear)"/>
<path opacity="0.8" d="M15.8802 26.0577C15.8802 26.0577 7.22261 24.5779 6.40865 21.2483C5.59469 17.9187 1.30287 22.3582 4.26273 23.468C7.22259 24.5779 11.7364 26.0577 11.7364 27.9075C11.7364 29.7573 12.5503 33.0129 25.3517 34.4187C25.3517 34.3447 13.7343 32.4949 15.8802 26.0577Z" fill="url(#paint22_linear)"/>
<path opacity="0.8" d="M66.7157 50.5487C66.7157 50.5487 55.7643 48.255 54.4323 46.5532C53.1744 44.8514 38.9671 36.1945 33.7873 35.4546C35.8592 37.3044 44.1468 41.6698 45.6267 42.0398C47.1067 42.4097 51.9165 46.3312 54.4323 47.7371C56.9482 49.1429 66.4198 51.6586 66.7157 50.5487Z" fill="url(#paint23_linear)"/>
<defs>
<radialGradient id="paint0_radial" cx="0" cy="0" r="1" gradientUnits="userSpaceOnUse" gradientTransform="translate(86.7235 47.6076) rotate(180) scale(72.3261 72.3206)">
<stop stop-color="white"/>
<stop offset="0.2169" stop-color="#FCFCFD"/>
<stop offset="0.3559" stop-color="#F4F4F8"/>
<stop offset="0.4731" stop-color="#E6E5EE"/>
<stop offset="0.5781" stop-color="#D1D0E0"/>
<stop offset="0.6751" stop-color="#B7B5CE"/>
<stop offset="0.7661" stop-color="#9793B8"/>
<stop offset="0.8525" stop-color="#706C9E"/>
<stop offset="0.9331" stop-color="#453F81"/>
<stop offset="1" stop-color="#1B1464"/>
</radialGradient>
<linearGradient id="paint1_linear" x1="87.0615" y1="82.5843" x2="87.0615" y2="31.8928" gradientUnits="userSpaceOnUse">
<stop stop-color="white"/>
<stop offset="0.1318" stop-color="#FBFBFC"/>
<stop offset="0.2626" stop-color="#F0EFF4"/>
<stop offset="0.3932" stop-color="#DCDBE7"/>
<stop offset="0.5237" stop-color="#C1BFD5"/>
<stop offset="0.6542" stop-color="#9E9BBD"/>
<stop offset="0.7847" stop-color="#736FA0"/>
<stop offset="0.9127" stop-color="#413B7E"/>
<stop offset="1" stop-color="#1B1464"/>
</linearGradient>
<linearGradient id="paint2_linear" x1="130.339" y1="59.0552" x2="115.651" y2="45.8878" gradientUnits="userSpaceOnUse">
<stop/>
<stop offset="1" stop-color="white"/>
</linearGradient>
<linearGradient id="paint3_linear" x1="117.35" y1="65.2192" x2="100.719" y2="50.3103" gradientUnits="userSpaceOnUse">
<stop/>
<stop offset="1" stop-color="white"/>
</linearGradient>
<linearGradient id="paint4_linear" x1="81.9846" y1="70.6263" x2="59.3498" y2="50.3356" gradientUnits="userSpaceOnUse">
<stop/>
<stop offset="1" stop-color="white"/>
</linearGradient>
<linearGradient id="paint5_linear" x1="66.8382" y1="73.2252" x2="33.3919" y2="43.2426" gradientUnits="userSpaceOnUse">
<stop/>
<stop offset="1" stop-color="white"/>
</linearGradient>
<radialGradient id="paint6_radial" cx="0" cy="0" r="1" gradientUnits="userSpaceOnUse" gradientTransform="translate(85.1782 14.7457) rotate(180) scale(91.5536 91.5466)">
<stop stop-color="#1B1464"/>
<stop offset="0.0669379" stop-color="#453F81"/>
<stop offset="0.1475" stop-color="#706C9E"/>
<stop offset="0.2339" stop-color="#9793B8"/>
<stop offset="0.3249" stop-color="#B7B5CE"/>
<stop offset="0.4219" stop-color="#D1D0E0"/>
<stop offset="0.5269" stop-color="#E6E5EE"/>
<stop offset="0.6441" stop-color="#F4F4F8"/>
<stop offset="0.7831" stop-color="#FCFCFD"/>
<stop offset="1" stop-color="white"/>
</radialGradient>
<linearGradient id="paint7_linear" x1="83.6966" y1="52.1668" x2="83.6966" y2="0.709523" gradientUnits="userSpaceOnUse">
<stop stop-color="white"/>
<stop offset="0.2169" stop-color="#FCFCFD"/>
<stop offset="0.3559" stop-color="#F4F4F8"/>
<stop offset="0.4731" stop-color="#E6E5EE"/>
<stop offset="0.5781" stop-color="#D1D0E0"/>
<stop offset="0.6751" stop-color="#B7B5CE"/>
<stop offset="0.7661" stop-color="#9793B8"/>
<stop offset="0.8525" stop-color="#706C9E"/>
<stop offset="0.9331" stop-color="#453F81"/>
<stop offset="1" stop-color="#1B1464"/>
</linearGradient>
<linearGradient id="paint8_linear" x1="71.5718" y1="47.2118" x2="71.5718" y2="30.5979" gradientUnits="userSpaceOnUse">
<stop stop-color="white"/>
<stop offset="0.2169" stop-color="#FCFCFD"/>
<stop offset="0.3559" stop-color="#F4F4F8"/>
<stop offset="0.4731" stop-color="#E6E5EE"/>
<stop offset="0.5781" stop-color="#D1D0E0"/>
<stop offset="0.6751" stop-color="#B7B5CE"/>
<stop offset="0.7661" stop-color="#9793B8"/>
<stop offset="0.8525" stop-color="#706C9E"/>
<stop offset="0.9331" stop-color="#453F81"/>
<stop offset="1" stop-color="#1B1464"/>
</linearGradient>
<linearGradient id="paint9_linear" x1="43.1508" y1="46.2556" x2="43.1508" y2="22.2799" gradientUnits="userSpaceOnUse">
<stop stop-color="white"/>
<stop offset="0.2169" stop-color="#FCFCFD"/>
<stop offset="0.3559" stop-color="#F4F4F8"/>
<stop offset="0.4731" stop-color="#E6E5EE"/>
<stop offset="0.5781" stop-color="#D1D0E0"/>
<stop offset="0.6751" stop-color="#B7B5CE"/>
<stop offset="0.7661" stop-color="#9793B8"/>
<stop offset="0.8525" stop-color="#706C9E"/>
<stop offset="0.9331" stop-color="#453F81"/>
<stop offset="1" stop-color="#1B1464"/>
</linearGradient>
<linearGradient id="paint10_linear" x1="140.432" y1="19.6565" x2="140.432" y2="15.1819" gradientUnits="userSpaceOnUse">
<stop stop-color="white"/>
<stop offset="0.2169" stop-color="#FCFCFD"/>
<stop offset="0.3559" stop-color="#F4F4F8"/>
<stop offset="0.4731" stop-color="#E6E5EE"/>
<stop offset="0.5781" stop-color="#D1D0E0"/>
<stop offset="0.6751" stop-color="#B7B5CE"/>
<stop offset="0.7661" stop-color="#9793B8"/>
<stop offset="0.8525" stop-color="#706C9E"/>
<stop offset="0.9331" stop-color="#453F81"/>
<stop offset="1" stop-color="#1B1464"/>
</linearGradient>
<linearGradient id="paint11_linear" x1="87.5982" y1="48.3265" x2="81.6177" y2="42.9652" gradientUnits="userSpaceOnUse">
<stop/>
<stop offset="1" stop-color="white"/>
</linearGradient>
<linearGradient id="paint12_linear" x1="108.045" y1="38.1243" x2="99.0824" y2="30.0892" gradientUnits="userSpaceOnUse">
<stop/>
<stop offset="1" stop-color="white"/>
</linearGradient>
<linearGradient id="paint13_linear" x1="139.079" y1="24.5978" x2="130.444" y2="16.8571" gradientUnits="userSpaceOnUse">
<stop/>
<stop offset="1" stop-color="white"/>
</linearGradient>
<linearGradient id="paint14_linear" x1="153.673" y1="36.5065" x2="145.156" y2="28.8713" gradientUnits="userSpaceOnUse">
<stop/>
<stop offset="1" stop-color="white"/>
</linearGradient>
<linearGradient id="paint15_linear" x1="162.506" y1="31.7433" x2="157.091" y2="26.8895" gradientUnits="userSpaceOnUse">
<stop/>
<stop offset="1" stop-color="white"/>
</linearGradient>
<linearGradient id="paint16_linear" x1="163.354" y1="18.7589" x2="147.394" y2="4.45121" gradientUnits="userSpaceOnUse">
<stop/>
<stop offset="1" stop-color="white"/>
</linearGradient>
<linearGradient id="paint17_linear" x1="134.096" y1="7.57929" x2="130.734" y2="4.56523" gradientUnits="userSpaceOnUse">
<stop/>
<stop offset="1" stop-color="white"/>
</linearGradient>
<linearGradient id="paint18_linear" x1="125.097" y1="34.0415" x2="122.135" y2="31.386" gradientUnits="userSpaceOnUse">
<stop/>
<stop offset="1" stop-color="white"/>
</linearGradient>
<linearGradient id="paint19_linear" x1="75.1519" y1="26.2949" x2="60.5912" y2="13.242" gradientUnits="userSpaceOnUse">
<stop/>
<stop offset="1" stop-color="white"/>
</linearGradient>
<linearGradient id="paint20_linear" x1="118.606" y1="16.7022" x2="116.784" y2="15.0682" gradientUnits="userSpaceOnUse">
<stop/>
<stop offset="1" stop-color="white"/>
</linearGradient>
<linearGradient id="paint21_linear" x1="30.118" y1="8.51914" x2="25.0674" y2="3.99172" gradientUnits="userSpaceOnUse">
<stop/>
<stop offset="1" stop-color="white"/>
</linearGradient>
<linearGradient id="paint22_linear" x1="23.3588" y1="36.664" x2="5.16096" y2="20.3507" gradientUnits="userSpaceOnUse">
<stop/>
<stop offset="1" stop-color="white"/>
</linearGradient>
<linearGradient id="paint23_linear" x1="63.2253" y1="54.6144" x2="38.1249" y2="32.1135" gradientUnits="userSpaceOnUse">
<stop/>
<stop offset="1" stop-color="white"/>
</linearGradient>
</defs>
</svg>
