<svg width="181" height="84" viewBox="0 0 181 84" fill="none" xmlns="http://www.w3.org/2000/svg">
<path d="M37.6849 43.4159C37.6849 43.4159 38.7949 44.9697 40.4968 47.4854C44.8626 53.9966 53.0022 67.167 56.11 78.2656C56.406 79.4495 57.146 80.4113 58.034 81.1512C58.8479 81.8172 59.7359 82.1871 60.8458 82.3351C61.1418 82.3351 61.4378 82.4091 61.7338 82.4831C64.9156 82.853 69.3554 83.297 74.3872 83.5189C74.6092 83.5189 74.8312 83.5189 75.1271 83.5929C75.8671 83.5929 76.6071 83.6669 77.347 83.6669C82.0828 83.8889 87.2626 83.9629 92.3683 83.8889H92.4423C97.0301 83.8149 101.618 83.5929 105.836 83.149C106.428 83.075 107.02 83.001 107.538 82.927C109.313 82.705 111.089 82.4831 112.643 82.1871C113.087 82.1131 113.605 82.0391 114.049 81.8911C115.677 81.5212 117.231 81.1512 118.489 80.6333C119.229 80.3373 119.895 79.9674 120.413 79.4495C121.301 78.6356 121.893 77.5997 122.115 76.4158C123.373 69.7567 128.035 52.5908 142.834 40.3083C145.572 38.0886 148.606 35.9429 152.009 34.1671C160.223 28.2478 154.229 25.2882 154.229 25.2882L142.76 24.1043L140.836 23.8824L128.109 22.5505L124.483 22.9205L110.275 24.4003L94.0702 34.3151L81.2688 40.0864L77.347 41.4182L74.0912 42.528L65.9516 45.2657L64.7676 45.0437L60.6238 44.1559L54.0382 42.75L43.9746 43.12L41.7547 43.194L37.6849 43.4159Z" fill="#81D0D3"/>
<path d="M37.6849 43.4159C37.6849 43.4159 38.7949 44.9697 40.4968 47.4854C44.8626 53.9966 53.0022 67.167 56.11 78.2656C56.406 79.4495 57.146 80.4113 58.034 81.1512C58.8479 81.8172 59.7359 82.1871 60.8458 82.3351C61.1418 82.3351 61.4378 82.4091 61.7338 82.4831C64.9156 82.853 69.3554 83.297 74.3872 83.5189C74.6092 83.5189 74.8312 83.5189 75.1271 83.5929C75.8671 83.5929 76.6071 83.6669 77.347 83.6669C82.0828 83.8889 87.2626 83.9629 92.3683 83.8889H92.4423C97.0301 83.8149 101.618 83.5929 105.836 83.149C106.428 83.075 107.02 83.001 107.538 82.927C109.313 82.705 111.089 82.4831 112.643 82.1871C113.087 82.1131 113.605 82.0391 114.049 81.8911C115.677 81.5212 117.231 81.1512 118.489 80.6333C119.229 80.3373 119.895 79.9674 120.413 79.4495C121.301 78.6356 121.893 77.5997 122.115 76.4158C123.373 69.7567 128.035 52.5908 142.834 40.3083C145.572 38.0886 148.606 35.9429 152.009 34.1671C160.223 28.2478 154.229 25.2882 154.229 25.2882L142.76 24.1043L140.836 23.8824L128.109 22.5505L124.483 22.9205L110.275 24.4003L94.0702 34.3151L81.2688 40.0864L77.347 41.4182L74.0912 42.528L65.9516 45.2657L64.7676 45.0437L60.6238 44.1559L54.0382 42.75L43.9746 43.12L41.7547 43.194L37.6849 43.4159Z" fill="url(#paint0_radial)"/>
<path opacity="0.1" d="M37.6849 43.4159C37.6849 43.4159 38.7949 44.9697 40.4968 47.4854C44.8626 53.9966 53.0022 67.167 56.11 78.2656C56.406 79.4495 57.146 80.4113 58.034 81.1512C58.8479 81.8172 59.7359 82.1871 60.8458 82.3351C61.1418 82.3351 61.4378 82.4091 61.7338 82.4831C64.9156 82.853 69.3554 83.297 74.3872 83.5189C74.6092 83.5189 74.8312 83.5189 75.1271 83.5929C75.8671 83.5929 76.6071 83.6669 77.347 83.6669C82.0828 83.8889 87.2626 83.9629 92.3683 83.8889H92.4423C97.0301 83.8149 101.618 83.5929 105.836 83.149C106.428 83.075 107.02 83.001 107.538 82.927C109.313 82.705 111.089 82.4831 112.643 82.1871C113.087 82.1131 113.605 82.0391 114.049 81.8911C115.677 81.5212 117.231 81.1512 118.489 80.6333C119.229 80.3373 119.895 79.9674 120.413 79.4495C121.301 78.6356 121.893 77.5997 122.115 76.4158C123.373 69.7567 128.035 52.5908 142.834 40.3083C145.572 38.0886 148.606 35.9429 152.009 34.1671C160.223 28.2478 154.229 25.2882 154.229 25.2882L142.76 24.1043L140.836 23.8824L128.109 22.5505L124.483 22.9205L110.275 24.4003L94.0702 34.3151L81.2688 40.0864L77.347 41.4182L74.0912 42.528L65.9516 45.2657L64.7676 45.0437L60.6238 44.1559L54.0382 42.75L43.9746 43.12L41.7547 43.194L37.6849 43.4159Z" fill="url(#paint1_linear)"/>
<path opacity="0.2" d="M37.6849 43.4159C37.6849 43.4159 38.7949 44.9697 40.4968 47.4854C40.4968 47.4854 45.1586 50.741 46.4165 52.2948C46.7865 52.7387 47.3045 52.9607 47.9704 53.1087C48.7104 53.3307 49.5984 53.3307 50.5603 53.3307C51.8183 53.3307 53.2242 53.2567 54.4821 53.2567C57.442 53.2567 59.5879 59.7679 63.2137 60.7297C66.9135 61.6916 67.5795 58.732 69.5774 61.9876C70.3174 63.2454 71.3533 64.1333 72.3153 64.5773C73.0552 64.8732 73.7212 65.0212 74.3132 64.8732C75.0531 64.6512 75.5711 64.0593 75.6451 63.0235C75.9411 59.9158 81.0469 57.8441 82.6008 58.658C84.2287 59.4719 93.2563 47.4854 94.5142 48.0773C95.7721 48.6692 103.69 39.8644 106.206 40.2343C108.722 40.5303 108.352 40.2343 109.313 38.8285C110.275 37.4226 114.493 35.4249 115.677 37.8666C115.825 38.1626 115.973 38.5325 116.047 38.8285C116.491 40.2343 116.565 41.2702 117.157 40.8262C117.379 40.6782 117.749 40.2343 118.193 39.5684C120.191 36.7567 123.595 35.6469 123.595 38.1626C123.595 40.6782 126.851 38.3105 128.553 37.8666C129.145 37.7186 128.997 38.8285 128.701 40.0863C128.035 42.602 126.703 45.9316 128.553 42.232C128.997 41.4181 129.589 40.6782 130.328 40.0123C134.324 36.6087 141.502 36.5347 140.392 38.8285C139.208 41.4181 142.538 40.5303 142.76 40.4563C145.498 38.2365 148.532 36.0908 151.935 34.315C160.149 28.3958 154.155 25.4362 154.155 25.4362L142.686 24.2523L140.762 24.0303L128.035 22.6985L124.409 23.0684L110.201 24.5483L93.9962 34.463L81.1949 40.2343L77.273 41.5661L74.0172 42.676L65.8776 45.4137L64.6936 45.1917L60.5498 44.3038L53.9642 42.898L43.9006 43.2679L41.6807 43.3419L37.6849 43.4159Z" fill="#0071BC"/>
<path opacity="0.2" d="M99.9159 82.6309C98.436 83.5188 93.9222 83.8148 92.3683 83.8888C102.506 83.7408 112.347 82.8529 118.415 80.7071C119.155 80.4112 119.821 80.0412 120.339 79.5233C120.339 79.5233 116.343 79.2273 116.639 75.0099C116.935 70.7924 114.197 77.2296 113.383 78.7834C112.569 80.3372 109.313 82.5569 108.87 81.891C108.426 81.1511 105.096 78.1915 105.466 75.9717C105.984 73.752 101.692 81.521 99.9159 82.6309Z" fill="#0071BC"/>
<path opacity="0.2" d="M61.6598 82.483C64.9156 82.9269 69.6514 83.2969 75.0532 83.5928C72.8333 83.0009 71.1313 82.113 70.3914 80.6332C67.5795 75.0099 67.4315 80.0413 66.0256 80.3373C65.2856 80.5592 63.2877 81.5951 61.6598 82.483Z" fill="#0071BC"/>
<path opacity="0.8" d="M112.569 82.261C113.013 82.187 113.531 82.113 113.975 81.9651C115.233 66.649 124.261 49.0392 130.329 39.9383C132.03 37.4226 133.436 35.4988 134.472 34.537C139.134 29.8756 140.984 26.7679 140.984 26.7679L142.76 24.1783L140.836 23.9563C139.43 25.4361 137.432 27.8778 134.768 31.5773C132.548 34.463 130.477 37.2746 128.701 40.0123C113.087 63.5413 112.569 82.261 112.569 82.261Z" fill="url(#paint2_linear)"/>
<path opacity="0.8" d="M105.762 83.2229C106.354 83.149 106.946 83.075 107.464 83.001C107.982 77.6736 109.24 64.5773 111.385 55.2544C112.495 50.445 114.863 45.1917 117.305 40.6783C120.931 34.0191 124.705 28.8397 124.705 28.8397L128.257 22.6245L124.631 22.9945C122.559 26.62 119.155 32.6873 116.195 38.6805C113.679 43.5639 111.459 48.3733 110.423 51.5549C107.908 59.176 106.28 76.9337 105.762 83.2229Z" fill="url(#paint3_linear)"/>
<path opacity="0.8" d="M60.6238 44.2298C64.6196 48.2253 71.7233 56.1424 72.0933 62.0616C72.1673 62.8015 72.2413 63.6894 72.3153 64.6513C72.7593 70.1266 73.7212 78.1916 74.3872 83.5929C74.6092 83.5929 74.8312 83.5929 75.1271 83.6669C75.8671 83.6669 76.6071 83.7409 77.347 83.7409C76.9771 82.2611 75.0532 74.1961 74.3872 64.9472C73.7952 56.9562 74.2392 48.0034 77.421 41.5662L74.1652 42.676C74.1652 42.676 72.7593 54.6625 71.9453 53.3307C71.3533 52.4428 67.3575 47.9294 64.8416 45.1917L60.6238 44.2298Z" fill="url(#paint4_linear)"/>
<path opacity="0.8" d="M41.7548 43.2678C41.7548 43.2678 44.6406 47.2634 47.9705 53.1826C52.1883 60.7297 57.22 71.4583 58.034 81.1511C58.8479 81.817 59.7359 82.187 60.8458 82.335C60.8458 82.335 60.4759 70.5704 50.6343 53.3306C48.7844 50.075 46.6385 46.6714 44.0487 43.1199L41.7548 43.2678Z" fill="url(#paint5_linear)"/>
<path d="M1.72268 25.8801C1.50069 26.324 1.35271 26.768 1.4267 27.2119C1.5007 29.7276 5.27451 31.4294 6.16247 30.8375C5.4965 31.7994 5.57051 33.5011 6.31047 35.055C7.05044 36.5348 8.53036 37.8666 10.6763 38.0886C14.9681 38.5325 19.0379 38.3845 16.522 35.055C16.67 35.055 16.818 35.055 16.966 35.055C17.114 35.055 17.1879 35.055 17.3359 35.055C17.7799 35.1289 18.2239 35.2029 18.5199 35.3509C19.1859 35.6469 19.6298 36.0168 19.8518 36.3128C20.2958 36.9047 30.1373 35.9428 30.1373 35.9428C30.1373 35.9428 28.2874 38.3105 29.1014 40.3083C29.5453 41.4921 30.9513 42.602 34.0591 43.0459C42.5687 44.3038 60.6239 44.7477 60.6239 44.7477C60.6239 44.7477 59.6619 48.0773 64.1017 48.7432C68.5415 49.3352 79.9369 49.4092 81.2689 46.5235C82.5268 43.6379 81.1209 43.8599 83.0448 42.0101C84.9687 40.1603 87.1886 39.1244 89.4825 39.4204C91.7764 39.7904 98.806 37.4227 99.102 33.8711C99.398 30.3195 111.607 27.5079 112.865 27.5079C114.123 27.5079 122.411 25.4362 125.815 29.4317C127.147 30.9855 129.293 31.5034 131.512 31.4294C134.99 31.3554 138.616 29.8756 139.282 28.9877C140.318 27.5819 142.242 25.4362 143.426 26.546C144.684 27.6559 147.422 29.2837 149.272 28.6917C151.048 28.0998 154.007 29.0617 153.415 30.3195C153.415 30.3195 149.346 33.6491 152.379 37.2007C155.413 40.7522 160.815 38.1626 160.815 38.1626C160.815 38.1626 162.813 41.7881 166.143 41.3442C166.661 41.2702 167.179 41.1222 167.697 40.8262C171.841 38.7545 171.693 33.6491 169.843 32.0213L169.695 31.8733C173.246 32.3173 175.836 31.9473 176.354 27.0639C177.686 27.0639 178.722 26.398 179.314 25.3622C180.646 23.2164 180.054 19.7389 176.354 19.0729C178.722 14.9295 176.428 8.93621 165.181 9.38015C164.959 7.23442 161.111 7.53038 161.111 7.53038C161.111 7.53038 163.405 4.1268 159.113 2.27703C154.895 0.427263 150.16 0.427263 147.792 1.90708C145.424 3.38689 132.104 7.53038 132.104 7.53038C132.104 7.53038 130.994 5.0147 129.441 6.56851C127.961 8.19631 109.684 21.7366 109.684 21.7366C109.684 21.7366 106.28 19.5169 104.06 21.0707C101.766 22.6245 95.3282 30.5415 95.3282 30.5415C95.3282 30.5415 86.3746 27.5819 84.5987 26.0281C82.8228 24.4003 81.4169 22.2545 82.5268 21.8106C83.5628 21.3666 84.3767 18.851 80.7509 16.7052C77.1991 14.4855 73.7212 11.8958 72.3153 11.3779C70.9094 10.934 66.3956 11.9698 65.3596 14.8555C64.3237 17.8151 58.404 17.5931 54.5562 14.7815C50.7083 11.9698 45.9726 5.7546 45.4546 4.49676C44.9366 3.46088 41.9768 1.31517 40.0528 1.75911C39.7569 1.8331 39.5349 1.98108 39.3129 2.12906C38.2769 0.797231 34.1331 1.53712 33.4672 4.1268C30.9513 3.3129 25.4016 5.82859 29.0274 11.8958C27.3255 11.8958 24.1436 13.0057 18.5199 9.38015C15.486 7.3824 11.4162 8.56625 8.53037 10.786C8.53037 10.786 8.53036 10.786 8.45637 10.786L8.38236 10.86C8.30837 10.86 8.30837 10.934 8.30837 10.934C8.23438 10.934 8.16038 11.0079 8.16038 11.0819C8.08639 11.1559 8.01239 11.2299 7.93839 11.3039C5.7925 13.1537 4.53455 15.5954 5.27452 17.6671C0.834729 18.777 -1.82915 22.3285 1.72268 25.8801Z" fill="#D9F7FF"/>
<path d="M1.72268 25.8801C1.50069 26.324 1.35271 26.768 1.4267 27.2119C1.5007 29.7276 5.27451 31.4294 6.16247 30.8375C5.4965 31.7994 5.57051 33.5011 6.31047 35.055C7.05044 36.5348 8.53036 37.8666 10.6763 38.0886C14.9681 38.5325 19.0379 38.3845 16.522 35.055C16.67 35.055 16.818 35.055 16.966 35.055C17.114 35.055 17.1879 35.055 17.3359 35.055C17.7799 35.1289 18.2239 35.2029 18.5199 35.3509C19.1859 35.6469 19.6298 36.0168 19.8518 36.3128C20.2958 36.9047 30.1373 35.9428 30.1373 35.9428C30.1373 35.9428 28.2874 38.3105 29.1014 40.3083C29.5453 41.4921 30.9513 42.602 34.0591 43.0459C42.5687 44.3038 60.6239 44.7477 60.6239 44.7477C60.6239 44.7477 59.6619 48.0773 64.1017 48.7432C68.5415 49.3352 79.9369 49.4092 81.2689 46.5235C82.5268 43.6379 81.1209 43.8599 83.0448 42.0101C84.9687 40.1603 87.1886 39.1244 89.4825 39.4204C91.7764 39.7904 98.806 37.4227 99.102 33.8711C99.398 30.3195 111.607 27.5079 112.865 27.5079C114.123 27.5079 122.411 25.4362 125.815 29.4317C127.147 30.9855 129.293 31.5034 131.512 31.4294C134.99 31.3554 138.616 29.8756 139.282 28.9877C140.318 27.5819 142.242 25.4362 143.426 26.546C144.684 27.6559 147.422 29.2837 149.272 28.6917C151.048 28.0998 154.007 29.0617 153.415 30.3195C153.415 30.3195 149.346 33.6491 152.379 37.2007C155.413 40.7522 160.815 38.1626 160.815 38.1626C160.815 38.1626 162.813 41.7881 166.143 41.3442C166.661 41.2702 167.179 41.1222 167.697 40.8262C171.841 38.7545 171.693 33.6491 169.843 32.0213L169.695 31.8733C173.246 32.3173 175.836 31.9473 176.354 27.0639C177.686 27.0639 178.722 26.398 179.314 25.3622C180.646 23.2164 180.054 19.7389 176.354 19.0729C178.722 14.9295 176.428 8.93621 165.181 9.38015C164.959 7.23442 161.111 7.53038 161.111 7.53038C161.111 7.53038 163.405 4.1268 159.113 2.27703C154.895 0.427263 150.16 0.427263 147.792 1.90708C145.424 3.38689 132.104 7.53038 132.104 7.53038C132.104 7.53038 130.994 5.0147 129.441 6.56851C127.961 8.19631 109.684 21.7366 109.684 21.7366C109.684 21.7366 106.28 19.5169 104.06 21.0707C101.766 22.6245 95.3282 30.5415 95.3282 30.5415C95.3282 30.5415 86.3746 27.5819 84.5987 26.0281C82.8228 24.4003 81.4169 22.2545 82.5268 21.8106C83.5628 21.3666 84.3767 18.851 80.7509 16.7052C77.1991 14.4855 73.7212 11.8958 72.3153 11.3779C70.9094 10.934 66.3956 11.9698 65.3596 14.8555C64.3237 17.8151 58.404 17.5931 54.5562 14.7815C50.7083 11.9698 45.9726 5.7546 45.4546 4.49676C44.9366 3.46088 41.9768 1.31517 40.0528 1.75911C39.7569 1.8331 39.5349 1.98108 39.3129 2.12906C38.2769 0.797231 34.1331 1.53712 33.4672 4.1268C30.9513 3.3129 25.4016 5.82859 29.0274 11.8958C27.3255 11.8958 24.1436 13.0057 18.5199 9.38015C15.486 7.3824 11.4162 8.56625 8.53037 10.786C8.53037 10.786 8.53036 10.786 8.45637 10.786L8.38236 10.86C8.30837 10.86 8.30837 10.934 8.30837 10.934C8.23438 10.934 8.16038 11.0079 8.16038 11.0819C8.08639 11.1559 8.01239 11.2299 7.93839 11.3039C5.7925 13.1537 4.53455 15.5954 5.27452 17.6671C0.834729 18.777 -1.82915 22.3285 1.72268 25.8801Z" fill="url(#paint6_radial)"/>
<path opacity="0.1" d="M1.72268 25.8801C1.50069 26.324 1.35271 26.768 1.4267 27.2119C1.5007 29.7276 5.27451 31.4294 6.16247 30.8375C5.4965 31.7994 5.57051 33.5011 6.31047 35.055C7.05044 36.5348 8.53036 37.8666 10.6763 38.0886C14.9681 38.5325 19.0379 38.3845 16.522 35.055C16.67 35.055 16.818 35.055 16.966 35.055C17.114 35.055 17.1879 35.055 17.3359 35.055C17.7799 35.1289 18.2239 35.2029 18.5199 35.3509C19.1859 35.6469 19.6298 36.0168 19.8518 36.3128C20.2958 36.9047 30.1373 35.9428 30.1373 35.9428C30.1373 35.9428 28.2874 38.3105 29.1014 40.3083C29.5453 41.4921 30.9513 42.602 34.0591 43.0459C42.5687 44.3038 60.6239 44.7477 60.6239 44.7477C60.6239 44.7477 59.6619 48.0773 64.1017 48.7432C68.5415 49.3352 79.9369 49.4092 81.2689 46.5235C82.5268 43.6379 81.1209 43.8599 83.0448 42.0101C84.9687 40.1603 87.1886 39.1244 89.4825 39.4204C91.7764 39.7904 98.806 37.4227 99.102 33.8711C99.398 30.3195 111.607 27.5079 112.865 27.5079C114.123 27.5079 122.411 25.4362 125.815 29.4317C127.147 30.9855 129.293 31.5034 131.512 31.4294C134.99 31.3554 138.616 29.8756 139.282 28.9877C140.318 27.5819 142.242 25.4362 143.426 26.546C144.684 27.6559 147.422 29.2837 149.272 28.6917C151.048 28.0998 154.007 29.0617 153.415 30.3195C153.415 30.3195 149.346 33.6491 152.379 37.2007C155.413 40.7522 160.815 38.1626 160.815 38.1626C160.815 38.1626 162.813 41.7881 166.143 41.3442C166.661 41.2702 167.179 41.1222 167.697 40.8262C171.841 38.7545 171.693 33.6491 169.843 32.0213L169.695 31.8733C173.246 32.3173 175.836 31.9473 176.354 27.0639C177.686 27.0639 178.722 26.398 179.314 25.3622C180.646 23.2164 180.054 19.7389 176.354 19.0729C178.722 14.9295 176.428 8.93621 165.181 9.38015C164.959 7.23442 161.111 7.53038 161.111 7.53038C161.111 7.53038 163.405 4.1268 159.113 2.27703C154.895 0.427263 150.16 0.427263 147.792 1.90708C145.424 3.38689 132.104 7.53038 132.104 7.53038C132.104 7.53038 130.994 5.0147 129.441 6.56851C127.961 8.19631 109.684 21.7366 109.684 21.7366C109.684 21.7366 106.28 19.5169 104.06 21.0707C101.766 22.6245 95.3282 30.5415 95.3282 30.5415C95.3282 30.5415 86.3746 27.5819 84.5987 26.0281C82.8228 24.4003 81.4169 22.2545 82.5268 21.8106C83.5628 21.3666 84.3767 18.851 80.7509 16.7052C77.1991 14.4855 73.7212 11.8958 72.3153 11.3779C70.9094 10.934 66.3956 11.9698 65.3596 14.8555C64.3237 17.8151 58.404 17.5931 54.5562 14.7815C50.7083 11.9698 45.9726 5.7546 45.4546 4.49676C44.9366 3.46088 41.9768 1.31517 40.0528 1.75911C39.7569 1.8331 39.5349 1.98108 39.3129 2.12906C38.2769 0.797231 34.1331 1.53712 33.4672 4.1268C30.9513 3.3129 25.4016 5.82859 29.0274 11.8958C27.3255 11.8958 24.1436 13.0057 18.5199 9.38015C15.486 7.3824 11.4162 8.56625 8.53037 10.786C8.53037 10.786 8.53036 10.786 8.45637 10.786L8.38236 10.86C8.30837 10.86 8.30837 10.934 8.30837 10.934C8.23438 10.934 8.16038 11.0079 8.16038 11.0819C8.08639 11.1559 8.01239 11.2299 7.93839 11.3039C5.7925 13.1537 4.53455 15.5954 5.27452 17.6671C0.834729 18.777 -1.82915 22.3285 1.72268 25.8801Z" fill="url(#paint7_linear)"/>
<path opacity="0.2" d="M166.217 41.4921C166.735 41.4181 167.253 41.2702 167.771 40.9742C171.915 38.9025 171.767 33.7971 169.917 32.1693L169.769 32.0213C169.769 32.0213 170.731 27.5079 166.661 26.1021C168.289 28.3958 167.623 32.9832 167.623 32.9832C167.623 32.9832 170.657 37.4966 166.217 41.4921Z" fill="#0071BC"/>
<path opacity="0.2" d="M129.589 6.71644C131.069 5.08864 132.252 7.67833 132.252 7.67833C132.252 7.67833 145.646 3.53484 147.94 2.05503C150.308 0.575212 154.969 0.575212 159.261 2.42498C147.274 4.20076 142.834 8.04827 141.206 10.7859C146.756 11.3779 160.001 13.3016 161.851 19.3689C164.145 27.1379 156.375 19.3689 156.375 19.3689L138.912 14.0415C137.21 14.3375 134.25 14.9294 131.142 15.4474C126.333 16.2613 122.041 19.2209 117.009 21.8105C111.977 24.4742 109.906 21.8105 109.906 21.8105C109.906 21.8105 128.035 8.27024 129.589 6.71644Z" fill="#0071BC"/>
<path opacity="0.2" d="M157.929 21.3667C157.707 22.3286 158.743 22.9945 156.967 27.2859C156.005 23.7344 153.119 21.6626 153.119 21.6626L154.303 19.2949C154.377 19.3689 158.151 20.4048 157.929 21.3667Z" fill="#0071BC"/>
<path opacity="0.2" d="M172.728 16.7792C174.208 18.481 175.022 21.1447 175.022 21.1447C175.022 21.1447 179.61 21.2926 179.462 25.5101C180.794 23.3644 180.202 19.8868 176.502 19.2209C176.428 19.2209 175.91 15.8913 172.728 16.7792Z" fill="#0071BC"/>
<path opacity="0.2" d="M131.512 31.5774C134.99 31.5034 138.616 30.0236 139.282 29.1357C140.318 27.7299 142.242 25.5841 143.426 26.694C143.426 26.694 142.834 25.2142 142.76 24.1043C142.686 22.9945 137.21 30.6895 131.512 31.5774Z" fill="#0071BC"/>
<path opacity="0.2" d="M33.4672 16.6312C35.7611 18.1111 37.093 17.9631 39.3129 19.4429C39.6829 19.7389 40.1268 19.9608 40.4968 20.2568C40.9408 20.4788 41.3848 20.7007 41.8288 20.8487C48.3405 23.5124 57.664 27.8039 57.886 36.0908C57.886 37.0527 57.59 37.9406 57.146 38.7545C61.3638 39.9384 66.2476 41.2702 68.0975 41.4181C71.7233 41.7141 77.3471 40.3083 77.3471 40.3083C77.3471 40.3083 84.1547 35.9428 85.6346 35.2029C87.1146 34.389 95.4762 30.6155 95.4762 30.6155C95.4762 30.6155 86.5226 27.6559 84.7467 26.1021C82.9708 24.4743 81.5648 22.3285 82.6748 21.8846C83.7107 21.4406 84.5247 18.925 80.8989 16.7792C77.347 14.5595 73.8692 11.9698 72.4633 11.4519C71.0574 11.0079 66.5436 12.0438 65.5076 14.9295C64.4717 17.8891 58.552 17.6671 54.7041 14.8555C50.8563 12.0438 46.1206 5.8286 45.6026 4.57076C45.0846 3.53489 42.1247 1.38915 40.2008 1.83309C43.7527 4.86671 45.8986 9.0102 47.0825 10.786C50.4123 15.8173 39.4609 16.4833 33.4672 16.6312Z" fill="#0071BC"/>
<path opacity="0.2" d="M8.53033 10.9339C10.7502 9.45407 16.5219 10.4159 19.5558 12.5617C22.7376 14.8554 30.7293 14.0415 30.7293 14.0415L29.1013 12.0438C27.3994 12.0438 24.2176 13.1536 18.5938 9.52807C15.56 7.53032 11.4162 8.71417 8.53033 10.9339Z" fill="#0071BC"/>
<path opacity="0.2" d="M7.86438 11.4527C7.93863 11.4527 8.01288 11.3784 8.08713 11.23C8.01288 11.3042 7.93863 11.3784 7.86438 11.4527Z" fill="#0071BC"/>
<path opacity="0.2" d="M6.16247 30.9114C5.4965 31.8733 5.5705 33.5751 6.31047 35.1289C6.31047 35.1289 5.5705 31.0594 7.42041 30.0235C4.53455 30.0235 1.79668 28.1738 1.4267 27.2859C1.4267 29.7276 5.27451 31.4294 6.16247 30.9114Z" fill="#0071BC"/>
<path opacity="0.2" d="M18.5199 35.4989C19.1859 35.7949 19.6298 36.1648 19.8518 36.4608C20.2958 37.0527 30.1373 36.0908 30.1373 36.0908C30.1373 36.0908 28.2874 38.4585 29.1014 40.4563C29.1014 40.4563 29.8414 35.9429 33.4672 34.907C28.8054 35.4989 21.7017 35.9428 18.5199 35.4989Z" fill="#0071BC"/>
<path opacity="0.2" d="M16.9659 35.129C17.1139 35.129 17.1879 35.129 17.3359 35.129C17.0399 35.055 16.9659 35.055 16.9659 35.129Z" fill="#0071BC"/>
<path opacity="0.2" d="M50.6343 29.1356C50.6343 29.1356 26.1415 16.9271 25.4015 18.3329C24.6616 19.7388 25.2535 21.6625 23.6996 21.7365C22.1457 21.7365 10.2323 21.0706 8.08636 22.6984C16.226 23.1423 26.7335 26.9898 29.3233 28.0997C31.9132 29.2096 55.3701 37.9405 55.3701 37.9405L58.108 33.501L50.6343 29.1356Z" fill="#0071BC"/>
<path d="M135.064 15.3733C137.358 15.0773 145.128 17.815 146.312 18.4809C147.496 19.0728 148.532 19.8867 150.234 20.0347C150.308 20.0347 150.381 20.0347 150.455 20.0347C152.083 20.3307 153.637 22.8463 154.303 22.1804C154.969 21.5145 158.595 22.2544 161.259 20.7746C163.849 19.2948 156.597 15.9652 151.491 14.0414C148.236 12.7836 141.872 12.8576 137.728 13.0796C135.434 13.2276 133.88 13.3755 133.88 13.3755C126.999 16.0392 132.77 15.6693 135.064 15.3733Z" fill="#81D0D3"/>
<path opacity="0.1" d="M135.064 15.3733C137.358 15.0773 145.128 17.815 146.312 18.4809C147.496 19.0728 148.532 19.8867 150.234 20.0347C150.308 20.0347 150.381 20.0347 150.455 20.0347C152.083 20.3307 153.637 22.8463 154.303 22.1804C154.969 21.5145 158.595 22.2544 161.259 20.7746C163.849 19.2948 156.597 15.9652 151.491 14.0414C148.236 12.7836 141.872 12.8576 137.728 13.0796C135.434 13.2276 133.88 13.3755 133.88 13.3755C126.999 16.0392 132.77 15.6693 135.064 15.3733Z" fill="url(#paint8_linear)"/>
<path opacity="0.2" d="M137.728 13.0056C143.352 14.5594 147.792 17.741 150.456 20.0348C152.083 20.3307 153.637 22.8464 154.303 22.1805C154.969 21.5146 158.595 22.2545 161.259 20.7747C163.849 19.2948 156.597 15.9653 151.491 14.0415C148.236 12.6357 141.872 12.7837 137.728 13.0056Z" fill="#0071BC"/>
<path d="M16.374 22.1806C18.4459 22.5506 22.8117 23.3645 22.5897 24.1044C22.3677 25.0662 26.6595 26.5461 28.8054 27.7299C30.9513 28.9138 33.7631 33.7232 35.835 34.1671C37.4629 34.5371 42.7907 37.8667 48.9324 39.4945C50.4863 39.9384 52.1142 40.2343 53.7422 40.3823C60.0319 40.9003 66.9875 41.2702 69.6514 41.4182C70.0954 41.4182 70.3914 40.9003 70.0954 40.6043C69.4294 39.7164 68.3195 38.3106 66.9875 36.6828C64.2497 33.2792 60.4018 28.7658 57.146 25.9541C51.2263 20.8488 48.8584 20.1089 46.2685 20.5528C43.8266 20.9968 37.167 15.9654 33.0232 16.7053C32.9492 16.7053 32.8752 16.8533 33.0232 16.9273C36.723 18.999 45.4546 21.8107 53.2242 32.3173C53.7422 32.9833 54.1861 33.7232 54.7041 34.4631C54.9261 34.759 54.4821 35.129 54.2601 34.907C53.5202 34.2411 52.6322 33.5012 51.7443 32.7613C45.9725 28.0259 37.3889 21.8846 26.1415 19.9609C26.0675 19.9609 25.9935 20.0349 25.9935 20.1089C25.9935 21.6627 25.6975 21.8106 23.3296 21.8106C21.5537 21.8106 18.2239 21.9586 16.448 22.0326C16.226 21.9586 16.226 22.1806 16.374 22.1806Z" fill="#81D0D3"/>
<path opacity="0.1" d="M16.374 22.1806C18.4459 22.5506 22.8117 23.3645 22.5897 24.1044C22.3677 25.0662 26.6595 26.5461 28.8054 27.7299C30.9513 28.9138 33.7631 33.7232 35.835 34.1671C37.4629 34.5371 42.7907 37.8667 48.9324 39.4945C50.4863 39.9384 52.1142 40.2343 53.7422 40.3823C60.0319 40.9003 66.9875 41.2702 69.6514 41.4182C70.0954 41.4182 70.3914 40.9003 70.0954 40.6043C69.4294 39.7164 68.3195 38.3106 66.9875 36.6828C64.2497 33.2792 60.4018 28.7658 57.146 25.9541C51.2263 20.8488 48.8584 20.1089 46.2685 20.5528C43.8266 20.9968 37.167 15.9654 33.0232 16.7053C32.9492 16.7053 32.8752 16.8533 33.0232 16.9273C36.723 18.999 45.4546 21.8107 53.2242 32.3173C53.7422 32.9833 54.1861 33.7232 54.7041 34.4631C54.9261 34.759 54.4821 35.129 54.2601 34.907C53.5202 34.2411 52.6322 33.5012 51.7443 32.7613C45.9725 28.0259 37.3889 21.8846 26.1415 19.9609C26.0675 19.9609 25.9935 20.0349 25.9935 20.1089C25.9935 21.6627 25.6975 21.8106 23.3296 21.8106C21.5537 21.8106 18.2239 21.9586 16.448 22.0326C16.226 21.9586 16.226 22.1806 16.374 22.1806Z" fill="url(#paint9_linear)"/>
<path opacity="0.2" d="M48.9324 39.5684C50.4864 40.0124 52.1143 40.3084 53.7422 40.4563C60.0319 40.9743 66.9876 41.3442 69.6514 41.4922C70.0954 41.4922 70.3914 40.9743 70.0954 40.6783C69.4295 39.7904 68.3195 38.3846 66.9876 36.7568C67.1356 38.2366 66.7656 39.2725 65.5816 39.1245C63.2877 38.8286 53.2242 32.3914 53.2242 32.3914C53.7422 33.0573 54.1862 33.7972 54.7042 34.5371C54.9261 34.833 54.4822 35.203 54.2602 34.981C53.5202 34.3151 52.6323 33.5752 51.7443 32.8353C51.9663 33.0573 55.8141 38.0147 53.8902 37.8667C51.9663 37.7187 49.3024 36.5348 49.1544 36.4608C49.1544 36.4608 50.4864 38.6806 48.9324 39.5684Z" fill="#0071BC"/>
<path d="M55.1481 21.2925C56.998 22.5503 63.0658 28.1736 68.0975 32.983C71.9453 36.6826 75.2012 39.7902 75.2752 40.0122C75.4972 40.4561 76.0151 41.196 79.493 38.8283C81.0469 37.7924 82.7488 36.8306 84.0807 36.1647C84.6727 35.8687 85.1907 35.5727 85.5607 35.3508C86.0047 35.1288 86.0047 34.4629 85.5607 34.2409C83.8588 33.501 80.7509 31.9472 78.901 30.2454C76.2371 27.8037 68.9855 21.4405 66.0996 21.1445C63.2877 20.8486 57.96 18.9248 57.59 19.8127C57.22 20.7746 53.2982 18.4809 51.7443 17.9629C50.2644 17.445 51.8923 18.9988 55.1481 21.2925Z" fill="#81D0D3"/>
<path opacity="0.1" d="M55.1481 21.2925C56.998 22.5503 63.0658 28.1736 68.0975 32.983C71.9453 36.6826 75.2012 39.7902 75.2752 40.0122C75.4972 40.4561 76.0151 41.196 79.493 38.8283C81.0469 37.7924 82.7488 36.8306 84.0807 36.1647C84.6727 35.8687 85.1907 35.5727 85.5607 35.3508C86.0047 35.1288 86.0047 34.4629 85.5607 34.2409C83.8588 33.501 80.7509 31.9472 78.901 30.2454C76.2371 27.8037 68.9855 21.4405 66.0996 21.1445C63.2877 20.8486 57.96 18.9248 57.59 19.8127C57.22 20.7746 53.2982 18.4809 51.7443 17.9629C50.2644 17.445 51.8923 18.9988 55.1481 21.2925Z" fill="url(#paint10_linear)"/>
<path opacity="0.2" d="M68.0975 32.9092C71.9453 36.6087 75.2012 39.7163 75.2752 39.9383C75.4972 40.3822 76.0151 41.1222 79.493 38.7545C81.0469 37.7186 82.7488 36.7567 84.0808 36.0908C80.8989 36.0908 73.9433 35.7208 68.0975 32.9092Z" fill="#0071BC"/>
<path opacity="0.8" d="M111.015 22.9943C111.015 22.9943 106.132 20.1087 104.652 21.4405C103.172 22.7724 96.1421 29.8015 96.9561 29.4315C97.7701 28.9876 105.17 22.6984 106.058 23.0683C106.946 23.3643 112.273 24.1782 111.015 22.9943Z" fill="url(#paint11_linear)"/>
<path opacity="0.8" d="M136.026 28.6919C136.026 28.6919 130.698 32.6874 127.665 30.1717C124.631 27.656 120.783 25.8802 117.601 26.1022C114.419 26.3242 116.713 24.2524 119.377 24.4004C122.041 24.5484 128.109 29.6538 130.107 29.1358C132.104 28.6179 136.026 28.6919 136.026 28.6919Z" fill="url(#paint12_linear)"/>
<path opacity="0.8" d="M155.265 25.5101C155.265 25.5101 151.417 19.8869 142.168 17.9631C132.918 16.0393 135.656 18.333 137.728 18.629C139.874 18.851 150.16 20.7007 155.265 25.5101Z" fill="url(#paint13_linear)"/>
<path opacity="0.8" d="M98.7321 33.2791C98.7321 33.2791 98.3621 36.3127 94.8843 37.8665C91.4064 39.4203 87.6326 38.9024 86.5227 39.0503C85.4127 39.2723 83.1928 37.4225 87.2626 37.3485C91.2585 37.3485 98.2881 34.6109 98.7321 33.2791Z" fill="url(#paint14_linear)"/>
<path opacity="0.8" d="M76.0891 47.9293C76.0891 47.9293 63.5837 47.8553 63.2138 45.2657C62.7698 42.676 61.9558 42.454 61.8078 43.8598C61.6598 45.3397 61.2898 48.3733 64.1757 48.5952C67.0616 48.8172 76.0891 47.9293 76.0891 47.9293Z" fill="url(#paint15_linear)"/>
<path opacity="0.8" d="M35.4651 35.1289C35.4651 35.1289 32.1353 35.2029 31.0253 37.6446C29.9154 40.0123 30.0634 42.602 38.203 43.1939C46.3426 43.7858 52.1143 44.5997 52.1143 44.5997C52.1143 44.5997 33.9852 42.084 34.7251 40.4563C35.4651 38.7545 37.389 35.4989 35.4651 35.1289Z" fill="url(#paint16_linear)"/>
<path opacity="0.8" d="M9.34433 30.5415C9.34433 30.5415 11.4162 34.537 13.5621 35.0549C15.708 35.5729 16.078 37.2007 12.6742 36.9047C9.27033 36.6088 8.75236 32.6872 9.34433 30.5415Z" fill="url(#paint17_linear)"/>
<path opacity="0.8" d="M31.3953 32.3172C31.3953 32.3172 30.2853 29.1356 26.8815 28.0257C23.4776 26.9159 9.49231 23.1423 9.49231 23.1423C9.49231 23.1423 26.8075 28.3217 28.2134 30.4674C29.5453 32.6871 31.6912 33.0571 31.3953 32.3172Z" fill="url(#paint18_linear)"/>
<path opacity="0.8" d="M11.7122 11.8218C11.7122 11.8218 7.34638 15.5213 8.01235 19.5168C5.86645 19.5168 2.46261 22.1805 2.46261 23.1424C2.46261 24.1043 0.908687 22.6244 1.35267 21.9585C1.79664 21.2926 6.23644 18.9989 6.45843 18.185C6.68042 17.3711 8.45633 11.8218 11.7122 11.8218Z" fill="url(#paint19_linear)"/>
<path opacity="0.8" d="M36.649 2.49902C36.649 2.49902 34.2072 4.42277 33.8372 5.53263C33.4672 6.64249 30.1373 4.27478 29.3234 6.27253C28.5094 8.27028 29.1754 12.3398 29.6934 11.3039C30.2853 10.268 30.2853 6.7165 32.2832 6.93847C34.4291 7.08645 36.501 3.75687 36.649 2.49902Z" fill="url(#paint20_linear)"/>
<path opacity="0.8" d="M24.2916 17.2231C24.2916 17.2231 24.9576 20.0348 21.2578 20.4787C17.5579 20.8487 11.7122 20.8487 11.7122 20.8487C11.7122 20.8487 13.1182 20.3307 16.226 20.1088C19.4079 19.8868 23.9956 15.5213 24.2916 17.2231Z" fill="url(#paint21_linear)"/>
<path opacity="0.8" d="M81.2689 20.7746C81.2689 20.7746 81.8609 19.7387 77.3471 16.7051C72.8333 13.5975 70.1694 11.7477 68.9115 12.8576C67.6535 13.9675 66.9136 16.4091 65.5816 16.8531C64.2497 17.297 65.0637 18.4809 66.9876 17.593C68.8375 16.6311 68.4675 14.4854 70.7614 15.6692C73.0553 16.8531 81.0469 19.2948 81.2689 20.7746Z" fill="url(#paint22_linear)"/>
<path opacity="0.8" d="M164.145 8.71423C164.145 8.71423 160.149 9.8241 160.149 8.71423C160.149 7.60437 162.147 3.90483 160.149 3.46089C158.151 3.01694 153.563 3.01694 155.561 3.83084C157.633 4.64474 157.707 7.97432 158.521 9.7501C159.483 11.4519 163.775 10.416 164.145 8.71423Z" fill="url(#paint23_linear)"/>
<path opacity="0.8" d="M175.614 14.6335C175.614 14.6335 171.545 10.49 166.809 11.3039C161.999 12.0438 161.555 12.2658 165.255 12.4878C168.881 12.7098 175.614 14.6335 175.614 14.6335Z" fill="url(#paint24_linear)"/>
<path opacity="0.8" d="M175.17 26.6199C175.17 26.6199 170.953 32.8351 171.101 30.9853C171.322 29.2096 170.435 27.1378 169.695 26.6199C168.955 26.1019 174.8 25.362 175.096 23.9562C175.466 22.6244 177.094 22.4764 177.02 23.9562C177.02 25.436 175.17 26.6199 175.17 26.6199Z" fill="url(#paint25_linear)"/>
<path opacity="0.8" d="M155.265 30.6155C155.265 30.6155 156.967 35.2029 159.631 33.7231C162.295 32.2433 162.073 34.537 163.849 35.5728C165.551 36.6087 166.809 39.1984 164.663 38.2365C162.517 37.2746 161.037 35.2769 159.335 35.7948C157.559 36.3128 153.267 34.611 155.265 30.6155Z" fill="url(#paint26_linear)"/>
<defs>
<radialGradient id="paint0_radial" cx="0" cy="0" r="1" gradientUnits="userSpaceOnUse" gradientTransform="translate(96.6483 49.5405) rotate(180) scale(72.1874 72.1819)">
<stop stop-color="white"/>
<stop offset="0.2169" stop-color="#FCFCFD"/>
<stop offset="0.3559" stop-color="#F4F4F8"/>
<stop offset="0.4731" stop-color="#E6E5EE"/>
<stop offset="0.5781" stop-color="#D1D0E0"/>
<stop offset="0.6751" stop-color="#B7B5CE"/>
<stop offset="0.7661" stop-color="#9793B8"/>
<stop offset="0.8525" stop-color="#706C9E"/>
<stop offset="0.9331" stop-color="#453F81"/>
<stop offset="1" stop-color="#1B1464"/>
</radialGradient>
<linearGradient id="paint1_linear" x1="96.9873" y1="83.9508" x2="96.9873" y2="34.0801" gradientUnits="userSpaceOnUse">
<stop stop-color="white"/>
<stop offset="0.2169" stop-color="#FCFCFD"/>
<stop offset="0.3559" stop-color="#F4F4F8"/>
<stop offset="0.4731" stop-color="#E6E5EE"/>
<stop offset="0.5781" stop-color="#D1D0E0"/>
<stop offset="0.6751" stop-color="#B7B5CE"/>
<stop offset="0.7661" stop-color="#9793B8"/>
<stop offset="0.8525" stop-color="#706C9E"/>
<stop offset="0.9331" stop-color="#453F81"/>
<stop offset="1" stop-color="#1B1464"/>
</linearGradient>
<linearGradient id="paint2_linear" x1="127.676" y1="82.3596" x2="127.676" y2="25.5253" gradientUnits="userSpaceOnUse">
<stop/>
<stop offset="1" stop-color="white"/>
</linearGradient>
<linearGradient id="paint3_linear" x1="116.932" y1="83.3257" x2="116.932" y2="24.2835" gradientUnits="userSpaceOnUse">
<stop/>
<stop offset="1" stop-color="white"/>
</linearGradient>
<linearGradient id="paint4_linear" x1="68.9711" y1="83.7733" x2="68.9711" y2="42.6321" gradientUnits="userSpaceOnUse">
<stop/>
<stop offset="1" stop-color="white"/>
</linearGradient>
<linearGradient id="paint5_linear" x1="51.2748" y1="82.4359" x2="51.2748" y2="44.224" gradientUnits="userSpaceOnUse">
<stop/>
<stop offset="1" stop-color="white"/>
</linearGradient>
<radialGradient id="paint6_radial" cx="0" cy="0" r="1" gradientUnits="userSpaceOnUse" gradientTransform="translate(96.9079 8.00162) rotate(180) scale(96.9231 96.9157)">
<stop stop-color="#1B1464"/>
<stop offset="0.0669379" stop-color="#453F81"/>
<stop offset="0.1475" stop-color="#706C9E"/>
<stop offset="0.2339" stop-color="#9793B8"/>
<stop offset="0.3249" stop-color="#B7B5CE"/>
<stop offset="0.4219" stop-color="#D1D0E0"/>
<stop offset="0.5269" stop-color="#E6E5EE"/>
<stop offset="0.6441" stop-color="#F4F4F8"/>
<stop offset="0.7831" stop-color="#FCFCFD"/>
<stop offset="1" stop-color="white"/>
</radialGradient>
<linearGradient id="paint7_linear" x1="90.0593" y1="49.1883" x2="90.0593" y2="0.912641" gradientUnits="userSpaceOnUse">
<stop stop-color="white"/>
<stop offset="0.2169" stop-color="#FCFCFD"/>
<stop offset="0.3559" stop-color="#F4F4F8"/>
<stop offset="0.4731" stop-color="#E6E5EE"/>
<stop offset="0.5781" stop-color="#D1D0E0"/>
<stop offset="0.6751" stop-color="#B7B5CE"/>
<stop offset="0.7661" stop-color="#9793B8"/>
<stop offset="0.8525" stop-color="#706C9E"/>
<stop offset="0.9331" stop-color="#453F81"/>
<stop offset="1" stop-color="#1B1464"/>
</linearGradient>
<linearGradient id="paint8_linear" x1="161.807" y1="17.5287" x2="136.431" y2="17.5287" gradientUnits="userSpaceOnUse">
<stop stop-color="white"/>
<stop offset="0.2169" stop-color="#FCFCFD"/>
<stop offset="0.3559" stop-color="#F4F4F8"/>
<stop offset="0.4731" stop-color="#E6E5EE"/>
<stop offset="0.5781" stop-color="#D1D0E0"/>
<stop offset="0.6751" stop-color="#B7B5CE"/>
<stop offset="0.7661" stop-color="#9793B8"/>
<stop offset="0.8525" stop-color="#706C9E"/>
<stop offset="0.9331" stop-color="#453F81"/>
<stop offset="1" stop-color="#1B1464"/>
</linearGradient>
<linearGradient id="paint9_linear" x1="43.2302" y1="41.4559" x2="43.2302" y2="21.2764" gradientUnits="userSpaceOnUse">
<stop stop-color="white"/>
<stop offset="0.2169" stop-color="#FCFCFD"/>
<stop offset="0.3559" stop-color="#F4F4F8"/>
<stop offset="0.4731" stop-color="#E6E5EE"/>
<stop offset="0.5781" stop-color="#D1D0E0"/>
<stop offset="0.6751" stop-color="#B7B5CE"/>
<stop offset="0.7661" stop-color="#9793B8"/>
<stop offset="0.8525" stop-color="#706C9E"/>
<stop offset="0.9331" stop-color="#453F81"/>
<stop offset="1" stop-color="#1B1464"/>
</linearGradient>
<linearGradient id="paint10_linear" x1="68.563" y1="40.424" x2="68.563" y2="22.0483" gradientUnits="userSpaceOnUse">
<stop stop-color="white"/>
<stop offset="0.2169" stop-color="#FCFCFD"/>
<stop offset="0.3559" stop-color="#F4F4F8"/>
<stop offset="0.4731" stop-color="#E6E5EE"/>
<stop offset="0.5781" stop-color="#D1D0E0"/>
<stop offset="0.6751" stop-color="#B7B5CE"/>
<stop offset="0.7661" stop-color="#9793B8"/>
<stop offset="0.8525" stop-color="#706C9E"/>
<stop offset="0.9331" stop-color="#453F81"/>
<stop offset="1" stop-color="#1B1464"/>
</linearGradient>
<linearGradient id="paint11_linear" x1="106.584" y1="28.5737" x2="101.74" y2="24.2309" gradientUnits="userSpaceOnUse">
<stop/>
<stop offset="1" stop-color="white"/>
</linearGradient>
<linearGradient id="paint12_linear" x1="132.299" y1="32.8915" x2="120.003" y2="21.8692" gradientUnits="userSpaceOnUse">
<stop/>
<stop offset="1" stop-color="white"/>
</linearGradient>
<linearGradient id="paint13_linear" x1="152.943" y1="28.1468" x2="138.475" y2="15.1764" gradientUnits="userSpaceOnUse">
<stop/>
<stop offset="1" stop-color="white"/>
</linearGradient>
<linearGradient id="paint14_linear" x1="94.9926" y1="38.7055" x2="89.1923" y2="33.5058" gradientUnits="userSpaceOnUse">
<stop/>
<stop offset="1" stop-color="white"/>
</linearGradient>
<linearGradient id="paint15_linear" x1="73.1042" y1="51.2933" x2="63.1503" y2="42.3703" gradientUnits="userSpaceOnUse">
<stop/>
<stop offset="1" stop-color="white"/>
</linearGradient>
<linearGradient id="paint16_linear" x1="48.3238" y1="48.8488" x2="33.4383" y2="35.5048" gradientUnits="userSpaceOnUse">
<stop/>
<stop offset="1" stop-color="white"/>
</linearGradient>
<linearGradient id="paint17_linear" x1="14.412" y1="37.2673" x2="8.42681" y2="31.9018" gradientUnits="userSpaceOnUse">
<stop/>
<stop offset="1" stop-color="white"/>
</linearGradient>
<linearGradient id="paint18_linear" x1="29.2039" y1="35.0797" x2="12.8195" y2="20.392" gradientUnits="userSpaceOnUse">
<stop/>
<stop offset="1" stop-color="white"/>
</linearGradient>
<linearGradient id="paint19_linear" x1="8.44449" y1="19.0728" x2="5.93891" y2="16.8267" gradientUnits="userSpaceOnUse">
<stop/>
<stop offset="1" stop-color="white"/>
</linearGradient>
<linearGradient id="paint20_linear" x1="33.3983" y1="7.2604" x2="30.6429" y2="4.7903" gradientUnits="userSpaceOnUse">
<stop/>
<stop offset="1" stop-color="white"/>
</linearGradient>
<linearGradient id="paint21_linear" x1="21.3918" y1="21.9758" x2="15.6045" y2="16.7878" gradientUnits="userSpaceOnUse">
<stop/>
<stop offset="1" stop-color="white"/>
</linearGradient>
<linearGradient id="paint22_linear" x1="78.6793" y1="23.6951" x2="68.1438" y2="14.2508" gradientUnits="userSpaceOnUse">
<stop/>
<stop offset="1" stop-color="white"/>
</linearGradient>
<linearGradient id="paint23_linear" x1="163.238" y1="10.0091" x2="155.676" y2="3.22968" gradientUnits="userSpaceOnUse">
<stop/>
<stop offset="1" stop-color="white"/>
</linearGradient>
<linearGradient id="paint24_linear" x1="173.358" y1="17.1505" x2="165.208" y2="9.84384" gradientUnits="userSpaceOnUse">
<stop/>
<stop offset="1" stop-color="white"/>
</linearGradient>
<linearGradient id="paint25_linear" x1="174.65" y1="27.8" x2="171.31" y2="24.8055" gradientUnits="userSpaceOnUse">
<stop/>
<stop offset="1" stop-color="white"/>
</linearGradient>
<linearGradient id="paint26_linear" x1="164.737" y1="39.475" x2="155.349" y2="31.0593" gradientUnits="userSpaceOnUse">
<stop/>
<stop offset="1" stop-color="white"/>
</linearGradient>
</defs>
</svg>
