<svg width="190" height="84" viewBox="0 0 190 84" fill="none" xmlns="http://www.w3.org/2000/svg">
<path d="M37.3143 37.9025L41.6801 42.7858C41.6801 42.7858 45.2319 46.4114 49.0797 52.8486C52.6315 58.8419 56.4794 67.2028 58.1813 77.4875C58.3293 78.5974 58.9212 79.5593 59.8092 80.1512C60.2532 80.4471 60.7711 80.7431 61.2891 80.8171C61.3631 80.8171 61.3631 80.8171 61.4371 80.8171C65.8029 81.631 71.6486 82.2969 77.9383 82.6669C78.4563 82.6669 78.9003 82.7409 79.4183 82.7409C88.6678 83.2588 98.9533 83.2588 107.759 82.5189C109.535 82.3709 111.237 82.2229 112.865 82.001C113.901 81.853 114.937 81.705 115.899 81.557C116.638 81.409 117.378 81.335 118.118 81.1871C120.56 80.7431 122.706 80.1512 124.482 79.4853C125.666 79.0413 126.554 78.0794 126.924 76.8216C128.626 70.9763 134.102 52.9966 138.097 48.4831C140.465 45.8195 144.091 41.602 148.161 38.0504C148.975 37.3105 149.863 36.6446 150.677 35.9787C150.751 35.9047 150.825 35.9047 150.825 35.8307C152.231 34.7948 153.711 33.833 155.191 33.167H155.265C157.263 32.2052 159.26 31.6872 161.184 31.8352C169.694 32.2792 163.478 24.3622 163.478 24.3622L150.825 21.6245L148.531 21.1066L140.391 19.3308L136.322 18.9608L133.14 18.6649L116.934 17.259L100.951 22.1424L84.524 34.9428L74.3125 37.6065L71.1307 38.4204L69.7987 38.7904L63.583 38.3464L60.6972 38.1244L52.2616 37.5325L43.382 37.6065H40.3481L37.3143 37.9025Z" fill="#81D0D3"/>
<path d="M37.3143 37.9025L41.6801 42.7858C41.6801 42.7858 45.2319 46.4114 49.0797 52.8486C52.6315 58.8419 56.4794 67.2028 58.1813 77.4875C58.3293 78.5974 58.9212 79.5593 59.8092 80.1512C60.2532 80.4471 60.7711 80.7431 61.2891 80.8171C61.3631 80.8171 61.3631 80.8171 61.4371 80.8171C65.8029 81.631 71.6486 82.2969 77.9383 82.6669C78.4563 82.6669 78.9003 82.7409 79.4183 82.7409C88.6678 83.2588 98.9533 83.2588 107.759 82.5189C109.535 82.3709 111.237 82.2229 112.865 82.001C113.901 81.853 114.937 81.705 115.899 81.557C116.638 81.409 117.378 81.335 118.118 81.1871C120.56 80.7431 122.706 80.1512 124.482 79.4853C125.666 79.0413 126.554 78.0794 126.924 76.8216C128.626 70.9763 134.102 52.9966 138.097 48.4831C140.465 45.8195 144.091 41.602 148.161 38.0504C148.975 37.3105 149.863 36.6446 150.677 35.9787C150.751 35.9047 150.825 35.9047 150.825 35.8307C152.231 34.7948 153.711 33.833 155.191 33.167H155.265C157.263 32.2052 159.26 31.6872 161.184 31.8352C169.694 32.2792 163.478 24.3622 163.478 24.3622L150.825 21.6245L148.531 21.1066L140.391 19.3308L136.322 18.9608L133.14 18.6649L116.934 17.259L100.951 22.1424L84.524 34.9428L74.3125 37.6065L71.1307 38.4204L69.7987 38.7904L63.583 38.3464L60.6972 38.1244L52.2616 37.5325L43.382 37.6065H40.3481L37.3143 37.9025Z" fill="url(#paint0_radial)"/>
<path opacity="0.1" d="M37.3143 37.9025L41.6801 42.7858C41.6801 42.7858 45.2319 46.4114 49.0797 52.8486C52.6315 58.8419 56.4794 67.2028 58.1813 77.4875C58.3293 78.5974 58.9212 79.5593 59.8092 80.1512C60.2532 80.4471 60.7711 80.7431 61.2891 80.8171C61.3631 80.8171 61.3631 80.8171 61.4371 80.8171C65.8029 81.631 71.6486 82.2969 77.9383 82.6669C78.4563 82.6669 78.9003 82.7409 79.4183 82.7409C88.6678 83.2588 98.9533 83.2588 107.759 82.5189C109.535 82.3709 111.237 82.2229 112.865 82.001C113.901 81.853 114.937 81.705 115.899 81.557C116.638 81.409 117.378 81.335 118.118 81.1871C120.56 80.7431 122.706 80.1512 124.482 79.4853C125.666 79.0413 126.554 78.0794 126.924 76.8216C128.626 70.9763 134.102 52.9966 138.097 48.4831C140.465 45.8195 144.091 41.602 148.161 38.0504C148.975 37.3105 149.863 36.6446 150.677 35.9787C150.751 35.9047 150.825 35.9047 150.825 35.8307C152.231 34.7948 153.711 33.833 155.191 33.167H155.265C157.263 32.2052 159.26 31.6872 161.184 31.8352C169.694 32.2792 163.478 24.3622 163.478 24.3622L150.825 21.6245L148.531 21.1066L140.391 19.3308L136.322 18.9608L133.14 18.6649L116.934 17.259L100.951 22.1424L84.524 34.9428L74.3125 37.6065L71.1307 38.4204L69.7987 38.7904L63.583 38.3464L60.6972 38.1244L52.2616 37.5325L43.382 37.6065H40.3481L37.3143 37.9025Z" fill="url(#paint1_linear)"/>
<path opacity="0.2" d="M37.3143 37.9024L41.6801 42.7858C41.6801 42.7858 45.2319 46.4114 49.0797 52.8486C50.0417 53.2185 50.8557 53.4405 51.5216 53.5145C52.2616 53.5885 52.8536 53.5145 53.3715 53.3665C54.4075 52.9965 55.0734 52.2566 55.5174 51.3688C56.4794 49.519 61.8811 56.4001 64.471 58.6938C67.0609 60.9876 68.0968 59.5077 70.0207 57.9539C71.2047 56.9181 73.4246 60.6176 75.2745 64.4651C76.3104 66.6108 77.1984 68.8306 77.7904 70.3104C78.3823 71.7902 78.7523 71.4943 78.9743 70.2364C79.4183 68.0167 79.5663 63.1333 79.8623 60.8396C80.3802 57.214 83.1181 55.8082 85.782 54.9943C88.5198 54.1804 94.4395 48.1132 97.1774 43.2298C99.9153 38.3464 118.71 30.3554 120.56 29.5415C121.67 29.0235 121.67 31.2433 121.744 33.389C121.744 34.8688 121.818 36.3486 122.336 36.9406C122.336 36.9406 122.336 37.0146 122.41 37.0146C123.668 38.3464 127.96 31.1693 127.96 32.5011C127.96 33.8329 129.662 34.7208 131.29 33.611C132.992 32.5751 132.992 35.0908 132.548 37.7545C132.474 38.1244 132.548 38.3464 132.77 38.4204C133.214 38.6423 134.25 38.0504 135.434 37.2365C137.209 35.9787 139.355 34.0549 140.169 33.241C141.723 31.6872 142.167 36.7926 142.981 36.2007C143.795 35.5347 146.829 34.6468 145.867 36.7186C145.201 38.1984 146.607 38.2724 147.495 38.1984C147.791 38.1984 148.013 38.1244 148.087 38.1244C148.901 37.3845 149.789 36.7186 150.603 36.0527C150.677 35.9787 150.751 35.9787 150.751 35.9047C153.119 34.3509 154.821 33.389 155.117 33.241H155.191C157.189 32.2791 159.186 31.7612 161.11 31.9092C169.62 32.3531 163.404 24.4361 163.404 24.4361L150.751 21.6985L148.457 21.1805L140.317 19.4047L136.248 19.0348L133.066 18.7388L116.86 17.333L100.877 22.2164L84.45 35.0168L74.2385 37.6805L71.0567 38.4944L69.7247 38.8643L63.509 38.4204L60.6232 38.1984L52.1876 37.6065L43.308 37.6805H40.2742L37.3143 37.9024Z" fill="#0071BC"/>
<path opacity="0.8" d="M107.759 82.5928C109.535 82.4448 111.237 82.2969 112.865 82.0749C113.087 80.891 113.457 79.4112 114.197 78.9673C115.455 78.1534 115.899 81.6309 115.899 81.6309C116.639 81.483 117.379 81.409 118.118 81.261C119.302 64.3911 129.292 45.9674 135.36 37.3105C141.501 28.6536 149.049 23.8441 149.049 23.8441L150.751 21.6244L148.457 21.1065C142.241 25.6939 136.914 32.2051 132.622 38.4943C129.07 43.7477 126.184 48.853 124.26 52.6266C119.968 60.8395 116.935 75.0458 116.935 76.3036C116.935 77.5614 115.751 75.7117 115.751 74.2319C115.751 72.7521 112.717 74.0839 111.607 76.7475C111.163 56.4741 116.713 48.3351 120.19 40.7141C120.708 39.5302 121.448 38.1984 122.262 36.8665C126.406 29.9114 133.066 22.2164 133.066 22.2164L136.248 18.9608L133.066 18.6648C130.92 20.9585 128.478 23.6962 126.036 26.8038C124.408 28.8755 122.928 31.0213 121.67 33.315C117.231 40.936 114.419 49.001 112.495 53.7364C109.979 59.8776 110.127 73.196 109.757 77.0435C109.609 79.4112 108.573 81.409 107.759 82.5928Z" fill="url(#paint2_linear)"/>
<path opacity="0.8" d="M60.5492 38.3463C62.7691 41.084 67.9489 47.5212 70.1688 50.8508C73.0546 55.1422 73.9426 55.4382 74.5346 59.9516C74.6826 60.8395 74.9046 62.4673 75.2006 64.4651C76.0145 69.9404 77.1984 78.2274 77.8644 82.7408C78.3824 82.7408 78.8264 82.8148 79.3443 82.8148C79.3443 80.743 79.1964 76.0076 78.9004 70.1624C78.4564 63.1332 77.6424 54.4763 76.1625 47.0772C75.3485 43.0077 74.6825 39.9741 74.2386 37.6804L71.0567 38.4943C72.3147 42.9338 74.3126 50.2588 72.4627 47.9651C70.6868 45.7454 66.247 41.158 63.5091 38.4203L60.5492 38.3463Z" fill="url(#paint3_linear)"/>
<path opacity="0.8" d="M40.2002 37.9023C43.234 40.936 47.8959 46.3373 51.5217 53.5884C52.2617 55.0682 52.9276 56.622 53.5196 58.2498C57.0714 67.7206 58.9213 75.8596 59.7353 80.2251C60.1793 80.521 60.6972 80.817 61.2152 80.891C61.0672 77.4874 60.2532 68.1646 54.7775 56.326C54.3335 55.2902 53.8156 54.3283 53.3716 53.4404C49.5978 46.0413 45.824 40.936 43.2341 37.9023H40.2002Z" fill="url(#paint4_linear)"/>
<path d="M8.2337 39.5301C8.75167 39.6041 9.26965 39.6781 9.71363 39.7521C16.2993 40.418 16.9653 36.3485 16.0773 32.723C19.1112 33.9808 26.5108 32.2051 26.5108 32.2051C26.5108 32.2051 27.9167 33.7589 29.6186 33.3149C28.0647 35.6086 28.0647 38.8642 30.8766 39.4562C31.4686 44.2656 39.1642 43.4517 41.6061 42.8597C44.048 43.8216 45.8239 43.3037 46.7858 41.8239C47.7478 40.418 59.3652 40.936 61.2151 40.788C62.9911 40.714 63.509 45.0794 66.9129 46.4113C70.3167 47.7431 72.0186 45.5974 72.0186 45.5974C72.0186 45.5974 74.3865 47.5212 79.3443 47.3732C84.302 47.1512 82.6741 40.714 81.8602 40.1221C81.0462 39.5301 90.7397 34.0548 92.7376 32.871C93.6996 37.8284 100.581 32.2051 103.319 30.2073C106.057 28.2835 103.911 24.806 103.911 24.806C103.911 24.806 108.869 21.8464 112.125 19.9966C115.381 18.1468 122.484 19.7746 125.888 19.9966C129.292 20.2186 134.176 25.5459 141.797 26.9517C149.419 28.2836 147.791 23.9181 147.791 23.9181C147.791 23.9181 148.087 23.9921 148.531 24.0661C150.233 24.436 154.451 25.3979 156.005 25.3979C156.893 26.0638 162.738 30.2813 162.738 30.2813C160.296 29.9853 158.89 31.1692 158.89 32.945C158.89 33.093 158.89 33.1669 158.964 33.3149C159.334 35.0167 162.368 37.3104 165.55 38.1983C165.624 42.9337 172.728 43.3777 177.242 41.7499C181.607 40.1961 179.905 34.8687 179.831 34.5728C184.641 37.0145 185.973 33.0189 186.195 31.1692C187.971 30.7992 188.859 29.9853 189.155 29.0235C189.747 27.0257 187.971 24.362 186.417 23.4001C186.787 22.9562 188.711 19.9226 187.601 16.593C187.527 16.297 187.379 16.0751 187.231 15.7791C187.157 15.6311 187.009 15.4091 186.935 15.2612C184.419 12.0056 174.134 10.3778 174.134 10.3778C174.134 10.3778 176.354 7.64012 173.69 4.6065C173.394 4.31054 173.098 4.01458 172.728 3.64463C172.654 3.64463 172.58 3.57062 172.432 3.42264C172.358 3.34865 172.21 3.27467 172.062 3.20068C171.84 3.0527 171.544 2.83072 171.322 2.68273C165.254 -0.942813 156.967 1.72086 154.229 3.94059C151.491 6.16031 147.939 5.12445 144.905 4.82848C146.459 1.79486 142.241 0.90696 141.131 2.01682C139.947 3.12668 130.772 11.2657 130.772 11.2657C130.772 11.2657 128.552 11.3397 124.482 11.0437C120.486 10.7477 116.269 15.7051 115.529 16.2971C114.715 16.889 113.531 13.2634 108.277 13.4854C103.023 13.7074 96.3634 22.0683 96.3634 22.0683L94.4396 21.9943C92.8856 17.0369 88.1499 18.5907 88.1499 18.5907C88.1499 18.5907 88.2239 14.9652 82.9701 11.2657C77.7164 7.56613 72.3146 11.5616 67.7268 12.7455C63.139 13.9293 54.9994 9.19394 53.2235 6.3083C51.4476 3.34867 47.1558 -0.128897 41.0881 0.758992C35.2424 1.57289 33.0225 6.3083 35.0204 8.82398L35.2424 9.04594C31.3206 10.7477 23.403 6.53027 17.8532 6.2343C14.7454 6.08632 11.4895 7.41815 9.19564 9.85985C7.41973 11.7836 6.23578 14.2993 6.23578 17.2589C-0.497892 19.4047 1.86998 24.288 1.86998 24.288C1.86998 24.288 -0.349908 27.0257 1.648 29.5414C0.982028 29.9853 0.316078 38.0503 8.2337 39.5301Z" fill="#D9F7FF"/>
<path d="M8.2337 39.5301C8.75167 39.6041 9.26965 39.6781 9.71363 39.7521C16.2993 40.418 16.9653 36.3485 16.0773 32.723C19.1112 33.9808 26.5108 32.2051 26.5108 32.2051C26.5108 32.2051 27.9167 33.7589 29.6186 33.3149C28.0647 35.6086 28.0647 38.8642 30.8766 39.4562C31.4686 44.2656 39.1642 43.4517 41.6061 42.8597C44.048 43.8216 45.8239 43.3037 46.7858 41.8239C47.7478 40.418 59.3652 40.936 61.2151 40.788C62.9911 40.714 63.509 45.0794 66.9129 46.4113C70.3167 47.7431 72.0186 45.5974 72.0186 45.5974C72.0186 45.5974 74.3865 47.5212 79.3443 47.3732C84.302 47.1512 82.6741 40.714 81.8602 40.1221C81.0462 39.5301 90.7397 34.0548 92.7376 32.871C93.6996 37.8284 100.581 32.2051 103.319 30.2073C106.057 28.2835 103.911 24.806 103.911 24.806C103.911 24.806 108.869 21.8464 112.125 19.9966C115.381 18.1468 122.484 19.7746 125.888 19.9966C129.292 20.2186 134.176 25.5459 141.797 26.9517C149.419 28.2836 147.791 23.9181 147.791 23.9181C147.791 23.9181 148.087 23.9921 148.531 24.0661C150.233 24.436 154.451 25.3979 156.005 25.3979C156.893 26.0638 162.738 30.2813 162.738 30.2813C160.296 29.9853 158.89 31.1692 158.89 32.945C158.89 33.093 158.89 33.1669 158.964 33.3149C159.334 35.0167 162.368 37.3104 165.55 38.1983C165.624 42.9337 172.728 43.3777 177.242 41.7499C181.607 40.1961 179.905 34.8687 179.831 34.5728C184.641 37.0145 185.973 33.0189 186.195 31.1692C187.971 30.7992 188.859 29.9853 189.155 29.0235C189.747 27.0257 187.971 24.362 186.417 23.4001C186.787 22.9562 188.711 19.9226 187.601 16.593C187.527 16.297 187.379 16.0751 187.231 15.7791C187.157 15.6311 187.009 15.4091 186.935 15.2612C184.419 12.0056 174.134 10.3778 174.134 10.3778C174.134 10.3778 176.354 7.64012 173.69 4.6065C173.394 4.31054 173.098 4.01458 172.728 3.64463C172.654 3.64463 172.58 3.57062 172.432 3.42264C172.358 3.34865 172.21 3.27467 172.062 3.20068C171.84 3.0527 171.544 2.83072 171.322 2.68273C165.254 -0.942813 156.967 1.72086 154.229 3.94059C151.491 6.16031 147.939 5.12445 144.905 4.82848C146.459 1.79486 142.241 0.90696 141.131 2.01682C139.947 3.12668 130.772 11.2657 130.772 11.2657C130.772 11.2657 128.552 11.3397 124.482 11.0437C120.486 10.7477 116.269 15.7051 115.529 16.2971C114.715 16.889 113.531 13.2634 108.277 13.4854C103.023 13.7074 96.3634 22.0683 96.3634 22.0683L94.4396 21.9943C92.8856 17.0369 88.1499 18.5907 88.1499 18.5907C88.1499 18.5907 88.2239 14.9652 82.9701 11.2657C77.7164 7.56613 72.3146 11.5616 67.7268 12.7455C63.139 13.9293 54.9994 9.19394 53.2235 6.3083C51.4476 3.34867 47.1558 -0.128897 41.0881 0.758992C35.2424 1.57289 33.0225 6.3083 35.0204 8.82398L35.2424 9.04594C31.3206 10.7477 23.403 6.53027 17.8532 6.2343C14.7454 6.08632 11.4895 7.41815 9.19564 9.85985C7.41973 11.7836 6.23578 14.2993 6.23578 17.2589C-0.497892 19.4047 1.86998 24.288 1.86998 24.288C1.86998 24.288 -0.349908 27.0257 1.648 29.5414C0.982028 29.9853 0.316078 38.0503 8.2337 39.5301Z" fill="url(#paint5_radial)"/>
<path opacity="0.1" d="M8.2337 39.5301C8.75167 39.6041 9.26965 39.6781 9.71363 39.7521C16.2993 40.418 16.9653 36.3485 16.0773 32.723C19.1112 33.9808 26.5108 32.2051 26.5108 32.2051C26.5108 32.2051 27.9167 33.7589 29.6186 33.3149C28.0647 35.6086 28.0647 38.8642 30.8766 39.4562C31.4686 44.2656 39.1642 43.4517 41.6061 42.8597C44.048 43.8216 45.8239 43.3037 46.7858 41.8239C47.7478 40.418 59.3652 40.936 61.2151 40.788C62.9911 40.714 63.509 45.0794 66.9129 46.4113C70.3167 47.7431 72.0186 45.5974 72.0186 45.5974C72.0186 45.5974 74.3865 47.5212 79.3443 47.3732C84.302 47.1512 82.6741 40.714 81.8602 40.1221C81.0462 39.5301 90.7397 34.0548 92.7376 32.871C93.6996 37.8284 100.581 32.2051 103.319 30.2073C106.057 28.2835 103.911 24.806 103.911 24.806C103.911 24.806 108.869 21.8464 112.125 19.9966C115.381 18.1468 122.484 19.7746 125.888 19.9966C129.292 20.2186 134.176 25.5459 141.797 26.9517C149.419 28.2836 147.791 23.9181 147.791 23.9181C147.791 23.9181 148.087 23.9921 148.531 24.0661C150.233 24.436 154.451 25.3979 156.005 25.3979C156.893 26.0638 162.738 30.2813 162.738 30.2813C160.296 29.9853 158.89 31.1692 158.89 32.945C158.89 33.093 158.89 33.1669 158.964 33.3149C159.334 35.0167 162.368 37.3104 165.55 38.1983C165.624 42.9337 172.728 43.3777 177.242 41.7499C181.607 40.1961 179.905 34.8687 179.831 34.5728C184.641 37.0145 185.973 33.0189 186.195 31.1692C187.971 30.7992 188.859 29.9853 189.155 29.0235C189.747 27.0257 187.971 24.362 186.417 23.4001C186.787 22.9562 188.711 19.9226 187.601 16.593C187.527 16.297 187.379 16.0751 187.231 15.7791C187.157 15.6311 187.009 15.4091 186.935 15.2612C184.419 12.0056 174.134 10.3778 174.134 10.3778C174.134 10.3778 176.354 7.64012 173.69 4.6065C173.394 4.31054 173.098 4.01458 172.728 3.64463C172.654 3.64463 172.58 3.57062 172.432 3.42264C172.358 3.34865 172.21 3.27467 172.062 3.20068C171.84 3.0527 171.544 2.83072 171.322 2.68273C165.254 -0.942813 156.967 1.72086 154.229 3.94059C151.491 6.16031 147.939 5.12445 144.905 4.82848C146.459 1.79486 142.241 0.90696 141.131 2.01682C139.947 3.12668 130.772 11.2657 130.772 11.2657C130.772 11.2657 128.552 11.3397 124.482 11.0437C120.486 10.7477 116.269 15.7051 115.529 16.2971C114.715 16.889 113.531 13.2634 108.277 13.4854C103.023 13.7074 96.3634 22.0683 96.3634 22.0683L94.4396 21.9943C92.8856 17.0369 88.1499 18.5907 88.1499 18.5907C88.1499 18.5907 88.2239 14.9652 82.9701 11.2657C77.7164 7.56613 72.3146 11.5616 67.7268 12.7455C63.139 13.9293 54.9994 9.19394 53.2235 6.3083C51.4476 3.34867 47.1558 -0.128897 41.0881 0.758992C35.2424 1.57289 33.0225 6.3083 35.0204 8.82398L35.2424 9.04594C31.3206 10.7477 23.403 6.53027 17.8532 6.2343C14.7454 6.08632 11.4895 7.41815 9.19564 9.85985C7.41973 11.7836 6.23578 14.2993 6.23578 17.2589C-0.497892 19.4047 1.86998 24.288 1.86998 24.288C1.86998 24.288 -0.349908 27.0257 1.648 29.5414C0.982028 29.9853 0.316078 38.0503 8.2337 39.5301Z" fill="url(#paint6_linear)"/>
<path opacity="0.2" d="M38.6462 14.3733C43.6039 19.2567 44.1959 27.3957 44.1959 27.3957L51.2996 31.3172L59.1432 35.6826L61.1411 35.4606L63.953 35.1647C63.953 35.1647 70.6866 34.7207 73.4245 33.9068C76.0144 33.1669 79.1222 33.8328 79.3442 33.9068C79.7142 33.6849 86.2259 29.6154 87.7058 28.2095C89.2597 26.7297 96.2154 22.2163 96.2154 22.2163L94.2915 22.1423C92.7376 17.1849 88.0018 18.7387 88.0018 18.7387C88.0018 18.7387 88.0758 15.1132 82.8221 11.4136C77.5683 7.7141 72.1666 11.7096 67.5788 12.8935C62.991 14.0773 54.8514 9.34189 53.0755 6.45625C51.2996 3.49662 47.0078 0.0190524 40.9401 0.906942C53.8154 4.60648 50.5596 18.2948 50.5596 18.2948C50.5596 18.2948 45.9718 16.741 38.6462 14.3733Z" fill="#0071BC"/>
<path opacity="0.2" d="M9.12164 9.85992C14.4494 6.7523 18.0012 8.30612 24.9569 10.7478C31.9126 13.2635 36.2783 10.7478 36.2783 10.7478L35.0944 9.04601C31.1726 10.7478 23.255 6.53034 17.7053 6.23437C14.6714 6.16038 11.4155 7.49221 9.12164 9.85992Z" fill="#0071BC"/>
<path opacity="0.2" d="M15.5593 21.5505C15.5593 21.5505 11.7855 22.1424 10.6756 24.0662C10.6756 19.9967 18.2232 16.7411 24.6609 17.9249C31.0246 19.1828 25.8448 13.9295 27.2508 14.3734C28.5827 14.8173 39.3122 20.2187 39.3122 20.2187L40.2002 26.1379L23.551 21.0326L15.5593 21.5505Z" fill="#0071BC"/>
<path opacity="0.2" d="M9.63962 39.7521C16.2253 40.418 16.8913 36.3485 16.0033 32.723C19.0372 33.9808 26.4368 32.2051 26.4368 32.2051C26.4368 32.2051 27.8428 33.7589 29.5447 33.3149C29.5447 33.3149 26.5848 31.3911 26.2148 30.2073C24.2909 31.6131 17.1873 33.0189 14.0794 30.1333C14.8194 35.0907 15.7813 39.0122 9.63962 39.7521Z" fill="#0071BC"/>
<path opacity="0.2" d="M130.698 11.4137C130.698 11.4137 137.58 10.3779 142.389 10.7478C147.199 11.1178 166.068 16.1491 166.66 16.2971C166.438 16.2231 164.662 15.1873 162.59 13.7814C159.038 11.3397 154.895 7.71419 157.707 5.71644C161.924 2.68282 169.768 2.16489 171.988 3.34875C171.766 3.20076 171.47 2.97878 171.248 2.8308C165.18 -0.794746 156.893 1.86893 154.155 4.08865C151.417 6.30838 147.865 5.27249 144.831 4.97653C146.385 1.94291 142.167 1.05503 141.057 2.16489C139.873 3.20076 130.698 11.4137 130.698 11.4137Z" fill="#0071BC"/>
<path opacity="0.2" d="M171.174 21.0325C171.174 21.0325 170.878 25.3239 176.354 25.6939C173.764 27.0997 167.844 22.8822 167.4 21.0325C166.956 19.1827 164.07 20.5885 164.07 20.5885C164.07 20.5885 164.292 22.4383 165.55 24.0661C162.96 23.0302 156.449 18.1468 156.301 17.3329C156.079 16.519 163.108 16.667 163.108 16.667L171.174 21.0325Z" fill="#0071BC"/>
<path opacity="0.2" d="M177.242 41.8239C181.607 40.2701 179.905 34.9427 179.831 34.6468C178.5 31.9091 176.428 31.0952 176.428 31.0952C181.089 37.3844 177.242 41.8239 177.242 41.8239Z" fill="#0071BC"/>
<path opacity="0.2" d="M148.531 24.1401C150.233 24.5101 154.451 25.472 156.005 25.472C156.892 26.1379 162.738 30.3554 162.738 30.3554C160.296 30.0594 158.89 31.2432 158.89 33.019C158.89 33.167 158.89 33.241 158.964 33.389C158.964 33.389 159.334 31.3912 165.55 31.1693C163.256 29.2455 157.041 25.694 156.301 24.0662C153.267 24.3621 148.531 24.1401 148.531 24.1401Z" fill="#0071BC"/>
<path opacity="0.2" d="M184.937 24.0661C187.971 25.6199 188.785 27.8396 189.081 29.0974C189.673 27.0997 187.897 24.436 186.343 23.4741C186.713 23.0302 188.637 19.9966 187.527 16.667C187.527 16.889 187.453 21.9203 184.937 24.0661Z" fill="#0071BC"/>
<path opacity="0.2" d="M170.508 10.5997C177.316 10.5997 182.569 13.7813 186.861 15.3351C184.345 12.0795 174.06 10.4517 174.06 10.4517C174.06 10.4517 176.28 7.71404 173.616 4.68042C173.69 4.68042 174.8 8.23198 170.508 10.5997Z" fill="#0071BC"/>
<path opacity="0.8" d="M124.408 79.5591C125.592 79.1151 126.48 78.1532 126.85 76.8954C128.552 71.0501 134.028 53.0704 138.024 48.5569C140.391 45.8933 144.017 41.6758 148.087 38.1242C148.901 37.3843 149.789 36.7184 150.603 36.0525C149.641 36.7184 148.531 37.3843 147.421 38.1982C142.833 41.4538 137.506 45.8933 135.138 50.2587C130.55 58.6197 124.408 79.5591 124.408 79.5591Z" fill="url(#paint7_linear)"/>
<path d="M55.8874 14.3733C57.0713 16.0011 63.953 21.6244 69.9467 26.4338C74.9785 30.5033 79.4183 33.9068 79.4183 33.9068C79.4183 33.9068 87.0399 29.8374 87.8539 28.1356C87.8539 28.1356 87.5579 27.9136 86.9659 27.4696C83.4141 25.1019 70.3167 16.2971 55.8874 14.3733Z" fill="#81D0D3"/>
<path opacity="0.1" d="M55.8874 14.3733C57.0713 16.0011 63.953 21.6244 69.9467 26.4338C74.9785 30.5033 79.4183 33.9068 79.4183 33.9068C79.4183 33.9068 87.0399 29.8374 87.8539 28.1356C87.8539 28.1356 87.5579 27.9136 86.9659 27.4696C83.4141 25.1019 70.3167 16.2971 55.8874 14.3733Z" fill="url(#paint8_linear)"/>
<path d="M38.6463 14.3733C39.6082 14.9653 46.1939 19.6267 53.0016 25.25C56.9234 28.4316 60.9192 31.9831 64.0271 35.2387C64.0271 35.2387 72.9806 35.0168 73.4986 33.9809C73.4986 33.9809 72.3147 32.4271 70.1688 30.2073C65.581 25.3979 56.7014 17.4069 46.0459 15.1132C46.0459 16.1491 45.7499 17.259 43.9 15.7791C42.0501 14.2993 37.0924 13.4854 38.6463 14.3733Z" fill="#81D0D3"/>
<path opacity="0.1" d="M38.6463 14.3733C39.6082 14.9653 46.1939 19.6267 53.0016 25.25C56.9234 28.4316 60.9192 31.9831 64.0271 35.2387C64.0271 35.2387 72.9806 35.0168 73.4986 33.9809C73.4986 33.9809 72.3147 32.4271 70.1688 30.2073C65.581 25.3979 56.7014 17.4069 46.0459 15.1132C46.0459 16.1491 45.7499 17.259 43.9 15.7791C42.0501 14.2993 37.0924 13.4854 38.6463 14.3733Z" fill="url(#paint9_linear)"/>
<path d="M14.8194 21.5504C18.2232 21.1064 23.8469 23.1042 24.9569 24.14C26.0668 25.2499 27.5468 24.584 32.8745 27.7656C35.8344 29.5414 39.4602 32.1311 44.7879 33.9068C49.0057 35.3127 54.3335 36.1265 61.2151 35.6086C61.2151 35.6086 58.1813 31.6871 53.2235 27.3957C47.7478 22.7342 39.9042 17.5549 31.1726 16.741C31.6906 18.2948 29.9147 17.1849 28.9527 17.3329C27.8428 17.4809 18.2232 16.741 14.8194 21.5504Z" fill="#81D0D3"/>
<path opacity="0.1" d="M14.8194 21.5504C18.2232 21.1064 23.8469 23.1042 24.9569 24.14C26.0668 25.2499 27.5468 24.584 32.8745 27.7656C35.8344 29.5414 39.4602 32.1311 44.7879 33.9068C49.0057 35.3127 54.3335 36.1265 61.2151 35.6086C61.2151 35.6086 58.1813 31.6871 53.2235 27.3957C47.7478 22.7342 39.9042 17.5549 31.1726 16.741C31.6906 18.2948 29.9147 17.1849 28.9527 17.3329C27.8428 17.4809 18.2232 16.741 14.8194 21.5504Z" fill="url(#paint10_linear)"/>
<path d="M141.649 10.5999C141.649 10.5999 155.117 10.1559 160.814 12.8936C166.586 15.5573 176.132 20.5886 172.136 21.4025C168.14 22.2164 162.516 22.2164 160.296 20.2927C158.225 18.2949 147.199 11.1178 141.649 10.5999Z" fill="#81D0D3"/>
<path opacity="0.1" d="M141.649 10.5999C141.649 10.5999 155.117 10.1559 160.814 12.8936C166.586 15.5573 176.132 20.5886 172.136 21.4025C168.14 22.2164 162.516 22.2164 160.296 20.2927C158.225 18.2949 147.199 11.1178 141.649 10.5999Z" fill="url(#paint11_linear)"/>
<path opacity="0.2" d="M141.649 10.5999C141.649 10.5999 155.117 10.1559 160.814 12.8936C166.586 15.5573 176.132 20.5886 172.136 21.4025C168.14 22.2164 162.516 22.2164 160.296 20.2927C158.225 18.2949 147.199 11.1178 141.649 10.5999Z" fill="#0071BC"/>
<path opacity="0.2" d="M69.9467 26.5077C74.9785 30.5772 79.4183 33.9808 79.4183 33.9808C79.4183 33.9808 87.0399 29.9113 87.8539 28.2095C87.8539 28.2095 87.5579 27.9875 86.9659 27.5436C85.412 28.4315 82.8961 29.6893 81.9341 29.2454C80.4542 28.5795 78.8263 27.4696 78.0863 28.0615C77.3464 28.6535 70.4647 25.5458 70.0207 26.2857C69.9467 26.3597 69.9467 26.3597 69.9467 26.5077Z" fill="#0071BC"/>
<path opacity="0.2" d="M53.0016 25.25C56.9234 28.4316 60.9192 31.9832 64.0271 35.2388C64.0271 35.2388 72.9806 35.0168 73.4986 33.9809C73.4986 33.9809 72.3147 32.4271 70.1688 30.2074C70.0948 31.3173 69.7248 32.1312 68.3929 31.6872C65.433 30.5774 61.2152 27.5437 60.6232 28.2836C59.8833 29.0235 53.0016 24.4361 53.0016 25.25Z" fill="#0071BC"/>
<path opacity="0.2" d="M44.7879 33.9809C49.0057 35.3868 54.3335 36.2006 61.2152 35.6827C61.2152 35.6827 58.1813 31.7612 53.2235 27.4697C53.3715 28.2836 53.6675 29.3195 54.1855 30.2814C55.2954 32.3531 53.5195 32.5751 52.4836 31.8352C51.4476 31.0953 50.5597 31.3913 50.7076 32.2052C50.8556 33.0191 47.3778 33.537 44.7879 33.9809Z" fill="#0071BC"/>
<path opacity="0.8" d="M157.041 19.9225C156.819 19.5526 146.237 11.6355 141.649 11.1916C137.061 10.7476 127.96 12.8934 130.698 12.8934C133.436 12.8934 140.613 12.5974 145.645 15.2611C150.677 17.9987 158.076 21.5503 157.041 19.9225Z" fill="url(#paint12_linear)"/>
<path opacity="0.8" d="M146.311 22.8082C146.237 22.4382 134.176 20.4405 131.512 18.6647C128.922 16.9629 127.96 18.3687 129.292 19.4046C130.55 20.4405 148.087 30.9472 146.311 22.8082Z" fill="url(#paint13_linear)"/>
<path opacity="0.8" d="M113.901 17.3328C114.049 16.5189 109.387 12.4494 104.799 15.2611C100.211 18.0727 97.6954 21.8463 97.6954 21.8463C97.6954 21.8463 104.873 15.2611 108.277 16.149C111.755 17.1109 113.605 18.8867 113.901 17.3328Z" fill="url(#paint14_linear)"/>
<path opacity="0.8" d="M103.319 23.1042C103.319 23.1042 102.283 25.176 102.357 27.4697C102.431 29.7634 97.6214 33.389 96.9554 33.9809C96.2895 34.5728 99.1753 30.3554 100.137 28.5056C101.099 26.7298 102.061 23.1042 103.319 23.1042Z" fill="url(#paint15_linear)"/>
<path opacity="0.8" d="M81.5642 39.8262C81.5642 39.8262 84.0061 45.3755 80.0843 46.2634C76.1625 47.1513 74.2386 43.8957 72.5367 44.3396C70.8347 44.7096 69.6508 46.4113 67.4309 45.3755C65.285 44.4136 63.1391 41.232 63.1391 41.232C63.1391 41.232 67.3569 44.7096 69.2068 43.6737C71.1307 42.7118 73.3506 41.7499 75.1265 42.5638C76.9024 43.3777 81.1943 42.3419 81.5642 39.8262Z" fill="url(#paint16_linear)"/>
<path opacity="0.8" d="M175.392 39.2341C175.392 39.2341 169.842 39.0861 169.768 36.1265C169.694 33.0929 166.66 34.1287 164.884 33.3888C163.108 32.6489 161.85 31.3911 161.85 32.205C161.85 33.0929 162.294 34.3507 165.624 36.4964C168.88 38.5682 172.432 43.6736 175.392 39.2341Z" fill="url(#paint17_linear)"/>
<path opacity="0.8" d="M187.083 28.0615C187.083 28.0615 185.233 28.6535 185.233 29.9853C185.233 31.3171 184.715 34.5727 181.533 34.7207C181.533 34.7207 183.901 32.353 183.975 30.4292C183.975 28.4315 185.751 27.5436 187.083 28.0615Z" fill="url(#paint18_linear)"/>
<path opacity="0.8" d="M184.937 23.3261C184.937 23.3261 188.341 16.7409 183.827 14.5951C179.239 12.5234 173.172 11.5615 173.172 11.5615L180.719 14.5212C180.645 14.5951 185.899 16.5929 184.937 23.3261Z" fill="url(#paint19_linear)"/>
<path opacity="0.8" d="M164.44 4.68042C164.44 4.68042 163.404 10.8216 168.658 12.3015C173.912 13.7813 170.064 14.9651 167.992 14.5212C165.92 14.0772 160.148 8.15799 164.44 4.68042Z" fill="url(#paint20_linear)"/>
<path opacity="0.8" d="M50.7077 37.7543C50.7077 37.7543 46.4899 42.2677 44.862 42.2677C43.2341 42.2677 43.456 41.3798 40.2002 41.9717C36.9443 42.5637 32.6526 42.4157 31.9126 39.826C31.1727 37.2363 30.2107 36.2005 30.2107 36.2005C30.2107 36.2005 31.3206 34.8686 32.6526 36.9404C33.9845 38.9381 36.6484 40.7879 39.3862 40.196C42.1241 39.604 43.3081 39.678 44.862 39.826C46.3419 39.974 50.7077 37.7543 50.7077 37.7543Z" fill="url(#paint21_linear)"/>
<path opacity="0.8" d="M35.1684 32.2051C35.1684 32.2051 31.3946 24.7321 24.4389 25.176C17.4833 25.62 25.9929 26.9518 27.9168 28.0616C29.8407 29.1715 35.1684 32.2051 35.1684 32.2051Z" fill="url(#paint22_linear)"/>
<path opacity="0.8" d="M5.64384 27.3216C5.64384 27.3216 3.05397 34.3507 11.1936 37.6803C7.19777 37.8283 2.83195 33.8328 3.34993 30.6512C3.8679 27.4696 1.72203 28.1355 2.314 26.1378C2.90598 24.14 2.46199 24.6579 2.90597 22.4382C3.34995 20.2185 7.27176 17.8508 6.97577 18.7387C6.60579 19.6266 4.31191 23.6221 5.64384 27.3216Z" fill="url(#paint23_linear)"/>
<path opacity="0.8" d="M22.737 11.1917C22.737 11.1917 10.1576 7.2702 7.19775 15.7791C7.19775 15.7791 7.78973 17.4809 10.6756 15.2612C13.6355 13.0415 19.7032 10.0818 22.737 11.1917Z" fill="url(#paint24_linear)"/>
<path opacity="0.8" d="M41.2362 2.53467C41.2362 2.53467 37.4623 5.93824 39.3863 10.2297C41.3102 14.5212 36.3524 11.3396 36.3524 8.08398C36.3524 4.90237 39.9042 2.53467 41.2362 2.53467Z" fill="url(#paint25_linear)"/>
<path opacity="0.8" d="M86.3 18.5909C86.3 18.5909 83.1181 10.8958 77.9384 11.3398C72.7586 11.7097 64.841 14.7434 67.8749 14.3734C70.9827 14.0774 81.1943 11.7097 86.3 18.5909Z" fill="url(#paint26_linear)"/>
<path opacity="0.8" d="M83.488 34.0549C83.1181 34.7208 83.6361 36.7926 82.3041 37.1625C80.8982 37.5325 78.4563 37.0885 79.8622 36.4966C81.2682 35.8307 83.488 34.0549 83.488 34.0549Z" fill="url(#paint27_linear)"/>
<defs>
<radialGradient id="paint0_radial" cx="0" cy="0" r="1" gradientUnits="userSpaceOnUse" gradientTransform="translate(102.166 46.7906) rotate(180) scale(72.7201 72.7145)">
<stop stop-color="white"/>
<stop offset="0.2169" stop-color="#FCFCFD"/>
<stop offset="0.3559" stop-color="#F4F4F8"/>
<stop offset="0.4731" stop-color="#E6E5EE"/>
<stop offset="0.5781" stop-color="#D1D0E0"/>
<stop offset="0.6751" stop-color="#B7B5CE"/>
<stop offset="0.7661" stop-color="#9793B8"/>
<stop offset="0.8525" stop-color="#706C9E"/>
<stop offset="0.9331" stop-color="#453F81"/>
<stop offset="1" stop-color="#1B1464"/>
</radialGradient>
<linearGradient id="paint1_linear" x1="101.43" y1="83.189" x2="101.43" y2="23.5766" gradientUnits="userSpaceOnUse">
<stop stop-color="white"/>
<stop offset="0.1177" stop-color="#FBFBFC"/>
<stop offset="0.2473" stop-color="#EEEDF3"/>
<stop offset="0.3827" stop-color="#D8D7E5"/>
<stop offset="0.5221" stop-color="#BAB8D0"/>
<stop offset="0.6646" stop-color="#9491B6"/>
<stop offset="0.8097" stop-color="#656096"/>
<stop offset="0.9541" stop-color="#2E2871"/>
<stop offset="1" stop-color="#1B1464"/>
</linearGradient>
<linearGradient id="paint2_linear" x1="129.248" y1="82.709" x2="129.248" y2="20.42" gradientUnits="userSpaceOnUse">
<stop/>
<stop offset="1" stop-color="white"/>
</linearGradient>
<linearGradient id="paint3_linear" x1="69.9695" y1="82.919" x2="69.9695" y2="38.9494" gradientUnits="userSpaceOnUse">
<stop/>
<stop offset="1" stop-color="white"/>
</linearGradient>
<linearGradient id="paint4_linear" x1="50.697" y1="80.9619" x2="50.697" y2="39.0198" gradientUnits="userSpaceOnUse">
<stop/>
<stop offset="1" stop-color="white"/>
</linearGradient>
<radialGradient id="paint5_radial" cx="0" cy="0" r="1" gradientUnits="userSpaceOnUse" gradientTransform="translate(94.9564 6.13738) rotate(180) scale(100.659 100.651)">
<stop stop-color="#1B1464"/>
<stop offset="0.0669379" stop-color="#453F81"/>
<stop offset="0.1475" stop-color="#706C9E"/>
<stop offset="0.2339" stop-color="#9793B8"/>
<stop offset="0.3249" stop-color="#B7B5CE"/>
<stop offset="0.4219" stop-color="#D1D0E0"/>
<stop offset="0.5269" stop-color="#E6E5EE"/>
<stop offset="0.6441" stop-color="#F4F4F8"/>
<stop offset="0.7831" stop-color="#FCFCFD"/>
<stop offset="1" stop-color="white"/>
</radialGradient>
<linearGradient id="paint6_linear" x1="94.9564" y1="47.3792" x2="94.9564" y2="0.688107" gradientUnits="userSpaceOnUse">
<stop stop-color="#1B1464"/>
<stop offset="0.0669379" stop-color="#453F81"/>
<stop offset="0.1475" stop-color="#706C9E"/>
<stop offset="0.2339" stop-color="#9793B8"/>
<stop offset="0.3249" stop-color="#B7B5CE"/>
<stop offset="0.4219" stop-color="#D1D0E0"/>
<stop offset="0.5269" stop-color="#E6E5EE"/>
<stop offset="0.6441" stop-color="#F4F4F8"/>
<stop offset="0.7831" stop-color="#FCFCFD"/>
<stop offset="1" stop-color="white"/>
</linearGradient>
<linearGradient id="paint7_linear" x1="137.532" y1="79.6308" x2="137.532" y2="37.2269" gradientUnits="userSpaceOnUse">
<stop/>
<stop offset="1" stop-color="white"/>
</linearGradient>
<linearGradient id="paint8_linear" x1="71.8378" y1="33.9883" x2="71.8378" y2="18.0378" gradientUnits="userSpaceOnUse">
<stop stop-color="white"/>
<stop offset="0.2169" stop-color="#FCFCFD"/>
<stop offset="0.3559" stop-color="#F4F4F8"/>
<stop offset="0.4731" stop-color="#E6E5EE"/>
<stop offset="0.5781" stop-color="#D1D0E0"/>
<stop offset="0.6751" stop-color="#B7B5CE"/>
<stop offset="0.7661" stop-color="#9793B8"/>
<stop offset="0.8525" stop-color="#706C9E"/>
<stop offset="0.9331" stop-color="#453F81"/>
<stop offset="1" stop-color="#1B1464"/>
</linearGradient>
<linearGradient id="paint9_linear" x1="55.8844" y1="35.224" x2="55.8844" y2="17.9654" gradientUnits="userSpaceOnUse">
<stop stop-color="white"/>
<stop offset="0.2169" stop-color="#FCFCFD"/>
<stop offset="0.3559" stop-color="#F4F4F8"/>
<stop offset="0.4731" stop-color="#E6E5EE"/>
<stop offset="0.5781" stop-color="#D1D0E0"/>
<stop offset="0.6751" stop-color="#B7B5CE"/>
<stop offset="0.7661" stop-color="#9793B8"/>
<stop offset="0.8525" stop-color="#706C9E"/>
<stop offset="0.9331" stop-color="#453F81"/>
<stop offset="1" stop-color="#1B1464"/>
</linearGradient>
<linearGradient id="paint10_linear" x1="38.0215" y1="35.7996" x2="38.0215" y2="20.2959" gradientUnits="userSpaceOnUse">
<stop stop-color="white"/>
<stop offset="0.2169" stop-color="#FCFCFD"/>
<stop offset="0.3559" stop-color="#F4F4F8"/>
<stop offset="0.4731" stop-color="#E6E5EE"/>
<stop offset="0.5781" stop-color="#D1D0E0"/>
<stop offset="0.6751" stop-color="#B7B5CE"/>
<stop offset="0.7661" stop-color="#9793B8"/>
<stop offset="0.8525" stop-color="#706C9E"/>
<stop offset="0.9331" stop-color="#453F81"/>
<stop offset="1" stop-color="#1B1464"/>
</linearGradient>
<linearGradient id="paint11_linear" x1="157.397" y1="21.8878" x2="157.397" y2="12.6778" gradientUnits="userSpaceOnUse">
<stop stop-color="white"/>
<stop offset="0.2169" stop-color="#FCFCFD"/>
<stop offset="0.3559" stop-color="#F4F4F8"/>
<stop offset="0.4731" stop-color="#E6E5EE"/>
<stop offset="0.5781" stop-color="#D1D0E0"/>
<stop offset="0.6751" stop-color="#B7B5CE"/>
<stop offset="0.7661" stop-color="#9793B8"/>
<stop offset="0.8525" stop-color="#706C9E"/>
<stop offset="0.9331" stop-color="#453F81"/>
<stop offset="1" stop-color="#1B1464"/>
</linearGradient>
<linearGradient id="paint12_linear" x1="153.089" y1="24.826" x2="134.917" y2="8.53551" gradientUnits="userSpaceOnUse">
<stop/>
<stop offset="1" stop-color="white"/>
</linearGradient>
<linearGradient id="paint13_linear" x1="144.388" y1="27.0806" x2="131.648" y2="15.6598" gradientUnits="userSpaceOnUse">
<stop/>
<stop offset="1" stop-color="white"/>
</linearGradient>
<linearGradient id="paint14_linear" x1="109.367" y1="22.6112" x2="102.606" y2="16.5506" gradientUnits="userSpaceOnUse">
<stop/>
<stop offset="1" stop-color="white"/>
</linearGradient>
<linearGradient id="paint15_linear" x1="101.487" y1="29.767" x2="99.0485" y2="27.5814" gradientUnits="userSpaceOnUse">
<stop/>
<stop offset="1" stop-color="white"/>
</linearGradient>
<linearGradient id="paint16_linear" x1="79.7828" y1="47.4938" x2="67.7833" y2="36.7369" gradientUnits="userSpaceOnUse">
<stop/>
<stop offset="1" stop-color="white"/>
</linearGradient>
<linearGradient id="paint17_linear" x1="173.848" y1="41.0379" x2="163.014" y2="31.326" gradientUnits="userSpaceOnUse">
<stop/>
<stop offset="1" stop-color="white"/>
</linearGradient>
<linearGradient id="paint18_linear" x1="185.252" y1="32.2144" x2="183.196" y2="30.3714" gradientUnits="userSpaceOnUse">
<stop/>
<stop offset="1" stop-color="white"/>
</linearGradient>
<linearGradient id="paint19_linear" x1="186.929" y1="21.1437" x2="174.852" y2="10.3179" gradientUnits="userSpaceOnUse">
<stop/>
<stop offset="1" stop-color="white"/>
</linearGradient>
<linearGradient id="paint20_linear" x1="170.989" y1="14.1916" x2="162.792" y2="6.84349" gradientUnits="userSpaceOnUse">
<stop/>
<stop offset="1" stop-color="white"/>
</linearGradient>
<linearGradient id="paint21_linear" x1="45.8826" y1="43.162" x2="34.044" y2="32.5493" gradientUnits="userSpaceOnUse">
<stop/>
<stop offset="1" stop-color="white"/>
</linearGradient>
<linearGradient id="paint22_linear" x1="34.1098" y1="33.4321" x2="23.6767" y2="24.0796" gradientUnits="userSpaceOnUse">
<stop/>
<stop offset="1" stop-color="white"/>
</linearGradient>
<linearGradient id="paint23_linear" x1="14.2897" y1="34.2818" x2="2.08264" y2="23.3388" gradientUnits="userSpaceOnUse">
<stop/>
<stop offset="1" stop-color="white"/>
</linearGradient>
<linearGradient id="paint24_linear" x1="18.1191" y1="16.3826" x2="11.4915" y2="10.4414" gradientUnits="userSpaceOnUse">
<stop/>
<stop offset="1" stop-color="white"/>
</linearGradient>
<linearGradient id="paint25_linear" x1="42.2536" y1="9.44429" x2="37.5276" y2="5.20776" gradientUnits="userSpaceOnUse">
<stop/>
<stop offset="1" stop-color="white"/>
</linearGradient>
<linearGradient id="paint26_linear" x1="83.6813" y1="21.5752" x2="71.2797" y2="10.4578" gradientUnits="userSpaceOnUse">
<stop/>
<stop offset="1" stop-color="white"/>
</linearGradient>
<linearGradient id="paint27_linear" x1="82.9209" y1="36.7477" x2="81.0384" y2="35.0602" gradientUnits="userSpaceOnUse">
<stop/>
<stop offset="1" stop-color="white"/>
</linearGradient>
</defs>
</svg>
