<svg width="200" height="85" viewBox="0 0 200 85" fill="none" xmlns="http://www.w3.org/2000/svg">
<path d="M56.3328 54.9584C59.7366 61.9135 63.2884 71.3103 63.2144 79.8932C63.2144 80.3372 63.5104 80.7811 63.9544 80.8551C65.5083 81.2251 67.4322 81.669 69.6521 82.039C69.7261 82.039 69.8001 82.039 69.8741 82.113C70.614 82.2609 71.4281 82.3349 72.168 82.4829C72.39 82.4829 72.464 82.5569 72.464 82.5569C76.0898 83.0748 80.1596 83.5928 84.5994 83.9627C85.1174 84.0367 85.6353 84.0367 86.1533 84.1107C93.183 84.7027 100.879 84.9986 107.982 84.8506C110.942 84.7766 113.754 84.6287 116.418 84.4067C116.936 84.3327 117.454 84.3327 117.972 84.2587C120.34 84.0367 122.634 83.6668 124.631 83.2228C125.075 83.1488 125.519 83.0009 125.963 82.9269C127.961 82.4089 129.737 81.817 131.217 81.1511C131.735 80.9291 132.031 80.4852 132.105 79.8932C132.845 75.3798 136.989 53.0346 149.864 44.0817C153.12 41.862 156.006 40.0122 158.522 38.6064C167.327 33.723 172.433 33.1311 174.209 33.427C175.541 33.649 176.429 31.9472 177.021 30.4674C177.465 29.3576 177.613 28.3957 177.613 28.3957L163.332 22.9943L160.224 21.8105L158.522 21.1446C158.522 21.1446 152.084 19.1468 147.126 17.519C146.312 17.2231 145.498 17.0011 144.833 16.7791C142.835 16.1132 141.355 15.5953 141.281 15.4473C141.059 15.0773 129.219 9.75 129.219 9.75L110.424 13.6715L97.8448 22.1804L75.2759 35.9427L74.1659 36.6086H63.6584L51.597 37.3485L50.931 41.3441L50.3391 44.7476C50.5611 44.5996 53.3729 48.8171 56.3328 54.9584Z" fill="#81D0D3"/>
<path d="M56.3328 54.9584C59.7366 61.9135 63.2884 71.3103 63.2144 79.8932C63.2144 80.3372 63.5104 80.7811 63.9544 80.8551C65.5083 81.2251 67.4322 81.669 69.6521 82.039C69.7261 82.039 69.8001 82.039 69.8741 82.113C70.614 82.2609 71.4281 82.3349 72.168 82.4829C72.39 82.4829 72.464 82.5569 72.464 82.5569C76.0898 83.0748 80.1596 83.5928 84.5994 83.9627C85.1174 84.0367 85.6353 84.0367 86.1533 84.1107C93.183 84.7027 100.879 84.9986 107.982 84.8506C110.942 84.7766 113.754 84.6287 116.418 84.4067C116.936 84.3327 117.454 84.3327 117.972 84.2587C120.34 84.0367 122.634 83.6668 124.631 83.2228C125.075 83.1488 125.519 83.0009 125.963 82.9269C127.961 82.4089 129.737 81.817 131.217 81.1511C131.735 80.9291 132.031 80.4852 132.105 79.8932C132.845 75.3798 136.989 53.0346 149.864 44.0817C153.12 41.862 156.006 40.0122 158.522 38.6064C167.327 33.723 172.433 33.1311 174.209 33.427C175.541 33.649 176.429 31.9472 177.021 30.4674C177.465 29.3576 177.613 28.3957 177.613 28.3957L163.332 22.9943L160.224 21.8105L158.522 21.1446C158.522 21.1446 152.084 19.1468 147.126 17.519C146.312 17.2231 145.498 17.0011 144.833 16.7791C142.835 16.1132 141.355 15.5953 141.281 15.4473C141.059 15.0773 129.219 9.75 129.219 9.75L110.424 13.6715L97.8448 22.1804L75.2759 35.9427L74.1659 36.6086H63.6584L51.597 37.3485L50.931 41.3441L50.3391 44.7476C50.5611 44.5996 53.3729 48.8171 56.3328 54.9584Z" fill="url(#paint0_radial)"/>
<path opacity="0.1" d="M56.3328 54.9584C59.7366 61.9135 63.2884 71.3103 63.2144 79.8932C63.2144 80.3372 63.5104 80.7811 63.9544 80.8551C65.5083 81.2251 67.4322 81.669 69.6521 82.039C69.7261 82.039 69.8001 82.039 69.8741 82.113C70.614 82.2609 71.4281 82.3349 72.168 82.4829C72.39 82.4829 72.464 82.5569 72.464 82.5569C76.0898 83.0748 80.1596 83.5928 84.5994 83.9627C85.1174 84.0367 85.6353 84.0367 86.1533 84.1107C93.183 84.7027 100.879 84.9986 107.982 84.8506C110.942 84.7766 113.754 84.6287 116.418 84.4067C116.936 84.3327 117.454 84.3327 117.972 84.2587C120.34 84.0367 122.634 83.6668 124.631 83.2228C125.075 83.1488 125.519 83.0009 125.963 82.9269C127.961 82.4089 129.737 81.817 131.217 81.1511C131.735 80.9291 132.031 80.4852 132.105 79.8932C132.845 75.3798 136.989 53.0346 149.864 44.0817C153.12 41.862 156.006 40.0122 158.522 38.6064C167.327 33.723 172.433 33.1311 174.209 33.427C175.541 33.649 176.429 31.9472 177.021 30.4674C177.465 29.3576 177.613 28.3957 177.613 28.3957L163.332 22.9943L160.224 21.8105L158.522 21.1446C158.522 21.1446 152.084 19.1468 147.126 17.519C146.312 17.2231 145.498 17.0011 144.833 16.7791C142.835 16.1132 141.355 15.5953 141.281 15.4473C141.059 15.0773 129.219 9.75 129.219 9.75L110.424 13.6715L97.8448 22.1804L75.2759 35.9427L74.1659 36.6086H63.6584L51.597 37.3485L50.931 41.3441L50.3391 44.7476C50.5611 44.5996 53.3729 48.8171 56.3328 54.9584Z" fill="url(#paint1_linear)"/>
<path opacity="0.2" d="M50.561 44.5997C50.561 44.5997 53.3729 48.8172 56.3328 54.8844C57.1467 55.0324 57.9607 55.2544 58.6267 55.5503C58.7746 55.6243 58.8487 55.6243 58.9227 55.6983C60.8466 56.8082 60.9205 55.5503 62.1045 53.4046C63.2144 51.2589 69.8741 60.3597 70.0961 59.8418C70.3181 59.3239 71.5021 58.584 72.908 60.2118C74.3139 61.8396 75.3498 60.2118 75.7938 57.5481C76.3118 54.8844 81.1216 61.2476 82.3795 63.7633C82.5275 64.0593 82.6755 64.2073 82.8235 64.2073C83.2674 64.3552 83.7855 63.9113 84.4514 63.0974C86.0054 61.0996 87.9293 57.0301 88.8172 55.1064C92.887 56.5122 103.394 38.3845 104.282 36.4607C105.17 34.537 106.428 35.5728 106.428 37.4966C106.428 39.4203 110.128 36.4607 112.496 31.9473C114.938 27.3598 121.228 26.6199 121.894 27.8778C122.56 29.1356 124.41 28.3957 125.445 26.9899C126.481 25.5841 128.849 27.7298 129.219 29.4316C129.441 30.2455 130.181 30.1715 131.217 29.8015C132.179 29.4316 133.289 28.8397 134.473 28.3217C134.621 28.2477 134.769 28.2477 134.843 28.1737C137.507 27.1379 135.213 30.0975 134.843 32.6132C134.473 35.1289 139.431 32.2432 140.763 31.7253C141.873 31.2814 141.503 33.1311 141.059 35.6468C140.985 36.1647 140.837 36.7567 140.763 37.3486C140.689 38.0145 140.911 38.2365 141.355 38.1625C143.057 37.9405 148.088 33.2051 148.384 34.241C148.754 35.5728 151.344 36.0907 153.046 34.8329C154.822 33.5751 155.118 34.6109 154.452 36.4607C154.378 36.6827 154.378 36.8307 154.526 37.0526C154.97 37.7925 156.82 38.2365 158.448 38.4585C167.253 33.5751 172.359 32.9831 174.135 33.2791C175.467 33.5011 176.355 31.7993 176.947 30.3195C177.391 29.2096 177.539 28.2477 177.539 28.2477L163.258 22.8464L160.15 21.6626L158.448 20.9966C158.448 20.9966 152.01 18.9989 147.052 17.3711C146.238 17.0751 145.424 16.8531 144.759 16.6312C142.761 15.9653 141.281 15.4473 141.207 15.2993C140.985 14.9294 129.145 9.60205 129.145 9.60205L110.35 13.5236L97.7708 22.0325L75.2019 35.7948L74.0919 36.4607H63.5844L51.523 37.2006L50.857 41.1961L50.561 44.5997Z" fill="#0071BC"/>
<path opacity="0.8" d="M108.056 84.7026C111.016 84.6286 113.828 84.4806 116.492 84.2586C117.01 84.1847 117.528 84.1846 118.046 84.1106C120.414 83.8887 122.708 83.5187 124.706 83.0748C125.15 83.0008 125.593 82.8528 126.037 82.7788C128.035 82.2609 129.811 81.6689 131.291 81.003C131.809 80.7811 132.105 80.3371 132.179 79.7452C132.919 75.2318 137.063 52.8866 149.938 43.9337C153.194 41.7139 156.08 39.8642 158.596 38.4583C167.401 33.5749 172.507 32.983 174.283 33.279C175.615 33.501 176.503 31.7992 177.095 30.3193C172.063 30.2454 164.146 31.4292 154.674 37.0525C153.786 37.5704 152.972 38.0884 152.084 38.6803C134.547 50.4449 131.735 72.2721 130.551 79.9672C129.811 80.6331 128.183 81.225 126.185 81.7429C125.741 81.8909 125.371 81.9649 124.927 82.0389C122.856 82.5569 120.488 83.0008 118.194 83.3707C117.602 83.4447 117.084 83.5187 116.566 83.5927C112.052 84.3326 108.278 84.7026 108.056 84.7026Z" fill="url(#paint2_linear)"/>
<path opacity="0.8" d="M116.492 84.2587C117.01 84.1847 117.528 84.1847 118.046 84.1107C118.046 83.8887 118.12 83.5927 118.12 83.3708C118.564 79.5232 119.156 73.8999 119.156 73.234C119.156 72.1981 121.154 72.6421 121.45 73.53C121.746 74.3439 122.116 75.5277 123.078 73.826C124.039 72.1242 124.484 72.1242 125.519 72.1242C126.333 72.1242 125.371 78.8573 124.927 82.1129C124.853 82.5569 124.78 82.8528 124.78 83.1488C125.223 83.0748 125.667 82.9268 126.111 82.8528C126.111 82.4829 126.185 82.1129 126.185 81.8169C127.517 61.9874 135.879 46.7453 141.577 38.2364C142.391 37.0525 143.131 35.9427 143.797 34.9808C147.94 29.2095 158.448 24.7701 163.48 22.8463L160.372 21.6625C151.936 24.5481 145.72 30.0974 141.207 35.7207C135.657 42.6758 132.697 49.779 131.365 52.3686C128.627 57.326 125.815 68.2027 125.076 69.6825C124.336 71.1623 124.114 70.7923 123.67 69.0905C123.226 67.3888 122.338 68.4246 120.118 70.7183C119.082 54.3664 125.075 43.7857 130.773 33.723C131.809 31.8732 133.141 30.0974 134.547 28.4696C138.839 23.4382 144.241 19.4427 147.274 17.445C146.46 17.149 145.646 16.9271 144.98 16.7051C143.279 18.1109 140.171 20.7746 135.435 25.288C134.029 26.6198 132.623 28.2476 131.365 29.9494C125.297 38.0144 120.784 49.409 118.934 55.8462C117.232 61.8394 116.714 76.9336 116.566 83.6667C116.492 83.8887 116.492 84.0367 116.492 84.2587Z" fill="url(#paint3_linear)"/>
<path opacity="0.8" d="M70.3921 36.5346C71.798 40.4561 75.0538 49.409 75.4238 50.2969C76.0158 51.4067 76.2378 55.1063 77.1258 53.5525C77.9397 52.0726 78.1617 51.3327 78.7537 52.5166C79.1236 53.2565 81.1955 56.734 82.8235 64.3551C83.8594 69.1645 84.5994 75.5277 84.6734 83.8887C85.1913 83.9627 85.7094 83.9627 86.2274 84.0366C86.0794 80.4111 85.5614 71.8282 84.5254 63.2452C83.5635 55.8462 82.1575 48.5211 80.1596 44.5256C77.9397 40.2341 76.5338 37.4965 75.6458 35.7947L74.5359 36.4606H70.3921V36.5346Z" fill="url(#paint4_linear)"/>
<path opacity="0.8" d="M56.3328 54.9583C59.7366 61.9134 63.2884 71.3103 63.2144 79.8932C63.2144 80.3371 63.5104 80.7811 63.9544 80.8551C65.5083 81.225 67.4323 81.669 69.6521 82.0389C67.3583 81.595 64.6203 80.7811 64.6203 79.5972C64.6203 78.1174 64.3244 69.0905 58.5527 55.6242C56.7028 51.2588 54.2609 46.4494 51.0791 41.27L50.487 44.6736C50.561 44.5996 53.3729 48.8171 56.3328 54.9583Z" fill="url(#paint5_linear)"/>
<path d="M12.1568 40.9741C13.1188 40.9001 14.0808 40.7522 14.9687 40.5302C22.2944 38.5324 19.2605 32.8351 19.2605 32.8351C19.2605 32.8351 25.5502 31.6513 31.7659 33.723C30.212 35.2028 29.842 37.5706 30.582 39.7903C30.582 39.8643 30.582 39.8643 30.582 39.8643C30.9519 40.9001 31.6179 41.936 32.5058 42.8239C34.2078 44.4517 38.7955 45.7835 42.8653 46.0795C42.9393 46.0795 42.9394 46.0795 43.0134 46.0795H43.0874C45.7512 46.2275 48.1931 46.0055 49.3771 45.0436C52.4109 42.6759 60.3286 39.4203 62.9185 39.3463C63.9544 39.3463 65.2863 39.5683 66.6183 40.1602C66.6923 40.1602 66.7662 40.2342 66.7662 40.2342C68.6161 40.9741 70.4661 42.232 71.576 43.7858C72.9079 45.7095 77.6438 46.6714 81.4176 46.5234C82.9715 46.4494 84.3034 46.2275 85.2654 45.7095C88.4472 44.0817 86.6713 39.3463 85.8574 37.0526C85.2654 35.2768 90.3711 32.6872 93.331 31.2813C94.1449 30.9114 94.7369 30.6154 95.0328 30.4674C96.4388 29.7275 99.2506 28.0257 99.4726 29.2096C99.6946 30.3934 100.139 32.0212 104.356 30.9854C108.574 29.8755 113.606 23.4383 113.976 21.2186C114.346 18.9989 110.572 19.5908 109.388 18.7769C108.204 17.889 120.784 13.3756 126.185 13.0796C131.513 12.7836 141.207 16.0392 145.202 22.7724C147.422 26.4719 151.196 27.7298 154.304 28.0997C156.82 28.3957 158.892 28.0257 159.336 27.9518C159.928 27.8038 159.928 27.3598 160.52 26.9899C160.964 26.6939 161.704 26.4719 163.184 26.25C166.735 25.806 171.545 30.1715 171.545 30.1715C164.442 34.241 173.691 43.6378 182.349 45.1916C184.125 45.4876 185.457 45.5616 186.493 45.3396C189.896 44.6737 189.526 41.714 189.452 40.9741C189.452 40.9001 189.452 40.8261 189.452 40.8261C189.674 41.0481 191.968 43.3418 196.186 40.3082C200.552 37.1266 195.668 30.1715 195.668 30.1715C195.668 30.1715 200.626 28.1737 198.924 22.1065C198.036 18.7769 195.446 16.8531 192.708 15.6693C190.488 14.7074 188.12 14.2634 186.344 14.0415C187.824 12.6357 188.046 10.9339 187.454 9.23207C186.344 5.90249 182.571 2.49893 179.907 1.01912C175.837 -1.20061 172.359 2.35093 170.953 3.68277C170.435 4.12671 169.029 4.42268 167.401 4.49667C164.22 4.71864 160.15 4.49667 159.78 4.42267C159.188 4.27469 158.744 3.46079 159.04 2.20295C159.336 0.871118 156.08 -0.0167718 151.862 0.723136C147.644 1.53703 140.911 6.86438 140.911 6.86438C140.911 6.86438 132.919 6.71641 129.071 6.19847C125.149 5.68054 113.532 11.0079 112.94 11.2298C112.348 11.5258 111.608 9.82401 108.13 9.67602C104.726 9.60203 98.5847 15.0034 98.1407 15.2993C98.1407 15.2993 94.8849 11.6738 91.999 10.3419C89.1131 8.93611 77.8657 11.0819 76.6078 11.3038C75.2759 11.5258 68.9861 11.5998 68.1722 10.4159C67.2842 9.23208 53.5209 -1.20061 46.4172 0.945122C39.3136 3.09085 43.1614 9.67602 43.1614 9.67602C43.1614 9.67602 36.8717 10.046 34.6518 9.30607C34.5778 9.30607 34.5778 9.30606 34.5038 9.23207C34.4298 9.23207 34.2818 9.1581 34.2078 9.08411C32.5799 8.12223 29.0281 4.05273 19.6305 6.05048C17.7806 6.42043 16.3747 7.23433 15.1907 8.19621C10.455 12.2657 10.6769 19.9607 10.6769 19.9607C10.6769 19.9607 3.57327 18.259 2.75931 26.4719C-3.75238 36.9046 4.97916 41.4181 12.1568 40.9741Z" fill="#D9F7FF"/>
<path d="M12.1568 40.9741C13.1188 40.9001 14.0808 40.7522 14.9687 40.5302C22.2944 38.5324 19.2605 32.8351 19.2605 32.8351C19.2605 32.8351 25.5502 31.6513 31.7659 33.723C30.212 35.2028 29.842 37.5706 30.582 39.7903C30.582 39.8643 30.582 39.8643 30.582 39.8643C30.9519 40.9001 31.6179 41.936 32.5058 42.8239C34.2078 44.4517 38.7955 45.7835 42.8653 46.0795C42.9393 46.0795 42.9394 46.0795 43.0134 46.0795H43.0874C45.7512 46.2275 48.1931 46.0055 49.3771 45.0436C52.4109 42.6759 60.3286 39.4203 62.9185 39.3463C63.9544 39.3463 65.2863 39.5683 66.6183 40.1602C66.6923 40.1602 66.7662 40.2342 66.7662 40.2342C68.6161 40.9741 70.4661 42.232 71.576 43.7858C72.9079 45.7095 77.6438 46.6714 81.4176 46.5234C82.9715 46.4494 84.3034 46.2275 85.2654 45.7095C88.4472 44.0817 86.6713 39.3463 85.8574 37.0526C85.2654 35.2768 90.3711 32.6872 93.331 31.2813C94.1449 30.9114 94.7369 30.6154 95.0328 30.4674C96.4388 29.7275 99.2506 28.0257 99.4726 29.2096C99.6946 30.3934 100.139 32.0212 104.356 30.9854C108.574 29.8755 113.606 23.4383 113.976 21.2186C114.346 18.9989 110.572 19.5908 109.388 18.7769C108.204 17.889 120.784 13.3756 126.185 13.0796C131.513 12.7836 141.207 16.0392 145.202 22.7724C147.422 26.4719 151.196 27.7298 154.304 28.0997C156.82 28.3957 158.892 28.0257 159.336 27.9518C159.928 27.8038 159.928 27.3598 160.52 26.9899C160.964 26.6939 161.704 26.4719 163.184 26.25C166.735 25.806 171.545 30.1715 171.545 30.1715C164.442 34.241 173.691 43.6378 182.349 45.1916C184.125 45.4876 185.457 45.5616 186.493 45.3396C189.896 44.6737 189.526 41.714 189.452 40.9741C189.452 40.9001 189.452 40.8261 189.452 40.8261C189.674 41.0481 191.968 43.3418 196.186 40.3082C200.552 37.1266 195.668 30.1715 195.668 30.1715C195.668 30.1715 200.626 28.1737 198.924 22.1065C198.036 18.7769 195.446 16.8531 192.708 15.6693C190.488 14.7074 188.12 14.2634 186.344 14.0415C187.824 12.6357 188.046 10.9339 187.454 9.23207C186.344 5.90249 182.571 2.49893 179.907 1.01912C175.837 -1.20061 172.359 2.35093 170.953 3.68277C170.435 4.12671 169.029 4.42268 167.401 4.49667C164.22 4.71864 160.15 4.49667 159.78 4.42267C159.188 4.27469 158.744 3.46079 159.04 2.20295C159.336 0.871118 156.08 -0.0167718 151.862 0.723136C147.644 1.53703 140.911 6.86438 140.911 6.86438C140.911 6.86438 132.919 6.71641 129.071 6.19847C125.149 5.68054 113.532 11.0079 112.94 11.2298C112.348 11.5258 111.608 9.82401 108.13 9.67602C104.726 9.60203 98.5847 15.0034 98.1407 15.2993C98.1407 15.2993 94.8849 11.6738 91.999 10.3419C89.1131 8.93611 77.8657 11.0819 76.6078 11.3038C75.2759 11.5258 68.9861 11.5998 68.1722 10.4159C67.2842 9.23208 53.5209 -1.20061 46.4172 0.945122C39.3136 3.09085 43.1614 9.67602 43.1614 9.67602C43.1614 9.67602 36.8717 10.046 34.6518 9.30607C34.5778 9.30607 34.5778 9.30606 34.5038 9.23207C34.4298 9.23207 34.2818 9.1581 34.2078 9.08411C32.5799 8.12223 29.0281 4.05273 19.6305 6.05048C17.7806 6.42043 16.3747 7.23433 15.1907 8.19621C10.455 12.2657 10.6769 19.9607 10.6769 19.9607C10.6769 19.9607 3.57327 18.259 2.75931 26.4719C-3.75238 36.9046 4.97916 41.4181 12.1568 40.9741Z" fill="url(#paint6_radial)"/>
<path opacity="0.1" d="M12.1568 40.9741C13.1188 40.9001 14.0808 40.7522 14.9687 40.5302C22.2944 38.5324 19.2605 32.8351 19.2605 32.8351C19.2605 32.8351 25.5502 31.6513 31.7659 33.723C30.212 35.2028 29.842 37.5706 30.582 39.7903C30.582 39.8643 30.582 39.8643 30.582 39.8643C30.9519 40.9001 31.6179 41.936 32.5058 42.8239C34.2078 44.4517 38.7955 45.7835 42.8653 46.0795C42.9393 46.0795 42.9394 46.0795 43.0134 46.0795H43.0874C45.7512 46.2275 48.1931 46.0055 49.3771 45.0436C52.4109 42.6759 60.3286 39.4203 62.9185 39.3463C63.9544 39.3463 65.2863 39.5683 66.6183 40.1602C66.6923 40.1602 66.7662 40.2342 66.7662 40.2342C68.6161 40.9741 70.4661 42.232 71.576 43.7858C72.9079 45.7095 77.6438 46.6714 81.4176 46.5234C82.9715 46.4494 84.3034 46.2275 85.2654 45.7095C88.4472 44.0817 86.6713 39.3463 85.8574 37.0526C85.2654 35.2768 90.3711 32.6872 93.331 31.2813C94.1449 30.9114 94.7369 30.6154 95.0328 30.4674C96.4388 29.7275 99.2506 28.0257 99.4726 29.2096C99.6946 30.3934 100.139 32.0212 104.356 30.9854C108.574 29.8755 113.606 23.4383 113.976 21.2186C114.346 18.9989 110.572 19.5908 109.388 18.7769C108.204 17.889 120.784 13.3756 126.185 13.0796C131.513 12.7836 141.207 16.0392 145.202 22.7724C147.422 26.4719 151.196 27.7298 154.304 28.0997C156.82 28.3957 158.892 28.0257 159.336 27.9518C159.928 27.8038 159.928 27.3598 160.52 26.9899C160.964 26.6939 161.704 26.4719 163.184 26.25C166.735 25.806 171.545 30.1715 171.545 30.1715C164.442 34.241 173.691 43.6378 182.349 45.1916C184.125 45.4876 185.457 45.5616 186.493 45.3396C189.896 44.6737 189.526 41.714 189.452 40.9741C189.452 40.9001 189.452 40.8261 189.452 40.8261C189.674 41.0481 191.968 43.3418 196.186 40.3082C200.552 37.1266 195.668 30.1715 195.668 30.1715C195.668 30.1715 200.626 28.1737 198.924 22.1065C198.036 18.7769 195.446 16.8531 192.708 15.6693C190.488 14.7074 188.12 14.2634 186.344 14.0415C187.824 12.6357 188.046 10.9339 187.454 9.23207C186.344 5.90249 182.571 2.49893 179.907 1.01912C175.837 -1.20061 172.359 2.35093 170.953 3.68277C170.435 4.12671 169.029 4.42268 167.401 4.49667C164.22 4.71864 160.15 4.49667 159.78 4.42267C159.188 4.27469 158.744 3.46079 159.04 2.20295C159.336 0.871118 156.08 -0.0167718 151.862 0.723136C147.644 1.53703 140.911 6.86438 140.911 6.86438C140.911 6.86438 132.919 6.71641 129.071 6.19847C125.149 5.68054 113.532 11.0079 112.94 11.2298C112.348 11.5258 111.608 9.82401 108.13 9.67602C104.726 9.60203 98.5847 15.0034 98.1407 15.2993C98.1407 15.2993 94.8849 11.6738 91.999 10.3419C89.1131 8.93611 77.8657 11.0819 76.6078 11.3038C75.2759 11.5258 68.9861 11.5998 68.1722 10.4159C67.2842 9.23208 53.5209 -1.20061 46.4172 0.945122C39.3136 3.09085 43.1614 9.67602 43.1614 9.67602C43.1614 9.67602 36.8717 10.046 34.6518 9.30607C34.5778 9.30607 34.5778 9.30606 34.5038 9.23207C34.4298 9.23207 34.2818 9.1581 34.2078 9.08411C32.5799 8.12223 29.0281 4.05273 19.6305 6.05048C17.7806 6.42043 16.3747 7.23433 15.1907 8.19621C10.455 12.2657 10.6769 19.9607 10.6769 19.9607C10.6769 19.9607 3.57327 18.259 2.75931 26.4719C-3.75238 36.9046 4.97916 41.4181 12.1568 40.9741Z" fill="url(#paint7_linear)"/>
<path opacity="0.2" d="M30.656 3.75674C31.0999 5.08857 32.1359 6.93836 34.1338 9.15808C34.2818 9.30606 34.3558 9.45402 34.5038 9.60201C48.7111 12.0437 59.5146 24.6221 61.1426 26.6199L61.2165 26.6939C61.2905 26.7679 61.2905 26.7679 61.2905 26.8419V26.9159C61.4385 27.2858 64.0284 33.2051 64.8424 33.2051C64.9164 33.2051 64.9903 33.2051 65.0643 33.2051C65.2123 33.2051 65.4343 33.1311 65.7303 33.1311C67.5062 32.8351 70.91 32.1692 70.91 32.1692C70.91 32.1692 70.91 32.1692 70.984 32.0952H71.0581C71.7981 31.7253 74.8319 30.1714 76.9778 29.2836C79.4197 28.2477 82.1576 26.9898 82.1576 26.9898C82.3796 26.8419 86.0054 24.5482 88.4473 23.0683C88.6692 22.9204 88.9652 22.7724 89.1872 22.6244C89.2612 22.5504 89.4091 22.5504 89.4831 22.4764C91.925 20.9966 97.6968 15.4473 97.6968 15.4473C97.6968 15.4473 94.4409 11.8217 91.5551 10.4899C88.6692 9.08408 77.4217 11.2298 76.1638 11.4518C74.8318 11.6737 68.5422 11.7478 67.7283 10.5639C66.8403 9.38005 53.0769 -1.05266 45.9733 1.09307C38.8696 3.2388 42.7174 9.82399 42.7174 9.82399C42.7174 9.82399 36.4277 10.1939 34.2078 9.45404L30.656 3.75674Z" fill="#0071BC"/>
<path opacity="0.2" d="M14.8948 8.19626C15.1168 8.19626 15.3387 8.12227 15.4867 8.12227C25.5502 6.56846 30.804 8.56623 36.7977 12.4877C36.2057 11.0819 34.5778 9.67608 34.5778 9.67608L34.3558 9.30612L30.73 3.83081C31.174 5.16264 32.2099 7.0124 34.2078 9.23213C34.1338 9.23213 33.9858 9.15815 33.9118 9.08416C32.2839 8.12228 28.7321 4.05278 19.3346 6.05053C17.4846 6.42049 16.0047 7.16039 14.8948 8.19626Z" fill="#0071BC"/>
<path opacity="0.2" d="M25.5503 16.7791C25.5503 16.7791 15.5607 19.2207 12.8228 21.4405C20.0005 21.4405 19.7046 22.5503 18.5206 22.6983C17.3367 22.8463 14.7468 25.066 17.4107 24.4741C20.0745 23.9562 32.7279 25.7319 35.5398 26.7678C38.2777 27.8037 25.5503 16.7791 25.5503 16.7791Z" fill="#0071BC"/>
<path opacity="0.2" d="M12.1569 40.9741C13.1188 40.9001 14.0808 40.7521 14.8948 40.5302C22.2204 38.5324 19.1865 32.8351 19.1865 32.8351C19.1865 32.8351 25.4762 31.6513 31.6919 33.723C30.138 35.2028 29.768 37.5705 30.508 39.7903C30.434 39.0503 30.1381 35.0548 35.1698 32.1692C28.9541 32.1692 17.4846 32.1692 17.4846 32.1692C17.4846 32.1692 20.1485 38.0145 12.1569 40.9741Z" fill="#0071BC"/>
<path opacity="0.2" d="M58.6267 33.8711C58.6267 33.8711 46.1213 36.8308 47.2312 35.7949C48.3412 34.833 48.1932 32.6133 44.9373 30.9855C41.6815 29.3577 58.0347 29.8016 58.0347 29.8016L58.6267 33.8711Z" fill="#0071BC"/>
<path opacity="0.2" d="M43.0874 46.0794C45.7513 46.2274 48.1932 46.0054 49.3771 45.0435C52.411 42.6758 60.3286 39.4202 62.9185 39.3462C63.9544 39.3462 65.2864 39.5682 66.6183 40.1601C65.8783 39.7902 61.2905 37.8664 57.5167 39.7902C53.5209 41.7139 44.8633 46.0794 43.0874 46.0794Z" fill="#0071BC"/>
<path opacity="0.2" d="M81.3435 46.4494C82.8975 46.3754 84.2294 46.1534 85.1914 45.6355C88.3732 44.0077 86.5973 39.2723 85.7833 36.9785C85.1913 35.2028 90.2972 32.6131 93.257 31.2073C92.7391 31.3553 83.9334 34.1669 84.5994 36.9785C85.1914 39.9382 86.6713 44.7476 81.3435 46.4494Z" fill="#0071BC"/>
<path opacity="0.2" d="M154.156 27.8776C156.672 28.1736 158.744 27.8036 159.188 27.7297C159.78 27.5817 159.78 27.1377 160.372 26.7678C161.334 24.77 161.26 19.8867 157.782 17.9629C161.704 26.9158 154.674 27.8776 154.156 27.8776Z" fill="#0071BC"/>
<path opacity="0.2" d="M164.59 15.8171C164.59 15.8171 175.615 26.1758 176.207 30.6893C176.207 25.3619 172.285 20.0346 174.801 20.5525C177.317 21.0705 185.605 29.8754 186.271 34.8328C186.863 29.5794 181.091 20.9965 181.091 20.9965L175.467 17.9629L164.59 15.8171Z" fill="#0071BC"/>
<path opacity="0.2" d="M186.271 45.1916C189.748 44.5257 189.378 41.5661 189.23 40.8262C188.342 39.4943 187.01 37.7186 185.605 36.3867C189.304 41.1221 186.271 45.1916 186.271 45.1916Z" fill="#0071BC"/>
<path opacity="0.2" d="M140.615 6.7903L146.386 8.12213L160.964 9.60194C160.964 9.60194 161.186 9.30598 161.704 8.93603C162.74 7.97415 164.738 6.19837 167.179 4.42259C163.998 4.64456 159.928 4.42261 159.558 4.34861C158.966 4.20063 158.522 3.38673 158.818 2.12889C159.114 0.797057 155.858 -0.0908318 151.64 0.649076C147.422 1.38898 140.615 6.7903 140.615 6.7903Z" fill="#0071BC"/>
<path opacity="0.2" d="M178.945 14.2633C181.313 13.9674 192.486 15.5212 192.486 15.5212C190.266 14.5593 187.898 14.1154 186.123 13.8934C187.602 12.4876 187.824 10.7858 187.233 9.08398C186.715 11.5997 184.051 13.0795 178.945 14.2633Z" fill="#0071BC"/>
<path d="M179.463 16.6312C179.463 16.6312 165.403 9.45412 163.48 9.15816C161.482 8.86219 149.864 7.75231 146.386 8.12227C150.16 8.56621 167.845 16.3353 170.583 20.1088C173.395 23.8823 173.321 21.1446 173.987 21.1446C174.653 21.1446 182.201 25.7321 182.497 24.9182C182.719 24.1043 185.087 24.5482 184.273 22.6245C183.459 20.7007 183.607 20.0348 181.683 18.777C179.759 17.4451 179.463 16.6312 179.463 16.6312Z" fill="#81D0D3"/>
<path opacity="0.1" d="M179.463 16.6312C179.463 16.6312 165.403 9.45412 163.48 9.15816C161.482 8.86219 149.864 7.75231 146.386 8.12227C150.16 8.56621 167.845 16.3353 170.583 20.1088C173.395 23.8823 173.321 21.1446 173.987 21.1446C174.653 21.1446 182.201 25.7321 182.497 24.9182C182.719 24.1043 185.087 24.5482 184.273 22.6245C183.459 20.7007 183.607 20.0348 181.683 18.777C179.759 17.4451 179.463 16.6312 179.463 16.6312Z" fill="url(#paint8_linear)"/>
<path opacity="0.2" d="M179.463 16.6312C179.463 16.6312 165.403 9.45412 163.48 9.15816C161.482 8.86219 149.864 7.75231 146.386 8.12227C150.16 8.56621 167.845 16.3353 170.583 20.1088C173.395 23.8823 173.321 21.1446 173.987 21.1446C174.653 21.1446 182.201 25.7321 182.497 24.9182C182.719 24.1043 185.087 24.5482 184.273 22.6245C183.459 20.7007 183.607 20.0348 181.683 18.777C179.759 17.4451 179.463 16.6312 179.463 16.6312Z" fill="#0071BC"/>
<path d="M62.7704 13.0056C67.1362 14.3374 75.3499 20.8486 79.6417 24.5481C80.9736 25.658 81.9355 26.5459 82.3055 26.8419C82.4535 26.6939 84.4514 25.436 86.3753 24.2522C88.0772 23.2163 89.6312 22.2544 89.6312 22.2544C74.7579 12.1177 66.9882 13.0056 62.7704 13.0056Z" fill="#81D0D3"/>
<path opacity="0.1" d="M62.7704 13.0056C67.1362 14.3374 75.3499 20.8486 79.6417 24.5481C80.9736 25.658 81.9355 26.5459 82.3055 26.8419C82.4535 26.6939 84.4514 25.436 86.3753 24.2522C88.0772 23.2163 89.6312 22.2544 89.6312 22.2544C74.7579 12.1177 66.9882 13.0056 62.7704 13.0056Z" fill="url(#paint9_linear)"/>
<path d="M49.895 14.8554C51.2269 15.6693 57.6647 18.185 62.0304 21.4406C62.6964 21.9585 63.2884 22.4764 63.8064 22.9944C67.8762 26.9899 71.0581 32.1692 71.0581 32.1692C71.0581 32.1692 76.2378 29.4316 77.1257 29.2096C77.1257 29.2096 76.3858 26.8419 74.3879 24.1042C72.982 22.1065 70.91 19.8868 68.0241 18.333C61.2905 14.6334 58.0346 12.9316 58.0346 13.8195C58.0346 14.7074 56.1108 15.5953 54.5568 15.2993C53.1509 15.0034 48.3411 13.9675 49.895 14.8554Z" fill="#81D0D3"/>
<path opacity="0.1" d="M49.895 14.8554C51.2269 15.6693 57.6647 18.185 62.0304 21.4406C62.6964 21.9585 63.2884 22.4764 63.8064 22.9944C67.8762 26.9899 71.0581 32.1692 71.0581 32.1692C71.0581 32.1692 76.2378 29.4316 77.1257 29.2096C77.1257 29.2096 76.3858 26.8419 74.3879 24.1042C72.982 22.1065 70.91 19.8868 68.0241 18.333C61.2905 14.6334 58.0346 12.9316 58.0346 13.8195C58.0346 14.7074 56.1108 15.5953 54.5568 15.2993C53.1509 15.0034 48.3411 13.9675 49.895 14.8554Z" fill="url(#paint10_linear)"/>
<path d="M15.4867 21.0706C15.4867 21.0706 19.1126 23.4383 22.6644 23.9562C25.3283 24.3262 30.656 25.3621 34.5038 26.4719C35.7618 26.8419 36.8717 27.2118 37.6856 27.5078C40.9415 28.8396 49.6731 33.871 53.4469 34.019C57.2947 34.1669 65.8043 33.0571 65.8043 33.0571C65.8043 33.0571 60.1066 23.5123 52.559 18.9988C51.227 18.1849 49.821 17.519 48.4151 17.1491C38.7956 14.4114 31.692 14.7814 27.4002 15.4473C23.1084 16.1132 15.4867 21.0706 15.4867 21.0706Z" fill="#81D0D3"/>
<path opacity="0.1" d="M15.4867 21.0706C15.4867 21.0706 19.1126 23.4383 22.6644 23.9562C25.3283 24.3262 30.656 25.3621 34.5038 26.4719C35.7618 26.8419 36.8717 27.2118 37.6856 27.5078C40.9415 28.8396 49.6731 33.871 53.4469 34.019C57.2947 34.1669 65.8043 33.0571 65.8043 33.0571C65.8043 33.0571 60.1066 23.5123 52.559 18.9988C51.227 18.1849 49.821 17.519 48.4151 17.1491C38.7956 14.4114 31.692 14.7814 27.4002 15.4473C23.1084 16.1132 15.4867 21.0706 15.4867 21.0706Z" fill="url(#paint11_linear)"/>
<path opacity="0.2" d="M79.6417 24.5481C80.9736 25.658 81.9355 26.5459 82.3055 26.8418C82.4535 26.6939 84.4514 25.436 86.3753 24.2522C84.9694 23.4383 82.6755 22.2544 82.3795 22.8463C82.0095 23.3643 80.6776 24.1042 79.6417 24.5481Z" fill="#0071BC"/>
<path opacity="0.2" d="M63.8064 22.9942C67.8762 26.9897 71.0581 32.1691 71.0581 32.1691C71.0581 32.1691 76.2378 29.4314 77.1258 29.2095C77.1258 29.2095 76.3858 26.8418 74.3879 24.1041C74.2399 24.622 74.0179 25.4359 73.2039 24.918C72.242 24.2521 68.3202 20.9225 68.2462 22.0324C68.1722 23.0682 67.6542 23.8821 65.5823 22.8463C64.9164 22.5503 63.5104 22.0324 61.9565 21.4404C62.6225 21.9584 63.2884 22.4763 63.8064 22.9942Z" fill="#0071BC"/>
<path opacity="0.2" d="M34.5038 26.4719C35.7618 26.8418 36.8717 27.2118 37.6856 27.5077C40.9415 28.8396 49.6731 33.8709 53.4469 34.0189C57.2947 34.1669 65.8043 33.057 65.8043 33.057C65.8043 33.057 60.1066 23.5122 52.559 18.9988C51.819 19.0728 51.375 19.2948 52.041 20.2566C52.9289 21.6625 55.7408 24.992 55.2228 25.066C54.7049 25.214 53.8169 25.066 53.7429 26.2499C53.6689 27.4337 54.4828 28.6916 51.745 27.8777C49.0071 27.1378 46.0473 25.214 45.9733 25.9539C45.8993 26.7678 47.0092 27.5817 34.5038 26.4719Z" fill="#0071BC"/>
<path opacity="0.8" d="M113.606 12.5615C113.606 12.5615 109.684 9.60192 107.834 10.0459C105.984 10.4898 102.95 11.1557 99.1027 14.9293C95.2549 18.7028 88.8912 23.7342 85.9314 25.066C90.8891 23.3642 103.32 12.7835 106.798 13.0795C110.276 13.3015 113.902 14.2633 113.606 12.5615Z" fill="url(#paint12_linear)"/>
<path opacity="0.8" d="M112.718 21.4404C112.718 21.4404 102.211 28.7655 100.953 26.0279C99.6947 23.2902 98.2148 23.8081 98.5108 25.362C98.8068 26.9158 99.9167 31.2812 102.803 30.0234C106.576 28.3956 112.718 25.5839 112.718 21.4404Z" fill="url(#paint13_linear)"/>
<path opacity="0.8" d="M156.376 21.4404C156.376 21.4404 148.014 21.4404 147.644 15.5951C147.274 9.74987 137.655 8.0481 137.655 8.0481C137.655 8.0481 144.611 11.6736 144.906 15.5951C145.202 19.5167 146.312 23.3642 149.494 24.548C152.602 25.7319 158.596 27.4337 156.376 21.4404Z" fill="url(#paint14_linear)"/>
<path opacity="0.8" d="M172.063 26.9158C172.063 26.9158 167.549 16.927 156.154 12.3396C162.444 16.5571 166.883 24.992 168.289 25.7319C169.769 26.4718 172.063 26.9158 172.063 26.9158Z" fill="url(#paint15_linear)"/>
<path opacity="0.8" d="M172.877 29.9495C172.877 29.9495 174.209 39.4943 184.495 40.7521C190.562 41.492 185.013 44.3037 181.165 43.3418C176.281 42.1579 169.177 34.1669 172.877 29.9495Z" fill="url(#paint16_linear)"/>
<path opacity="0.8" d="M197.74 22.4023C197.74 22.4023 199.886 29.2095 192.19 30.9853C184.421 32.7611 190.044 28.6916 191.598 28.3216C193.226 27.9517 197 26.0279 197.74 22.4023Z" fill="url(#paint17_linear)"/>
<path opacity="0.8" d="M184.421 5.75451C184.421 5.75451 178.871 -1.94053 169.991 5.0146C161.112 11.9697 173.247 4.05272 177.095 5.0146C181.017 5.97648 184.421 5.75451 184.421 5.75451Z" fill="url(#paint18_linear)"/>
<path opacity="0.8" d="M80.4556 41.27C80.4556 41.27 70.9841 40.4562 69.7261 36.5346C68.4682 32.6131 53.8169 36.5346 53.8169 36.5346C53.8169 36.5346 65.8043 37.2745 68.9122 39.3463C72.02 41.418 80.6776 48.2252 80.4556 41.27Z" fill="url(#paint19_linear)"/>
<path opacity="0.8" d="M84.4515 30.3194C84.4515 30.3194 80.6776 31.8732 80.4556 34.019C80.2336 36.1647 74.388 38.0885 75.4979 35.7948C76.6079 33.5011 80.8996 29.4315 84.4515 30.3194Z" fill="url(#paint20_linear)"/>
<path opacity="0.8" d="M45.0852 34.0931C45.0852 34.0931 41.0155 30.3195 37.3897 32.1693C33.6899 34.0191 31.692 40.7522 37.3897 43.4159C43.0874 46.0796 36.7237 41.3442 37.0937 38.3845C37.5377 35.1289 39.3875 31.7993 45.0852 34.0931Z" fill="url(#paint21_linear)"/>
<path opacity="0.8" d="M32.9499 26.8419C32.9499 26.8419 19.2605 22.7724 9.86298 27.2859C12.8968 27.8778 11.121 26.9159 17.4107 26.8419C23.7004 26.7679 32.9499 26.8419 32.9499 26.8419Z" fill="url(#paint22_linear)"/>
<path opacity="0.8" d="M24.3662 8.12232C24.3662 8.12232 15.0427 7.01248 12.8228 11.7479C10.6029 16.4833 10.6029 20.5528 10.6029 20.5528C9.49297 18.555 17.3366 8.04833 21.3324 9.97209C24.1443 11.3039 25.7722 8.19631 24.3662 8.12232Z" fill="url(#paint23_linear)"/>
<path opacity="0.8" d="M6.3852 27.5078C6.3852 27.5078 2.24142 33.427 4.83129 36.0167C7.49517 38.6064 1.35344 37.8665 1.57543 34.0929C1.79742 30.2454 3.12936 26.9898 6.3852 27.5078Z" fill="url(#paint24_linear)"/>
<path opacity="0.8" d="M65.4343 9.23212C65.4343 9.23212 50.5611 -1.34855 44.4934 2.35099C38.4256 6.05053 44.6413 11.0819 45.0853 9.60208C45.6032 8.12226 45.6033 3.0169 48.6371 3.75681C51.671 4.57071 61.7345 6.79043 65.4343 9.23212Z" fill="url(#paint25_linear)"/>
<path opacity="0.8" d="M89.6312 11.1558C89.6312 11.1558 83.2675 10.7858 78.3097 12.4136C73.3519 14.1154 69.1341 12.4136 69.1341 12.4136C69.1341 12.4136 75.7939 15.8912 79.6417 14.8553C83.4895 13.9674 86.2274 11.2297 89.6312 11.1558Z" fill="url(#paint26_linear)"/>
<defs>
<radialGradient id="paint0_radial" cx="0" cy="0" r="1" gradientUnits="userSpaceOnUse" gradientTransform="translate(113.787 42.5702) rotate(180) scale(80.3621 80.356)">
<stop stop-color="white"/>
<stop offset="0.2169" stop-color="#FCFCFD"/>
<stop offset="0.3559" stop-color="#F4F4F8"/>
<stop offset="0.4731" stop-color="#E6E5EE"/>
<stop offset="0.5781" stop-color="#D1D0E0"/>
<stop offset="0.6751" stop-color="#B7B5CE"/>
<stop offset="0.7661" stop-color="#9793B8"/>
<stop offset="0.8525" stop-color="#706C9E"/>
<stop offset="0.9331" stop-color="#453F81"/>
<stop offset="1" stop-color="#1B1464"/>
</radialGradient>
<linearGradient id="paint1_linear" x1="114.15" y1="84.7686" x2="114.15" y2="23.6107" gradientUnits="userSpaceOnUse">
<stop stop-color="white"/>
<stop offset="0.2169" stop-color="#FCFCFD"/>
<stop offset="0.3559" stop-color="#F4F4F8"/>
<stop offset="0.4731" stop-color="#E6E5EE"/>
<stop offset="0.5781" stop-color="#D1D0E0"/>
<stop offset="0.6751" stop-color="#B7B5CE"/>
<stop offset="0.7661" stop-color="#9793B8"/>
<stop offset="0.8525" stop-color="#706C9E"/>
<stop offset="0.9331" stop-color="#453F81"/>
<stop offset="1" stop-color="#1B1464"/>
</linearGradient>
<linearGradient id="paint2_linear" x1="142.58" y1="84.8237" x2="142.58" y2="31.7978" gradientUnits="userSpaceOnUse">
<stop/>
<stop offset="1" stop-color="white"/>
</linearGradient>
<linearGradient id="paint3_linear" x1="139.983" y1="84.3966" x2="139.983" y2="18.4205" gradientUnits="userSpaceOnUse">
<stop/>
<stop offset="1" stop-color="white"/>
</linearGradient>
<linearGradient id="paint4_linear" x1="78.3066" y1="84.0947" x2="78.3066" y2="37.0876" gradientUnits="userSpaceOnUse">
<stop/>
<stop offset="1" stop-color="white"/>
</linearGradient>
<linearGradient id="paint5_linear" x1="60.1403" y1="82.0836" x2="60.1403" y2="42.3205" gradientUnits="userSpaceOnUse">
<stop/>
<stop offset="1" stop-color="white"/>
</linearGradient>
<radialGradient id="paint6_radial" cx="0" cy="0" r="1" gradientUnits="userSpaceOnUse" gradientTransform="translate(101.465 1.10176) rotate(180) scale(105.224 105.215)">
<stop stop-color="#1B1464"/>
<stop offset="0.0669379" stop-color="#453F81"/>
<stop offset="0.1475" stop-color="#706C9E"/>
<stop offset="0.2339" stop-color="#9793B8"/>
<stop offset="0.3249" stop-color="#B7B5CE"/>
<stop offset="0.4219" stop-color="#D1D0E0"/>
<stop offset="0.5269" stop-color="#E6E5EE"/>
<stop offset="0.6441" stop-color="#F4F4F8"/>
<stop offset="0.7831" stop-color="#FCFCFD"/>
<stop offset="1" stop-color="white"/>
</radialGradient>
<linearGradient id="paint7_linear" x1="99.6801" y1="46.4812" x2="99.6801" y2="0.167999" gradientUnits="userSpaceOnUse">
<stop stop-color="white"/>
<stop offset="0.2169" stop-color="#FCFCFD"/>
<stop offset="0.3559" stop-color="#F4F4F8"/>
<stop offset="0.4731" stop-color="#E6E5EE"/>
<stop offset="0.5781" stop-color="#D1D0E0"/>
<stop offset="0.6751" stop-color="#B7B5CE"/>
<stop offset="0.7661" stop-color="#9793B8"/>
<stop offset="0.8525" stop-color="#706C9E"/>
<stop offset="0.9331" stop-color="#453F81"/>
<stop offset="1" stop-color="#1B1464"/>
</linearGradient>
<linearGradient id="paint8_linear" x1="165.404" y1="25.0012" x2="165.404" y2="11.1899" gradientUnits="userSpaceOnUse">
<stop stop-color="white"/>
<stop offset="0.2169" stop-color="#FCFCFD"/>
<stop offset="0.3559" stop-color="#F4F4F8"/>
<stop offset="0.4731" stop-color="#E6E5EE"/>
<stop offset="0.5781" stop-color="#D1D0E0"/>
<stop offset="0.6751" stop-color="#B7B5CE"/>
<stop offset="0.7661" stop-color="#9793B8"/>
<stop offset="0.8525" stop-color="#706C9E"/>
<stop offset="0.9331" stop-color="#453F81"/>
<stop offset="1" stop-color="#1B1464"/>
</linearGradient>
<linearGradient id="paint9_linear" x1="76.1755" y1="26.8567" x2="76.1755" y2="15.5685" gradientUnits="userSpaceOnUse">
<stop stop-color="white"/>
<stop offset="0.2169" stop-color="#FCFCFD"/>
<stop offset="0.3559" stop-color="#F4F4F8"/>
<stop offset="0.4731" stop-color="#E6E5EE"/>
<stop offset="0.5781" stop-color="#D1D0E0"/>
<stop offset="0.6751" stop-color="#B7B5CE"/>
<stop offset="0.7661" stop-color="#9793B8"/>
<stop offset="0.8525" stop-color="#706C9E"/>
<stop offset="0.9331" stop-color="#453F81"/>
<stop offset="1" stop-color="#1B1464"/>
</linearGradient>
<linearGradient id="paint10_linear" x1="63.3411" y1="32.1027" x2="63.3411" y2="17.0438" gradientUnits="userSpaceOnUse">
<stop stop-color="white"/>
<stop offset="0.2169" stop-color="#FCFCFD"/>
<stop offset="0.3559" stop-color="#F4F4F8"/>
<stop offset="0.4731" stop-color="#E6E5EE"/>
<stop offset="0.5781" stop-color="#D1D0E0"/>
<stop offset="0.6751" stop-color="#B7B5CE"/>
<stop offset="0.7661" stop-color="#9793B8"/>
<stop offset="0.8525" stop-color="#706C9E"/>
<stop offset="0.9331" stop-color="#453F81"/>
<stop offset="1" stop-color="#1B1464"/>
</linearGradient>
<linearGradient id="paint11_linear" x1="40.683" y1="34.062" x2="40.683" y2="18.4857" gradientUnits="userSpaceOnUse">
<stop stop-color="white"/>
<stop offset="0.2169" stop-color="#FCFCFD"/>
<stop offset="0.3559" stop-color="#F4F4F8"/>
<stop offset="0.4731" stop-color="#E6E5EE"/>
<stop offset="0.5781" stop-color="#D1D0E0"/>
<stop offset="0.6751" stop-color="#B7B5CE"/>
<stop offset="0.7661" stop-color="#9793B8"/>
<stop offset="0.8525" stop-color="#706C9E"/>
<stop offset="0.9331" stop-color="#453F81"/>
<stop offset="1" stop-color="#1B1464"/>
</linearGradient>
<linearGradient id="paint12_linear" x1="104.584" y1="23.0916" x2="95.4485" y2="14.9024" gradientUnits="userSpaceOnUse">
<stop/>
<stop offset="1" stop-color="white"/>
</linearGradient>
<linearGradient id="paint13_linear" x1="108.816" y1="27.5911" x2="101.758" y2="21.2637" gradientUnits="userSpaceOnUse">
<stop/>
<stop offset="1" stop-color="white"/>
</linearGradient>
<linearGradient id="paint14_linear" x1="155.857" y1="25.7382" x2="137.457" y2="9.2439" gradientUnits="userSpaceOnUse">
<stop/>
<stop offset="1" stop-color="white"/>
</linearGradient>
<linearGradient id="paint15_linear" x1="172.199" y1="26.7733" x2="156.543" y2="12.7389" gradientUnits="userSpaceOnUse">
<stop/>
<stop offset="1" stop-color="white"/>
</linearGradient>
<linearGradient id="paint16_linear" x1="185.229" y1="44.2753" x2="171.619" y2="32.0752" gradientUnits="userSpaceOnUse">
<stop/>
<stop offset="1" stop-color="white"/>
</linearGradient>
<linearGradient id="paint17_linear" x1="195.876" y1="29.3374" x2="192.318" y2="26.1473" gradientUnits="userSpaceOnUse">
<stop/>
<stop offset="1" stop-color="white"/>
</linearGradient>
<linearGradient id="paint18_linear" x1="180.053" y1="10.6463" x2="171.471" y2="2.95271" gradientUnits="userSpaceOnUse">
<stop/>
<stop offset="1" stop-color="white"/>
</linearGradient>
<linearGradient id="paint19_linear" x1="76.6287" y1="47.3749" x2="59.038" y2="31.6057" gradientUnits="userSpaceOnUse">
<stop/>
<stop offset="1" stop-color="white"/>
</linearGradient>
<linearGradient id="paint20_linear" x1="80.9232" y1="34.3246" x2="78.5085" y2="32.16" gradientUnits="userSpaceOnUse">
<stop/>
<stop offset="1" stop-color="white"/>
</linearGradient>
<linearGradient id="paint21_linear" x1="42.9852" y1="40.5026" x2="35.6125" y2="33.8934" gradientUnits="userSpaceOnUse">
<stop/>
<stop offset="1" stop-color="white"/>
</linearGradient>
<linearGradient id="paint22_linear" x1="27.6936" y1="32.7336" x2="15.4313" y2="21.7412" gradientUnits="userSpaceOnUse">
<stop/>
<stop offset="1" stop-color="white"/>
</linearGradient>
<linearGradient id="paint23_linear" x1="19.0361" y1="15.6152" x2="13.6849" y2="10.8182" gradientUnits="userSpaceOnUse">
<stop/>
<stop offset="1" stop-color="white"/>
</linearGradient>
<linearGradient id="paint24_linear" x1="7.62368" y1="34.857" x2="2.22534" y2="30.0176" gradientUnits="userSpaceOnUse">
<stop/>
<stop offset="1" stop-color="white"/>
</linearGradient>
<linearGradient id="paint25_linear" x1="60.5323" y1="14.7154" x2="45.6416" y2="1.3666" gradientUnits="userSpaceOnUse">
<stop/>
<stop offset="1" stop-color="white"/>
</linearGradient>
<linearGradient id="paint26_linear" x1="84.7493" y1="16.6329" x2="74.2956" y2="7.26176" gradientUnits="userSpaceOnUse">
<stop/>
<stop offset="1" stop-color="white"/>
</linearGradient>
</defs>
</svg>
