<svg width="209" height="88" viewBox="0 0 209 88" fill="none" xmlns="http://www.w3.org/2000/svg">
<path d="M57.3467 55.7807C57.3467 55.7807 59.6406 58.5923 62.1565 63.1058C64.8944 67.9892 67.8542 74.7963 68.7422 82.4914C68.8902 83.5272 69.5562 84.3411 70.5921 84.5631C73.256 85.229 76.6598 85.8209 80.4336 86.1909C82.6535 86.4129 85.0214 86.6348 87.4633 86.7828C87.9813 86.7828 88.5732 86.8568 89.1652 86.8568C99.9687 87.4488 112.4 87.1528 122.242 86.1909C122.834 86.1169 123.352 86.0429 123.944 86.0429C126.533 85.7469 128.975 85.451 131.121 85.0071C131.787 84.8591 132.453 84.7851 133.045 84.6371C134.747 84.2672 136.153 83.8972 137.337 83.4532C137.485 83.3792 137.559 83.3792 137.707 83.3052C138.521 83.0093 139.113 82.2694 139.261 81.3815C139.779 78.3479 141.777 70.0609 148.658 60.5901C149.62 59.2583 150.656 57.9264 151.766 56.5946C163.384 42.8323 173.225 43.2763 173.225 43.2763L165.086 40.2427L157.464 37.431L156.206 36.987L154.43 35.7292L146.734 30.4759L143.997 28.6261L142.295 27.5162L132.157 24.5566L119.948 23.7427L112.474 32.8436L88.8692 48.6036L79.7677 48.6776H79.3237L76.4378 48.9736L58.7527 50.7493L58.4567 51.9332L57.3467 55.7807Z" fill="#81D0D3"/>
<path d="M57.3467 55.7807C57.3467 55.7807 59.6406 58.5923 62.1565 63.1058C64.8944 67.9892 67.8542 74.7963 68.7422 82.4914C68.8902 83.5272 69.5562 84.3411 70.5921 84.5631C73.256 85.229 76.6598 85.8209 80.4336 86.1909C82.6535 86.4129 85.0214 86.6348 87.4633 86.7828C87.9813 86.7828 88.5732 86.8568 89.1652 86.8568C99.9687 87.4488 112.4 87.1528 122.242 86.1909C122.834 86.1169 123.352 86.0429 123.944 86.0429C126.533 85.7469 128.975 85.451 131.121 85.0071C131.787 84.8591 132.453 84.7851 133.045 84.6371C134.747 84.2672 136.153 83.8972 137.337 83.4532C137.485 83.3792 137.559 83.3792 137.707 83.3052C138.521 83.0093 139.113 82.2694 139.261 81.3815C139.779 78.3479 141.777 70.0609 148.658 60.5901C149.62 59.2583 150.656 57.9264 151.766 56.5946C163.384 42.8323 173.225 43.2763 173.225 43.2763L165.086 40.2427L157.464 37.431L156.206 36.987L154.43 35.7292L146.734 30.4759L143.997 28.6261L142.295 27.5162L132.157 24.5566L119.948 23.7427L112.474 32.8436L88.8692 48.6036L79.7677 48.6776H79.3237L76.4378 48.9736L58.7527 50.7493L58.4567 51.9332L57.3467 55.7807Z" fill="url(#paint0_radial)"/>
<path opacity="0.1" d="M57.3467 55.7807C57.3467 55.7807 59.6406 58.5923 62.1565 63.1058C64.8944 67.9892 67.8542 74.7963 68.7422 82.4914C68.8902 83.5272 69.5562 84.3411 70.5921 84.5631C73.256 85.229 76.6598 85.8209 80.4336 86.1909C82.6535 86.4129 85.0214 86.6348 87.4633 86.7828C87.9813 86.7828 88.5732 86.8568 89.1652 86.8568C99.9687 87.4488 112.4 87.1528 122.242 86.1909C122.834 86.1169 123.352 86.0429 123.944 86.0429C126.533 85.7469 128.975 85.451 131.121 85.0071C131.787 84.8591 132.453 84.7851 133.045 84.6371C134.747 84.2672 136.153 83.8972 137.337 83.4532C137.485 83.3792 137.559 83.3792 137.707 83.3052C138.521 83.0093 139.113 82.2694 139.261 81.3815C139.779 78.3479 141.777 70.0609 148.658 60.5901C149.62 59.2583 150.656 57.9264 151.766 56.5946C163.384 42.8323 173.225 43.2763 173.225 43.2763L165.086 40.2427L157.464 37.431L156.206 36.987L154.43 35.7292L146.734 30.4759L143.997 28.6261L142.295 27.5162L132.157 24.5566L119.948 23.7427L112.474 32.8436L88.8692 48.6036L79.7677 48.6776H79.3237L76.4378 48.9736L58.7527 50.7493L58.4567 51.9332L57.3467 55.7807Z" fill="url(#paint1_linear)"/>
<path opacity="0.2" d="M57.3467 55.7809C57.3467 55.7809 59.6406 58.5925 62.1565 63.106C63.2665 61.6262 64.8204 59.7764 65.8563 59.5544C67.7062 59.1845 69.4082 63.5499 71.0361 62.662C72.664 61.7742 72.072 60.2204 74.2919 63.5499C76.5118 66.8795 78.6577 66.9535 79.6937 65.0298C80.4336 63.6979 83.0975 68.1373 85.0954 71.4669C86.0574 73.0207 86.8713 74.2786 87.3153 74.6486C87.6853 74.8705 87.9813 74.4266 88.2773 73.6127C89.2392 71.097 89.9792 65.5477 90.2012 66.8055C90.4971 68.5073 93.605 68.2853 94.7889 65.1037C95.9729 61.9221 99.5987 59.1105 102.929 59.1105C106.258 59.1105 106.406 53.4132 108.848 50.8975C111.29 48.3818 114.176 48.3818 115.286 50.3056C116.396 52.2293 119.578 46.1621 121.946 42.6845C124.24 39.207 125.793 38.985 125.867 41.7227C125.867 44.4603 127.643 44.0164 129.715 42.6845C131.787 41.3527 134.525 39.9469 133.785 42.6845C133.267 44.5343 134.377 44.8303 135.413 44.6823C135.931 44.6083 136.375 44.4603 136.671 44.3123C137.189 44.0164 134.673 49.3437 132.453 54.3751C131.269 57.0387 130.233 59.6284 129.715 61.3302C129.419 62.1441 129.345 62.81 129.345 63.18C129.419 64.6598 132.009 62.1441 134.747 59.3325C137.041 56.8908 139.483 54.1531 140.297 53.4872C140.963 52.9692 141.259 53.1912 141.407 53.7832C141.703 54.819 141.481 56.9647 141.629 58.5185C141.629 58.5925 141.629 58.5925 141.629 58.6665C141.925 61.1082 146.956 55.263 147.4 55.041C147.918 54.819 147.03 57.7047 145.625 60.2204C145.329 60.6643 145.403 60.9602 145.625 61.1082C146.068 61.4042 147.4 61.1082 148.658 60.7383C149.62 59.4064 150.656 58.0746 151.766 56.7428C163.384 42.9805 173.225 43.4244 173.225 43.4244L165.086 40.3908L157.464 37.5792L156.206 37.1352L154.43 35.8774L146.734 30.6241L143.997 28.7743L142.295 27.6644L132.157 24.7048L119.948 23.8909L112.474 32.9917L88.8692 48.7518L79.7677 48.8258H79.3237L76.4378 49.1217L58.7527 50.8975L57.3467 55.7809Z" fill="#0071BC"/>
<path opacity="0.8" d="M137.337 83.5273C137.485 83.4533 137.559 83.4533 137.707 83.3793C138.521 83.0833 139.113 82.3434 139.261 81.4555C139.779 78.4219 141.777 70.1349 148.658 60.6641C149.62 59.3323 150.656 58.0004 151.766 56.6686C163.384 42.9063 173.225 43.3503 173.225 43.3503L165.086 40.3167C161.09 44.0902 153.764 51.2673 146.882 59.4063C146.438 59.9242 145.994 60.5161 145.55 61.0341C136.819 72.5026 137.337 83.5273 137.337 83.5273Z" fill="url(#paint2_linear)"/>
<path opacity="0.8" d="M122.242 86.265C122.834 86.191 123.352 86.117 123.944 86.117C124.092 81.8995 124.758 72.9466 128.679 68.2852C133.933 62.144 135.709 62.144 134.969 65.9915C134.377 68.7292 132.231 79.3098 131.121 85.0811C131.787 84.9331 132.453 84.8591 133.045 84.7112C133.267 83.5273 135.561 69.4691 139.631 61.922C140.223 60.8862 140.815 59.7023 141.555 58.4444C145.329 51.7113 151.1 42.5364 157.39 37.5051L156.132 37.0611L154.356 35.8033L149.102 43.4983C149.102 43.4983 144.811 48.4557 141.333 53.709C139.557 56.3727 138.003 59.1104 137.337 61.2561C137.337 59.7023 136.153 59.1843 134.673 59.2583C132.749 59.3323 130.455 60.3682 129.641 61.2561C130.233 59.0364 131.269 56.5947 132.379 54.227C134.599 49.6395 137.411 45.5701 138.521 44.9041C140.075 43.9423 145.477 37.875 146.586 30.6239L143.849 28.7742C143.479 31.5858 142.591 36.3952 141.333 38.171C140.149 39.8727 137.633 41.8705 135.339 44.6082C134.007 46.088 132.749 47.8638 131.861 49.7875C129.419 55.0409 124.166 59.4063 122.242 86.265Z" fill="url(#paint3_linear)"/>
<path opacity="0.8" d="M79.3237 48.7517L76.4379 49.0476C76.4379 49.0476 81.9136 58.2225 85.1694 71.4668C86.9454 78.496 87.4633 83.6014 87.5373 86.857C88.0553 86.857 88.6473 86.9309 89.2392 86.9309C89.3132 86.265 89.5352 80.7897 88.4253 73.5386C87.6113 68.4333 86.2054 62.44 83.4675 56.5207C82.1356 53.5611 80.8777 50.9714 79.7677 48.7517H79.3237Z" fill="url(#paint4_linear)"/>
<path opacity="0.8" d="M57.3467 55.7806C57.3467 55.7806 59.6406 58.5923 62.1565 63.1057C64.8944 67.9891 67.8542 74.7962 68.7422 82.4913C68.8902 83.5272 69.5562 84.341 70.5921 84.563C73.256 85.2289 76.6598 85.8209 80.4336 86.1908C79.8417 86.0428 70.6661 83.6751 70.6661 82.6393C70.6661 81.6034 68.0022 62.4398 58.3827 51.9331L57.3467 55.7806Z" fill="url(#paint5_linear)"/>
<path d="M4.29128 40.8356C3.55132 42.5374 2.73735 45.423 3.03333 48.0867C3.03333 48.1607 3.03333 48.1607 3.03333 48.2347C3.10733 49.0486 3.32932 49.7885 3.62531 50.4544C3.62531 50.4544 3.62531 50.5284 3.69931 50.5284C3.69931 50.6024 3.7733 50.6764 3.7733 50.6764C4.88325 52.8961 7.39913 54.4499 12.2089 53.932C12.8009 54.9678 13.9108 55.6337 15.3167 55.9297C17.9806 56.3736 21.5324 55.1158 23.6043 51.5643C26.7122 46.089 32.2619 42.3894 40.8455 45.2751C39.3656 48.2347 41.5855 49.9365 42.9914 50.6024C44.4713 51.3423 45.9513 54.8938 47.8752 55.4858C48.1712 55.5598 48.4672 55.6337 48.8371 55.7077C51.205 56.2257 55.6448 56.5956 63.1924 55.4858C71.924 54.2279 78.9537 55.8557 78.9537 55.8557C78.9537 55.8557 79.2497 62.3669 86.7973 61.1831C94.419 59.9992 98.6367 55.4118 101.079 52.0082C103.447 48.6046 108.626 50.6024 113.954 46.5329C119.282 42.4634 120.91 36.6921 115.508 36.6181C117.21 32.6226 120.318 25.8155 126.755 26.0375C133.193 26.2594 142.813 28.9231 147.992 37.062C146.66 36.8401 144.441 41.6495 149.99 44.5351C150.064 44.6091 150.212 44.6831 150.286 44.6831C155.688 47.2728 160.72 44.6831 164.05 44.9051C167.453 45.1271 173.965 46.6069 175.815 50.4544C175.815 50.4544 170.709 57.0396 177.443 60.5171C184.177 63.9947 191.724 54.3019 191.724 54.3019C191.724 54.3019 195.202 57.8535 200.308 53.488C201.64 52.3042 202.38 51.0463 202.75 49.7145C203.712 46.1629 201.64 42.6854 201.64 42.6854C201.64 42.6854 205.562 44.5352 207.634 41.3535C208.521 40.0217 208.669 38.1719 208.225 36.6181C207.634 34.4724 206.08 32.7706 204.156 33.0666C204.526 30.7729 204.896 28.1832 204.674 25.8895C204.378 22.8558 202.972 20.2662 198.902 19.6742C191.798 18.6384 187.137 15.9007 187.358 12.6451C187.358 11.9052 187.359 11.1653 187.137 10.4254C186.545 7.76173 184.695 5.09805 181.291 4.28415C176.925 3.24828 175.815 1.69447 173.891 2.06443C173.151 2.21241 171.301 2.58237 169.155 3.24828C165.826 4.28415 161.904 5.91195 160.868 8.13168C160.868 3.76622 155.466 5.542 151.248 8.42764C147.03 11.3133 141.777 17.4545 143.997 17.4545C146.29 17.4545 148.658 18.2684 147.844 19.1563C147.03 20.0442 143.849 24.8536 142.073 24.8536C140.297 24.8536 135.709 24.8536 135.709 24.8536C135.709 24.8536 131.787 14.4949 127.717 14.3469C123.648 14.1989 122.908 16.4186 122.612 17.3805C122.612 17.3805 115.656 15.5308 113.954 19.1563C112.252 22.7818 110.18 28.9971 110.18 28.9971C110.18 28.9971 93.531 32.8446 90.7931 24.1137C86.2053 24.1137 76.0678 20.4141 74.6619 19.1563C73.256 17.8985 74.0699 16.4926 75.7718 16.7146C76.5118 13.977 73.7739 7.02182 67.4102 3.76623C61.0465 0.510633 54.2389 0.14067 52.389 2.13842C50.5391 4.21016 47.4312 9.83346 43.6574 9.83346C43.6574 7.61373 40.6975 5.02407 37.0717 4.87609C35.8138 4.8021 34.4818 5.09807 33.1499 5.68999C28.1921 8.13169 26.1942 9.53751 25.1583 16.0487V16.1227C25.1583 16.3446 25.0843 16.4926 25.0843 16.7146C24.7143 19.0823 24.1223 21.45 23.1604 23.5958C21.3105 27.6653 18.2766 30.5509 13.9848 29.959C12.7269 27.8872 6.14119 26.7774 3.18134 30.1069C2.36738 31.0688 1.62741 32.1787 1.25742 33.3625C0.29547 35.8782 0.81345 39.1338 4.29128 40.8356Z" fill="#D9F7FF"/>
<path d="M4.29128 40.8356C3.55132 42.5374 2.73735 45.423 3.03333 48.0867C3.03333 48.1607 3.03333 48.1607 3.03333 48.2347C3.10733 49.0486 3.32932 49.7885 3.62531 50.4544C3.62531 50.4544 3.62531 50.5284 3.69931 50.5284C3.69931 50.6024 3.7733 50.6764 3.7733 50.6764C4.88325 52.8961 7.39913 54.4499 12.2089 53.932C12.8009 54.9678 13.9108 55.6337 15.3167 55.9297C17.9806 56.3736 21.5324 55.1158 23.6043 51.5643C26.7122 46.089 32.2619 42.3894 40.8455 45.2751C39.3656 48.2347 41.5855 49.9365 42.9914 50.6024C44.4713 51.3423 45.9513 54.8938 47.8752 55.4858C48.1712 55.5598 48.4672 55.6337 48.8371 55.7077C51.205 56.2257 55.6448 56.5956 63.1924 55.4858C71.924 54.2279 78.9537 55.8557 78.9537 55.8557C78.9537 55.8557 79.2497 62.3669 86.7973 61.1831C94.419 59.9992 98.6367 55.4118 101.079 52.0082C103.447 48.6046 108.626 50.6024 113.954 46.5329C119.282 42.4634 120.91 36.6921 115.508 36.6181C117.21 32.6226 120.318 25.8155 126.755 26.0375C133.193 26.2594 142.813 28.9231 147.992 37.062C146.66 36.8401 144.441 41.6495 149.99 44.5351C150.064 44.6091 150.212 44.6831 150.286 44.6831C155.688 47.2728 160.72 44.6831 164.05 44.9051C167.453 45.1271 173.965 46.6069 175.815 50.4544C175.815 50.4544 170.709 57.0396 177.443 60.5171C184.177 63.9947 191.724 54.3019 191.724 54.3019C191.724 54.3019 195.202 57.8535 200.308 53.488C201.64 52.3042 202.38 51.0463 202.75 49.7145C203.712 46.1629 201.64 42.6854 201.64 42.6854C201.64 42.6854 205.562 44.5352 207.634 41.3535C208.521 40.0217 208.669 38.1719 208.225 36.6181C207.634 34.4724 206.08 32.7706 204.156 33.0666C204.526 30.7729 204.896 28.1832 204.674 25.8895C204.378 22.8558 202.972 20.2662 198.902 19.6742C191.798 18.6384 187.137 15.9007 187.358 12.6451C187.358 11.9052 187.359 11.1653 187.137 10.4254C186.545 7.76173 184.695 5.09805 181.291 4.28415C176.925 3.24828 175.815 1.69447 173.891 2.06443C173.151 2.21241 171.301 2.58237 169.155 3.24828C165.826 4.28415 161.904 5.91195 160.868 8.13168C160.868 3.76622 155.466 5.542 151.248 8.42764C147.03 11.3133 141.777 17.4545 143.997 17.4545C146.29 17.4545 148.658 18.2684 147.844 19.1563C147.03 20.0442 143.849 24.8536 142.073 24.8536C140.297 24.8536 135.709 24.8536 135.709 24.8536C135.709 24.8536 131.787 14.4949 127.717 14.3469C123.648 14.1989 122.908 16.4186 122.612 17.3805C122.612 17.3805 115.656 15.5308 113.954 19.1563C112.252 22.7818 110.18 28.9971 110.18 28.9971C110.18 28.9971 93.531 32.8446 90.7931 24.1137C86.2053 24.1137 76.0678 20.4141 74.6619 19.1563C73.256 17.8985 74.0699 16.4926 75.7718 16.7146C76.5118 13.977 73.7739 7.02182 67.4102 3.76623C61.0465 0.510633 54.2389 0.14067 52.389 2.13842C50.5391 4.21016 47.4312 9.83346 43.6574 9.83346C43.6574 7.61373 40.6975 5.02407 37.0717 4.87609C35.8138 4.8021 34.4818 5.09807 33.1499 5.68999C28.1921 8.13169 26.1942 9.53751 25.1583 16.0487V16.1227C25.1583 16.3446 25.0843 16.4926 25.0843 16.7146C24.7143 19.0823 24.1223 21.45 23.1604 23.5958C21.3105 27.6653 18.2766 30.5509 13.9848 29.959C12.7269 27.8872 6.14119 26.7774 3.18134 30.1069C2.36738 31.0688 1.62741 32.1787 1.25742 33.3625C0.29547 35.8782 0.81345 39.1338 4.29128 40.8356Z" fill="url(#paint6_radial)"/>
<path opacity="0.1" d="M4.29128 40.8356C3.55132 42.5374 2.73735 45.423 3.03333 48.0867C3.03333 48.1607 3.03333 48.1607 3.03333 48.2347C3.10733 49.0486 3.32932 49.7885 3.62531 50.4544C3.62531 50.4544 3.62531 50.5284 3.69931 50.5284C3.69931 50.6024 3.7733 50.6764 3.7733 50.6764C4.88325 52.8961 7.39913 54.4499 12.2089 53.932C12.8009 54.9678 13.9108 55.6337 15.3167 55.9297C17.9806 56.3736 21.5324 55.1158 23.6043 51.5643C26.7122 46.089 32.2619 42.3894 40.8455 45.2751C39.3656 48.2347 41.5855 49.9365 42.9914 50.6024C44.4713 51.3423 45.9513 54.8938 47.8752 55.4858C48.1712 55.5598 48.4672 55.6337 48.8371 55.7077C51.205 56.2257 55.6448 56.5956 63.1924 55.4858C71.924 54.2279 78.9537 55.8557 78.9537 55.8557C78.9537 55.8557 79.2497 62.3669 86.7973 61.1831C94.419 59.9992 98.6367 55.4118 101.079 52.0082C103.447 48.6046 108.626 50.6024 113.954 46.5329C119.282 42.4634 120.91 36.6921 115.508 36.6181C117.21 32.6226 120.318 25.8155 126.755 26.0375C133.193 26.2594 142.813 28.9231 147.992 37.062C146.66 36.8401 144.441 41.6495 149.99 44.5351C150.064 44.6091 150.212 44.6831 150.286 44.6831C155.688 47.2728 160.72 44.6831 164.05 44.9051C167.453 45.1271 173.965 46.6069 175.815 50.4544C175.815 50.4544 170.709 57.0396 177.443 60.5171C184.177 63.9947 191.724 54.3019 191.724 54.3019C191.724 54.3019 195.202 57.8535 200.308 53.488C201.64 52.3042 202.38 51.0463 202.75 49.7145C203.712 46.1629 201.64 42.6854 201.64 42.6854C201.64 42.6854 205.562 44.5352 207.634 41.3535C208.521 40.0217 208.669 38.1719 208.225 36.6181C207.634 34.4724 206.08 32.7706 204.156 33.0666C204.526 30.7729 204.896 28.1832 204.674 25.8895C204.378 22.8558 202.972 20.2662 198.902 19.6742C191.798 18.6384 187.137 15.9007 187.358 12.6451C187.358 11.9052 187.359 11.1653 187.137 10.4254C186.545 7.76173 184.695 5.09805 181.291 4.28415C176.925 3.24828 175.815 1.69447 173.891 2.06443C173.151 2.21241 171.301 2.58237 169.155 3.24828C165.826 4.28415 161.904 5.91195 160.868 8.13168C160.868 3.76622 155.466 5.542 151.248 8.42764C147.03 11.3133 141.777 17.4545 143.997 17.4545C146.29 17.4545 148.658 18.2684 147.844 19.1563C147.03 20.0442 143.849 24.8536 142.073 24.8536C140.297 24.8536 135.709 24.8536 135.709 24.8536C135.709 24.8536 131.787 14.4949 127.717 14.3469C123.648 14.1989 122.908 16.4186 122.612 17.3805C122.612 17.3805 115.656 15.5308 113.954 19.1563C112.252 22.7818 110.18 28.9971 110.18 28.9971C110.18 28.9971 93.531 32.8446 90.7931 24.1137C86.2053 24.1137 76.0678 20.4141 74.6619 19.1563C73.256 17.8985 74.0699 16.4926 75.7718 16.7146C76.5118 13.977 73.7739 7.02182 67.4102 3.76623C61.0465 0.510633 54.2389 0.14067 52.389 2.13842C50.5391 4.21016 47.4312 9.83346 43.6574 9.83346C43.6574 7.61373 40.6975 5.02407 37.0717 4.87609C35.8138 4.8021 34.4818 5.09807 33.1499 5.68999C28.1921 8.13169 26.1942 9.53751 25.1583 16.0487V16.1227C25.1583 16.3446 25.0843 16.4926 25.0843 16.7146C24.7143 19.0823 24.1223 21.45 23.1604 23.5958C21.3105 27.6653 18.2766 30.5509 13.9848 29.959C12.7269 27.8872 6.14119 26.7774 3.18134 30.1069C2.36738 31.0688 1.62741 32.1787 1.25742 33.3625C0.29547 35.8782 0.81345 39.1338 4.29128 40.8356Z" fill="url(#paint7_linear)"/>
<path opacity="0.2" d="M136.005 24.5567C136.005 24.5567 141.925 27.4423 146.882 27.4423C151.84 27.4423 160.572 30.9199 161.46 32.1038C161.46 32.1038 161.46 32.1037 161.534 32.1777C162.422 33.2876 163.828 32.4737 163.828 32.4737L160.646 30.9939C160.646 30.9939 160.276 29.884 159.684 29.3661C159.092 28.8482 163.828 14.3459 163.828 14.3459C163.828 14.3459 163.902 13.828 164.05 12.9401C164.494 10.6464 165.826 6.13299 169.451 3.09937C166.122 4.13524 162.2 5.76301 161.164 7.98274C161.164 3.61728 155.762 5.39308 151.544 8.27872C147.326 11.1644 142.073 17.3056 144.293 17.3056C146.586 17.3056 148.954 18.1195 148.14 19.0074C147.326 19.8953 144.145 24.7047 142.369 24.7047C140.593 24.5567 136.005 24.5567 136.005 24.5567Z" fill="#0071BC"/>
<path opacity="0.2" d="M17.6107 42.9804L27.1562 39.0589L36.7757 32.7696H36.8497C36.9237 32.7696 36.9977 32.7697 37.0717 32.8437C37.2937 32.8437 37.5157 32.9176 37.7377 32.9916C37.8117 32.9916 37.8117 32.9916 37.8117 32.9916C40.8455 31.2158 46.0253 32.4737 46.0253 32.4737L49.9471 32.7696L53.4249 35.1374C53.4249 35.1374 61.7865 44.0902 63.8584 44.9041C65.9303 45.6441 70.7401 46.6799 70.7401 46.6799C70.7401 46.6799 73.774 46.31 74.3659 45.866C74.9579 45.4221 82.1356 46.6799 82.1356 46.6799C82.1356 46.6799 84.9474 46.014 87.9813 45.3481C87.9813 45.3481 87.9813 45.3481 88.0553 45.3481C89.1652 45.1261 90.2752 44.9042 91.3111 44.6822C95.2329 43.8683 100.561 40.9826 100.561 40.9826L102.855 36.8391L108.922 30.7719L110.402 28.8481C110.402 28.8481 93.753 32.6957 91.0151 23.9648C86.4274 23.9648 76.2898 20.2652 74.8839 19.0074C73.478 17.7495 74.2919 16.3437 75.9939 16.5657C76.7338 13.828 73.9959 6.87288 67.6322 3.61729C61.2686 0.361693 54.4609 -0.00824726 52.611 1.9895C50.7611 4.06124 47.6532 9.68454 43.8794 9.68454C43.8794 7.46482 40.9195 4.87513 37.2937 4.72715C43.5094 11.4603 38.6256 15.2338 36.0358 16.5657C35.2958 16.9356 34.7778 17.1576 34.6298 17.1576C34.6298 17.1576 30.338 26.1105 29.3761 29.662C27.9702 29.514 26.7862 29.3661 26.1942 29.5141C25.7503 29.5881 25.4543 28.5522 25.3063 26.9984C24.9363 23.0769 25.3803 15.8998 25.3803 15.8998V15.9738L23.3824 23.3728C21.5325 27.4423 18.4986 30.328 14.2068 29.736C14.2068 29.736 15.4648 34.2495 11.6909 34.9894C9.10106 40.1687 17.6107 42.9804 17.6107 42.9804Z" fill="#0071BC"/>
<path d="M187.802 41.2787C187.802 41.2787 189.948 42.3145 191.058 40.3168C192.168 38.393 191.798 34.9895 189.948 34.6195C188.098 34.2495 189.06 30.9939 190.17 30.55C191.28 30.1061 192.76 27.8863 192.464 26.2586C192.168 24.6308 190.466 28.3303 189.652 26.5545C188.838 24.7788 190.392 22.337 188.764 20.4133C187.136 18.5635 186.027 20.4873 185.139 19.5254C184.251 18.5635 185.287 15.3819 182.475 14.1981C179.663 13.0142 170.413 9.46265 166.639 11.2384C162.866 13.0142 161.312 14.346 161.09 15.9738C160.868 17.6016 158.278 21.1532 158.278 22.855C158.278 24.5568 158.056 28.5523 159.61 29.1442C161.608 28.5523 178.701 27.9603 184.621 41.1307C186.323 41.5746 187.802 41.2787 187.802 41.2787Z" fill="#81D0D3"/>
<path opacity="0.1" d="M187.802 41.2787C187.802 41.2787 189.948 42.3145 191.058 40.3168C192.168 38.393 191.798 34.9895 189.948 34.6195C188.098 34.2495 189.06 30.9939 190.17 30.55C191.28 30.1061 192.76 27.8863 192.464 26.2586C192.168 24.6308 190.466 28.3303 189.652 26.5545C188.838 24.7788 190.392 22.337 188.764 20.4133C187.136 18.5635 186.027 20.4873 185.139 19.5254C184.251 18.5635 185.287 15.3819 182.475 14.1981C179.663 13.0142 170.413 9.46265 166.639 11.2384C162.866 13.0142 161.312 14.346 161.09 15.9738C160.868 17.6016 158.278 21.1532 158.278 22.855C158.278 24.5568 158.056 28.5523 159.61 29.1442C161.608 28.5523 178.701 27.9603 184.621 41.1307C186.323 41.5746 187.802 41.2787 187.802 41.2787Z" fill="url(#paint8_linear)"/>
<path d="M182.031 41.0566C182.031 41.0566 175.001 31.6598 160.572 30.9939C162.644 33.5096 166.639 41.1306 182.031 41.0566Z" fill="#81D0D3"/>
<path opacity="0.1" d="M182.031 41.0566C182.031 41.0566 175.001 31.6598 160.572 30.9939C162.644 33.5096 166.639 41.1306 182.031 41.0566Z" fill="url(#paint9_linear)"/>
<path opacity="0.2" d="M182.031 41.0566C182.031 41.0566 175.001 31.6598 160.572 30.9939C162.644 33.5096 166.639 41.1306 182.031 41.0566Z" fill="#0071BC"/>
<path d="M108.922 30.624C108.922 30.624 103.373 38.1711 100.561 40.8347C101.153 37.8751 104.63 32.3998 108.922 30.624Z" fill="#81D0D3"/>
<path opacity="0.1" d="M108.922 30.624C108.922 30.624 103.373 38.1711 100.561 40.8347C101.153 37.8751 104.63 32.3998 108.922 30.624Z" fill="url(#paint10_linear)"/>
<path d="M100.191 36.6912C100.191 36.6912 97.3048 42.4625 94.271 43.6463C91.2371 44.8302 86.6494 45.5701 85.6134 45.5701C86.8713 44.0902 97.7488 37.0611 100.191 36.6912Z" fill="#81D0D3"/>
<path opacity="0.1" d="M100.191 36.6912C100.191 36.6912 97.3048 42.4625 94.271 43.6463C91.2371 44.8302 86.6494 45.5701 85.6134 45.5701C86.8713 44.0902 97.7488 37.0611 100.191 36.6912Z" fill="url(#paint11_linear)"/>
<path d="M87.3153 40.8345C87.3153 40.8345 82.6535 44.386 82.1355 46.5318C77.5477 46.2358 70.7401 46.5318 70.7401 46.5318C70.7401 46.5318 73.4779 40.8345 87.3153 40.8345Z" fill="#81D0D3"/>
<path opacity="0.1" d="M87.3153 40.8345C87.3153 40.8345 82.6535 44.386 82.1355 46.5318C77.5477 46.2358 70.7401 46.5318 70.7401 46.5318C70.7401 46.5318 73.4779 40.8345 87.3153 40.8345Z" fill="url(#paint12_linear)"/>
<path d="M95.6029 36.6911C95.6029 36.6911 92.273 38.2449 91.6071 39.0588C89.1652 38.9848 85.9093 39.0588 85.9093 39.0588C85.9093 39.0588 80.8776 35.1373 74.9579 33.2875C69.4081 31.5117 64.0064 28.1082 39.7356 31.3638C39.7356 31.3638 27.6001 32.2516 26.1202 30.6978C24.6403 29.144 24.6403 23.3727 30.042 19.6732C35.5178 15.9737 41.0675 14.8638 41.0675 14.8638C41.0675 14.8638 39.3656 18.9333 44.1753 17.9714C48.9851 16.9355 51.501 14.1979 53.2769 10.5723C57.6427 9.61044 59.2706 11.9781 59.2706 12.792C59.2706 13.6059 60.5286 16.2696 62.4525 14.6418C64.3024 13.088 64.5244 14.3459 66.8923 15.8257C69.2601 17.2315 71.554 18.5633 71.554 19.8952C71.554 21.227 70.4441 27.2943 75.4018 28.6261C80.3596 29.9579 92.347 30.2539 95.6029 36.6911Z" fill="#81D0D3"/>
<path opacity="0.1" d="M95.6029 36.6911C95.6029 36.6911 92.273 38.2449 91.6071 39.0588C89.1652 38.9848 85.9093 39.0588 85.9093 39.0588C85.9093 39.0588 80.8776 35.1373 74.9579 33.2875C69.4081 31.5117 64.0064 28.1082 39.7356 31.3638C39.7356 31.3638 27.6001 32.2516 26.1202 30.6978C24.6403 29.144 24.6403 23.3727 30.042 19.6732C35.5178 15.9737 41.0675 14.8638 41.0675 14.8638C41.0675 14.8638 39.3656 18.9333 44.1753 17.9714C48.9851 16.9355 51.501 14.1979 53.2769 10.5723C57.6427 9.61044 59.2706 11.9781 59.2706 12.792C59.2706 13.6059 60.5286 16.2696 62.4525 14.6418C64.3024 13.088 64.5244 14.3459 66.8923 15.8257C69.2601 17.2315 71.554 18.5633 71.554 19.8952C71.554 21.227 70.4441 27.2943 75.4018 28.6261C80.3596 29.9579 92.347 30.2539 95.6029 36.6911Z" fill="url(#paint13_linear)"/>
<path opacity="0.2" d="M187.802 41.2787C187.802 41.2787 189.948 42.3145 191.058 40.3168C192.168 38.393 191.798 34.9895 189.948 34.6195C188.098 34.2495 189.06 30.9939 190.17 30.55C191.28 30.1061 192.76 27.8863 192.464 26.2586C192.168 24.6308 190.466 28.3303 189.652 26.5545C188.838 24.7788 190.392 22.337 188.764 20.4133C187.136 18.5635 186.027 20.4873 185.139 19.5254C184.251 18.5635 185.287 15.3819 182.475 14.1981C179.663 13.0142 170.413 9.46265 166.639 11.2384C162.866 13.0142 161.312 14.346 161.09 15.9738C160.868 17.6016 158.278 21.1532 158.278 22.855C158.278 24.5568 158.056 28.5523 159.61 29.1442C161.608 28.5523 178.701 27.9603 184.621 41.1307C186.323 41.5746 187.802 41.2787 187.802 41.2787Z" fill="#0071BC"/>
<path opacity="0.2" d="M95.6029 36.6911C95.6029 36.6911 92.273 38.2449 91.6071 39.0588C89.1652 38.9848 85.9093 39.0588 85.9093 39.0588C85.9093 39.0588 80.8776 35.1373 74.9579 33.2875C69.4081 31.5117 64.0064 28.1082 39.7356 31.3638C39.7356 31.3638 27.6001 32.2516 26.1202 30.6978C24.6403 29.144 24.6403 23.3727 30.042 19.6732C35.5178 15.9737 41.0675 14.8638 41.0675 14.8638C41.0675 14.8638 39.3656 18.9333 44.1753 17.9714C48.9851 16.9355 51.501 14.1979 53.2769 10.5723C57.6427 9.61044 59.2706 11.9781 59.2706 12.792C59.2706 13.6059 60.5286 16.2696 62.4525 14.6418C64.3024 13.088 64.5244 14.3459 66.8923 15.8257C69.2601 17.2315 71.554 18.5633 71.554 19.8952C71.554 21.227 70.4441 27.2943 75.4018 28.6261C80.3596 29.9579 92.347 30.2539 95.6029 36.6911Z" fill="#0071BC"/>
<path d="M82.8015 39.4288C82.8015 39.4288 60.9726 27.9602 46.0253 32.3997C46.9872 33.3615 48.0972 32.8436 49.2811 33.2136C50.3911 33.5835 59.2706 44.2382 63.7844 44.8301C68.3722 41.7965 80.0636 39.1328 82.8015 39.4288Z" fill="#81D0D3"/>
<path opacity="0.1" d="M82.8015 39.4288C82.8015 39.4288 60.9726 27.9602 46.0253 32.3997C46.9872 33.3615 48.0972 32.8436 49.2811 33.2136C50.3911 33.5835 59.2706 44.2382 63.7844 44.8301C68.3722 41.7965 80.0636 39.1328 82.8015 39.4288Z" fill="url(#paint14_linear)"/>
<path d="M37.8117 32.9175C37.8117 32.9175 29.6721 42.8323 17.6107 42.9802C21.0885 37.9489 33.4459 31.3637 37.8117 32.9175Z" fill="#81D0D3"/>
<path opacity="0.1" d="M37.8117 32.9175C37.8117 32.9175 29.6721 42.8323 17.6107 42.9802C21.0885 37.9489 33.4459 31.3637 37.8117 32.9175Z" fill="url(#paint15_linear)"/>
<path opacity="0.2" d="M108.922 30.624C108.922 30.624 103.373 38.1711 100.561 40.8347C101.153 37.8751 104.63 32.3998 108.922 30.624Z" fill="#0071BC"/>
<path opacity="0.2" d="M100.191 36.6912C100.191 36.6912 97.3048 42.4625 94.271 43.6463C91.2371 44.8302 86.6494 45.5701 85.6134 45.5701C86.8713 44.0902 97.7488 37.0611 100.191 36.6912Z" fill="#0071BC"/>
<path opacity="0.2" d="M87.3153 40.8345C87.3153 40.8345 82.6535 44.386 82.1355 46.5318C77.5477 46.2358 70.7401 46.5318 70.7401 46.5318C70.7401 46.5318 73.4779 40.8345 87.3153 40.8345Z" fill="#0071BC"/>
<path opacity="0.2" d="M82.8015 39.4288C82.8015 39.4288 60.9726 27.9602 46.0253 32.3997C46.9872 33.3615 48.0972 32.8436 49.2811 33.2136C50.3911 33.5835 59.2706 44.2382 63.7844 44.8301C68.3722 41.7965 80.0636 39.1328 82.8015 39.4288Z" fill="#0071BC"/>
<path opacity="0.2" d="M37.8117 32.9175C37.8117 32.9175 29.6721 42.8323 17.6107 42.9802C21.0885 37.9489 33.4459 31.3637 37.8117 32.9175Z" fill="#0071BC"/>
<path opacity="0.2" d="M4.29128 40.8345C3.55132 42.5363 2.73735 45.4219 3.03333 48.0856C2.95934 45.5699 4.58727 43.2022 7.02915 40.3166C0.369468 38.6148 1.25742 33.2874 1.33142 32.9915C0.295468 35.8771 0.813449 39.1327 4.29128 40.8345Z" fill="#0071BC"/>
<path opacity="0.2" d="M15.3907 56.0767C18.0546 56.5207 21.6064 55.2629 23.6783 51.7113C26.7862 46.236 32.3359 42.5365 40.9195 45.4221C40.9195 45.4221 37.8117 42.4624 34.1118 43.1284C30.412 43.7203 26.3422 44.0163 22.9384 49.3436C19.4605 54.6709 17.8326 55.8548 15.3907 56.0767Z" fill="#0071BC"/>
<path opacity="0.2" d="M48.9111 55.7809C51.279 56.2988 55.7188 56.6687 63.2665 55.5588C71.998 54.301 79.0277 55.9288 79.0277 55.9288C79.0277 55.9288 79.6937 54.893 80.4336 54.301C80.4336 54.301 72.59 53.3392 69.2602 54.301C66.5963 55.0409 54.6089 55.8548 48.9111 55.7809Z" fill="#0071BC"/>
<path opacity="0.2" d="M112.918 37.579C113.88 36.9871 115.656 36.6911 115.656 36.6911C117.358 32.6956 120.466 25.8885 126.903 26.1105C133.341 26.3324 142.961 28.9961 148.14 37.1351C145.328 29.736 132.675 24.3347 125.793 24.7047C119.726 25.0006 115.656 32.9176 112.918 37.579Z" fill="#0071BC"/>
<path opacity="0.2" d="M150.434 44.6822C155.836 47.2719 160.868 44.6822 164.198 44.9041C167.602 45.1261 174.113 46.6059 175.963 50.4535L177.591 49.2696C177.591 49.2696 172.929 44.1642 166.196 43.9423C159.832 43.6463 153.838 46.236 150.434 44.6822Z" fill="#0071BC"/>
<path opacity="0.2" d="M186.989 13.6799C187.137 15.0118 189.134 19.6732 195.054 20.3391C200.974 20.931 204.008 23.0768 204.97 25.8144C204.674 22.7808 203.268 20.1911 199.198 19.5992C192.094 18.5633 187.433 15.8257 187.655 12.5701C187.655 11.8302 187.655 11.0902 187.433 10.3503C187.359 10.4983 186.841 12.4221 186.989 13.6799Z" fill="#0071BC"/>
<path opacity="0.2" d="M203.86 34.9153C203.86 34.9153 206.672 33.7315 208.447 36.5431C207.855 34.3974 206.302 32.6956 204.378 32.9916L203.86 34.9153Z" fill="#0071BC"/>
<path opacity="0.2" d="M200.678 43.2763C201.862 44.1642 203.342 47.1238 202.972 49.7135C203.934 46.1619 201.862 42.6844 201.862 42.6844C201.862 42.6844 202.01 39.5768 199.42 39.1328C200.456 40.8346 201.196 42.0924 200.678 43.2763Z" fill="#0071BC"/>
<path opacity="0.8" d="M151.544 37.5791C151.544 37.5791 150.064 40.3907 153.616 41.1306C157.168 41.8706 162.422 42.4625 162.422 42.4625C162.422 42.4625 153.172 45.5701 150.508 43.7203C147.77 41.8706 146.956 38.023 151.544 37.5791Z" fill="url(#paint16_linear)"/>
<path opacity="0.8" d="M161.386 34.3974C161.386 34.3974 158.796 30.3279 154.726 29.514C150.656 28.7001 145.181 27.8862 145.181 27.8862C145.181 27.8862 144.737 28.9221 148.51 29.662C152.284 30.4019 161.238 33.8055 161.386 34.3974Z" fill="url(#paint17_linear)"/>
<path opacity="0.8" d="M129.197 16.0476C129.197 16.0476 126.607 17.3054 125.423 19.3032C124.166 21.3749 123.352 21.8189 122.316 20.931C121.28 20.0431 116.47 19.4512 115.36 20.2651C115.36 20.2651 116.692 17.8974 119.8 18.1933C122.908 18.5633 124.092 18.4153 125.276 16.9355C126.385 15.6036 129.197 16.0476 129.197 16.0476Z" fill="url(#paint18_linear)"/>
<path opacity="0.8" d="M118.394 39.7988C118.394 39.7988 115.952 46.68 107.072 48.8257C98.1928 50.9714 96.2689 55.8548 96.2689 55.8548C96.2689 55.8548 100.117 49.4916 105.74 47.8638C111.438 46.162 117.58 35.8773 118.394 39.7988Z" fill="url(#paint19_linear)"/>
<path opacity="0.8" d="M111.734 29.5141C111.734 29.5141 115.286 30.1061 113.658 31.3639C112.03 32.6218 106.036 38.0971 106.036 38.0971C106.036 38.0971 110.18 29.0702 111.734 29.5141Z" fill="url(#paint20_linear)"/>
<path opacity="0.8" d="M189.8 42.7584C189.8 42.7584 184.251 41.4266 180.033 42.3885C175.815 43.3504 173.521 42.3885 173.521 42.3885C173.521 42.3885 176.185 43.8683 179.885 43.8683C183.733 43.9423 189.8 42.7584 189.8 42.7584Z" fill="url(#paint21_linear)"/>
<path opacity="0.8" d="M179.071 51.0454C179.071 51.0454 176.555 54.227 177.961 56.5207C179.367 58.8884 186.915 57.3346 186.915 57.3346C186.915 57.3346 178.849 63.0319 176.111 57.8526C173.447 52.6732 179.071 51.0454 179.071 51.0454Z" fill="url(#paint22_linear)"/>
<path opacity="0.8" d="M200.604 43.8683C200.604 43.8683 204.008 49.7876 200.604 52.8952C197.2 56.0028 195.202 55.1149 195.202 55.1149C195.202 55.1149 199.568 53.1172 198.68 48.3818C197.792 43.6464 200.604 43.8683 200.604 43.8683Z" fill="url(#paint23_linear)"/>
<path opacity="0.8" d="M195.202 27.5164C195.202 27.5164 194.092 32.9917 197.718 34.3975C201.344 35.8033 197.052 38.245 195.202 35.4334C193.352 32.5477 194.018 28.7742 195.202 27.5164Z" fill="url(#paint24_linear)"/>
<path opacity="0.8" d="M185.361 8.35261C185.361 8.35261 182.253 4.13516 179.219 4.50511C176.111 4.87506 175.223 3.17326 174.113 3.54322C173.003 3.91317 169.451 6.50285 169.451 6.50285C169.451 6.50285 172.781 4.06115 174.927 5.02303C177.073 6.0589 185.805 10.8683 185.361 8.35261Z" fill="url(#paint25_linear)"/>
<path opacity="0.8" d="M203.86 29.514C203.86 29.514 204.6 24.4086 202.084 23.0768C199.494 21.745 195.498 21.375 195.498 21.375C195.498 21.375 202.084 23.1508 202.084 24.6306C202.084 26.1104 203.786 30.4759 203.86 29.514Z" fill="url(#paint26_linear)"/>
<path opacity="0.8" d="M154.208 9.0926C154.208 9.0926 147.326 15.0119 148.88 16.0478C150.434 17.0836 147.696 17.8235 146.808 16.0478C145.995 14.272 152.284 8.72265 154.208 9.0926Z" fill="url(#paint27_linear)"/>
<path opacity="0.8" d="M74.662 13.606C74.8839 14.2719 70.5921 3.69121 62.9705 2.21139C55.3489 0.731578 50.7611 4.28314 52.019 4.50511C53.277 4.72708 57.0508 1.3975 63.2665 4.43112C69.4822 7.39075 73.996 11.9042 74.662 13.606Z" fill="url(#paint28_linear)"/>
<path opacity="0.8" d="M88.9432 28.2562C88.9432 28.2562 75.9938 26.9244 73.9219 21.523C72.738 18.5634 71.1841 21.4491 72.294 23.4468C74.7359 27.5163 77.5478 29.0701 88.9432 28.2562Z" fill="url(#paint29_linear)"/>
<path opacity="0.8" d="M36.5537 5.39307C36.5537 5.39307 42.1035 7.46483 37.3677 9.75854C32.6319 12.0523 27.3042 14.9379 25.8243 21.4491C25.6763 14.346 31.078 6.65091 36.5537 5.39307Z" fill="url(#paint30_linear)"/>
<path opacity="0.8" d="M11.1729 34.2494C11.1729 34.2494 14.6508 32.9175 13.5408 29.9579C12.4309 26.9983 5.25324 27.5162 3.18134 30.9938C8.95306 29.9579 12.8009 29.7359 11.1729 34.2494Z" fill="url(#paint31_linear)"/>
<path opacity="0.8" d="M58.0127 42.6103C58.0127 42.6103 50.909 35.8772 50.0211 34.7673C49.1331 33.6575 47.2832 34.3974 46.0993 33.8055C44.8413 33.2135 39.2176 32.1776 36.2577 35.7292C33.2979 39.2808 35.6658 37.135 38.8476 36.6911C42.0295 36.2471 46.8392 34.9893 48.9851 36.6911C50.983 38.3929 58.0127 42.6103 58.0127 42.6103Z" fill="url(#paint32_linear)"/>
<path opacity="0.8" d="M15.3907 46.6059C15.3907 46.6059 8.28706 51.7852 6.36315 47.1978C4.43925 42.6104 3.25531 49.3435 5.10522 50.5274C6.95513 51.7112 13.4668 52.8211 15.3907 46.6059Z" fill="url(#paint33_linear)"/>
<path opacity="0.8" d="M46.0253 43.8682C46.0253 43.8682 46.0253 48.5296 48.9111 48.0856C51.797 47.6417 52.315 49.2695 54.9049 50.3793C57.4947 51.4892 62.6005 51.6372 62.6005 51.6372C62.6005 51.6372 54.9049 53.487 51.871 51.6372C48.7631 49.7874 44.6193 51.7112 44.3234 48.7516C43.8794 45.792 46.0253 43.8682 46.0253 43.8682Z" fill="url(#paint34_linear)"/>
<path opacity="0.8" d="M88.3512 47.3457C88.3512 47.3457 82.7275 51.7851 84.8734 54.2268C87.0193 56.6685 84.1334 60.5901 82.8755 57.4824C81.6175 54.3748 83.6154 48.3816 88.3512 47.3457Z" fill="url(#paint35_linear)"/>
<defs>
<radialGradient id="paint0_radial" cx="0" cy="0" r="1" gradientUnits="userSpaceOnUse" gradientTransform="translate(114.963 51.6304) rotate(180) scale(71.5898 71.5843)">
<stop stop-color="white"/>
<stop offset="0.2169" stop-color="#FCFCFD"/>
<stop offset="0.3559" stop-color="#F4F4F8"/>
<stop offset="0.4731" stop-color="#E6E5EE"/>
<stop offset="0.5781" stop-color="#D1D0E0"/>
<stop offset="0.6751" stop-color="#B7B5CE"/>
<stop offset="0.7661" stop-color="#9793B8"/>
<stop offset="0.8525" stop-color="#706C9E"/>
<stop offset="0.9331" stop-color="#453F81"/>
<stop offset="1" stop-color="#1B1464"/>
</radialGradient>
<linearGradient id="paint1_linear" x1="115.294" y1="87.2471" x2="115.294" y2="35.6279" gradientUnits="userSpaceOnUse">
<stop stop-color="white"/>
<stop offset="0.2169" stop-color="#FCFCFD"/>
<stop offset="0.3559" stop-color="#F4F4F8"/>
<stop offset="0.4731" stop-color="#E6E5EE"/>
<stop offset="0.5781" stop-color="#D1D0E0"/>
<stop offset="0.6751" stop-color="#B7B5CE"/>
<stop offset="0.7661" stop-color="#9793B8"/>
<stop offset="0.8525" stop-color="#706C9E"/>
<stop offset="0.9331" stop-color="#453F81"/>
<stop offset="1" stop-color="#1B1464"/>
</linearGradient>
<linearGradient id="paint2_linear" x1="155.279" y1="83.6281" x2="155.279" y2="41.5056" gradientUnits="userSpaceOnUse">
<stop/>
<stop offset="1" stop-color="white"/>
</linearGradient>
<linearGradient id="paint3_linear" x1="139.835" y1="86.3993" x2="139.835" y2="30.2649" gradientUnits="userSpaceOnUse">
<stop/>
<stop offset="1" stop-color="white"/>
</linearGradient>
<linearGradient id="paint4_linear" x1="82.8358" y1="87.03" x2="82.8358" y2="49.7994" gradientUnits="userSpaceOnUse">
<stop/>
<stop offset="1" stop-color="white"/>
</linearGradient>
<linearGradient id="paint5_linear" x1="68.9165" y1="86.3493" x2="68.9165" y2="52.9501" gradientUnits="userSpaceOnUse">
<stop/>
<stop offset="1" stop-color="white"/>
</linearGradient>
<radialGradient id="paint6_radial" cx="0" cy="0" r="1" gradientUnits="userSpaceOnUse" gradientTransform="translate(106.375 10.8027) rotate(180) scale(113.298 113.289)">
<stop stop-color="#1B1464"/>
<stop offset="0.0669379" stop-color="#453F81"/>
<stop offset="0.1475" stop-color="#706C9E"/>
<stop offset="0.2339" stop-color="#9793B8"/>
<stop offset="0.3249" stop-color="#B7B5CE"/>
<stop offset="0.4219" stop-color="#D1D0E0"/>
<stop offset="0.5269" stop-color="#E6E5EE"/>
<stop offset="0.6441" stop-color="#F4F4F8"/>
<stop offset="0.7831" stop-color="#FCFCFD"/>
<stop offset="1" stop-color="white"/>
</radialGradient>
<linearGradient id="paint7_linear" x1="104.798" y1="61.3709" x2="104.798" y2="0.592534" gradientUnits="userSpaceOnUse">
<stop stop-color="white"/>
<stop offset="0.2169" stop-color="#FCFCFD"/>
<stop offset="0.3559" stop-color="#F4F4F8"/>
<stop offset="0.4731" stop-color="#E6E5EE"/>
<stop offset="0.5781" stop-color="#D1D0E0"/>
<stop offset="0.6751" stop-color="#B7B5CE"/>
<stop offset="0.7661" stop-color="#9793B8"/>
<stop offset="0.8525" stop-color="#706C9E"/>
<stop offset="0.9331" stop-color="#453F81"/>
<stop offset="1" stop-color="#1B1464"/>
</linearGradient>
<linearGradient id="paint8_linear" x1="175.431" y1="41.545" x2="175.431" y2="16.6336" gradientUnits="userSpaceOnUse">
<stop stop-color="white"/>
<stop offset="0.2169" stop-color="#FCFCFD"/>
<stop offset="0.3559" stop-color="#F4F4F8"/>
<stop offset="0.4731" stop-color="#E6E5EE"/>
<stop offset="0.5781" stop-color="#D1D0E0"/>
<stop offset="0.6751" stop-color="#B7B5CE"/>
<stop offset="0.7661" stop-color="#9793B8"/>
<stop offset="0.8525" stop-color="#706C9E"/>
<stop offset="0.9331" stop-color="#453F81"/>
<stop offset="1" stop-color="#1B1464"/>
</linearGradient>
<linearGradient id="paint9_linear" x1="171.301" y1="41.0338" x2="171.301" y2="32.8508" gradientUnits="userSpaceOnUse">
<stop stop-color="white"/>
<stop offset="0.2169" stop-color="#FCFCFD"/>
<stop offset="0.3559" stop-color="#F4F4F8"/>
<stop offset="0.4731" stop-color="#E6E5EE"/>
<stop offset="0.5781" stop-color="#D1D0E0"/>
<stop offset="0.6751" stop-color="#B7B5CE"/>
<stop offset="0.7661" stop-color="#9793B8"/>
<stop offset="0.8525" stop-color="#706C9E"/>
<stop offset="0.9331" stop-color="#453F81"/>
<stop offset="1" stop-color="#1B1464"/>
</linearGradient>
<linearGradient id="paint10_linear" x1="104.753" y1="40.8494" x2="104.753" y2="32.5508" gradientUnits="userSpaceOnUse">
<stop stop-color="white"/>
<stop offset="0.2169" stop-color="#FCFCFD"/>
<stop offset="0.3559" stop-color="#F4F4F8"/>
<stop offset="0.4731" stop-color="#E6E5EE"/>
<stop offset="0.5781" stop-color="#D1D0E0"/>
<stop offset="0.6751" stop-color="#B7B5CE"/>
<stop offset="0.7661" stop-color="#9793B8"/>
<stop offset="0.8525" stop-color="#706C9E"/>
<stop offset="0.9331" stop-color="#453F81"/>
<stop offset="1" stop-color="#1B1464"/>
</linearGradient>
<linearGradient id="paint11_linear" x1="92.8878" y1="45.5535" x2="92.8878" y2="38.3448" gradientUnits="userSpaceOnUse">
<stop stop-color="white"/>
<stop offset="0.2169" stop-color="#FCFCFD"/>
<stop offset="0.3559" stop-color="#F4F4F8"/>
<stop offset="0.4731" stop-color="#E6E5EE"/>
<stop offset="0.5781" stop-color="#D1D0E0"/>
<stop offset="0.6751" stop-color="#B7B5CE"/>
<stop offset="0.7661" stop-color="#9793B8"/>
<stop offset="0.8525" stop-color="#706C9E"/>
<stop offset="0.9331" stop-color="#453F81"/>
<stop offset="1" stop-color="#1B1464"/>
</linearGradient>
<linearGradient id="paint12_linear" x1="78.9992" y1="46.5789" x2="78.9992" y2="41.916" gradientUnits="userSpaceOnUse">
<stop stop-color="white"/>
<stop offset="0.2169" stop-color="#FCFCFD"/>
<stop offset="0.3559" stop-color="#F4F4F8"/>
<stop offset="0.4731" stop-color="#E6E5EE"/>
<stop offset="0.5781" stop-color="#D1D0E0"/>
<stop offset="0.6751" stop-color="#B7B5CE"/>
<stop offset="0.7661" stop-color="#9793B8"/>
<stop offset="0.8525" stop-color="#706C9E"/>
<stop offset="0.9331" stop-color="#453F81"/>
<stop offset="1" stop-color="#1B1464"/>
</linearGradient>
<linearGradient id="paint13_linear" x1="60.4464" y1="39.0546" x2="60.4464" y2="15.6327" gradientUnits="userSpaceOnUse">
<stop stop-color="white"/>
<stop offset="0.2169" stop-color="#FCFCFD"/>
<stop offset="0.3559" stop-color="#F4F4F8"/>
<stop offset="0.4731" stop-color="#E6E5EE"/>
<stop offset="0.5781" stop-color="#D1D0E0"/>
<stop offset="0.6751" stop-color="#B7B5CE"/>
<stop offset="0.7661" stop-color="#9793B8"/>
<stop offset="0.8525" stop-color="#706C9E"/>
<stop offset="0.9331" stop-color="#453F81"/>
<stop offset="1" stop-color="#1B1464"/>
</linearGradient>
<linearGradient id="paint14_linear" x1="64.4429" y1="44.7898" x2="64.4429" y2="33.8797" gradientUnits="userSpaceOnUse">
<stop stop-color="white"/>
<stop offset="0.2169" stop-color="#FCFCFD"/>
<stop offset="0.3559" stop-color="#F4F4F8"/>
<stop offset="0.4731" stop-color="#E6E5EE"/>
<stop offset="0.5781" stop-color="#D1D0E0"/>
<stop offset="0.6751" stop-color="#B7B5CE"/>
<stop offset="0.7661" stop-color="#9793B8"/>
<stop offset="0.8525" stop-color="#706C9E"/>
<stop offset="0.9331" stop-color="#453F81"/>
<stop offset="1" stop-color="#1B1464"/>
</linearGradient>
<linearGradient id="paint15_linear" x1="27.7161" y1="43.0005" x2="27.7161" y2="34.6203" gradientUnits="userSpaceOnUse">
<stop stop-color="white"/>
<stop offset="0.2169" stop-color="#FCFCFD"/>
<stop offset="0.3559" stop-color="#F4F4F8"/>
<stop offset="0.4731" stop-color="#E6E5EE"/>
<stop offset="0.5781" stop-color="#D1D0E0"/>
<stop offset="0.6751" stop-color="#B7B5CE"/>
<stop offset="0.7661" stop-color="#9793B8"/>
<stop offset="0.8525" stop-color="#706C9E"/>
<stop offset="0.9331" stop-color="#453F81"/>
<stop offset="1" stop-color="#1B1464"/>
</linearGradient>
<linearGradient id="paint16_linear" x1="159.4" y1="45.804" x2="150.249" y2="37.6013" gradientUnits="userSpaceOnUse">
<stop/>
<stop offset="1" stop-color="white"/>
</linearGradient>
<linearGradient id="paint17_linear" x1="159.496" y1="36.5645" x2="147.591" y2="25.8917" gradientUnits="userSpaceOnUse">
<stop/>
<stop offset="1" stop-color="white"/>
</linearGradient>
<linearGradient id="paint18_linear" x1="125.042" y1="20.7235" x2="119.552" y2="15.802" gradientUnits="userSpaceOnUse">
<stop/>
<stop offset="1" stop-color="white"/>
</linearGradient>
<linearGradient id="paint19_linear" x1="110.171" y1="50.1188" x2="105.196" y2="45.6593" gradientUnits="userSpaceOnUse">
<stop/>
<stop offset="1" stop-color="white"/>
</linearGradient>
<linearGradient id="paint20_linear" x1="110.649" y1="34.823" x2="108.385" y2="32.7939" gradientUnits="userSpaceOnUse">
<stop/>
<stop offset="1" stop-color="white"/>
</linearGradient>
<linearGradient id="paint21_linear" x1="186.298" y1="46.6879" x2="177.345" y2="38.6616" gradientUnits="userSpaceOnUse">
<stop/>
<stop offset="1" stop-color="white"/>
</linearGradient>
<linearGradient id="paint22_linear" x1="184.364" y1="60.2643" x2="176.418" y2="53.1411" gradientUnits="userSpaceOnUse">
<stop/>
<stop offset="1" stop-color="white"/>
</linearGradient>
<linearGradient id="paint23_linear" x1="201.105" y1="52.3628" x2="196.246" y2="48.007" gradientUnits="userSpaceOnUse">
<stop/>
<stop offset="1" stop-color="white"/>
</linearGradient>
<linearGradient id="paint24_linear" x1="199.571" y1="35.4548" x2="193.363" y2="29.8896" gradientUnits="userSpaceOnUse">
<stop/>
<stop offset="1" stop-color="white"/>
</linearGradient>
<linearGradient id="paint25_linear" x1="182.561" y1="11.9569" x2="172.878" y2="3.27692" gradientUnits="userSpaceOnUse">
<stop/>
<stop offset="1" stop-color="white"/>
</linearGradient>
<linearGradient id="paint26_linear" x1="205.119" y1="28.2573" x2="196.629" y2="20.6462" gradientUnits="userSpaceOnUse">
<stop/>
<stop offset="1" stop-color="white"/>
</linearGradient>
<linearGradient id="paint27_linear" x1="151.937" y1="13.8877" x2="149.527" y2="11.7266" gradientUnits="userSpaceOnUse">
<stop/>
<stop offset="1" stop-color="white"/>
</linearGradient>
<linearGradient id="paint28_linear" x1="72.6814" y1="15.9652" x2="55.7114" y2="0.752552" gradientUnits="userSpaceOnUse">
<stop/>
<stop offset="1" stop-color="white"/>
</linearGradient>
<linearGradient id="paint29_linear" x1="86.2805" y1="31.2951" x2="73.5698" y2="19.9007" gradientUnits="userSpaceOnUse">
<stop/>
<stop offset="1" stop-color="white"/>
</linearGradient>
<linearGradient id="paint30_linear" x1="33.294" y1="14.9552" x2="29.0982" y2="11.1939" gradientUnits="userSpaceOnUse">
<stop/>
<stop offset="1" stop-color="white"/>
</linearGradient>
<linearGradient id="paint31_linear" x1="12.2469" y1="33.8268" x2="5.89117" y2="28.1293" gradientUnits="userSpaceOnUse">
<stop/>
<stop offset="1" stop-color="white"/>
</linearGradient>
<linearGradient id="paint32_linear" x1="54.2558" y1="46.8191" x2="39.1436" y2="33.272" gradientUnits="userSpaceOnUse">
<stop/>
<stop offset="1" stop-color="white"/>
</linearGradient>
<linearGradient id="paint33_linear" x1="12.6492" y1="50.7263" x2="5.97195" y2="44.7405" gradientUnits="userSpaceOnUse">
<stop/>
<stop offset="1" stop-color="white"/>
</linearGradient>
<linearGradient id="paint34_linear" x1="59.0532" y1="55.6373" x2="46.338" y2="44.2387" gradientUnits="userSpaceOnUse">
<stop/>
<stop offset="1" stop-color="white"/>
</linearGradient>
<linearGradient id="paint35_linear" x1="88.001" y1="54.7899" x2="83.6917" y2="50.9269" gradientUnits="userSpaceOnUse">
<stop/>
<stop offset="1" stop-color="white"/>
</linearGradient>
</defs>
</svg>
