<svg width="218" height="93" viewBox="0 0 218 93" fill="none" xmlns="http://www.w3.org/2000/svg">
<path d="M66.6316 73.9894C66.6316 73.9894 71.5154 87.0858 71.5154 91.0073C73.4393 91.5993 79.359 91.9692 86.9806 92.1912C87.4986 92.1912 88.0906 92.1912 88.6085 92.1912C103.112 92.4871 123.017 92.1912 134.486 90.9333C135.226 90.8593 135.892 90.7853 136.558 90.7113C139.148 90.3414 141.146 89.9715 142.33 89.5275C142.33 89.5275 146.03 77.689 152.837 70.5119C153.947 69.328 155.205 68.2181 156.537 67.4043C156.241 66.7383 155.871 65.9984 155.501 65.3325C154.835 64.0007 154.169 62.7428 153.577 61.485C151.284 57.1195 149.064 53.272 147.806 51.1263C147.288 50.1644 146.918 49.5725 146.77 49.2765C146.696 49.2025 146.696 49.1285 146.696 49.1285L139.444 40.7676L121.759 38.5479L117.985 55.2697L111.843 68.1442L99.782 71.9177L86.0187 70.5858H85.6487H83.7988L74.8452 70.3639H71.7373L66.6316 73.9894Z" fill="#81D0D3"/>
<path d="M66.6316 73.9894C66.6316 73.9894 71.5154 87.0858 71.5154 91.0073C73.4393 91.5993 79.359 91.9692 86.9806 92.1912C87.4986 92.1912 88.0906 92.1912 88.6085 92.1912C103.112 92.4871 123.017 92.1912 134.486 90.9333C135.226 90.8593 135.892 90.7853 136.558 90.7113C139.148 90.3414 141.146 89.9715 142.33 89.5275C142.33 89.5275 146.03 77.689 152.837 70.5119C153.947 69.328 155.205 68.2181 156.537 67.4043C156.241 66.7383 155.871 65.9984 155.501 65.3325C154.835 64.0007 154.169 62.7428 153.577 61.485C151.284 57.1195 149.064 53.272 147.806 51.1263C147.288 50.1644 146.918 49.5725 146.77 49.2765C146.696 49.2025 146.696 49.1285 146.696 49.1285L139.444 40.7676L121.759 38.5479L117.985 55.2697L111.843 68.1442L99.782 71.9177L86.0187 70.5858H85.6487H83.7988L74.8452 70.3639H71.7373L66.6316 73.9894Z" fill="url(#paint0_radial)"/>
<path opacity="0.1" d="M66.6316 73.9894C66.6316 73.9894 71.5154 87.0858 71.5154 91.0073C73.4393 91.5993 79.359 91.9692 86.9806 92.1912C87.4986 92.1912 88.0906 92.1912 88.6085 92.1912C103.112 92.4871 123.017 92.1912 134.486 90.9333C135.226 90.8593 135.892 90.7853 136.558 90.7113C139.148 90.3414 141.146 89.9715 142.33 89.5275C142.33 89.5275 146.03 77.689 152.837 70.5119C153.947 69.328 155.205 68.2181 156.537 67.4043C156.241 66.7383 155.871 65.9984 155.501 65.3325C154.835 64.0007 154.169 62.7428 153.577 61.485C151.284 57.1195 149.064 53.272 147.806 51.1263C147.288 50.1644 146.918 49.5725 146.77 49.2765C146.696 49.2025 146.696 49.1285 146.696 49.1285L139.444 40.7676L121.759 38.5479L117.985 55.2697L111.843 68.1442L99.782 71.9177L86.0187 70.5858H85.6487H83.7988L74.8452 70.3639H71.7373L66.6316 73.9894Z" fill="url(#paint1_linear)"/>
<path opacity="0.2" d="M75.8071 74.8031C77.731 74.7291 82.9847 78.9466 86.0926 82.2762C86.8326 83.0161 87.3505 83.682 87.7945 84.2739C87.9425 84.4219 88.0165 84.5699 88.1645 84.6439C90.1624 86.1977 91.1983 75.913 96.8221 76.5789C102.816 77.2448 118.503 66.1462 118.503 66.1462C118.503 66.1462 123.683 60.4489 124.941 62.6686C126.199 64.8883 130.934 57.3413 132.488 55.2695C134.042 53.1978 134.19 61.4108 133.302 65.3323C133.228 65.4803 133.228 65.7022 133.228 65.7762C133.228 68.07 137.964 65.4803 141.96 63.7045C143.144 63.1866 144.254 62.7426 145.216 62.4467C145.512 62.3727 145.808 62.3727 146.03 62.3727C148.102 62.4467 149.951 64.7404 151.135 66.8121C152.097 68.5139 152.763 70.1417 152.763 70.2897C153.873 69.1059 155.131 67.996 156.463 67.1821C156.167 66.5162 155.797 65.7763 155.427 65.1103C154.761 63.7785 154.095 62.5207 153.503 61.2628C151.209 56.8974 148.99 53.0498 147.732 50.9041C147.214 49.9422 146.844 49.3503 146.696 49.0543C146.622 48.9804 146.622 48.9064 146.622 48.9064L139.37 40.5454L121.685 38.3257L117.911 55.0476L111.843 68.144L99.7819 71.9175L86.0186 70.5856H85.6486H83.7987L74.8451 70.3637C74.6231 72.7314 74.6971 74.8771 75.8071 74.8031Z" fill="#0071BC"/>
<path opacity="0.8" d="M127.753 86.1978C128.493 84.8659 129.751 76.283 132.34 73.0274C134.93 69.6978 142.7 64.7404 143.884 66.6642C145.068 68.588 144.846 71.1776 141.96 73.7673C139.148 76.357 139.222 81.5364 138.334 83.2381C137.668 84.348 135.67 88.4915 134.412 91.0072C135.152 90.9332 135.818 90.8592 136.484 90.7852C137.668 89.3054 139.222 87.0856 139.74 85.7538C140.554 83.5341 141.146 79.7606 144.92 75.0251C147.806 71.3996 149.286 68.366 151.135 67.1081C151.727 66.7382 152.319 66.5162 152.985 66.4422C153.799 66.3682 154.687 65.9983 155.501 65.4063C154.835 64.0745 154.169 62.8167 153.577 61.5588C151.432 61.4848 147.584 61.6328 146.104 62.5947C145.364 63.1126 143.736 63.5566 142.034 63.9265C139 64.5185 135.744 64.5925 136.41 63.7046C137.298 62.5207 143.514 53.9378 147.806 51.1261C147.288 50.1643 146.918 49.5723 146.77 49.2764C143.958 51.4221 140.11 54.6777 137.742 57.8593C136.336 59.709 134.782 62.6687 133.302 65.9243C130.269 72.3615 127.605 79.8345 127.235 81.9063C126.717 84.9399 127.087 87.5296 127.753 86.1978Z" fill="url(#paint2_linear)"/>
<path opacity="0.8" d="M83.8727 70.5117C84.9087 73.9893 85.6487 78.2807 86.0926 82.2762C86.6106 86.3457 86.8326 90.0453 86.9806 92.117C87.4986 92.117 88.0905 92.117 88.6085 92.117C88.6085 89.9713 88.4605 87.3816 88.1645 84.6439C87.5726 79.4646 86.6846 73.8413 86.0926 70.5117H85.7227H83.8727Z" fill="url(#paint3_linear)"/>
<path d="M213.81 52.088C212.701 52.8279 211.813 52.9019 211.073 52.458C209.667 51.6441 208.927 49.2764 208.927 47.0566C207.077 47.9445 205.005 52.6799 205.523 54.8996C206.115 55.7135 206.485 56.6015 206.781 57.5633C208.187 62.2248 205.967 67.6261 203.081 69.9938C199.899 72.5835 194.571 73.5453 193.683 71.2516C193.609 71.0297 193.535 70.7337 193.535 70.4377C191.686 71.9915 192.13 75.3211 190.946 77.9108C190.206 79.6126 186.062 81.4624 181.844 81.6103C179.698 81.6843 177.478 81.2404 175.702 80.1305C170.597 76.8749 175.998 70.6597 176.22 70.4377C176.22 70.4377 176.22 70.4377 176.146 70.3637C176.072 70.2897 175.998 70.2157 175.85 70.0677C175.776 69.9938 175.702 69.9198 175.628 69.8458C175.48 69.6978 175.406 69.5498 175.258 69.4758C175.184 69.4018 175.184 69.4018 175.11 69.3278C175.036 69.2539 175.036 69.2539 174.962 69.1799C174.962 69.1799 174.962 69.1799 174.888 69.1799C174.814 69.1059 174.74 69.0319 174.666 68.9579L174.592 68.8839C174.518 68.8099 174.444 68.8099 174.444 68.7359C174 68.366 173.482 67.996 173.038 67.7741C172.964 67.7001 172.816 67.6261 172.742 67.6261C172.594 67.5521 172.446 67.4781 172.298 67.4041C172.224 67.3301 172.076 67.3301 172.002 67.2561C171.484 67.0341 170.967 66.8122 170.449 66.6642C170.227 66.5902 169.931 66.5162 169.635 66.4422C169.487 66.4422 169.339 66.3682 169.265 66.3682C169.117 66.3682 169.043 66.2942 168.895 66.2942C168.599 66.2202 168.377 66.2203 168.081 66.2203C167.859 66.2203 167.711 66.2202 167.489 66.1462C166.971 66.1462 166.527 66.0723 166.009 66.1462C165.861 66.1462 165.713 66.1462 165.565 66.1462C165.417 66.1462 165.269 66.1462 165.195 66.1462C165.047 66.1462 164.899 66.1463 164.825 66.2203C164.233 66.2943 163.715 66.3682 163.271 66.5162C162.309 66.7382 161.569 67.0342 161.051 67.3301C159.793 68.144 157.277 68.6619 154.687 68.514C153.651 68.44 152.615 68.292 151.653 67.922C151.209 67.7741 150.839 67.6261 150.395 67.4041C149.952 67.1821 149.582 66.9601 149.212 66.7382C148.916 66.5162 148.62 66.2943 148.398 66.0723C147.214 65.0364 146.4 63.7786 145.882 62.5207V62.4467C145.142 60.6709 144.994 58.7472 145.068 57.3414C145.142 56.3055 144.92 55.1216 144.476 53.7898C144.254 53.1239 143.958 52.458 143.588 51.718C143.44 51.4221 143.292 51.2001 143.144 50.9042C143.144 50.9042 143.144 50.8302 143.07 50.7562C143.07 50.7562 142.996 50.6822 142.996 50.6082C142.256 49.2764 141.294 47.7965 140.11 46.3907C136.78 42.1732 130.268 40.7674 125.755 41.5813C121.241 42.3952 119.983 54.9736 120.057 61.3368C120.057 62.5947 120.057 63.6306 119.983 64.5925C119.761 68.366 119.095 69.6238 117.911 69.9938C117.393 70.2158 116.505 70.5117 115.543 70.9557C113.767 71.7695 111.621 72.8794 110.733 74.1372C109.401 76.061 107.922 79.0206 102.89 80.0565C100.078 80.6484 96.6741 79.4646 93.2703 77.7628C93.1223 77.6888 93.0483 77.6148 92.9003 77.6148C90.7544 76.5789 88.6825 75.3211 86.6106 74.1372C86.0926 73.8413 85.5746 73.5453 85.1307 73.3234L84.6127 73.4714C81.8748 74.2852 79.3589 74.8032 77.139 75.0992C72.9212 75.6911 69.5174 75.4691 66.8535 74.7292C64.4857 74.1373 62.7097 73.1014 61.3038 71.9915C57.382 68.7359 56.716 64.2965 56.494 63.1866C55.1621 63.1866 49.5384 62.3727 48.8724 60.005C41.1768 59.6351 35.0351 65.9983 33.9251 66.8862C32.7412 67.7001 31.1132 65.3324 27.8574 66.5902C28.8934 70.4377 27.7094 76.061 20.5317 77.9848C19.2738 78.3547 18.2378 78.3548 17.2019 78.0588C15.574 77.6888 14.3161 76.653 13.3541 75.4691C11.5042 73.2494 10.7642 70.5117 10.7642 70.5117C10.7642 70.5117 7.73036 70.5857 2.92059 66.8862C0.552702 65.0364 0.330721 62.4467 0.848697 60.005C1.44067 57.4893 2.92058 55.1956 3.88253 54.6037C1.21866 51.866 0.848705 40.4715 7.65638 39.5836C14.3901 38.6957 16.018 45.2809 16.3879 48.7584C20.9017 49.4983 26.3035 46.7607 29.7073 43.5791C33.1851 40.3975 32.8152 25.7473 32.8152 24.4155C32.8152 23.0836 32.3712 20.7899 31.4092 19.6061C30.4473 18.4222 34.9611 12.355 37.107 9.83929C39.2529 7.24962 42.0647 10.2832 42.8047 12.9469C45.4686 13.2429 51.8323 7.24961 52.5722 5.32585C52.7202 4.88191 53.2382 4.36397 53.9781 3.77204C56.568 1.62631 62.2658 -0.815381 66.6316 1.99627C72.1813 5.54783 76.917 16.4245 77.805 20.494C78.693 24.5635 75.9551 23.0096 75.9551 23.0096C75.9551 23.0096 76.7691 25.9693 76.2511 29.9648C75.7331 33.9603 72.3293 31.7406 72.6253 28.115C70.4054 24.7114 70.5534 18.4222 70.5534 18.1262C70.5534 17.8303 65.6696 9.98727 60.8598 8.58144C56.05 7.17562 53.0902 14.7967 52.6462 17.3863C52.2022 19.976 53.6822 24.2675 48.5764 25.4513C43.3967 26.7092 44.3586 17.9043 44.3586 17.9043C44.3586 17.9043 42.0647 18.2002 39.4008 20.494C36.737 22.7877 35.701 30.5567 35.405 34.9221C35.1091 39.2876 38.5129 44.023 38.5129 44.023C38.5129 44.023 40.5848 44.9849 41.5467 44.9109C42.5087 44.8369 45.2466 41.7293 47.3925 41.5073C49.4644 41.3594 55.2361 43.949 57.16 47.7226C57.234 47.8706 57.234 47.9445 57.308 48.0925H57.382C59.8979 48.0925 69.9614 49.7203 72.6992 51.5701C80.0249 45.1329 77.509 41.0634 77.213 38.6217C76.9171 36.18 77.731 35.7361 79.6549 35.3661C81.5048 34.9962 85.2787 42.7652 90.3104 46.3167C95.4162 49.8683 102.89 48.6104 104.666 48.0185C106.442 47.4266 111.547 45.4288 113.471 46.1687C112.509 43.2091 114.063 37.3638 115.617 34.1822C117.097 31.0746 123.091 32.4065 123.461 32.4805C121.389 26.6352 128.789 20.7899 133.968 21.6038C134.708 21.6778 135.374 21.9738 135.966 22.3437C140.924 25.4513 143.07 35.5881 144.18 40.0275V40.1015C146.844 40.2495 149.582 27.819 151.283 22.8617C152.985 17.9043 156.907 19.5321 157.869 19.5321C158.831 19.5321 161.273 17.3863 161.569 15.8325C161.939 14.2047 163.715 12.207 168.377 8.72943C173.038 5.25187 180.142 9.02539 180.734 9.7653C181.326 10.5792 184.138 13.6868 185.174 14.4267C186.21 15.1666 188.726 17.7563 186.432 20.9379C177.256 8.50746 165.861 15.7585 162.309 18.8662C158.757 21.9738 156.315 32.4805 157.055 38.7697C157.795 44.9849 165.935 47.3526 169.487 48.4625C173.038 49.4984 186.802 51.7921 189.17 51.7921C189.17 51.2741 189.392 50.6822 189.762 50.0902C190.354 49.1284 191.242 48.3145 192.203 48.2405C192.425 48.2405 192.647 48.2405 192.869 48.3885C194.349 49.0544 196.421 51.7921 197.531 55.3436C201.083 52.088 199.603 49.0544 198.197 45.9468C198.049 45.6508 197.901 45.3548 197.827 45.0589C196.347 41.5813 200.343 39.5096 200.343 39.5096C200.343 39.5096 199.751 39.5096 198.863 39.0656C197.679 38.4737 195.977 37.2159 194.497 34.2562C192.278 29.7428 195.385 25.3034 199.603 23.7495C200.269 23.5276 200.861 23.3796 201.527 23.3056C204.561 22.9356 207.299 25.3033 208.853 28.411C209.889 30.4827 210.407 32.9244 210.111 34.9962C210.925 33.8123 215.216 34.9961 215.586 37.2899C215.734 37.9558 215.512 38.6957 214.92 39.5096C220.396 43.2091 217.066 49.8683 213.81 52.088Z" fill="#D9F7FF"/>
<path d="M213.81 52.088C212.701 52.8279 211.813 52.9019 211.073 52.458C209.667 51.6441 208.927 49.2764 208.927 47.0566C207.077 47.9445 205.005 52.6799 205.523 54.8996C206.115 55.7135 206.485 56.6015 206.781 57.5633C208.187 62.2248 205.967 67.6261 203.081 69.9938C199.899 72.5835 194.571 73.5453 193.683 71.2516C193.609 71.0297 193.535 70.7337 193.535 70.4377C191.686 71.9915 192.13 75.3211 190.946 77.9108C190.206 79.6126 186.062 81.4624 181.844 81.6103C179.698 81.6843 177.478 81.2404 175.702 80.1305C170.597 76.8749 175.998 70.6597 176.22 70.4377C176.22 70.4377 176.22 70.4377 176.146 70.3637C176.072 70.2897 175.998 70.2157 175.85 70.0677C175.776 69.9938 175.702 69.9198 175.628 69.8458C175.48 69.6978 175.406 69.5498 175.258 69.4758C175.184 69.4018 175.184 69.4018 175.11 69.3278C175.036 69.2539 175.036 69.2539 174.962 69.1799C174.962 69.1799 174.962 69.1799 174.888 69.1799C174.814 69.1059 174.74 69.0319 174.666 68.9579L174.592 68.8839C174.518 68.8099 174.444 68.8099 174.444 68.7359C174 68.366 173.482 67.996 173.038 67.7741C172.964 67.7001 172.816 67.6261 172.742 67.6261C172.594 67.5521 172.446 67.4781 172.298 67.4041C172.224 67.3301 172.076 67.3301 172.002 67.2561C171.484 67.0341 170.967 66.8122 170.449 66.6642C170.227 66.5902 169.931 66.5162 169.635 66.4422C169.487 66.4422 169.339 66.3682 169.265 66.3682C169.117 66.3682 169.043 66.2942 168.895 66.2942C168.599 66.2202 168.377 66.2203 168.081 66.2203C167.859 66.2203 167.711 66.2202 167.489 66.1462C166.971 66.1462 166.527 66.0723 166.009 66.1462C165.861 66.1462 165.713 66.1462 165.565 66.1462C165.417 66.1462 165.269 66.1462 165.195 66.1462C165.047 66.1462 164.899 66.1463 164.825 66.2203C164.233 66.2943 163.715 66.3682 163.271 66.5162C162.309 66.7382 161.569 67.0342 161.051 67.3301C159.793 68.144 157.277 68.6619 154.687 68.514C153.651 68.44 152.615 68.292 151.653 67.922C151.209 67.7741 150.839 67.6261 150.395 67.4041C149.952 67.1821 149.582 66.9601 149.212 66.7382C148.916 66.5162 148.62 66.2943 148.398 66.0723C147.214 65.0364 146.4 63.7786 145.882 62.5207V62.4467C145.142 60.6709 144.994 58.7472 145.068 57.3414C145.142 56.3055 144.92 55.1216 144.476 53.7898C144.254 53.1239 143.958 52.458 143.588 51.718C143.44 51.4221 143.292 51.2001 143.144 50.9042C143.144 50.9042 143.144 50.8302 143.07 50.7562C143.07 50.7562 142.996 50.6822 142.996 50.6082C142.256 49.2764 141.294 47.7965 140.11 46.3907C136.78 42.1732 130.268 40.7674 125.755 41.5813C121.241 42.3952 119.983 54.9736 120.057 61.3368C120.057 62.5947 120.057 63.6306 119.983 64.5925C119.761 68.366 119.095 69.6238 117.911 69.9938C117.393 70.2158 116.505 70.5117 115.543 70.9557C113.767 71.7695 111.621 72.8794 110.733 74.1372C109.401 76.061 107.922 79.0206 102.89 80.0565C100.078 80.6484 96.6741 79.4646 93.2703 77.7628C93.1223 77.6888 93.0483 77.6148 92.9003 77.6148C90.7544 76.5789 88.6825 75.3211 86.6106 74.1372C86.0926 73.8413 85.5746 73.5453 85.1307 73.3234L84.6127 73.4714C81.8748 74.2852 79.3589 74.8032 77.139 75.0992C72.9212 75.6911 69.5174 75.4691 66.8535 74.7292C64.4857 74.1373 62.7097 73.1014 61.3038 71.9915C57.382 68.7359 56.716 64.2965 56.494 63.1866C55.1621 63.1866 49.5384 62.3727 48.8724 60.005C41.1768 59.6351 35.0351 65.9983 33.9251 66.8862C32.7412 67.7001 31.1132 65.3324 27.8574 66.5902C28.8934 70.4377 27.7094 76.061 20.5317 77.9848C19.2738 78.3547 18.2378 78.3548 17.2019 78.0588C15.574 77.6888 14.3161 76.653 13.3541 75.4691C11.5042 73.2494 10.7642 70.5117 10.7642 70.5117C10.7642 70.5117 7.73036 70.5857 2.92059 66.8862C0.552702 65.0364 0.330721 62.4467 0.848697 60.005C1.44067 57.4893 2.92058 55.1956 3.88253 54.6037C1.21866 51.866 0.848705 40.4715 7.65638 39.5836C14.3901 38.6957 16.018 45.2809 16.3879 48.7584C20.9017 49.4983 26.3035 46.7607 29.7073 43.5791C33.1851 40.3975 32.8152 25.7473 32.8152 24.4155C32.8152 23.0836 32.3712 20.7899 31.4092 19.6061C30.4473 18.4222 34.9611 12.355 37.107 9.83929C39.2529 7.24962 42.0647 10.2832 42.8047 12.9469C45.4686 13.2429 51.8323 7.24961 52.5722 5.32585C52.7202 4.88191 53.2382 4.36397 53.9781 3.77204C56.568 1.62631 62.2658 -0.815381 66.6316 1.99627C72.1813 5.54783 76.917 16.4245 77.805 20.494C78.693 24.5635 75.9551 23.0096 75.9551 23.0096C75.9551 23.0096 76.7691 25.9693 76.2511 29.9648C75.7331 33.9603 72.3293 31.7406 72.6253 28.115C70.4054 24.7114 70.5534 18.4222 70.5534 18.1262C70.5534 17.8303 65.6696 9.98727 60.8598 8.58144C56.05 7.17562 53.0902 14.7967 52.6462 17.3863C52.2022 19.976 53.6822 24.2675 48.5764 25.4513C43.3967 26.7092 44.3586 17.9043 44.3586 17.9043C44.3586 17.9043 42.0647 18.2002 39.4008 20.494C36.737 22.7877 35.701 30.5567 35.405 34.9221C35.1091 39.2876 38.5129 44.023 38.5129 44.023C38.5129 44.023 40.5848 44.9849 41.5467 44.9109C42.5087 44.8369 45.2466 41.7293 47.3925 41.5073C49.4644 41.3594 55.2361 43.949 57.16 47.7226C57.234 47.8706 57.234 47.9445 57.308 48.0925H57.382C59.8979 48.0925 69.9614 49.7203 72.6992 51.5701C80.0249 45.1329 77.509 41.0634 77.213 38.6217C76.9171 36.18 77.731 35.7361 79.6549 35.3661C81.5048 34.9962 85.2787 42.7652 90.3104 46.3167C95.4162 49.8683 102.89 48.6104 104.666 48.0185C106.442 47.4266 111.547 45.4288 113.471 46.1687C112.509 43.2091 114.063 37.3638 115.617 34.1822C117.097 31.0746 123.091 32.4065 123.461 32.4805C121.389 26.6352 128.789 20.7899 133.968 21.6038C134.708 21.6778 135.374 21.9738 135.966 22.3437C140.924 25.4513 143.07 35.5881 144.18 40.0275V40.1015C146.844 40.2495 149.582 27.819 151.283 22.8617C152.985 17.9043 156.907 19.5321 157.869 19.5321C158.831 19.5321 161.273 17.3863 161.569 15.8325C161.939 14.2047 163.715 12.207 168.377 8.72943C173.038 5.25187 180.142 9.02539 180.734 9.7653C181.326 10.5792 184.138 13.6868 185.174 14.4267C186.21 15.1666 188.726 17.7563 186.432 20.9379C177.256 8.50746 165.861 15.7585 162.309 18.8662C158.757 21.9738 156.315 32.4805 157.055 38.7697C157.795 44.9849 165.935 47.3526 169.487 48.4625C173.038 49.4984 186.802 51.7921 189.17 51.7921C189.17 51.2741 189.392 50.6822 189.762 50.0902C190.354 49.1284 191.242 48.3145 192.203 48.2405C192.425 48.2405 192.647 48.2405 192.869 48.3885C194.349 49.0544 196.421 51.7921 197.531 55.3436C201.083 52.088 199.603 49.0544 198.197 45.9468C198.049 45.6508 197.901 45.3548 197.827 45.0589C196.347 41.5813 200.343 39.5096 200.343 39.5096C200.343 39.5096 199.751 39.5096 198.863 39.0656C197.679 38.4737 195.977 37.2159 194.497 34.2562C192.278 29.7428 195.385 25.3034 199.603 23.7495C200.269 23.5276 200.861 23.3796 201.527 23.3056C204.561 22.9356 207.299 25.3033 208.853 28.411C209.889 30.4827 210.407 32.9244 210.111 34.9962C210.925 33.8123 215.216 34.9961 215.586 37.2899C215.734 37.9558 215.512 38.6957 214.92 39.5096C220.396 43.2091 217.066 49.8683 213.81 52.088Z" fill="url(#paint4_radial)"/>
<path opacity="0.1" d="M213.81 52.088C212.701 52.8279 211.813 52.9019 211.073 52.458C209.667 51.6441 208.927 49.2764 208.927 47.0566C207.077 47.9445 205.005 52.6799 205.523 54.8996C206.115 55.7135 206.485 56.6015 206.781 57.5633C208.187 62.2248 205.967 67.6261 203.081 69.9938C199.899 72.5835 194.571 73.5453 193.683 71.2516C193.609 71.0297 193.535 70.7337 193.535 70.4377C191.686 71.9915 192.13 75.3211 190.946 77.9108C190.206 79.6126 186.062 81.4624 181.844 81.6103C179.698 81.6843 177.478 81.2404 175.702 80.1305C170.597 76.8749 175.998 70.6597 176.22 70.4377C176.22 70.4377 176.22 70.4377 176.146 70.3637C176.072 70.2897 175.998 70.2157 175.85 70.0677C175.776 69.9938 175.702 69.9198 175.628 69.8458C175.48 69.6978 175.406 69.5498 175.258 69.4758C175.184 69.4018 175.184 69.4018 175.11 69.3278C175.036 69.2539 175.036 69.2539 174.962 69.1799C174.962 69.1799 174.962 69.1799 174.888 69.1799C174.814 69.1059 174.74 69.0319 174.666 68.9579L174.592 68.8839C174.518 68.8099 174.444 68.8099 174.444 68.7359C174 68.366 173.482 67.996 173.038 67.7741C172.964 67.7001 172.816 67.6261 172.742 67.6261C172.594 67.5521 172.446 67.4781 172.298 67.4041C172.224 67.3301 172.076 67.3301 172.002 67.2561C171.484 67.0341 170.967 66.8122 170.449 66.6642C170.227 66.5902 169.931 66.5162 169.635 66.4422C169.487 66.4422 169.339 66.3682 169.265 66.3682C169.117 66.3682 169.043 66.2942 168.895 66.2942C168.599 66.2202 168.377 66.2203 168.081 66.2203C167.859 66.2203 167.711 66.2202 167.489 66.1462C166.971 66.1462 166.527 66.0723 166.009 66.1462C165.861 66.1462 165.713 66.1462 165.565 66.1462C165.417 66.1462 165.269 66.1462 165.195 66.1462C165.047 66.1462 164.899 66.1463 164.825 66.2203C164.233 66.2943 163.715 66.3682 163.271 66.5162C162.309 66.7382 161.569 67.0342 161.051 67.3301C159.793 68.144 157.277 68.6619 154.687 68.514C153.651 68.44 152.615 68.292 151.653 67.922C151.209 67.7741 150.839 67.6261 150.395 67.4041C149.952 67.1821 149.582 66.9601 149.212 66.7382C148.916 66.5162 148.62 66.2943 148.398 66.0723C147.214 65.0364 146.4 63.7786 145.882 62.5207V62.4467C145.142 60.6709 144.994 58.7472 145.068 57.3414C145.142 56.3055 144.92 55.1216 144.476 53.7898C144.254 53.1239 143.958 52.458 143.588 51.718C143.44 51.4221 143.292 51.2001 143.144 50.9042C143.144 50.9042 143.144 50.8302 143.07 50.7562C143.07 50.7562 142.996 50.6822 142.996 50.6082C142.256 49.2764 141.294 47.7965 140.11 46.3907C136.78 42.1732 130.268 40.7674 125.755 41.5813C121.241 42.3952 119.983 54.9736 120.057 61.3368C120.057 62.5947 120.057 63.6306 119.983 64.5925C119.761 68.366 119.095 69.6238 117.911 69.9938C117.393 70.2158 116.505 70.5117 115.543 70.9557C113.767 71.7695 111.621 72.8794 110.733 74.1372C109.401 76.061 107.922 79.0206 102.89 80.0565C100.078 80.6484 96.6741 79.4646 93.2703 77.7628C93.1223 77.6888 93.0483 77.6148 92.9003 77.6148C90.7544 76.5789 88.6825 75.3211 86.6106 74.1372C86.0926 73.8413 85.5746 73.5453 85.1307 73.3234L84.6127 73.4714C81.8748 74.2852 79.3589 74.8032 77.139 75.0992C72.9212 75.6911 69.5174 75.4691 66.8535 74.7292C64.4857 74.1373 62.7097 73.1014 61.3038 71.9915C57.382 68.7359 56.716 64.2965 56.494 63.1866C55.1621 63.1866 49.5384 62.3727 48.8724 60.005C41.1768 59.6351 35.0351 65.9983 33.9251 66.8862C32.7412 67.7001 31.1132 65.3324 27.8574 66.5902C28.8934 70.4377 27.7094 76.061 20.5317 77.9848C19.2738 78.3547 18.2378 78.3548 17.2019 78.0588C15.574 77.6888 14.3161 76.653 13.3541 75.4691C11.5042 73.2494 10.7642 70.5117 10.7642 70.5117C10.7642 70.5117 7.73036 70.5857 2.92059 66.8862C0.552702 65.0364 0.330721 62.4467 0.848697 60.005C1.44067 57.4893 2.92058 55.1956 3.88253 54.6037C1.21866 51.866 0.848705 40.4715 7.65638 39.5836C14.3901 38.6957 16.018 45.2809 16.3879 48.7584C20.9017 49.4983 26.3035 46.7607 29.7073 43.5791C33.1851 40.3975 32.8152 25.7473 32.8152 24.4155C32.8152 23.0836 32.3712 20.7899 31.4092 19.6061C30.4473 18.4222 34.9611 12.355 37.107 9.83929C39.2529 7.24962 42.0647 10.2832 42.8047 12.9469C45.4686 13.2429 51.8323 7.24961 52.5722 5.32585C52.7202 4.88191 53.2382 4.36397 53.9781 3.77204C56.568 1.62631 62.2658 -0.815381 66.6316 1.99627C72.1813 5.54783 76.917 16.4245 77.805 20.494C78.693 24.5635 75.9551 23.0096 75.9551 23.0096C75.9551 23.0096 76.7691 25.9693 76.2511 29.9648C75.7331 33.9603 72.3293 31.7406 72.6253 28.115C70.4054 24.7114 70.5534 18.4222 70.5534 18.1262C70.5534 17.8303 65.6696 9.98727 60.8598 8.58144C56.05 7.17562 53.0902 14.7967 52.6462 17.3863C52.2022 19.976 53.6822 24.2675 48.5764 25.4513C43.3967 26.7092 44.3586 17.9043 44.3586 17.9043C44.3586 17.9043 42.0647 18.2002 39.4008 20.494C36.737 22.7877 35.701 30.5567 35.405 34.9221C35.1091 39.2876 38.5129 44.023 38.5129 44.023C38.5129 44.023 40.5848 44.9849 41.5467 44.9109C42.5087 44.8369 45.2466 41.7293 47.3925 41.5073C49.4644 41.3594 55.2361 43.949 57.16 47.7226C57.234 47.8706 57.234 47.9445 57.308 48.0925H57.382C59.8979 48.0925 69.9614 49.7203 72.6992 51.5701C80.0249 45.1329 77.509 41.0634 77.213 38.6217C76.9171 36.18 77.731 35.7361 79.6549 35.3661C81.5048 34.9962 85.2787 42.7652 90.3104 46.3167C95.4162 49.8683 102.89 48.6104 104.666 48.0185C106.442 47.4266 111.547 45.4288 113.471 46.1687C112.509 43.2091 114.063 37.3638 115.617 34.1822C117.097 31.0746 123.091 32.4065 123.461 32.4805C121.389 26.6352 128.789 20.7899 133.968 21.6038C134.708 21.6778 135.374 21.9738 135.966 22.3437C140.924 25.4513 143.07 35.5881 144.18 40.0275V40.1015C146.844 40.2495 149.582 27.819 151.283 22.8617C152.985 17.9043 156.907 19.5321 157.869 19.5321C158.831 19.5321 161.273 17.3863 161.569 15.8325C161.939 14.2047 163.715 12.207 168.377 8.72943C173.038 5.25187 180.142 9.02539 180.734 9.7653C181.326 10.5792 184.138 13.6868 185.174 14.4267C186.21 15.1666 188.726 17.7563 186.432 20.9379C177.256 8.50746 165.861 15.7585 162.309 18.8662C158.757 21.9738 156.315 32.4805 157.055 38.7697C157.795 44.9849 165.935 47.3526 169.487 48.4625C173.038 49.4984 186.802 51.7921 189.17 51.7921C189.17 51.2741 189.392 50.6822 189.762 50.0902C190.354 49.1284 191.242 48.3145 192.203 48.2405C192.425 48.2405 192.647 48.2405 192.869 48.3885C194.349 49.0544 196.421 51.7921 197.531 55.3436C201.083 52.088 199.603 49.0544 198.197 45.9468C198.049 45.6508 197.901 45.3548 197.827 45.0589C196.347 41.5813 200.343 39.5096 200.343 39.5096C200.343 39.5096 199.751 39.5096 198.863 39.0656C197.679 38.4737 195.977 37.2159 194.497 34.2562C192.278 29.7428 195.385 25.3034 199.603 23.7495C200.269 23.5276 200.861 23.3796 201.527 23.3056C204.561 22.9356 207.299 25.3033 208.853 28.411C209.889 30.4827 210.407 32.9244 210.111 34.9962C210.925 33.8123 215.216 34.9961 215.586 37.2899C215.734 37.9558 215.512 38.6957 214.92 39.5096C220.396 43.2091 217.066 49.8683 213.81 52.088Z" fill="url(#paint5_linear)"/>
<path opacity="0.2" d="M3.88259 54.6037C3.88259 54.6037 5.36254 50.1643 11.7262 52.532C18.0159 54.8257 16.832 61.3369 16.832 61.3369C16.832 61.3369 25.3416 60.523 27.4135 53.6419C29.4114 46.7607 38.513 44.0231 38.513 44.0231C31.6313 39.8796 35.9971 16.4985 37.329 14.7227C38.5869 12.9469 39.1049 16.3505 39.1049 16.3505C42.5088 15.2406 42.8787 13.0209 42.8787 13.0209C42.1388 10.3572 39.3269 7.32362 37.181 9.9133C35.0351 12.503 30.5213 18.5702 31.4833 19.6801C32.4453 20.8639 32.8892 23.1576 32.8892 24.4895C32.8892 25.8213 33.2592 40.3975 29.7813 43.6531C26.3035 46.8347 20.9758 49.4984 16.388 48.8325C16.018 45.3549 14.4641 38.7697 7.65643 39.6576C0.848759 40.3975 1.21871 51.7921 3.88259 54.6037Z" fill="#0071BC"/>
<path opacity="0.2" d="M48.5025 25.3774C53.6822 24.1195 52.1283 19.8281 52.5723 17.2384C53.0163 14.6487 55.9761 7.02764 60.7859 8.43346C65.5956 9.83929 70.4794 17.6823 70.4794 17.9783C70.4794 18.2743 70.3314 24.5635 72.5513 27.967C72.2553 31.5926 75.6591 33.8123 76.1771 29.8168C76.6951 25.8213 75.8812 22.8617 75.8812 22.8617C75.8812 22.8617 72.5513 26.0433 72.5513 21.6038C72.5513 17.1644 70.7014 7.3236 63.3757 4.80792C56.0501 2.29223 46.8745 22.4177 44.2847 17.8303C44.2847 17.8303 43.3227 26.6352 48.5025 25.3774Z" fill="#0071BC"/>
<path opacity="0.2" d="M42.8047 12.8729C42.8047 12.8729 44.5066 15.0926 46.8745 14.6487C49.1684 14.2787 53.8302 4.06797 53.9782 3.62402C53.2382 4.21595 52.7942 4.80788 52.5723 5.17783C51.7583 7.17558 45.4686 13.1688 42.8047 12.8729Z" fill="#0071BC"/>
<path opacity="0.2" d="M57.3821 48.0185L58.788 50.3122L61.6739 53.5678C61.6739 53.5678 68.1115 63.5566 68.9255 64.2225C69.7395 64.9624 72.5514 65.4063 72.5514 65.4063C72.5514 65.4063 79.285 66.7381 81.8009 67.4041C84.3168 68.07 88.3126 67.1821 91.2724 66.8861C94.2323 66.5902 101.706 65.4063 103.482 64.7404C105.184 64.0005 107.256 62.4467 107.256 62.4467C107.256 62.4467 113.101 55.2696 113.249 53.5678C113.397 51.866 113.545 46.0207 113.545 46.0207C111.621 45.2808 106.516 47.2786 104.74 47.8705C102.964 48.4624 95.4902 49.7203 90.3845 46.1687C85.2787 42.6172 81.5789 34.8481 79.729 35.2181C77.8791 35.588 77.0651 35.958 77.2871 38.4737C77.5831 40.9154 80.025 45.0589 72.7733 51.4221C69.9615 49.5723 59.824 48.0185 57.3821 48.0185Z" fill="#0071BC"/>
<path opacity="0.2" d="M194.423 33.8863C195.903 36.8459 197.605 38.1038 198.789 38.6957L200.269 39.1396C200.269 39.1396 206.485 38.1778 204.265 32.0365C204.265 32.0365 200.269 36.9199 197.975 33.3684C195.681 29.8168 196.273 25.8953 199.455 23.4536C195.311 24.9334 192.203 29.4469 194.423 33.8863Z" fill="#0071BC"/>
<path opacity="0.2" d="M207.743 38.4737C212.775 35.662 214.476 35.884 215.66 36.9939C215.216 34.6262 210.999 33.5163 210.185 34.7001C210.481 32.5544 209.963 30.1867 208.927 28.115C208.927 28.4849 209.963 33.8863 207.743 38.4737Z" fill="#0071BC"/>
<path opacity="0.2" d="M205.597 54.8996C205.079 52.6799 207.077 47.9445 209.001 47.0566C209.001 49.2024 209.741 51.6441 211.147 52.4579C211.073 52.162 208.853 45.9468 210.629 43.6531C207.077 45.6508 203.155 51.2001 202.785 55.0476C204.191 55.4176 205.745 56.3795 206.855 57.5633C206.559 56.6754 206.115 55.7875 205.597 54.8996Z" fill="#0071BC"/>
<path opacity="0.2" d="M197.087 58.3033C197.383 52.828 193.165 48.3146 192.869 48.0186C194.349 48.6845 196.421 51.4222 197.531 54.9737C201.083 51.7181 199.603 48.6845 198.197 45.5769C202.859 51.7181 199.381 54.7518 197.087 58.3033Z" fill="#0071BC"/>
<path opacity="0.2" d="M144.106 39.8796C144.328 40.8415 145.882 43.6532 145.882 43.6532L154.983 46.2428L159.127 47.7966L164.677 51.4222L170.153 58.3773L177.626 61.1889H179.328C179.328 61.1889 183.768 59.5611 186.506 58.5993C186.062 59.9311 185.84 60.893 185.84 60.893C185.84 60.893 191.76 62.0029 191.094 60.893C190.428 59.7831 189.096 53.5679 189.688 49.6464C189.318 50.2383 189.096 50.8302 189.096 51.3482C186.654 51.3482 172.965 49.1285 169.413 48.0186C165.861 46.9087 157.647 44.615 156.981 38.3258C156.241 32.0366 158.683 21.6039 162.235 18.4223C165.787 15.3147 177.182 7.9896 186.358 20.494C188.652 17.3124 186.21 14.7227 185.1 13.9828C184.064 13.2429 181.252 10.1353 180.66 9.32143C179.994 8.50753 172.891 4.808 168.303 8.28556C163.641 11.7631 161.865 13.8349 161.569 15.3887C161.199 17.0165 158.831 19.0882 157.869 19.0882C156.907 19.0882 152.985 17.3864 151.284 22.4178C149.582 27.5972 146.77 40.0276 144.106 39.8796Z" fill="#0071BC"/>
<path opacity="0.2" d="M193.757 71.2516C193.683 70.7337 193.609 70.5117 193.609 70.5117C193.609 70.8077 193.683 71.0297 193.757 71.2516Z" fill="#0071BC"/>
<path opacity="0.2" d="M181.992 81.6843C186.21 81.5364 190.354 79.6866 191.094 77.9848C192.278 75.3951 191.834 72.0656 193.683 70.5118C193.683 70.5118 194.275 68.144 195.311 67.0342C191.39 68.292 190.206 72.2875 189.762 74.2853C189.244 76.209 190.206 80.4265 181.992 81.6843Z" fill="#0071BC"/>
<path opacity="0.2" d="M123.461 32.3326C123.461 32.3326 127.383 34.9963 130.342 30.9268C130.342 30.9268 126.347 31.3707 127.013 28.0411C127.605 24.7115 130.416 21.8259 133.968 21.4559C128.789 20.642 121.389 26.4133 123.461 32.3326Z" fill="#0071BC"/>
<path opacity="0.2" d="M148.472 66.0722C148.768 66.2941 148.99 66.5161 149.36 66.7381C153.059 69.4017 158.979 68.7358 161.199 67.33C163.419 65.9242 171.484 64.4444 176.368 70.3636C175.998 69.9197 170.227 62.8166 163.493 64.6663C156.611 66.7381 150.469 67.108 148.472 66.0722Z" fill="#0071BC"/>
<path opacity="0.2" d="M115.617 71.0296C116.579 70.5856 117.467 70.2896 117.985 70.0677C119.391 69.5497 120.205 67.774 120.131 61.4108C120.057 55.0476 121.315 42.4691 125.829 41.6552C130.343 40.8413 136.854 42.1732 140.184 46.4646C141.368 47.9444 142.33 49.4242 143.144 50.8301C142.478 49.5722 137.15 39.5835 129.381 39.5835C121.019 39.5835 119.983 44.7628 119.835 48.3144C119.687 51.718 119.317 68.9578 115.617 71.0296Z" fill="#0071BC"/>
<path opacity="0.2" d="M61.3038 71.9915C65.2256 75.1731 72.2553 77.1708 85.1307 73.3973C87.5726 74.7291 90.2365 76.357 92.9003 77.6888C92.9003 77.6888 86.3146 71.4735 84.3907 71.9175C82.6148 72.3614 68.6295 75.3211 61.3038 71.9915Z" fill="#0071BC"/>
<path opacity="0.2" d="M17.2019 78.0589C18.1639 78.2809 19.2738 78.2809 20.5318 77.9849C27.6354 75.9872 28.8934 70.4379 27.8574 66.5904C31.1133 65.4065 32.7412 67.7002 33.9252 66.8863C35.1091 66.0724 41.1768 59.7092 48.9464 60.0052C49.5384 62.3729 55.2361 63.1868 56.5681 63.1868C56.5681 63.1868 50.0564 61.189 49.8344 58.5993C49.6864 56.0096 43.0267 57.9334 40.7328 59.4132C38.439 60.8931 34.7391 65.4805 32.7412 65.2585C30.7433 65.0365 26.4515 65.1105 26.6735 66.2944C26.8215 67.7002 28.7454 76.2832 17.2019 78.0589Z" fill="#0071BC"/>
<path opacity="0.2" d="M2.92059 66.8863C7.73036 70.6598 10.7642 70.5118 10.7642 70.5118C10.7642 70.5118 11.5042 73.2495 13.3541 75.4692C12.9841 74.0634 12.3921 71.3997 13.1321 69.9199C-0.631251 70.2899 0.848697 60.0051 0.848697 60.0051C0.330721 62.3728 0.552702 65.0365 2.92059 66.8863Z" fill="#0071BC"/>
<path d="M187.912 58.1553C187.912 58.1553 177.774 50.2383 167.489 50.3123C171.115 52.976 178.366 58.8952 179.402 61.1889C184.286 61.1889 185.914 60.893 185.914 60.893C185.914 60.893 187.394 58.5992 187.912 58.1553Z" fill="#81D0D3"/>
<path opacity="0.1" d="M187.912 58.1553C187.912 58.1553 177.774 50.2383 167.489 50.3123C171.115 52.976 178.366 58.8952 179.402 61.1889C184.286 61.1889 185.914 60.893 185.914 60.893C185.914 60.893 187.394 58.5992 187.912 58.1553Z" fill="url(#paint6_linear)"/>
<path d="M177.7 61.2629C177.7 61.2629 165.269 45.4288 145.882 43.7271C145.882 43.7271 148.102 48.5365 149.212 48.0925C150.395 47.6486 155.279 45.9468 158.535 48.2405C161.791 50.5342 168.747 58.9691 168.895 59.6351C171.484 60.375 177.7 61.2629 177.7 61.2629Z" fill="#81D0D3"/>
<path opacity="0.1" d="M177.7 61.2629C177.7 61.2629 165.269 45.4288 145.882 43.7271C145.882 43.7271 148.102 48.5365 149.212 48.0925C150.395 47.6486 155.279 45.9468 158.535 48.2405C161.791 50.5342 168.747 58.9691 168.895 59.6351C171.484 60.375 177.7 61.2629 177.7 61.2629Z" fill="url(#paint7_linear)"/>
<path d="M112.879 47.2786C112.879 47.2786 114.063 55.9355 112.139 57.7853C110.215 59.635 106.442 63.7045 106.516 62.5207C106.516 61.2628 108.07 49.0543 112.879 47.2786Z" fill="#81D0D3"/>
<path opacity="0.1" d="M112.879 47.2786C112.879 47.2786 114.063 55.9355 112.139 57.7853C110.215 59.635 106.442 63.7045 106.516 62.5207C106.516 61.2628 108.07 49.0543 112.879 47.2786Z" fill="url(#paint8_linear)"/>
<path d="M107.552 49.9424C107.552 49.9424 103.112 60.2271 103.482 64.7405C99.782 66.7383 91.7904 67.1822 91.3464 66.8862C91.2724 66.8862 98.4501 53.4939 107.552 49.9424Z" fill="#81D0D3"/>
<path opacity="0.1" d="M107.552 49.9424C107.552 49.9424 103.112 60.2271 103.482 64.7405C99.782 66.7383 91.7904 67.1822 91.3464 66.8862C91.2724 66.8862 98.4501 53.4939 107.552 49.9424Z" fill="url(#paint9_linear)"/>
<path d="M97.1181 54.2337C97.1181 54.2337 86.0927 47.7965 75.1412 52.4579C77.5091 53.0498 83.1328 56.3054 83.1328 56.3054C83.1328 56.3054 92.1604 55.0476 93.7143 55.4915C95.3422 54.9736 97.1181 54.2337 97.1181 54.2337Z" fill="#81D0D3"/>
<path opacity="0.1" d="M97.1181 54.2337C97.1181 54.2337 86.0927 47.7965 75.1412 52.4579C77.5091 53.0498 83.1328 56.3054 83.1328 56.3054C83.1328 56.3054 92.1604 55.0476 93.7143 55.4915C95.3422 54.9736 97.1181 54.2337 97.1181 54.2337Z" fill="url(#paint10_linear)"/>
<path d="M91.2724 57.1934C91.2724 57.1934 81.8009 63.1867 81.8009 67.4041C79.655 66.5902 72.5513 65.4064 72.5513 65.4064C72.5513 65.4064 80.173 54.6777 91.2724 57.1934Z" fill="#81D0D3"/>
<path opacity="0.1" d="M91.2724 57.1934C91.2724 57.1934 81.8009 63.1867 81.8009 67.4041C79.655 66.5902 72.5513 65.4064 72.5513 65.4064C72.5513 65.4064 80.173 54.6777 91.2724 57.1934Z" fill="url(#paint11_linear)"/>
<path d="M80.6909 56.8234C80.6909 56.8234 70.1094 58.9692 68.9255 64.2225C65.5216 61.7068 58.7879 50.3123 58.7879 50.3123C58.7879 50.3123 76.8431 53.3459 80.6909 56.8234Z" fill="#81D0D3"/>
<path opacity="0.1" d="M80.6909 56.8234C80.6909 56.8234 70.1094 58.9692 68.9255 64.2225C65.5216 61.7068 58.7879 50.3123 58.7879 50.3123C58.7879 50.3123 76.8431 53.3459 80.6909 56.8234Z" fill="url(#paint12_linear)"/>
<path d="M27.3394 53.4938C27.3394 53.4938 26.2295 59.1911 25.3415 60.375C24.4536 61.5588 18.8298 68.292 17.5719 65.8503C16.3879 63.4086 16.314 60.9669 17.5719 59.931C18.9038 58.9692 23.2696 53.3459 27.3394 53.4938Z" fill="#81D0D3"/>
<path opacity="0.1" d="M27.3394 53.4938C27.3394 53.4938 26.2295 59.1911 25.3415 60.375C24.4536 61.5588 18.8298 68.292 17.5719 65.8503C16.3879 63.4086 16.314 60.9669 17.5719 59.931C18.9038 58.9692 23.2696 53.3459 27.3394 53.4938Z" fill="url(#paint13_linear)"/>
<path opacity="0.2" d="M187.912 58.1553C187.912 58.1553 177.774 50.2383 167.489 50.3123C171.115 52.976 178.366 58.8952 179.402 61.1889C184.286 61.1889 185.914 60.893 185.914 60.893C185.914 60.893 187.394 58.5992 187.912 58.1553Z" fill="#0071BC"/>
<path opacity="0.2" d="M177.7 61.2629C177.7 61.2629 165.269 45.4288 145.882 43.7271C145.882 43.7271 148.102 48.5365 149.212 48.0925C150.395 47.6486 155.279 45.9468 158.535 48.2405C161.791 50.5342 168.747 58.9691 168.895 59.6351C171.484 60.375 177.7 61.2629 177.7 61.2629Z" fill="#0071BC"/>
<path opacity="0.2" d="M112.879 47.2786C112.879 47.2786 114.063 55.9355 112.139 57.7853C110.215 59.635 106.442 63.7045 106.516 62.5207C106.516 61.2628 108.07 49.0543 112.879 47.2786Z" fill="#0071BC"/>
<path opacity="0.2" d="M107.552 49.9424C107.552 49.9424 103.112 60.2271 103.482 64.7405C99.782 66.7383 91.7904 67.1822 91.3464 66.8862C91.2724 66.8862 98.4501 53.4939 107.552 49.9424Z" fill="#0071BC"/>
<path opacity="0.2" d="M97.1181 54.2337C97.1181 54.2337 86.0927 47.7965 75.1412 52.4579C77.5091 53.0498 83.1328 56.3054 83.1328 56.3054C83.1328 56.3054 92.1604 55.0476 93.7143 55.4915C95.3422 54.9736 97.1181 54.2337 97.1181 54.2337Z" fill="#0071BC"/>
<path opacity="0.2" d="M91.2724 57.1934C91.2724 57.1934 81.8009 63.1867 81.8009 67.4041C79.655 66.5902 72.5513 65.4064 72.5513 65.4064C72.5513 65.4064 80.173 54.6777 91.2724 57.1934Z" fill="#0071BC"/>
<path opacity="0.2" d="M80.6909 56.8234C80.6909 56.8234 70.1094 58.9692 68.9255 64.2225C65.5216 61.7068 58.7879 50.3123 58.7879 50.3123C58.7879 50.3123 76.8431 53.3459 80.6909 56.8234Z" fill="#0071BC"/>
<path opacity="0.2" d="M27.3394 53.4938C27.3394 53.4938 26.2295 59.1911 25.3415 60.375C24.4536 61.5588 18.8298 68.292 17.5719 65.8503C16.3879 63.4086 16.314 60.9669 17.5719 59.931C18.9038 58.9692 23.2696 53.3459 27.3394 53.4938Z" fill="#0071BC"/>
<path opacity="0.8" d="M124.201 33.1465C124.201 33.1465 118.281 31.1487 116.727 34.1823C115.173 37.2159 113.101 44.541 114.137 45.9469C115.173 47.3527 117.023 46.0208 117.319 41.7294C117.615 37.5119 119.021 32.7025 124.201 33.1465Z" fill="url(#paint14_linear)"/>
<path opacity="0.8" d="M143.144 38.4739C143.144 38.4739 137.816 20.7901 133.302 22.4919C128.863 24.1936 128.197 27.9672 129.381 27.3013C130.565 26.5614 135.522 23.4538 143.144 38.4739Z" fill="url(#paint15_linear)"/>
<path opacity="0.8" d="M114.433 70.5117C114.433 70.5117 111.473 71.4736 109.92 74.0632C108.292 76.6529 103.482 81.6843 95.8602 78.2807C89.4965 74.0633 88.0165 71.9175 88.0165 71.9175C88.0165 71.9175 99.412 77.9107 101.706 75.987C104 73.9892 110.289 70.1417 114.433 70.5117Z" fill="url(#paint16_linear)"/>
<path opacity="0.8" d="M115.617 58.4512C115.617 58.4512 115.469 62.8906 112.213 64.2224C108.884 65.5543 115.617 58.4512 115.617 58.4512Z" fill="url(#paint17_linear)"/>
<path opacity="0.8" d="M54.3481 45.355C54.3481 45.355 49.2424 40.6195 46.7265 42.2473C44.1366 43.8751 42.4347 46.1689 41.2508 45.8729C40.0668 45.5769 31.6312 44.911 29.0413 51.2002C26.4515 57.4894 26.5255 61.263 24.3056 62.7428C24.3056 62.7428 28.8934 59.2652 30.8173 54.4558C32.7412 49.6464 35.923 47.3527 39.8449 47.7967C43.8407 48.2406 45.8386 45.207 47.6145 44.689C49.3904 44.0971 54.3481 45.355 54.3481 45.355Z" fill="url(#paint18_linear)"/>
<path opacity="0.8" d="M61.3038 60.005C61.3038 60.005 53.7561 58.4512 52.7942 54.3077C51.7582 50.1643 49.0943 54.5297 51.0182 56.8234C52.9421 59.1172 58.3439 62.6687 61.3038 60.005Z" fill="url(#paint19_linear)"/>
<path opacity="0.8" d="M83.8728 69.4759C83.8728 69.4759 69.9614 65.0365 71.2934 67.4042C72.6253 69.7719 82.8368 69.7719 83.8728 69.4759Z" fill="url(#paint20_linear)"/>
<path opacity="0.8" d="M26.1555 68.144C26.1555 68.144 23.8616 78.0588 17.7939 77.1709C11.7262 76.209 15.056 72.8795 16.684 73.1014C18.2379 73.3234 24.6756 70.6597 26.1555 68.144Z" fill="url(#paint21_linear)"/>
<path opacity="0.8" d="M16.018 58.4513C16.018 58.4513 15.426 54.0119 10.6902 53.5679C5.95447 53.124 0.108743 57.7114 3.1426 65.0365C5.1405 58.5253 8.54436 56.7495 10.0983 57.4894C11.5782 58.1553 15.796 61.411 16.018 58.4513Z" fill="url(#paint22_linear)"/>
<path opacity="0.8" d="M167.637 59.3392C167.637 59.3392 160.681 48.3146 156.537 48.6846C152.394 49.0546 149.582 50.4604 148.472 49.2025C147.362 47.8707 144.106 42.9873 144.106 42.9873C144.106 42.9873 146.844 50.9783 148.472 51.4223C150.174 51.8662 157.943 51.7182 159.793 53.9379C161.717 56.1577 167.637 59.3392 167.637 59.3392Z" fill="url(#paint23_linear)"/>
<path opacity="0.8" d="M179.476 68.884C179.476 68.884 173.26 74.2114 174.888 76.875C176.516 79.5387 184.064 81.3885 187.394 78.4289C190.724 75.4692 179.106 78.1329 178.292 75.4692C177.552 72.8056 178.736 69.7719 179.476 68.884Z" fill="url(#paint24_linear)"/>
<path opacity="0.8" d="M205.375 64.3706C205.375 64.3706 197.753 69.402 198.197 65.4065C198.567 61.411 194.571 67.2563 195.755 69.402C196.865 71.5477 202.933 69.254 205.375 64.3706Z" fill="url(#paint25_linear)"/>
<path opacity="0.8" d="M192.87 49.2024C192.87 49.2024 191.094 57.5633 192.87 60.375C190.798 57.5633 189.17 49.4244 192.87 49.2024Z" fill="url(#paint26_linear)"/>
<path opacity="0.8" d="M209.001 29.5949C209.001 29.5949 203.895 21.9738 200.417 24.4155C196.939 26.8572 198.271 29.5949 199.233 28.855C200.195 28.1151 207.151 27.3012 209.001 29.5949Z" fill="url(#paint27_linear)"/>
<path opacity="0.8" d="M204.339 39.1396C204.339 39.1396 200.343 42.3952 200.935 45.0589C201.527 47.7226 197.235 44.467 198.789 42.0993C200.417 39.7316 204.339 39.1396 204.339 39.1396Z" fill="url(#paint28_linear)"/>
<path opacity="0.8" d="M155.871 21.7517C155.575 20.1979 153.503 18.8661 152.837 21.7517C152.245 24.6374 148.028 38.3997 146.844 39.8795C149.212 37.0678 150.766 32.5544 151.653 29.5208C152.615 26.5611 153.355 28.041 153.355 29.5208C153.355 31.0006 156.537 25.0073 155.871 21.7517Z" fill="url(#paint29_linear)"/>
<path opacity="0.8" d="M87.9426 47.2788C85.6487 45.2071 81.2829 37.66 80.2469 37.0681C79.137 36.4762 77.3611 35.5143 77.953 38.4739C78.545 41.4336 78.323 45.947 77.139 47.9447C75.9551 49.8685 80.6909 46.243 80.6909 44.0232C80.6169 41.8035 87.9426 47.2788 87.9426 47.2788Z" fill="url(#paint30_linear)"/>
<path opacity="0.8" d="M93.2703 56.8235C93.2703 56.8235 82.6888 65.1844 84.3907 65.4064C86.0927 65.6284 88.6085 64.0746 90.9024 60.449C93.2703 56.8235 93.2703 57.2674 93.2703 57.2674V56.8235Z" fill="url(#paint31_linear)"/>
<path opacity="0.8" d="M76.3991 18.2743C76.3991 18.2743 76.0291 21.0859 75.1412 20.0501C74.2532 19.0142 71.1453 4.51201 64.3377 3.0322C66.6316 2.51426 71.4413 4.51201 76.3991 18.2743Z" fill="url(#paint32_linear)"/>
<path opacity="0.8" d="M16.018 48.4626C16.018 48.4626 13.3541 39.1398 9.13632 40.3236C4.91853 41.5815 4.32654 42.4694 5.51048 43.6532C6.76842 44.8371 11.7262 41.2855 16.018 48.4626Z" fill="url(#paint33_linear)"/>
<defs>
<radialGradient id="paint0_radial" cx="0" cy="0" r="1" gradientUnits="userSpaceOnUse" gradientTransform="translate(111.309 62.066) rotate(180) scale(57.0502 57.0458)">
<stop stop-color="white"/>
<stop offset="0.2169" stop-color="#FCFCFD"/>
<stop offset="0.3559" stop-color="#F4F4F8"/>
<stop offset="0.4731" stop-color="#E6E5EE"/>
<stop offset="0.5781" stop-color="#D1D0E0"/>
<stop offset="0.6751" stop-color="#B7B5CE"/>
<stop offset="0.7661" stop-color="#9793B8"/>
<stop offset="0.8525" stop-color="#706C9E"/>
<stop offset="0.9331" stop-color="#453F81"/>
<stop offset="1" stop-color="#1B1464"/>
</radialGradient>
<linearGradient id="paint1_linear" x1="111.566" y1="92.2766" x2="111.566" y2="48.4924" gradientUnits="userSpaceOnUse">
<stop stop-color="white"/>
<stop offset="0.2169" stop-color="#FCFCFD"/>
<stop offset="0.3559" stop-color="#F4F4F8"/>
<stop offset="0.4731" stop-color="#E6E5EE"/>
<stop offset="0.5781" stop-color="#D1D0E0"/>
<stop offset="0.6751" stop-color="#B7B5CE"/>
<stop offset="0.7661" stop-color="#9793B8"/>
<stop offset="0.8525" stop-color="#706C9E"/>
<stop offset="0.9331" stop-color="#453F81"/>
<stop offset="1" stop-color="#1B1464"/>
</linearGradient>
<linearGradient id="paint2_linear" x1="141.259" y1="90.9647" x2="141.259" y2="50.2997" gradientUnits="userSpaceOnUse">
<stop/>
<stop offset="1" stop-color="white"/>
</linearGradient>
<linearGradient id="paint3_linear" x1="86.2156" y1="92.2009" x2="86.2156" y2="71.0603" gradientUnits="userSpaceOnUse">
<stop/>
<stop offset="1" stop-color="white"/>
</linearGradient>
<radialGradient id="paint4_radial" cx="0" cy="0" r="1" gradientUnits="userSpaceOnUse" gradientTransform="translate(110.606 23.1069) scale(124.063 124.053)">
<stop stop-color="white"/>
<stop offset="0.2169" stop-color="#FCFCFD"/>
<stop offset="0.3559" stop-color="#F4F4F8"/>
<stop offset="0.4731" stop-color="#E6E5EE"/>
<stop offset="0.5781" stop-color="#D1D0E0"/>
<stop offset="0.6751" stop-color="#B7B5CE"/>
<stop offset="0.7661" stop-color="#9793B8"/>
<stop offset="0.8525" stop-color="#706C9E"/>
<stop offset="0.9331" stop-color="#453F81"/>
<stop offset="1" stop-color="#1B1464"/>
</radialGradient>
<linearGradient id="paint5_linear" x1="109.231" y1="81.6787" x2="109.231" y2="0.614418" gradientUnits="userSpaceOnUse">
<stop stop-color="#1B1464"/>
<stop offset="0.0669379" stop-color="#453F81"/>
<stop offset="0.1475" stop-color="#706C9E"/>
<stop offset="0.2339" stop-color="#9793B8"/>
<stop offset="0.3249" stop-color="#B7B5CE"/>
<stop offset="0.4219" stop-color="#D1D0E0"/>
<stop offset="0.5269" stop-color="#E6E5EE"/>
<stop offset="0.6441" stop-color="#F4F4F8"/>
<stop offset="0.7831" stop-color="#FCFCFD"/>
<stop offset="1" stop-color="white"/>
</linearGradient>
<linearGradient id="paint6_linear" x1="177.701" y1="61.2398" x2="177.701" y2="52.3757" gradientUnits="userSpaceOnUse">
<stop stop-color="white"/>
<stop offset="0.2169" stop-color="#FCFCFD"/>
<stop offset="0.3559" stop-color="#F4F4F8"/>
<stop offset="0.4731" stop-color="#E6E5EE"/>
<stop offset="0.5781" stop-color="#D1D0E0"/>
<stop offset="0.6751" stop-color="#B7B5CE"/>
<stop offset="0.7661" stop-color="#9793B8"/>
<stop offset="0.8525" stop-color="#706C9E"/>
<stop offset="0.9331" stop-color="#453F81"/>
<stop offset="1" stop-color="#1B1464"/>
</linearGradient>
<linearGradient id="paint7_linear" x1="161.798" y1="61.2398" x2="161.798" y2="46.9549" gradientUnits="userSpaceOnUse">
<stop stop-color="white"/>
<stop offset="0.2169" stop-color="#FCFCFD"/>
<stop offset="0.3559" stop-color="#F4F4F8"/>
<stop offset="0.4731" stop-color="#E6E5EE"/>
<stop offset="0.5781" stop-color="#D1D0E0"/>
<stop offset="0.6751" stop-color="#B7B5CE"/>
<stop offset="0.7661" stop-color="#9793B8"/>
<stop offset="0.8525" stop-color="#706C9E"/>
<stop offset="0.9331" stop-color="#453F81"/>
<stop offset="1" stop-color="#1B1464"/>
</linearGradient>
<linearGradient id="paint8_linear" x1="109.866" y1="62.6775" x2="109.866" y2="50.1254" gradientUnits="userSpaceOnUse">
<stop stop-color="white"/>
<stop offset="0.2169" stop-color="#FCFCFD"/>
<stop offset="0.3559" stop-color="#F4F4F8"/>
<stop offset="0.4731" stop-color="#E6E5EE"/>
<stop offset="0.5781" stop-color="#D1D0E0"/>
<stop offset="0.6751" stop-color="#B7B5CE"/>
<stop offset="0.7661" stop-color="#9793B8"/>
<stop offset="0.8525" stop-color="#706C9E"/>
<stop offset="0.9331" stop-color="#453F81"/>
<stop offset="1" stop-color="#1B1464"/>
</linearGradient>
<linearGradient id="paint9_linear" x1="99.4108" y1="66.9369" x2="99.4108" y2="53.0914" gradientUnits="userSpaceOnUse">
<stop stop-color="white"/>
<stop offset="0.2169" stop-color="#FCFCFD"/>
<stop offset="0.3559" stop-color="#F4F4F8"/>
<stop offset="0.4731" stop-color="#E6E5EE"/>
<stop offset="0.5781" stop-color="#D1D0E0"/>
<stop offset="0.6751" stop-color="#B7B5CE"/>
<stop offset="0.7661" stop-color="#9793B8"/>
<stop offset="0.8525" stop-color="#706C9E"/>
<stop offset="0.9331" stop-color="#453F81"/>
<stop offset="1" stop-color="#1B1464"/>
</linearGradient>
<linearGradient id="paint10_linear" x1="86.1227" y1="56.3183" x2="86.1227" y2="51.7758" gradientUnits="userSpaceOnUse">
<stop stop-color="white"/>
<stop offset="0.2169" stop-color="#FCFCFD"/>
<stop offset="0.3559" stop-color="#F4F4F8"/>
<stop offset="0.4731" stop-color="#E6E5EE"/>
<stop offset="0.5781" stop-color="#D1D0E0"/>
<stop offset="0.6751" stop-color="#B7B5CE"/>
<stop offset="0.7661" stop-color="#9793B8"/>
<stop offset="0.8525" stop-color="#706C9E"/>
<stop offset="0.9331" stop-color="#453F81"/>
<stop offset="1" stop-color="#1B1464"/>
</linearGradient>
<linearGradient id="paint11_linear" x1="81.9312" y1="67.3703" x2="81.9312" y2="58.7787" gradientUnits="userSpaceOnUse">
<stop stop-color="white"/>
<stop offset="0.2169" stop-color="#FCFCFD"/>
<stop offset="0.3559" stop-color="#F4F4F8"/>
<stop offset="0.4731" stop-color="#E6E5EE"/>
<stop offset="0.5781" stop-color="#D1D0E0"/>
<stop offset="0.6751" stop-color="#B7B5CE"/>
<stop offset="0.7661" stop-color="#9793B8"/>
<stop offset="0.8525" stop-color="#706C9E"/>
<stop offset="0.9331" stop-color="#453F81"/>
<stop offset="1" stop-color="#1B1464"/>
</linearGradient>
<linearGradient id="paint12_linear" x1="69.7297" y1="64.2038" x2="69.7297" y2="52.8855" gradientUnits="userSpaceOnUse">
<stop stop-color="white"/>
<stop offset="0.2169" stop-color="#FCFCFD"/>
<stop offset="0.3559" stop-color="#F4F4F8"/>
<stop offset="0.4731" stop-color="#E6E5EE"/>
<stop offset="0.5781" stop-color="#D1D0E0"/>
<stop offset="0.6751" stop-color="#B7B5CE"/>
<stop offset="0.7661" stop-color="#9793B8"/>
<stop offset="0.8525" stop-color="#706C9E"/>
<stop offset="0.9331" stop-color="#453F81"/>
<stop offset="1" stop-color="#1B1464"/>
</linearGradient>
<linearGradient id="paint13_linear" x1="21.9955" y1="66.441" x2="21.9955" y2="55.9283" gradientUnits="userSpaceOnUse">
<stop stop-color="white"/>
<stop offset="0.2169" stop-color="#FCFCFD"/>
<stop offset="0.3559" stop-color="#F4F4F8"/>
<stop offset="0.4731" stop-color="#E6E5EE"/>
<stop offset="0.5781" stop-color="#D1D0E0"/>
<stop offset="0.6751" stop-color="#B7B5CE"/>
<stop offset="0.7661" stop-color="#9793B8"/>
<stop offset="0.8525" stop-color="#706C9E"/>
<stop offset="0.9331" stop-color="#453F81"/>
<stop offset="1" stop-color="#1B1464"/>
</linearGradient>
<linearGradient id="paint14_linear" x1="120.669" y1="40.9421" x2="115.215" y2="36.0528" gradientUnits="userSpaceOnUse">
<stop/>
<stop offset="1" stop-color="white"/>
</linearGradient>
<linearGradient id="paint15_linear" x1="144.932" y1="36.5153" x2="131.142" y2="24.1538" gradientUnits="userSpaceOnUse">
<stop/>
<stop offset="1" stop-color="white"/>
</linearGradient>
<linearGradient id="paint16_linear" x1="108.134" y1="77.5395" x2="94.5049" y2="65.3218" gradientUnits="userSpaceOnUse">
<stop/>
<stop offset="1" stop-color="white"/>
</linearGradient>
<linearGradient id="paint17_linear" x1="114.542" y1="62.3073" x2="113.24" y2="61.14" gradientUnits="userSpaceOnUse">
<stop/>
<stop offset="1" stop-color="white"/>
</linearGradient>
<linearGradient id="paint18_linear" x1="43.343" y1="57.6507" x2="32.1341" y2="47.6026" gradientUnits="userSpaceOnUse">
<stop/>
<stop offset="1" stop-color="white"/>
</linearGradient>
<linearGradient id="paint19_linear" x1="59.8019" y1="61.7174" x2="50.7873" y2="53.6362" gradientUnits="userSpaceOnUse">
<stop/>
<stop offset="1" stop-color="white"/>
</linearGradient>
<linearGradient id="paint20_linear" x1="81.5527" y1="72.0325" x2="73.5205" y2="64.8321" gradientUnits="userSpaceOnUse">
<stop/>
<stop offset="1" stop-color="white"/>
</linearGradient>
<linearGradient id="paint21_linear" x1="23.2254" y1="74.5819" x2="18.3309" y2="70.1943" gradientUnits="userSpaceOnUse">
<stop/>
<stop offset="1" stop-color="white"/>
</linearGradient>
<linearGradient id="paint22_linear" x1="12.251" y1="63.2211" x2="4.45762" y2="56.2348" gradientUnits="userSpaceOnUse">
<stop/>
<stop offset="1" stop-color="white"/>
</linearGradient>
<linearGradient id="paint23_linear" x1="165.933" y1="61.3195" x2="145.282" y2="42.8071" gradientUnits="userSpaceOnUse">
<stop/>
<stop offset="1" stop-color="white"/>
</linearGradient>
<linearGradient id="paint24_linear" x1="185.623" y1="80.5279" x2="176.566" y2="72.4081" gradientUnits="userSpaceOnUse">
<stop/>
<stop offset="1" stop-color="white"/>
</linearGradient>
<linearGradient id="paint25_linear" x1="202.242" y1="68.4446" x2="197.543" y2="64.2318" gradientUnits="userSpaceOnUse">
<stop/>
<stop offset="1" stop-color="white"/>
</linearGradient>
<linearGradient id="paint26_linear" x1="195.674" y1="57.2912" x2="189.82" y2="52.0435" gradientUnits="userSpaceOnUse">
<stop/>
<stop offset="1" stop-color="white"/>
</linearGradient>
<linearGradient id="paint27_linear" x1="207.094" y1="31.7525" x2="199.817" y2="25.2288" gradientUnits="userSpaceOnUse">
<stop/>
<stop offset="1" stop-color="white"/>
</linearGradient>
<linearGradient id="paint28_linear" x1="203.156" y1="43.4172" x2="200.155" y2="40.7273" gradientUnits="userSpaceOnUse">
<stop/>
<stop offset="1" stop-color="white"/>
</linearGradient>
<linearGradient id="paint29_linear" x1="153.579" y1="32.4778" x2="147.681" y2="27.1901" gradientUnits="userSpaceOnUse">
<stop/>
<stop offset="1" stop-color="white"/>
</linearGradient>
<linearGradient id="paint30_linear" x1="86.0338" y1="49.4198" x2="75.5345" y2="40.0079" gradientUnits="userSpaceOnUse">
<stop/>
<stop offset="1" stop-color="white"/>
</linearGradient>
<linearGradient id="paint31_linear" x1="89.8242" y1="62.0285" x2="88.1757" y2="60.5508" gradientUnits="userSpaceOnUse">
<stop/>
<stop offset="1" stop-color="white"/>
</linearGradient>
<linearGradient id="paint32_linear" x1="77.9215" y1="17.7556" x2="63.4844" y2="4.81354" gradientUnits="userSpaceOnUse">
<stop/>
<stop offset="1" stop-color="white"/>
</linearGradient>
<linearGradient id="paint33_linear" x1="15.8107" y1="48.714" x2="6.91355" y2="40.7383" gradientUnits="userSpaceOnUse">
<stop/>
<stop offset="1" stop-color="white"/>
</linearGradient>
</defs>
</svg>
