<svg width="245" height="79" viewBox="0 0 245 79" fill="none" xmlns="http://www.w3.org/2000/svg">
<path d="M5.49269 74.9688C6.82463 74.9688 60.324 75.6347 60.324 75.6347C60.324 75.6347 79.7111 74.9688 80.155 76.8186C80.599 78.6684 85.0389 78.0764 87.9987 78.2244C90.8846 78.3724 121.445 77.8545 126.181 78.1504C130.991 78.4464 145.864 77.7065 148.38 77.3365C150.896 76.9666 165.325 76.0787 176.055 76.2267C186.784 76.3007 196.848 75.6347 202.323 74.4509C207.799 73.267 220.822 72.971 232.514 72.6751C239.321 72.5271 242.059 71.1213 243.243 69.6415C244.057 68.6056 244.131 67.4218 244.279 66.6079C244.649 65.2021 242.429 61.2065 240.875 58.9128C240.283 58.0249 239.765 57.433 239.543 57.285C238.655 56.8411 238.211 55.6572 238.729 54.6214C239.025 53.9554 238.951 52.5496 238.507 51.3658C238.211 50.6258 237.768 49.886 237.25 49.59C237.915 48.7761 238.36 47.6662 238.581 46.5564C239.395 42.0429 236.732 36.1236 230.368 36.4196C227.334 36.5676 225.854 38.3434 225.04 40.5631L224.966 40.7111C224.3 42.7089 224.3 44.9286 224.374 46.5564C224.374 46.6303 224.374 46.7783 224.374 46.8523C224.448 47.8142 224.596 48.5541 224.596 48.7021C217.418 49.812 222.82 55.5093 222.82 55.5093C222.672 55.5093 222.45 55.5093 222.302 55.5093C220.526 55.4353 219.342 55.9532 218.528 56.7671C216.53 58.9128 217.418 62.9823 217.418 62.9823C217.418 62.9823 216.604 63.2043 215.569 62.9823C213.423 59.2828 209.279 60.1707 207.133 61.3545C204.987 62.6123 198.179 60.3187 198.179 60.3187C198.179 60.3187 199.289 57.8029 200.547 54.1774C201.805 50.6258 200.251 42.7828 194.554 46.1864C188.782 49.59 193.148 55.0653 195.589 56.6191C194.998 59.1348 191.076 60.4666 189.448 60.5406C190.04 59.1348 188.19 57.285 186.562 57.359C184.934 57.433 185.23 59.5787 183.824 58.6168C182.418 57.655 180.79 60.0967 179.976 59.8747C179.162 59.5787 178.496 60.3186 177.312 60.4666C176.202 60.5406 175.685 61.5765 175.685 61.5765H168.137C168.137 61.5765 166.213 58.8388 164.733 58.3949C164.955 57.359 163.771 52.1057 163.031 50.9958C162.809 50.6258 162.365 50.9218 161.995 51.4398C161.255 52.4017 160.441 54.3254 160.441 54.3254C160.441 54.3254 160.441 54.3254 158.665 53.9554C159.109 52.9196 158.961 48.8501 156.593 48.5541C156.593 48.4061 156.593 48.3321 156.667 48.2581C156.667 48.2581 156.667 48.2582 156.667 48.1842C156.667 48.1102 156.667 48.0362 156.667 47.9622C156.889 45.2985 156.075 43.0048 154.966 41.229C153.856 39.6012 152.524 38.4174 151.636 38.0474C149.638 37.2335 149.416 40.1932 149.416 40.1932C149.416 40.1932 148.528 40.1931 147.64 41.007C145.272 40.4151 143.792 43.6707 144.384 47.6662C144.976 51.7357 149.342 51.7357 151.266 48.998C151.34 51.9577 153.042 54.9173 153.042 54.9173C153.042 54.9173 151.044 55.2873 150.6 55.1393C150.156 54.9173 150.008 56.7671 149.12 58.0249C148.824 57.729 148.528 57.581 148.232 57.433C146.678 56.7671 144.606 57.655 144.236 58.1729C143.718 58.6169 139.796 49.9599 139.426 50.1819C139.056 50.4039 136.318 50.7739 135.652 49.59C134.986 48.4801 133.581 43.2268 132.545 43.4487C131.509 43.7447 131.583 42.5609 129.437 41.377C127.291 40.1192 125.663 47.0003 124.701 48.4061C123.739 49.8119 123.739 48.7761 122.555 48.1842C121.371 47.5922 120.631 50.4039 120.631 51.3658C120.631 52.3276 119.299 52.1057 118.263 51.5877C117.227 50.9958 113.749 55.5092 112.492 55.9532C111.234 56.3231 107.238 50.7738 106.72 49.8859C106.276 49.072 102.354 54.2514 101.614 54.9913C100.874 55.7312 99.2461 51.8097 98.5802 50.8478C97.9142 49.8859 97.3222 55.1393 96.2863 55.9532C95.2503 56.6931 95.3984 60.0227 95.3984 60.0227C95.3984 60.0227 88.8126 59.3567 87.1107 58.9868C85.4088 58.6168 81.931 54.1034 77.8612 54.1034C73.7914 54.1034 75.1233 58.9128 72.9034 58.3209C70.6095 57.729 69.8696 59.3568 68.4636 61.0586C67.0577 62.7604 57.2902 58.9128 57.2902 58.9128C57.2902 58.9128 57.6602 57.433 58.7701 54.9913C59.0661 54.3994 59.3621 53.7334 59.732 53.0675C62.0259 53.8074 63.9499 52.4756 64.8378 48.1102C65.0598 47.0003 65.0598 45.9644 64.9118 44.9285C64.4678 41.9689 62.5439 39.6752 59.066 39.6012C54.4783 39.5273 53.6643 46.0384 54.1823 51.8097C52.1844 50.8478 50.7785 50.7738 49.6685 51.1438C46.7827 52.1797 46.7087 56.6931 46.7087 56.6931C46.7087 56.6931 46.3387 60.3187 48.0406 61.6505L48.1146 61.7245C47.0787 62.8343 41.8249 63.1303 36.7192 63.0563C35.9792 60.1706 31.9094 60.1707 30.8734 61.3545C29.8375 62.5384 29.6895 64.4621 26.1376 65.35H26.0637C24.7317 62.3904 22.6598 61.4285 20.8839 61.4285C19.33 61.4285 17.9241 62.0944 17.4061 62.8343C16.2222 60.4666 16.0001 54.6213 16.8141 52.4756C20.9579 52.6976 21.6239 51.7357 21.9938 49.516C22.1418 48.7021 22.2158 47.6662 22.4378 46.4824C23.2518 42.0429 20.07 38.5654 18.1461 39.1573C16.8881 36.4196 12.3003 36.6416 10.5984 42.3389C8.89645 48.0362 13.1143 53.6595 13.1143 53.6595C13.1143 53.6595 12.2263 57.211 11.6343 60.1707L11.5604 60.4666C10.0804 58.8388 7.56454 58.9868 5.34464 60.1707C4.0867 60.8366 2.90281 61.8724 2.16285 63.2043C0.016953 66.6818 4.01276 71.4912 4.01276 71.4912C4.01276 71.4912 2.16285 71.7872 0.682921 73.193C-0.13104 74.4509 4.16075 74.9688 5.49269 74.9688ZM182.27 68.2356C182.27 68.2356 202.619 63.0563 208.835 63.7222C208.835 63.7222 215.347 63.7962 217.123 65.35C217.862 66.0159 218.232 66.4599 218.232 66.8298V66.9038V66.9778C218.084 67.4958 217.344 67.8657 215.791 68.4576C213.053 69.4935 202.693 71.1213 199.289 71.1213C195.959 71.1213 190.484 70.5294 189.374 70.4554C188.338 70.3814 184.49 70.3814 184.49 70.3814L182.27 68.2356ZM168.803 64.3141C169.617 62.9823 176.72 63.1303 179.606 63.3523C179.754 63.0563 182.64 62.6863 186.414 62.6124C190.188 62.5384 194.776 62.8343 194.998 63.6482C195.22 64.4621 180.05 66.0899 180.05 66.0899C179.754 65.646 179.31 65.276 178.792 65.054C176.202 64.0182 171.393 66.0159 171.393 66.5339C171.319 67.1998 171.393 67.8657 169.839 68.8276C168.877 67.7177 167.989 65.72 168.803 64.3141ZM92.4385 63.2783C91.2546 63.7222 89.1087 66.5339 89.1087 66.5339C88.8127 65.8679 77.7132 63.5002 71.9414 62.4644C74.9753 61.1325 89.4786 61.7985 91.1805 61.7985C92.8824 61.7985 93.6225 62.8343 92.4385 63.2783ZM77.0472 70.1594H89.9226C89.9226 70.1594 90.2186 71.0473 89.2566 71.3433C88.2947 71.6392 89.0347 72.4531 89.5526 72.4531C90.1446 72.4531 94.8804 73.045 94.8064 73.563C94.7324 74.0809 88.1467 74.5989 87.1847 73.9329C86.2227 73.341 85.1868 73.045 84.1509 73.045C83.1149 73.045 80.969 73.193 80.747 72.8231C80.5251 72.4531 78.8232 71.6392 78.3792 71.6392C78.0832 71.7132 77.0472 70.1594 77.0472 70.1594ZM61.6559 70.1594C61.8779 70.2334 64.0239 70.1594 64.0239 70.1594C64.0239 70.1594 64.0238 71.8612 63.4319 71.7132C62.9139 71.6392 61.6559 70.1594 61.6559 70.1594ZM57.3642 64.9061C57.3642 64.9061 67.2057 64.6101 70.1655 64.6841C73.1254 64.7581 85.2608 66.3119 86.9628 66.9778C88.6647 67.5698 87.8507 68.9016 87.8507 68.9016C87.8507 68.9016 77.7132 68.4576 75.1233 68.1617C75.1233 67.5697 73.7173 66.0899 72.3854 66.6079C70.9055 64.7581 68.8337 65.9419 68.0197 67.2738C65.2078 66.8298 64.3938 68.3836 64.3938 68.3836C64.3938 68.3836 61.212 68.0877 59.5841 68.3097C58.7701 67.4958 57.4382 65.054 57.3642 64.9061ZM44.7848 70.9733C44.5628 70.2334 49.9645 70.4554 49.9645 70.4554C50.1125 71.5652 48.0406 71.7132 46.7827 71.7872C45.9687 71.7872 45.4508 71.7872 45.1548 71.5652C45.0068 71.4172 44.9328 71.1953 44.7848 70.9733ZM41.6029 67.9397C41.2329 67.1998 35.7572 67.1998 36.0532 66.7558C36.3492 66.3119 40.937 66.0899 43.3788 66.5339C45.8207 66.9778 47.3746 66.6079 47.5226 66.0899C47.6706 65.572 50.0385 65.646 50.5565 65.72C51.0744 65.794 51.0005 64.5361 51.9624 64.6101C52.9244 64.7581 53.6644 64.6101 53.6644 64.6101C53.6644 64.6101 53.6644 64.7581 53.6644 64.9061C53.5904 66.0159 53.3683 69.6415 52.4064 69.4935C51.2224 69.2715 51.0745 68.0877 50.3345 68.0137C49.4466 67.9397 41.9729 68.6796 41.6029 67.9397ZM30.5034 70.3814C30.5774 70.2334 30.6514 70.0854 30.8734 69.8634C31.5394 69.0495 42.4168 70.1594 42.4168 70.1594C42.9348 70.8993 42.1209 71.3433 41.6029 71.7872C41.4549 71.9352 41.3069 72.0832 41.2329 72.2312C41.0109 72.8231 38.643 72.7491 37.2371 72.8971C35.7572 73.0451 36.2012 72.1572 36.0532 72.0092C35.9052 71.8612 34.9432 72.2312 34.2033 71.7872C33.4633 71.3433 33.0194 71.1953 31.7614 71.1213C30.7255 70.9733 30.3554 70.8253 30.5034 70.3814Z" fill="#D9F7FF"/>
<path d="M5.49269 74.9688C6.82463 74.9688 60.324 75.6347 60.324 75.6347C60.324 75.6347 79.7111 74.9688 80.155 76.8186C80.599 78.6684 85.0389 78.0764 87.9987 78.2244C90.8846 78.3724 121.445 77.8545 126.181 78.1504C130.991 78.4464 145.864 77.7065 148.38 77.3365C150.896 76.9666 165.325 76.0787 176.055 76.2267C186.784 76.3007 196.848 75.6347 202.323 74.4509C207.799 73.267 220.822 72.971 232.514 72.6751C239.321 72.5271 242.059 71.1213 243.243 69.6415C244.057 68.6056 244.131 67.4218 244.279 66.6079C244.649 65.2021 242.429 61.2065 240.875 58.9128C240.283 58.0249 239.765 57.433 239.543 57.285C238.655 56.8411 238.211 55.6572 238.729 54.6214C239.025 53.9554 238.951 52.5496 238.507 51.3658C238.211 50.6258 237.768 49.886 237.25 49.59C237.915 48.7761 238.36 47.6662 238.581 46.5564C239.395 42.0429 236.732 36.1236 230.368 36.4196C227.334 36.5676 225.854 38.3434 225.04 40.5631L224.966 40.7111C224.3 42.7089 224.3 44.9286 224.374 46.5564C224.374 46.6303 224.374 46.7783 224.374 46.8523C224.448 47.8142 224.596 48.5541 224.596 48.7021C217.418 49.812 222.82 55.5093 222.82 55.5093C222.672 55.5093 222.45 55.5093 222.302 55.5093C220.526 55.4353 219.342 55.9532 218.528 56.7671C216.53 58.9128 217.418 62.9823 217.418 62.9823C217.418 62.9823 216.604 63.2043 215.569 62.9823C213.423 59.2828 209.279 60.1707 207.133 61.3545C204.987 62.6123 198.179 60.3187 198.179 60.3187C198.179 60.3187 199.289 57.8029 200.547 54.1774C201.805 50.6258 200.251 42.7828 194.554 46.1864C188.782 49.59 193.148 55.0653 195.589 56.6191C194.998 59.1348 191.076 60.4666 189.448 60.5406C190.04 59.1348 188.19 57.285 186.562 57.359C184.934 57.433 185.23 59.5787 183.824 58.6168C182.418 57.655 180.79 60.0967 179.976 59.8747C179.162 59.5787 178.496 60.3186 177.312 60.4666C176.202 60.5406 175.685 61.5765 175.685 61.5765H168.137C168.137 61.5765 166.213 58.8388 164.733 58.3949C164.955 57.359 163.771 52.1057 163.031 50.9958C162.809 50.6258 162.365 50.9218 161.995 51.4398C161.255 52.4017 160.441 54.3254 160.441 54.3254C160.441 54.3254 160.441 54.3254 158.665 53.9554C159.109 52.9196 158.961 48.8501 156.593 48.5541C156.593 48.4061 156.593 48.3321 156.667 48.2581C156.667 48.2581 156.667 48.2582 156.667 48.1842C156.667 48.1102 156.667 48.0362 156.667 47.9622C156.889 45.2985 156.075 43.0048 154.966 41.229C153.856 39.6012 152.524 38.4174 151.636 38.0474C149.638 37.2335 149.416 40.1932 149.416 40.1932C149.416 40.1932 148.528 40.1931 147.64 41.007C145.272 40.4151 143.792 43.6707 144.384 47.6662C144.976 51.7357 149.342 51.7357 151.266 48.998C151.34 51.9577 153.042 54.9173 153.042 54.9173C153.042 54.9173 151.044 55.2873 150.6 55.1393C150.156 54.9173 150.008 56.7671 149.12 58.0249C148.824 57.729 148.528 57.581 148.232 57.433C146.678 56.7671 144.606 57.655 144.236 58.1729C143.718 58.6169 139.796 49.9599 139.426 50.1819C139.056 50.4039 136.318 50.7739 135.652 49.59C134.986 48.4801 133.581 43.2268 132.545 43.4487C131.509 43.7447 131.583 42.5609 129.437 41.377C127.291 40.1192 125.663 47.0003 124.701 48.4061C123.739 49.8119 123.739 48.7761 122.555 48.1842C121.371 47.5922 120.631 50.4039 120.631 51.3658C120.631 52.3276 119.299 52.1057 118.263 51.5877C117.227 50.9958 113.749 55.5092 112.492 55.9532C111.234 56.3231 107.238 50.7738 106.72 49.8859C106.276 49.072 102.354 54.2514 101.614 54.9913C100.874 55.7312 99.2461 51.8097 98.5802 50.8478C97.9142 49.8859 97.3222 55.1393 96.2863 55.9532C95.2503 56.6931 95.3984 60.0227 95.3984 60.0227C95.3984 60.0227 88.8126 59.3567 87.1107 58.9868C85.4088 58.6168 81.931 54.1034 77.8612 54.1034C73.7914 54.1034 75.1233 58.9128 72.9034 58.3209C70.6095 57.729 69.8696 59.3568 68.4636 61.0586C67.0577 62.7604 57.2902 58.9128 57.2902 58.9128C57.2902 58.9128 57.6602 57.433 58.7701 54.9913C59.0661 54.3994 59.3621 53.7334 59.732 53.0675C62.0259 53.8074 63.9499 52.4756 64.8378 48.1102C65.0598 47.0003 65.0598 45.9644 64.9118 44.9285C64.4678 41.9689 62.5439 39.6752 59.066 39.6012C54.4783 39.5273 53.6643 46.0384 54.1823 51.8097C52.1844 50.8478 50.7785 50.7738 49.6685 51.1438C46.7827 52.1797 46.7087 56.6931 46.7087 56.6931C46.7087 56.6931 46.3387 60.3187 48.0406 61.6505L48.1146 61.7245C47.0787 62.8343 41.8249 63.1303 36.7192 63.0563C35.9792 60.1706 31.9094 60.1707 30.8734 61.3545C29.8375 62.5384 29.6895 64.4621 26.1376 65.35H26.0637C24.7317 62.3904 22.6598 61.4285 20.8839 61.4285C19.33 61.4285 17.9241 62.0944 17.4061 62.8343C16.2222 60.4666 16.0001 54.6213 16.8141 52.4756C20.9579 52.6976 21.6239 51.7357 21.9938 49.516C22.1418 48.7021 22.2158 47.6662 22.4378 46.4824C23.2518 42.0429 20.07 38.5654 18.1461 39.1573C16.8881 36.4196 12.3003 36.6416 10.5984 42.3389C8.89645 48.0362 13.1143 53.6595 13.1143 53.6595C13.1143 53.6595 12.2263 57.211 11.6343 60.1707L11.5604 60.4666C10.0804 58.8388 7.56454 58.9868 5.34464 60.1707C4.0867 60.8366 2.90281 61.8724 2.16285 63.2043C0.016953 66.6818 4.01276 71.4912 4.01276 71.4912C4.01276 71.4912 2.16285 71.7872 0.682921 73.193C-0.13104 74.4509 4.16075 74.9688 5.49269 74.9688ZM182.27 68.2356C182.27 68.2356 202.619 63.0563 208.835 63.7222C208.835 63.7222 215.347 63.7962 217.123 65.35C217.862 66.0159 218.232 66.4599 218.232 66.8298V66.9038V66.9778C218.084 67.4958 217.344 67.8657 215.791 68.4576C213.053 69.4935 202.693 71.1213 199.289 71.1213C195.959 71.1213 190.484 70.5294 189.374 70.4554C188.338 70.3814 184.49 70.3814 184.49 70.3814L182.27 68.2356ZM168.803 64.3141C169.617 62.9823 176.72 63.1303 179.606 63.3523C179.754 63.0563 182.64 62.6863 186.414 62.6124C190.188 62.5384 194.776 62.8343 194.998 63.6482C195.22 64.4621 180.05 66.0899 180.05 66.0899C179.754 65.646 179.31 65.276 178.792 65.054C176.202 64.0182 171.393 66.0159 171.393 66.5339C171.319 67.1998 171.393 67.8657 169.839 68.8276C168.877 67.7177 167.989 65.72 168.803 64.3141ZM92.4385 63.2783C91.2546 63.7222 89.1087 66.5339 89.1087 66.5339C88.8127 65.8679 77.7132 63.5002 71.9414 62.4644C74.9753 61.1325 89.4786 61.7985 91.1805 61.7985C92.8824 61.7985 93.6225 62.8343 92.4385 63.2783ZM77.0472 70.1594H89.9226C89.9226 70.1594 90.2186 71.0473 89.2566 71.3433C88.2947 71.6392 89.0347 72.4531 89.5526 72.4531C90.1446 72.4531 94.8804 73.045 94.8064 73.563C94.7324 74.0809 88.1467 74.5989 87.1847 73.9329C86.2227 73.341 85.1868 73.045 84.1509 73.045C83.1149 73.045 80.969 73.193 80.747 72.8231C80.5251 72.4531 78.8232 71.6392 78.3792 71.6392C78.0832 71.7132 77.0472 70.1594 77.0472 70.1594ZM61.6559 70.1594C61.8779 70.2334 64.0239 70.1594 64.0239 70.1594C64.0239 70.1594 64.0238 71.8612 63.4319 71.7132C62.9139 71.6392 61.6559 70.1594 61.6559 70.1594ZM57.3642 64.9061C57.3642 64.9061 67.2057 64.6101 70.1655 64.6841C73.1254 64.7581 85.2608 66.3119 86.9628 66.9778C88.6647 67.5698 87.8507 68.9016 87.8507 68.9016C87.8507 68.9016 77.7132 68.4576 75.1233 68.1617C75.1233 67.5697 73.7173 66.0899 72.3854 66.6079C70.9055 64.7581 68.8337 65.9419 68.0197 67.2738C65.2078 66.8298 64.3938 68.3836 64.3938 68.3836C64.3938 68.3836 61.212 68.0877 59.5841 68.3097C58.7701 67.4958 57.4382 65.054 57.3642 64.9061ZM44.7848 70.9733C44.5628 70.2334 49.9645 70.4554 49.9645 70.4554C50.1125 71.5652 48.0406 71.7132 46.7827 71.7872C45.9687 71.7872 45.4508 71.7872 45.1548 71.5652C45.0068 71.4172 44.9328 71.1953 44.7848 70.9733ZM41.6029 67.9397C41.2329 67.1998 35.7572 67.1998 36.0532 66.7558C36.3492 66.3119 40.937 66.0899 43.3788 66.5339C45.8207 66.9778 47.3746 66.6079 47.5226 66.0899C47.6706 65.572 50.0385 65.646 50.5565 65.72C51.0744 65.794 51.0005 64.5361 51.9624 64.6101C52.9244 64.7581 53.6644 64.6101 53.6644 64.6101C53.6644 64.6101 53.6644 64.7581 53.6644 64.9061C53.5904 66.0159 53.3683 69.6415 52.4064 69.4935C51.2224 69.2715 51.0745 68.0877 50.3345 68.0137C49.4466 67.9397 41.9729 68.6796 41.6029 67.9397ZM30.5034 70.3814C30.5774 70.2334 30.6514 70.0854 30.8734 69.8634C31.5394 69.0495 42.4168 70.1594 42.4168 70.1594C42.9348 70.8993 42.1209 71.3433 41.6029 71.7872C41.4549 71.9352 41.3069 72.0832 41.2329 72.2312C41.0109 72.8231 38.643 72.7491 37.2371 72.8971C35.7572 73.0451 36.2012 72.1572 36.0532 72.0092C35.9052 71.8612 34.9432 72.2312 34.2033 71.7872C33.4633 71.3433 33.0194 71.1953 31.7614 71.1213C30.7255 70.9733 30.3554 70.8253 30.5034 70.3814Z" fill="url(#paint0_radial)"/>
<g opacity="0.1">
<path opacity="0.1" d="M5.49269 74.9688C6.82463 74.9688 60.324 75.6347 60.324 75.6347C60.324 75.6347 79.7111 74.9688 80.155 76.8186C80.599 78.6684 85.0389 78.0764 87.9987 78.2244C90.8846 78.3724 121.445 77.8545 126.181 78.1504C130.991 78.4464 145.864 77.7065 148.38 77.3365C150.896 76.9666 165.325 76.0787 176.055 76.2267C186.784 76.3007 196.848 75.6347 202.323 74.4509C207.799 73.267 220.822 72.971 232.514 72.6751C239.321 72.5271 242.059 71.1213 243.243 69.6415C244.057 68.6056 244.131 67.4218 244.279 66.6079C244.649 65.2021 242.429 61.2065 240.875 58.9128C240.283 58.0249 239.765 57.433 239.543 57.285C238.655 56.8411 238.211 55.6572 238.729 54.6214C239.025 53.9554 238.951 52.5496 238.507 51.3658C238.211 50.6258 237.768 49.886 237.25 49.59C237.915 48.7761 238.36 47.6662 238.581 46.5564C239.395 42.0429 236.732 36.1236 230.368 36.4196C227.334 36.5676 225.854 38.3434 225.04 40.5631L224.966 40.7111C224.3 42.7089 224.3 44.9286 224.374 46.5564C224.374 46.6303 224.374 46.7783 224.374 46.8523C224.448 47.8142 224.596 48.5541 224.596 48.7021C217.418 49.812 222.82 55.5093 222.82 55.5093C222.672 55.5093 222.45 55.5093 222.302 55.5093C220.526 55.4353 219.342 55.9532 218.528 56.7671C216.53 58.9128 217.418 62.9823 217.418 62.9823C217.418 62.9823 216.604 63.2043 215.569 62.9823C213.423 59.2828 209.279 60.1707 207.133 61.3545C204.987 62.6123 198.179 60.3187 198.179 60.3187C198.179 60.3187 199.289 57.8029 200.547 54.1774C201.805 50.6258 200.251 42.7828 194.554 46.1864C188.782 49.59 193.148 55.0653 195.589 56.6191C194.998 59.1348 191.076 60.4666 189.448 60.5406C190.04 59.1348 188.19 57.285 186.562 57.359C184.934 57.433 185.23 59.5787 183.824 58.6168C182.418 57.655 180.79 60.0967 179.976 59.8747C179.162 59.5787 178.496 60.3186 177.312 60.4666C176.202 60.5406 175.685 61.5765 175.685 61.5765H168.137C168.137 61.5765 166.213 58.8388 164.733 58.3949C164.955 57.359 163.771 52.1057 163.031 50.9958C162.809 50.6258 162.365 50.9218 161.995 51.4398C161.255 52.4017 160.441 54.3254 160.441 54.3254C160.441 54.3254 160.441 54.3254 158.665 53.9554C159.109 52.9196 158.961 48.8501 156.593 48.5541C156.593 48.4061 156.593 48.3321 156.667 48.2581C156.667 48.2581 156.667 48.2582 156.667 48.1842C156.667 48.1102 156.667 48.0362 156.667 47.9622C156.889 45.2985 156.075 43.0048 154.966 41.229C153.856 39.6012 152.524 38.4174 151.636 38.0474C149.638 37.2335 149.416 40.1932 149.416 40.1932C149.416 40.1932 148.528 40.1931 147.64 41.007C145.272 40.4151 143.792 43.6707 144.384 47.6662C144.976 51.7357 149.342 51.7357 151.266 48.998C151.34 51.9577 153.042 54.9173 153.042 54.9173C153.042 54.9173 151.044 55.2873 150.6 55.1393C150.156 54.9173 150.008 56.7671 149.12 58.0249C148.824 57.729 148.528 57.581 148.232 57.433C146.678 56.7671 144.606 57.655 144.236 58.1729C143.718 58.6169 139.796 49.9599 139.426 50.1819C139.056 50.4039 136.318 50.7739 135.652 49.59C134.986 48.4801 133.581 43.2268 132.545 43.4487C131.509 43.7447 131.583 42.5609 129.437 41.377C127.291 40.1192 125.663 47.0003 124.701 48.4061C123.739 49.8119 123.739 48.7761 122.555 48.1842C121.371 47.5922 120.631 50.4039 120.631 51.3658C120.631 52.3276 119.299 52.1057 118.263 51.5877C117.227 50.9958 113.749 55.5092 112.492 55.9532C111.234 56.3231 107.238 50.7738 106.72 49.8859C106.276 49.072 102.354 54.2514 101.614 54.9913C100.874 55.7312 99.2461 51.8097 98.5802 50.8478C97.9142 49.8859 97.3222 55.1393 96.2863 55.9532C95.2503 56.6931 95.3984 60.0227 95.3984 60.0227C95.3984 60.0227 88.8126 59.3567 87.1107 58.9868C85.4088 58.6168 81.931 54.1034 77.8612 54.1034C73.7914 54.1034 75.1233 58.9128 72.9034 58.3209C70.6095 57.729 69.8696 59.3568 68.4636 61.0586C67.0577 62.7604 57.2902 58.9128 57.2902 58.9128C57.2902 58.9128 57.6602 57.433 58.7701 54.9913C59.0661 54.3994 59.3621 53.7334 59.732 53.0675C62.0259 53.8074 63.9499 52.4756 64.8378 48.1102C65.0598 47.0003 65.0598 45.9644 64.9118 44.9285C64.4678 41.9689 62.5439 39.6752 59.066 39.6012C54.4783 39.5273 53.6643 46.0384 54.1823 51.8097C52.1844 50.8478 50.7785 50.7738 49.6685 51.1438C46.7827 52.1797 46.7087 56.6931 46.7087 56.6931C46.7087 56.6931 46.3387 60.3187 48.0406 61.6505L48.1146 61.7245C47.0787 62.8343 41.8249 63.1303 36.7192 63.0563C35.9792 60.1706 31.9094 60.1707 30.8734 61.3545C29.8375 62.5384 29.6895 64.4621 26.1376 65.35H26.0637C24.7317 62.3904 22.6598 61.4285 20.8839 61.4285C19.33 61.4285 17.9241 62.0944 17.4061 62.8343C16.2222 60.4666 16.0001 54.6213 16.8141 52.4756C20.9579 52.6976 21.6239 51.7357 21.9938 49.516C22.1418 48.7021 22.2158 47.6662 22.4378 46.4824C23.2518 42.0429 20.07 38.5654 18.1461 39.1573C16.8881 36.4196 12.3003 36.6416 10.5984 42.3389C8.89645 48.0362 13.1143 53.6595 13.1143 53.6595C13.1143 53.6595 12.2263 57.211 11.6343 60.1707L11.5604 60.4666C10.0804 58.8388 7.56454 58.9868 5.34464 60.1707C4.0867 60.8366 2.90281 61.8724 2.16285 63.2043C0.016953 66.6818 4.01276 71.4912 4.01276 71.4912C4.01276 71.4912 2.16285 71.7872 0.682921 73.193C-0.13104 74.4509 4.16075 74.9688 5.49269 74.9688ZM182.27 68.2356C182.27 68.2356 202.619 63.0563 208.835 63.7222C208.835 63.7222 215.347 63.7962 217.123 65.35C217.862 66.0159 218.232 66.4599 218.232 66.8298V66.9038V66.9778C218.084 67.4958 217.344 67.8657 215.791 68.4576C213.053 69.4935 202.693 71.1213 199.289 71.1213C195.959 71.1213 190.484 70.5294 189.374 70.4554C188.338 70.3814 184.49 70.3814 184.49 70.3814L182.27 68.2356ZM168.803 64.3141C169.617 62.9823 176.72 63.1303 179.606 63.3523C179.754 63.0563 182.64 62.6863 186.414 62.6124C190.188 62.5384 194.776 62.8343 194.998 63.6482C195.22 64.4621 180.05 66.0899 180.05 66.0899C179.754 65.646 179.31 65.276 178.792 65.054C176.202 64.0182 171.393 66.0159 171.393 66.5339C171.319 67.1998 171.393 67.8657 169.839 68.8276C168.877 67.7177 167.989 65.72 168.803 64.3141ZM92.4385 63.2783C91.2546 63.7222 89.1087 66.5339 89.1087 66.5339C88.8127 65.8679 77.7132 63.5002 71.9414 62.4644C74.9753 61.1325 89.4786 61.7985 91.1805 61.7985C92.8824 61.7985 93.6225 62.8343 92.4385 63.2783ZM77.0472 70.1594H89.9226C89.9226 70.1594 90.2186 71.0473 89.2566 71.3433C88.2947 71.6392 89.0347 72.4531 89.5526 72.4531C90.1446 72.4531 94.8804 73.045 94.8064 73.563C94.7324 74.0809 88.1467 74.5989 87.1847 73.9329C86.2227 73.341 85.1868 73.045 84.1509 73.045C83.1149 73.045 80.969 73.193 80.747 72.8231C80.5251 72.4531 78.8232 71.6392 78.3792 71.6392C78.0832 71.7132 77.0472 70.1594 77.0472 70.1594ZM61.6559 70.1594C61.8779 70.2334 64.0239 70.1594 64.0239 70.1594C64.0239 70.1594 64.0238 71.8612 63.4319 71.7132C62.9139 71.6392 61.6559 70.1594 61.6559 70.1594ZM57.3642 64.9061C57.3642 64.9061 67.2057 64.6101 70.1655 64.6841C73.1254 64.7581 85.2608 66.3119 86.9628 66.9778C88.6647 67.5698 87.8507 68.9016 87.8507 68.9016C87.8507 68.9016 77.7132 68.4576 75.1233 68.1617C75.1233 67.5697 73.7173 66.0899 72.3854 66.6079C70.9055 64.7581 68.8337 65.9419 68.0197 67.2738C65.2078 66.8298 64.3938 68.3836 64.3938 68.3836C64.3938 68.3836 61.212 68.0877 59.5841 68.3097C58.7701 67.4958 57.4382 65.054 57.3642 64.9061ZM44.7848 70.9733C44.5628 70.2334 49.9645 70.4554 49.9645 70.4554C50.1125 71.5652 48.0406 71.7132 46.7827 71.7872C45.9687 71.7872 45.4508 71.7872 45.1548 71.5652C45.0068 71.4172 44.9328 71.1953 44.7848 70.9733ZM41.6029 67.9397C41.2329 67.1998 35.7572 67.1998 36.0532 66.7558C36.3492 66.3119 40.937 66.0899 43.3788 66.5339C45.8207 66.9778 47.3746 66.6079 47.5226 66.0899C47.6706 65.572 50.0385 65.646 50.5565 65.72C51.0744 65.794 51.0005 64.5361 51.9624 64.6101C52.9244 64.7581 53.6644 64.6101 53.6644 64.6101C53.6644 64.6101 53.6644 64.7581 53.6644 64.9061C53.5904 66.0159 53.3683 69.6415 52.4064 69.4935C51.2224 69.2715 51.0745 68.0877 50.3345 68.0137C49.4466 67.9397 41.9729 68.6796 41.6029 67.9397ZM30.5034 70.3814C30.5774 70.2334 30.6514 70.0854 30.8734 69.8634C31.5394 69.0495 42.4168 70.1594 42.4168 70.1594C42.9348 70.8993 42.1209 71.3433 41.6029 71.7872C41.4549 71.9352 41.3069 72.0832 41.2329 72.2312C41.0109 72.8231 38.643 72.7491 37.2371 72.8971C35.7572 73.0451 36.2012 72.1572 36.0532 72.0092C35.9052 71.8612 34.9432 72.2312 34.2033 71.7872C33.4633 71.3433 33.0194 71.1953 31.7614 71.1213C30.7255 70.9733 30.3554 70.8253 30.5034 70.3814Z" fill="url(#paint1_linear)"/>
</g>
<path d="M197.735 14.9624C197.735 14.9624 194.998 17.0341 197.069 19.3278C199.141 21.6216 202.249 18.7359 201.953 16.4422C203.507 15.6283 204.395 12.9646 202.693 11.5588C202.619 8.74717 199.881 8.5992 199.141 8.74718C197.957 6.23149 194.924 6.1575 194.036 7.93328C192.186 8.67318 187.154 12.8906 190.41 24.7292C190.854 20.3637 192.482 16.2202 194.036 15.4063C194.184 13.6306 197.365 12.4467 197.735 14.9624Z" fill="#D9F7FF"/>
<path opacity="0.1" d="M197.735 14.9624C197.735 14.9624 194.998 17.0341 197.069 19.3278C199.141 21.6216 202.249 18.7359 201.953 16.4422C203.507 15.6283 204.395 12.9646 202.693 11.5588C202.619 8.74717 199.881 8.5992 199.141 8.74718C197.957 6.23149 194.924 6.1575 194.036 7.93328C192.186 8.67318 187.154 12.8906 190.41 24.7292C190.854 20.3637 192.482 16.2202 194.036 15.4063C194.184 13.6306 197.365 12.4467 197.735 14.9624Z" fill="url(#paint2_linear)"/>
<path d="M181.678 8.96924C181.678 8.96924 183.75 11.5589 182.418 12.4468C181.086 13.3347 181.678 8.96924 181.678 8.96924Z" fill="#D9F7FF"/>
<path d="M181.678 8.96924C181.678 8.96924 183.75 11.5589 182.418 12.4468C181.086 13.3347 181.678 8.96924 181.678 8.96924Z" fill="url(#paint3_radial)"/>
<path opacity="0.1" d="M181.678 8.96924C181.678 8.96924 183.75 11.5589 182.418 12.4468C181.086 13.3347 181.678 8.96924 181.678 8.96924Z" fill="url(#paint4_linear)"/>
<path d="M190.632 45.8907C190.632 45.8907 193.37 41.8212 192.038 38.7875C190.78 35.7539 192.556 28.6508 191.52 28.7988C190.41 28.9468 185.452 27.245 185.23 32.5723C185.008 37.8997 188.856 38.0476 189.152 37.2337C189.522 36.4938 190.928 43.227 190.632 45.8907Z" fill="#D9F7FF"/>
<path opacity="0.1" d="M190.632 45.8907C190.632 45.8907 193.37 41.8212 192.038 38.7875C190.78 35.7539 192.556 28.6508 191.52 28.7988C190.41 28.9468 185.452 27.245 185.23 32.5723C185.008 37.8997 188.856 38.0476 189.152 37.2337C189.522 36.4938 190.928 43.227 190.632 45.8907Z" fill="url(#paint5_linear)"/>
<path d="M131.435 20.8818C131.435 20.8818 132.249 27.171 131.435 26.801C130.621 26.4311 130.399 26.6531 129.659 27.319C128.919 27.9849 126.403 28.1329 126.699 26.0611C126.995 23.9894 128.549 17.4782 131.435 20.8818Z" fill="#D9F7FF"/>
<path opacity="0.1" d="M131.435 20.8818C131.435 20.8818 132.249 27.171 131.435 26.801C130.621 26.4311 130.399 26.6531 129.659 27.319C128.919 27.9849 126.403 28.1329 126.699 26.0611C126.995 23.9894 128.549 17.4782 131.435 20.8818Z" fill="url(#paint6_linear)"/>
<path d="M129.881 31.6843C130.473 31.9803 131.953 32.4242 130.769 33.904C129.585 35.3838 128.623 35.6798 128.549 34.348C128.475 32.9421 128.105 30.7964 129.881 31.6843Z" fill="#D9F7FF"/>
<path opacity="0.1" d="M129.881 31.6843C130.473 31.9803 131.953 32.4242 130.769 33.904C129.585 35.3838 128.623 35.6798 128.549 34.348C128.475 32.9421 128.105 30.7964 129.881 31.6843Z" fill="url(#paint7_linear)"/>
<path d="M96.8783 36.4198C96.8783 36.4198 97.3222 41.2292 94.8804 43.5969C94.8804 43.5969 96.1383 43.7449 94.8804 45.3727C93.6224 47.0005 90.5146 48.8502 89.1827 47.2964C87.8507 45.7426 85.3348 41.3772 86.3708 35.2359C87.4067 29.0947 91.9946 19.4019 90.9586 17.7001C89.9227 15.9983 87.3328 7.11943 83.559 7.11943C85.1869 8.59924 86.2968 11.5589 83.559 13.2607C80.8211 14.9624 77.9352 12.9647 78.5272 10.523C76.6773 9.63509 78.1572 3.41988 81.117 1.86608C80.969 -0.131673 85.8528 -0.87158 87.3328 1.86608C88.8127 4.60374 93.6964 10.8929 93.4744 15.1104C93.2524 19.4019 90.6626 25.7651 89.9226 28.2808C89.1827 30.8704 87.5547 41.3031 90.6626 43.8188L91.6245 42.413C91.6245 42.413 89.6266 39.6014 91.2545 37.0857C93.0304 34.496 96.8783 36.4198 96.8783 36.4198Z" fill="#D9F7FF"/>
<path opacity="0.1" d="M96.8783 36.4198C96.8783 36.4198 97.3222 41.2292 94.8804 43.5969C94.8804 43.5969 96.1383 43.7449 94.8804 45.3727C93.6224 47.0005 90.5146 48.8502 89.1827 47.2964C87.8507 45.7426 85.3348 41.3772 86.3708 35.2359C87.4067 29.0947 91.9946 19.4019 90.9586 17.7001C89.9227 15.9983 87.3328 7.11943 83.559 7.11943C85.1869 8.59924 86.2968 11.5589 83.559 13.2607C80.8211 14.9624 77.9352 12.9647 78.5272 10.523C76.6773 9.63509 78.1572 3.41988 81.117 1.86608C80.969 -0.131673 85.8528 -0.87158 87.3328 1.86608C88.8127 4.60374 93.6964 10.8929 93.4744 15.1104C93.2524 19.4019 90.6626 25.7651 89.9226 28.2808C89.1827 30.8704 87.5547 41.3031 90.6626 43.8188L91.6245 42.413C91.6245 42.413 89.6266 39.6014 91.2545 37.0857C93.0304 34.496 96.8783 36.4198 96.8783 36.4198Z" fill="url(#paint8_linear)"/>
<path d="M75.7153 44.6326C75.7153 44.6326 77.7133 46.5564 76.8993 47.8142C76.0854 49.0721 74.5314 48.5542 74.4574 47.2223C74.3094 45.9645 73.6434 43.2268 75.7153 44.6326Z" fill="#D9F7FF"/>
<path d="M75.7153 44.6326C75.7153 44.6326 77.7133 46.5564 76.8993 47.8142C76.0854 49.0721 74.5314 48.5542 74.4574 47.2223C74.3094 45.9645 73.6434 43.2268 75.7153 44.6326Z" fill="url(#paint9_radial)"/>
<path opacity="0.1" d="M75.7153 44.6326C75.7153 44.6326 77.7133 46.5564 76.8993 47.8142C76.0854 49.0721 74.5314 48.5542 74.4574 47.2223C74.3094 45.9645 73.6434 43.2268 75.7153 44.6326Z" fill="url(#paint10_linear)"/>
<path d="M72.2375 16.9601C72.2375 16.9601 73.7174 23.3973 72.2375 24.5071C70.7575 25.617 68.9816 26.2089 67.9456 24.5071C66.9097 22.8054 62.7659 16.0722 65.7257 14.6664C68.6116 13.2606 71.7195 14.2224 72.2375 16.9601Z" fill="#D9F7FF"/>
<path opacity="0.1" d="M72.2375 16.9601C72.2375 16.9601 73.7174 23.3973 72.2375 24.5071C70.7575 25.617 68.9816 26.2089 67.9456 24.5071C66.9097 22.8054 62.7659 16.0722 65.7257 14.6664C68.6116 13.2606 71.7195 14.2224 72.2375 16.9601Z" fill="url(#paint11_linear)"/>
<path d="M60.3981 15.1845C60.3981 15.1845 62.322 18.884 60.3981 20.0679C58.4742 21.3257 57.7342 20.0679 57.7342 20.0679C57.7342 20.0679 56.0323 22.7315 54.0344 19.254C52.7765 20.4378 53.1465 26.2091 53.2944 26.875C53.5164 27.6149 57.2162 31.9064 55.3663 37.3817C53.9604 33.3862 51.9625 29.9826 51.2225 29.4647C50.4825 28.9468 50.1866 25.8391 51.2225 23.9154C51.0745 20.6598 50.7046 15.7024 54.3304 15.1105C53.6644 12.8907 59.2141 10.4491 60.3981 15.1845Z" fill="#D9F7FF"/>
<path opacity="0.1" d="M60.3981 15.1845C60.3981 15.1845 62.322 18.884 60.3981 20.0679C58.4742 21.3257 57.7342 20.0679 57.7342 20.0679C57.7342 20.0679 56.0323 22.7315 54.0344 19.254C52.7765 20.4378 53.1465 26.2091 53.2944 26.875C53.5164 27.6149 57.2162 31.9064 55.3663 37.3817C53.9604 33.3862 51.9625 29.9826 51.2225 29.4647C50.4825 28.9468 50.1866 25.8391 51.2225 23.9154C51.0745 20.6598 50.7046 15.7024 54.3304 15.1105C53.6644 12.8907 59.2141 10.4491 60.3981 15.1845Z" fill="url(#paint12_linear)"/>
<path d="M42.2689 52.5497C42.2689 52.5497 42.6389 55.8053 41.6029 55.7313C40.567 55.6573 39.753 53.9555 40.123 52.8457C40.567 51.8098 42.2689 52.5497 42.2689 52.5497Z" fill="#D9F7FF"/>
<path d="M42.2689 52.5497C42.2689 52.5497 42.6389 55.8053 41.6029 55.7313C40.567 55.6573 39.753 53.9555 40.123 52.8457C40.567 51.8098 42.2689 52.5497 42.2689 52.5497Z" fill="url(#paint13_radial)"/>
<path opacity="0.1" d="M42.2689 52.5497C42.2689 52.5497 42.6389 55.8053 41.6029 55.7313C40.567 55.6573 39.753 53.9555 40.123 52.8457C40.567 51.8098 42.2689 52.5497 42.2689 52.5497Z" fill="url(#paint14_linear)"/>
<path d="M36.2013 48.9242C36.5712 48.8502 39.0871 49.1462 38.1991 49.8121C37.3112 50.478 34.6473 50.848 34.6473 49.8121C34.7213 48.7762 36.2013 48.9242 36.2013 48.9242Z" fill="#D9F7FF"/>
<path d="M36.2013 48.9242C36.5712 48.8502 39.0871 49.1462 38.1991 49.8121C37.3112 50.478 34.6473 50.848 34.6473 49.8121C34.7213 48.7762 36.2013 48.9242 36.2013 48.9242Z" fill="url(#paint15_radial)"/>
<path opacity="0.1" d="M36.2013 48.9242C36.5712 48.8502 39.0871 49.1462 38.1991 49.8121C37.3112 50.478 34.6473 50.848 34.6473 49.8121C34.7213 48.7762 36.2013 48.9242 36.2013 48.9242Z" fill="url(#paint16_linear)"/>
<path opacity="0.2" d="M178.866 65.0542C179.31 65.4242 179.754 65.7941 180.124 66.0901C179.828 65.5722 179.384 65.2762 178.866 65.0542Z" fill="#0071BC"/>
<path opacity="0.2" d="M161.181 69.4197C163.697 70.7515 169.839 68.9017 169.839 68.9017C168.877 67.7179 167.989 65.7201 168.803 64.3143C169.617 62.9825 176.72 63.1305 179.606 63.3524C179.754 63.0565 182.64 62.6865 186.414 62.6125C190.188 62.5385 194.776 62.8345 194.998 63.6484C195.22 64.4623 180.05 66.0901 180.05 66.0901C180.79 66.608 182.196 68.2358 182.196 68.2358C182.196 68.2358 202.545 63.0565 208.761 63.7224C208.761 63.7224 215.273 63.7964 217.048 65.3502C217.788 66.0161 218.158 66.46 218.158 66.83C218.232 65.9421 217.714 62.8345 217.714 62.8345C217.714 62.8345 216.901 63.0565 215.865 62.8345C213.719 59.1349 209.575 60.0228 207.429 61.2067C205.283 62.4645 198.475 60.1708 198.475 60.1708C198.475 60.1708 199.585 57.6552 200.843 54.0296C202.101 50.478 200.547 42.635 194.85 46.0386C189.078 49.4421 193.444 54.9175 195.886 56.4713C195.294 58.987 191.372 60.3188 189.744 60.3928C190.336 58.987 188.486 57.1372 186.858 57.2112C185.23 57.2852 185.526 59.4309 184.12 58.4691C182.714 57.5072 181.086 59.9488 180.272 59.7269C179.458 59.4309 178.792 60.1708 177.608 60.3188C176.498 60.3928 175.98 61.4287 175.98 61.4287H168.433C168.433 61.4287 166.509 58.691 165.029 58.247C165.251 57.2112 164.067 51.9578 163.327 50.848C162.957 50.9959 162.661 51.144 162.291 51.2919C161.551 52.2538 160.737 54.1776 160.737 54.1776C160.737 54.1776 160.737 54.1776 158.961 53.8076C153.264 58.1731 158.665 68.0878 161.181 69.4197Z" fill="#0071BC"/>
<g opacity="0.2">
<path opacity="0.2" d="M57.3642 64.9062C57.3642 64.9062 67.2057 64.6103 70.1655 64.6843C73.1254 64.7583 85.2609 66.3121 86.9628 66.978C88.6647 67.5699 87.8507 68.9018 87.8507 68.9018C87.8507 68.9018 77.7132 68.4578 75.1234 68.1619C76.6773 68.3098 77.0472 70.2336 77.0472 70.2336H89.9226C89.9226 70.2336 90.2186 71.1215 89.2567 71.4175C88.2947 71.7134 89.0347 72.5273 89.5527 72.5273C90.1446 72.5273 94.8804 73.1193 94.8064 73.6372C97.1743 73.8592 104.278 72.1574 106.572 71.8614C108.866 71.5654 109.976 69.7157 110.642 68.9018C111.308 68.0879 112.196 68.6058 112.64 69.6417C113.083 70.6775 115.081 70.8995 116.339 71.7134C117.597 72.6013 114.563 73.4152 114.193 74.3031C113.823 75.117 138.168 74.1551 139.796 74.3031C141.424 74.3771 142.608 73.8591 143.274 72.8233C143.866 71.7874 146.752 72.3053 149.342 72.2313C151.932 72.1574 151.562 68.9018 151.562 67.7919C151.562 66.682 151.044 64.9062 150.97 65.4242C150.822 65.9421 145.79 70.4556 144.31 65.4242C142.904 60.6148 144.162 58.2471 144.31 58.0251C143.792 58.4691 139.87 49.8121 139.5 50.0341C139.13 50.2561 136.392 50.626 135.726 49.4422C135.061 48.3323 133.655 43.079 132.619 43.301C131.583 43.5969 131.657 42.413 129.511 41.2292C127.365 39.9714 125.737 46.8525 124.775 48.2583C123.813 49.6641 123.813 48.6283 122.629 48.0364C121.445 47.4444 120.705 50.2561 120.705 51.2179C120.705 52.1798 119.373 51.9579 118.337 51.44C117.301 50.848 113.823 55.3614 112.566 55.8054C111.308 56.1753 107.312 50.626 106.794 49.7381C106.35 48.9242 102.428 54.1036 101.688 54.8435C100.948 55.5834 99.3201 51.6619 98.6542 50.7C97.9882 49.7382 97.3963 54.9915 96.3603 55.8054C95.3244 56.5453 95.4724 59.8749 95.4724 59.8749C95.4724 59.8749 88.8866 59.209 87.1847 58.839C85.4828 58.4691 82.005 53.9556 77.9352 53.9556C73.8654 53.9556 75.1973 58.765 72.9774 58.1731C70.6836 57.5812 69.9436 59.209 68.5377 60.9108C67.1317 62.6126 57.3642 58.765 57.3642 58.765C55.8103 60.8368 57.3642 64.9062 57.3642 64.9062ZM71.9415 62.4646C74.9753 61.1327 89.4786 61.7987 91.1805 61.7987C92.8825 61.7987 93.6965 62.8345 92.5125 63.2785C91.3286 63.7224 89.1827 66.534 89.1827 66.534C88.8127 65.7941 77.7132 63.5004 71.9415 62.4646ZM59.5841 68.2358L61.6559 70.1596C61.8779 70.2336 64.0239 70.1596 64.0239 70.1596C64.0979 69.4937 64.3939 68.3098 64.3939 68.3098C64.3939 68.3098 61.286 67.9399 59.5841 68.2358Z" fill="#476B82"/>
</g>
<path opacity="0.2" d="M55.0703 58.9128C55.9583 55.5093 54.5523 51.7357 54.5523 51.7357C52.5544 50.7738 51.1485 50.6999 50.0386 51.0698C55.3663 52.4017 55.0703 58.9128 55.0703 58.9128Z" fill="#0071BC"/>
<path opacity="0.2" d="M59.1402 54.9175C59.4362 54.3255 59.7321 53.6596 60.1021 52.9937C62.396 53.7336 64.3199 52.4018 65.2078 48.0363C65.4298 46.9265 65.4298 45.8906 65.2818 44.8547C65.3558 46.5565 63.5799 50.922 61.656 51.9578C59.7321 52.9937 59.5841 49.7381 58.7702 47.0005C57.6602 49.6642 59.0662 54.6215 59.1402 54.9175Z" fill="#0071BC"/>
<path opacity="0.2" d="M16.5922 65.7202C17.7021 62.4646 21.2539 61.3547 21.2539 61.3547C19.7 61.3547 18.2941 62.0207 17.7761 62.7606C16.5922 60.3929 16.3701 54.5476 17.1841 52.4019C15.7782 53.2158 16.3702 62.1686 16.5922 65.7202Z" fill="#0071BC"/>
<path opacity="0.2" d="M17.2581 52.4017C21.4019 52.6237 22.0678 51.6618 22.4378 49.4421C22.4378 49.4421 21.032 51.5878 17.7021 50.6999C15.7042 50.182 15.1122 47.4443 15.1122 47.4443C15.1122 47.4443 13.5582 51.0699 17.2581 52.4017Z" fill="#0071BC"/>
<path opacity="0.2" d="M5.86271 60.0228C9.56254 58.765 11.6344 62.6125 11.6344 62.6125L12.0783 60.3188C10.5984 58.691 8.08261 58.839 5.86271 60.0228Z" fill="#0071BC"/>
<path opacity="0.2" d="M24.2138 70.9734C27.0996 69.7895 29.9855 70.3075 30.5035 70.3815C30.5775 70.2335 30.6515 70.0855 30.8735 69.8635C31.5394 69.0496 42.4169 70.1595 42.4169 70.1595C42.9349 70.8994 42.1209 71.3434 41.6029 71.7873C41.6769 71.7873 41.677 71.7873 41.751 71.7133C42.565 71.3433 44.7848 71.4913 45.2288 71.4913C45.0808 71.3434 44.9328 71.1954 44.8588 70.8994C44.6368 70.1595 50.0386 70.3815 50.0386 70.3815H50.1125C50.4085 69.7156 51.9624 69.4936 52.3324 69.4936C51.1485 69.2716 51.0005 68.0878 50.2606 68.0138C49.5206 67.8658 41.9729 68.6057 41.6029 67.8658C41.233 67.1259 35.7572 67.1259 36.0532 66.6819C36.3492 66.238 40.937 66.016 43.3789 66.46C45.8208 66.9039 47.3747 66.5339 47.5227 66.016C47.6707 65.4981 50.0385 65.5721 50.5565 65.6461C51.0745 65.72 51.0005 64.4622 51.9624 64.5362C52.9244 64.6842 53.6644 64.5362 53.6644 64.5362C53.6644 64.5362 53.6644 64.6842 53.6644 64.8322L53.7384 64.5362L54.2563 62.2425C54.2563 62.2425 53.9603 62.0205 53.5164 61.6506L53.7384 61.5766C53.7384 61.5766 53.6643 56.9892 52.4064 57.3591C51.0745 57.6551 51.2225 61.5766 51.2225 61.5766C50.1125 62.6124 48.6326 61.5766 48.6326 61.5766L48.4846 61.5026L48.5586 61.5766C47.5227 62.6864 42.2689 62.9824 37.1632 62.9084C36.4232 60.0228 32.3534 60.0228 31.3174 61.2066C30.2815 62.3905 30.1335 64.3142 26.5817 65.2021C27.3957 67.9398 25.8417 69.5676 24.2138 70.9734Z" fill="#0071BC"/>
<path opacity="0.2" d="M148.306 57.3591C148.306 57.3591 150.6 61.9465 151.858 61.6506C153.042 61.3546 154.152 59.3569 152.894 59.1349C151.636 58.9869 150.6 56.1753 150.674 54.9914C150.23 54.7694 150.082 56.6192 149.194 57.877C148.972 57.6551 148.676 57.5071 148.306 57.3591Z" fill="#0071BC"/>
<path opacity="0.2" d="M155.261 53.1415C155.261 53.8814 155.927 51.4398 155.927 50.1819C155.927 48.9241 156.815 48.1102 156.815 48.1102C156.815 48.1102 156.815 48.1101 156.815 48.0362C156.815 47.9622 156.815 47.8882 156.815 47.8142C157.037 45.1505 156.223 42.8568 155.114 41.0811C156.149 43.8927 155.261 52.4016 155.261 53.1415Z" fill="#0071BC"/>
<path opacity="0.2" d="M218.824 56.6932C218.824 56.6932 225.41 54.2515 228.814 61.2066C229.11 58.7649 227.038 55.7313 223.116 55.4353C222.968 55.4353 222.746 55.4353 222.598 55.4353C220.822 55.2874 219.638 55.8793 218.824 56.6932Z" fill="#0071BC"/>
<path opacity="0.2" d="M224.596 46.4825C224.596 46.5565 224.596 46.7045 224.596 46.7785C224.67 47.4444 224.744 48.0363 224.818 48.6282C225.04 50.7 227.482 53.8816 227.63 54.0296C224.892 49.4422 225.188 40.4893 225.188 40.4893L225.114 40.6372C224.522 42.635 224.522 44.8547 224.596 46.4825Z" fill="#0071BC"/>
<path opacity="0.2" d="M231.626 50.922C232.292 51.44 232.292 52.9938 232.292 54.1036C232.292 55.2135 233.994 57.0633 235.844 58.0991C237.694 59.135 236.806 61.2067 236.806 61.2067C236.806 61.2067 237.324 61.0588 240.579 63.5005C243.391 65.4982 243.465 68.7538 243.391 69.7156C244.205 68.6798 244.279 67.4959 244.427 66.682C244.797 65.2762 242.577 61.2807 241.023 58.987C240.209 59.8749 238.359 60.0229 238.138 59.283C237.916 58.3211 236.066 57.3592 234.734 55.8794C233.328 54.3996 234.512 52.1799 234.512 52.1799C234.512 52.1799 233.55 51.07 232.958 49.2942C233.55 50.922 238.73 51.5879 238.73 51.5879C238.434 50.848 237.99 50.1081 237.472 49.8122C238.138 48.9983 238.582 47.8884 238.803 46.7785C238.064 48.6283 233.402 48.4063 232.662 47.9624C231.848 47.5184 233.18 45.7427 234.66 44.4108C230.812 43.9669 230.886 50.3301 231.626 50.922Z" fill="#0071BC"/>
<path opacity="0.8" d="M132.619 47.8145C132.693 49.6642 130.251 45.4467 129.807 46.4086C129.363 47.3705 127.291 57.0633 126.625 54.9916C125.959 52.9198 125.811 51.1441 124.849 54.0297C123.887 56.9153 121.297 60.6149 121.445 59.0611C121.593 57.4333 117.079 57.5073 115.969 59.0611C114.859 60.6149 116.783 54.7696 118.041 54.9916C119.299 55.2135 123.073 56.4714 123.295 54.0297C123.517 51.662 126.255 50.1082 126.551 50.4041C126.847 50.7001 127.661 47.4445 128.327 45.9647C129.141 44.4849 132.471 44.1889 132.619 47.8145Z" fill="url(#paint17_linear)"/>
<path opacity="0.8" d="M141.646 60.8368C141.646 60.8368 139.648 51.366 137.798 52.4019C135.948 53.4377 135.134 53.7337 134.616 52.1799C134.099 50.6261 133.802 50.3301 133.432 52.4019C133.062 54.4736 135.578 58.6171 136.614 56.9153C137.576 55.1395 141.646 60.8368 141.646 60.8368Z" fill="url(#paint18_linear)"/>
<path opacity="0.8" d="M147.566 59.4308C147.566 59.4308 145.198 62.3905 145.79 65.0541C146.308 67.7178 143.2 64.5362 144.828 61.6506C146.382 58.6909 147.566 59.4308 147.566 59.4308Z" fill="url(#paint19_linear)"/>
<path opacity="0.8" d="M149.342 42.1169C149.342 42.1169 146.678 44.3367 147.122 47.8882C147.566 51.4398 145.716 48.9981 145.642 47.2223C145.494 45.5205 146.012 42.6349 149.342 42.1169Z" fill="url(#paint20_linear)"/>
<path opacity="0.8" d="M179.458 66.09C179.458 66.09 173.539 65.0542 172.577 66.9779C171.615 68.9017 169.395 71.8613 163.697 71.1954C157.999 70.5294 165.325 75.0429 168.507 73.2671C171.689 71.4914 175.019 64.8322 181.752 68.9756C180.272 67.4218 179.458 66.09 179.458 66.09Z" fill="url(#paint21_linear)"/>
<path opacity="0.8" d="M113.379 73.6372C113.379 73.6372 116.265 72.0094 115.229 71.7134C114.193 71.4175 111.974 70.8995 112.048 70.2336C112.122 69.4937 111.678 69.5677 110.346 70.2336C109.014 70.8995 105.24 74.0072 95.5464 74.0072C95.5464 74.0072 103.76 74.4511 107.09 72.9713C110.42 71.4915 111.234 71.3435 111.53 71.9354C111.826 72.5273 113.898 72.2314 113.528 72.7493C113.158 73.1193 113.379 73.6372 113.379 73.6372Z" fill="url(#paint22_linear)"/>
<path opacity="0.8" d="M106.942 64.0183C104.648 61.5027 105.314 57.5071 104.13 58.913C102.946 60.3188 100.652 64.0923 100.43 62.6125C100.282 61.1327 98.0623 63.2784 94.8804 65.5721C91.6986 67.8658 91.8466 72.0093 94.1405 69.7156C96.4344 67.4219 98.8762 63.2044 99.6902 65.1282C100.43 66.978 103.612 65.4981 104.13 64.5362C104.648 63.5744 107.83 68.9757 107.978 68.1618C108.2 67.2739 106.942 64.0183 106.942 64.0183Z" fill="url(#paint23_linear)"/>
<path opacity="0.8" d="M236.88 40.0453C236.88 40.0453 231.996 36.4197 228.814 37.9735C225.632 39.5273 227.186 48.3322 227.038 50.552C226.964 52.7717 228.592 39.6753 231.182 40.5632C233.772 41.3771 237.176 42.265 236.88 40.0453Z" fill="url(#paint24_linear)"/>
<path opacity="0.8" d="M227.704 61.5026C227.704 61.5026 222.154 54.7694 219.564 57.5811C216.974 60.3927 221.488 68.0877 218.898 69.6415C216.308 71.1954 220.526 72.2312 221.414 66.09C222.154 59.9488 227.704 61.5026 227.704 61.5026Z" fill="url(#paint25_linear)"/>
<path opacity="0.8" d="M237.842 62.7605C240.135 63.5004 236.14 70.5295 226.816 70.8255C233.624 71.9353 241.393 71.1955 241.689 68.0878C242.059 64.9802 237.842 62.7605 237.842 62.7605Z" fill="url(#paint26_linear)"/>
<path opacity="0.8" d="M198.771 47.2964C198.771 47.2964 193.74 48.3323 194.998 50.4041C196.256 52.4758 198.031 55.7314 197.218 57.5812C196.774 56.1753 196.108 54.7695 194.776 53.7336C193.444 52.6238 190.854 45.5207 198.771 47.2964Z" fill="url(#paint27_linear)"/>
<path opacity="0.8" d="M199.215 9.93099C199.215 9.93099 196.034 6.97137 195.294 7.93325C194.48 8.82114 191.076 10.301 189.966 17.4041C192.112 13.5566 193.74 10.153 195.146 10.153C196.552 10.153 199.215 11.1148 199.215 9.93099Z" fill="url(#paint28_linear)"/>
<path opacity="0.8" d="M200.843 15.7023C200.843 15.7023 199.067 17.996 198.771 16.2943C198.475 14.6665 197.069 15.6283 197.513 17.3301C197.883 19.0319 200.399 19.5498 200.843 15.7023Z" fill="url(#paint29_linear)"/>
<path opacity="0.8" d="M189.966 29.5387C190.114 29.6126 186.192 33.0162 186.858 36.1238C185.452 34.866 186.636 28.4288 189.966 29.5387Z" fill="url(#paint30_linear)"/>
<path opacity="0.8" d="M63.7279 48.9242C63.9499 48.7022 65.3559 41.1551 61.878 40.6372C58.4002 40.1193 55.8843 42.487 55.3663 44.7807C54.8483 47.0744 57.3642 42.783 59.2881 42.9309C61.2121 43.0789 62.766 45.5946 61.878 47.3704C60.9161 49.2202 62.988 49.6641 63.7279 48.9242Z" fill="url(#paint31_linear)"/>
<path opacity="0.8" d="M50.0386 52.7717C50.0386 52.7717 49.4466 58.913 50.5565 60.9107C48.0406 60.8367 46.4127 56.5453 50.0386 52.7717Z" fill="url(#paint32_linear)"/>
<path opacity="0.8" d="M68.7597 68.0877C68.7597 68.0877 65.0598 67.1258 64.6158 69.4935C64.2458 71.9352 64.0239 73.563 62.84 72.1572C61.656 70.8254 58.3261 67.8657 58.3261 67.8657C58.3261 67.8657 60.102 73.415 62.0259 73.933C63.9499 74.3769 64.5419 71.1213 66.1698 70.3814C67.7977 69.6415 68.7597 68.0877 68.7597 68.0877Z" fill="url(#paint33_linear)"/>
<path opacity="0.8" d="M23.6958 70.1595C23.6218 70.3815 27.6176 66.46 24.2138 63.2784C20.8099 60.0968 16.8142 65.6461 16.2962 66.6819C15.7782 67.7178 18.2941 68.6797 19.922 66.164C21.4759 63.7963 25.0278 66.9779 23.6958 70.1595Z" fill="url(#paint34_linear)"/>
<path opacity="0.8" d="M8.67456 60.8366C8.67456 60.8366 5.93673 62.3165 6.30671 65.7201C6.6767 69.1236 1.71893 68.6057 2.97687 65.7201C4.23481 62.8344 6.45467 60.1707 8.67456 60.8366Z" fill="url(#paint35_linear)"/>
<path opacity="0.8" d="M10.3765 67.052C10.3765 67.052 13.1884 72.8233 18.8121 73.2672C17.3322 74.0072 6.4547 73.3412 10.3765 67.052Z" fill="url(#paint36_linear)"/>
<path opacity="0.8" d="M32.5754 72.2312C32.5754 72.2312 30.4295 71.7133 29.7635 71.1953C29.0975 70.7514 23.8438 71.7873 23.8438 71.7873C23.8438 71.7873 28.4316 71.0474 29.3196 71.7873C30.2075 72.5272 32.5754 72.2312 32.5754 72.2312Z" fill="url(#paint37_linear)"/>
<path opacity="0.8" d="M22.6599 44.7066C22.6599 44.7066 21.2539 40.0452 19.33 39.8233C17.4061 39.6013 17.4061 38.5654 17.0362 38.2694C16.6662 37.9735 12.8923 38.0475 11.6344 41.673C14.1503 40.2672 14.8163 39.0833 15.8522 40.0452C16.8882 41.0071 19.256 42.043 19.774 41.747C20.218 41.525 22.6599 44.7066 22.6599 44.7066Z" fill="url(#paint38_linear)"/>
<path opacity="0.8" d="M36.0532 63.1305C35.9792 63.3525 33.5373 61.8726 32.2794 63.1305C31.0215 64.3883 28.7275 65.5722 28.7275 65.5722C28.7275 65.5722 32.0574 62.3166 32.4274 61.5766C32.6494 60.8367 36.7192 61.4287 36.0532 63.1305Z" fill="url(#paint39_linear)"/>
<path opacity="0.8" d="M81.4131 2.31006C81.4131 2.31006 78.6011 6.97148 79.7851 7.85937C80.969 8.74725 81.783 8.67325 81.931 9.19119C82.079 9.70913 82.8929 10.967 83.4849 10.893C84.0769 10.819 82.227 14.3706 81.1171 12.4468C80.0071 10.597 80.1551 9.93111 79.4892 9.33918C78.8972 8.82125 78.3052 4.52978 81.4131 2.31006Z" fill="url(#paint40_linear)"/>
<path opacity="0.8" d="M93.1045 15.5544C93.1045 15.5544 92.0685 10.3751 89.7006 6.8235C87.3327 3.27194 87.1108 2.31006 87.1108 2.31006C87.1108 2.31006 87.6288 5.41768 88.3687 6.52754C89.1827 7.71139 93.1045 15.5544 93.1045 15.5544Z" fill="url(#paint41_linear)"/>
<path opacity="0.8" d="M69.0556 14.7405C69.0556 14.7405 66.3917 17.4781 67.3537 19.5499C68.3157 21.6216 70.9795 23.6934 71.5715 23.1754C72.1634 22.6575 70.6835 25.8391 69.5736 24.9512C68.4636 24.0633 61.8039 15.4064 69.0556 14.7405Z" fill="url(#paint42_linear)"/>
<path opacity="0.8" d="M58.9181 13.7046C58.9181 13.7046 55.8103 14.6665 55.8843 16.2943C55.9583 17.9221 55.4403 16.8122 54.7743 17.1082C54.1084 17.4781 52.3324 19.0319 51.9624 21.7696C51.9624 18.514 52.7765 16.6642 54.3304 15.9243C55.8103 15.2584 55.2183 13.8526 56.2543 13.7046C57.2162 13.4826 58.9181 13.7046 58.9181 13.7046Z" fill="url(#paint43_linear)"/>
<defs>
<radialGradient id="paint0_radial" cx="0" cy="0" r="1" gradientUnits="userSpaceOnUse" gradientTransform="translate(126.182 26.4263) rotate(180) scale(125.828 125.819)">
<stop stop-color="#1B1464"/>
<stop offset="0.0669379" stop-color="#453F81"/>
<stop offset="0.1475" stop-color="#706C9E"/>
<stop offset="0.2339" stop-color="#9793B8"/>
<stop offset="0.3249" stop-color="#B7B5CE"/>
<stop offset="0.4219" stop-color="#D1D0E0"/>
<stop offset="0.5269" stop-color="#E6E5EE"/>
<stop offset="0.6441" stop-color="#F4F4F8"/>
<stop offset="0.7831" stop-color="#FCFCFD"/>
<stop offset="1" stop-color="white"/>
</radialGradient>
<linearGradient id="paint1_linear" x1="122.685" y1="78.2845" x2="122.685" y2="36.3936" gradientUnits="userSpaceOnUse">
<stop stop-color="#1B1464"/>
<stop offset="0.0669379" stop-color="#453F81"/>
<stop offset="0.1475" stop-color="#706C9E"/>
<stop offset="0.2339" stop-color="#9793B8"/>
<stop offset="0.3249" stop-color="#B7B5CE"/>
<stop offset="0.4219" stop-color="#D1D0E0"/>
<stop offset="0.5269" stop-color="#E6E5EE"/>
<stop offset="0.6441" stop-color="#F4F4F8"/>
<stop offset="0.7831" stop-color="#FCFCFD"/>
<stop offset="1" stop-color="white"/>
</linearGradient>
<linearGradient id="paint2_linear" x1="196.507" y1="24.706" x2="196.507" y2="6.70037" gradientUnits="userSpaceOnUse">
<stop stop-color="#1B1464"/>
<stop offset="0.0669379" stop-color="#453F81"/>
<stop offset="0.1475" stop-color="#706C9E"/>
<stop offset="0.2339" stop-color="#9793B8"/>
<stop offset="0.3249" stop-color="#B7B5CE"/>
<stop offset="0.4219" stop-color="#D1D0E0"/>
<stop offset="0.5269" stop-color="#E6E5EE"/>
<stop offset="0.6441" stop-color="#F4F4F8"/>
<stop offset="0.7831" stop-color="#FCFCFD"/>
<stop offset="1" stop-color="white"/>
</linearGradient>
<radialGradient id="paint3_radial" cx="0" cy="0" r="1" gradientUnits="userSpaceOnUse" gradientTransform="translate(182.237 9.98787) rotate(180) scale(2.70442 2.70422)">
<stop stop-color="white"/>
<stop offset="0.2169" stop-color="#FCFCFD"/>
<stop offset="0.3559" stop-color="#F4F4F8"/>
<stop offset="0.4731" stop-color="#E6E5EE"/>
<stop offset="0.5781" stop-color="#D1D0E0"/>
<stop offset="0.6751" stop-color="#B7B5CE"/>
<stop offset="0.7661" stop-color="#9793B8"/>
<stop offset="0.8525" stop-color="#706C9E"/>
<stop offset="0.9331" stop-color="#453F81"/>
<stop offset="1" stop-color="#1B1464"/>
</radialGradient>
<linearGradient id="paint4_linear" x1="182.246" y1="12.5682" x2="182.246" y2="8.99698" gradientUnits="userSpaceOnUse">
<stop stop-color="#1B1464"/>
<stop offset="0.0669379" stop-color="#453F81"/>
<stop offset="0.1475" stop-color="#706C9E"/>
<stop offset="0.2339" stop-color="#9793B8"/>
<stop offset="0.3249" stop-color="#B7B5CE"/>
<stop offset="0.4219" stop-color="#D1D0E0"/>
<stop offset="0.5269" stop-color="#E6E5EE"/>
<stop offset="0.6441" stop-color="#F4F4F8"/>
<stop offset="0.7831" stop-color="#FCFCFD"/>
<stop offset="1" stop-color="white"/>
</linearGradient>
<linearGradient id="paint5_linear" x1="188.825" y1="45.8999" x2="188.825" y2="28.6176" gradientUnits="userSpaceOnUse">
<stop stop-color="#1B1464"/>
<stop offset="0.0669379" stop-color="#453F81"/>
<stop offset="0.1475" stop-color="#706C9E"/>
<stop offset="0.2339" stop-color="#9793B8"/>
<stop offset="0.3249" stop-color="#B7B5CE"/>
<stop offset="0.4219" stop-color="#D1D0E0"/>
<stop offset="0.5269" stop-color="#E6E5EE"/>
<stop offset="0.6441" stop-color="#F4F4F8"/>
<stop offset="0.7831" stop-color="#FCFCFD"/>
<stop offset="1" stop-color="white"/>
</linearGradient>
<linearGradient id="paint6_linear" x1="129.268" y1="27.7916" x2="129.268" y2="19.9217" gradientUnits="userSpaceOnUse">
<stop stop-color="#1B1464"/>
<stop offset="0.0669379" stop-color="#453F81"/>
<stop offset="0.1475" stop-color="#706C9E"/>
<stop offset="0.2339" stop-color="#9793B8"/>
<stop offset="0.3249" stop-color="#B7B5CE"/>
<stop offset="0.4219" stop-color="#D1D0E0"/>
<stop offset="0.5269" stop-color="#E6E5EE"/>
<stop offset="0.6441" stop-color="#F4F4F8"/>
<stop offset="0.7831" stop-color="#FCFCFD"/>
<stop offset="1" stop-color="white"/>
</linearGradient>
<linearGradient id="paint7_linear" x1="129.86" y1="35.1979" x2="129.86" y2="31.476" gradientUnits="userSpaceOnUse">
<stop stop-color="#1B1464"/>
<stop offset="0.0669379" stop-color="#453F81"/>
<stop offset="0.1475" stop-color="#706C9E"/>
<stop offset="0.2339" stop-color="#9793B8"/>
<stop offset="0.3249" stop-color="#B7B5CE"/>
<stop offset="0.4219" stop-color="#D1D0E0"/>
<stop offset="0.5269" stop-color="#E6E5EE"/>
<stop offset="0.6441" stop-color="#F4F4F8"/>
<stop offset="0.7831" stop-color="#FCFCFD"/>
<stop offset="1" stop-color="white"/>
</linearGradient>
<linearGradient id="paint8_linear" x1="87.3063" y1="47.8458" x2="87.3063" y2="0.100734" gradientUnits="userSpaceOnUse">
<stop stop-color="#1B1464"/>
<stop offset="0.0669379" stop-color="#453F81"/>
<stop offset="0.1475" stop-color="#706C9E"/>
<stop offset="0.2339" stop-color="#9793B8"/>
<stop offset="0.3249" stop-color="#B7B5CE"/>
<stop offset="0.4219" stop-color="#D1D0E0"/>
<stop offset="0.5269" stop-color="#E6E5EE"/>
<stop offset="0.6441" stop-color="#F4F4F8"/>
<stop offset="0.7831" stop-color="#FCFCFD"/>
<stop offset="1" stop-color="white"/>
</linearGradient>
<radialGradient id="paint9_radial" cx="0" cy="0" r="1" gradientUnits="userSpaceOnUse" gradientTransform="translate(75.61 45.4491) rotate(180) scale(3.46531 3.46498)">
<stop stop-color="white"/>
<stop offset="0.2169" stop-color="#FCFCFD"/>
<stop offset="0.3559" stop-color="#F4F4F8"/>
<stop offset="0.4731" stop-color="#E6E5EE"/>
<stop offset="0.5781" stop-color="#D1D0E0"/>
<stop offset="0.6751" stop-color="#B7B5CE"/>
<stop offset="0.7661" stop-color="#9793B8"/>
<stop offset="0.8525" stop-color="#706C9E"/>
<stop offset="0.9331" stop-color="#453F81"/>
<stop offset="1" stop-color="#1B1464"/>
</radialGradient>
<linearGradient id="paint10_linear" x1="75.6279" y1="48.5596" x2="75.6279" y2="44.2546" gradientUnits="userSpaceOnUse">
<stop stop-color="#1B1464"/>
<stop offset="0.0669379" stop-color="#453F81"/>
<stop offset="0.1475" stop-color="#706C9E"/>
<stop offset="0.2339" stop-color="#9793B8"/>
<stop offset="0.3249" stop-color="#B7B5CE"/>
<stop offset="0.4219" stop-color="#D1D0E0"/>
<stop offset="0.5269" stop-color="#E6E5EE"/>
<stop offset="0.6441" stop-color="#F4F4F8"/>
<stop offset="0.7831" stop-color="#FCFCFD"/>
<stop offset="1" stop-color="white"/>
</linearGradient>
<linearGradient id="paint11_linear" x1="68.7567" y1="25.5241" x2="68.7567" y2="13.996" gradientUnits="userSpaceOnUse">
<stop stop-color="#1B1464"/>
<stop offset="0.0669379" stop-color="#453F81"/>
<stop offset="0.1475" stop-color="#706C9E"/>
<stop offset="0.2339" stop-color="#9793B8"/>
<stop offset="0.3249" stop-color="#B7B5CE"/>
<stop offset="0.4219" stop-color="#D1D0E0"/>
<stop offset="0.5269" stop-color="#E6E5EE"/>
<stop offset="0.6441" stop-color="#F4F4F8"/>
<stop offset="0.7831" stop-color="#FCFCFD"/>
<stop offset="1" stop-color="white"/>
</linearGradient>
<linearGradient id="paint12_linear" x1="55.8929" y1="37.4144" x2="55.8929" y2="12.4659" gradientUnits="userSpaceOnUse">
<stop stop-color="#1B1464"/>
<stop offset="0.0669379" stop-color="#453F81"/>
<stop offset="0.1475" stop-color="#706C9E"/>
<stop offset="0.2339" stop-color="#9793B8"/>
<stop offset="0.3249" stop-color="#B7B5CE"/>
<stop offset="0.4219" stop-color="#D1D0E0"/>
<stop offset="0.5269" stop-color="#E6E5EE"/>
<stop offset="0.6441" stop-color="#F4F4F8"/>
<stop offset="0.7831" stop-color="#FCFCFD"/>
<stop offset="1" stop-color="white"/>
</linearGradient>
<radialGradient id="paint13_radial" cx="0" cy="0" r="1" gradientUnits="userSpaceOnUse" gradientTransform="translate(41.1833 53.286) rotate(180) scale(2.79841 2.79819)">
<stop stop-color="white"/>
<stop offset="0.2169" stop-color="#FCFCFD"/>
<stop offset="0.3559" stop-color="#F4F4F8"/>
<stop offset="0.4731" stop-color="#E6E5EE"/>
<stop offset="0.5781" stop-color="#D1D0E0"/>
<stop offset="0.6751" stop-color="#B7B5CE"/>
<stop offset="0.7661" stop-color="#9793B8"/>
<stop offset="0.8525" stop-color="#706C9E"/>
<stop offset="0.9331" stop-color="#453F81"/>
<stop offset="1" stop-color="#1B1464"/>
</radialGradient>
<linearGradient id="paint14_linear" x1="41.1978" y1="55.8" x2="41.1978" y2="52.3206" gradientUnits="userSpaceOnUse">
<stop stop-color="#1B1464"/>
<stop offset="0.0669379" stop-color="#453F81"/>
<stop offset="0.1475" stop-color="#706C9E"/>
<stop offset="0.2339" stop-color="#9793B8"/>
<stop offset="0.3249" stop-color="#B7B5CE"/>
<stop offset="0.4219" stop-color="#D1D0E0"/>
<stop offset="0.5269" stop-color="#E6E5EE"/>
<stop offset="0.6441" stop-color="#F4F4F8"/>
<stop offset="0.7831" stop-color="#FCFCFD"/>
<stop offset="1" stop-color="white"/>
</linearGradient>
<radialGradient id="paint15_radial" cx="0" cy="0" r="1" gradientUnits="userSpaceOnUse" gradientTransform="translate(36.5262 49.3409) rotate(180) scale(2.18536 2.18518)">
<stop stop-color="white"/>
<stop offset="0.2169" stop-color="#FCFCFD"/>
<stop offset="0.3559" stop-color="#F4F4F8"/>
<stop offset="0.4731" stop-color="#E6E5EE"/>
<stop offset="0.5781" stop-color="#D1D0E0"/>
<stop offset="0.6751" stop-color="#B7B5CE"/>
<stop offset="0.7661" stop-color="#9793B8"/>
<stop offset="0.8525" stop-color="#706C9E"/>
<stop offset="0.9331" stop-color="#453F81"/>
<stop offset="1" stop-color="#1B1464"/>
</radialGradient>
<linearGradient id="paint16_linear" x1="36.5499" y1="50.4557" x2="36.5499" y2="48.9128" gradientUnits="userSpaceOnUse">
<stop stop-color="#1B1464"/>
<stop offset="0.0669379" stop-color="#453F81"/>
<stop offset="0.1475" stop-color="#706C9E"/>
<stop offset="0.2339" stop-color="#9793B8"/>
<stop offset="0.3249" stop-color="#B7B5CE"/>
<stop offset="0.4219" stop-color="#D1D0E0"/>
<stop offset="0.5269" stop-color="#E6E5EE"/>
<stop offset="0.6441" stop-color="#F4F4F8"/>
<stop offset="0.7831" stop-color="#FCFCFD"/>
<stop offset="1" stop-color="white"/>
</linearGradient>
<linearGradient id="paint17_linear" x1="127.01" y1="55.3217" x2="121.911" y2="50.7506" gradientUnits="userSpaceOnUse">
<stop/>
<stop offset="1" stop-color="white"/>
</linearGradient>
<linearGradient id="paint18_linear" x1="142.572" y1="59.8532" x2="133.567" y2="51.7807" gradientUnits="userSpaceOnUse">
<stop/>
<stop offset="1" stop-color="white"/>
</linearGradient>
<linearGradient id="paint19_linear" x1="147.697" y1="63.8436" x2="144.889" y2="61.3261" gradientUnits="userSpaceOnUse">
<stop/>
<stop offset="1" stop-color="white"/>
</linearGradient>
<linearGradient id="paint20_linear" x1="149.277" y1="47.0135" x2="146.15" y2="44.2101" gradientUnits="userSpaceOnUse">
<stop/>
<stop offset="1" stop-color="white"/>
</linearGradient>
<linearGradient id="paint21_linear" x1="176.781" y1="74.5015" x2="167.07" y2="65.7965" gradientUnits="userSpaceOnUse">
<stop/>
<stop offset="1" stop-color="white"/>
</linearGradient>
<linearGradient id="paint22_linear" x1="110.639" y1="77.4648" x2="100.776" y2="68.6238" gradientUnits="userSpaceOnUse">
<stop/>
<stop offset="1" stop-color="white"/>
</linearGradient>
<linearGradient id="paint23_linear" x1="105.724" y1="70.7634" x2="97.2625" y2="63.1781" gradientUnits="userSpaceOnUse">
<stop/>
<stop offset="1" stop-color="white"/>
</linearGradient>
<linearGradient id="paint24_linear" x1="232.414" y1="45.7584" x2="226.584" y2="40.5318" gradientUnits="userSpaceOnUse">
<stop/>
<stop offset="1" stop-color="white"/>
</linearGradient>
<linearGradient id="paint25_linear" x1="223.342" y1="66.3701" x2="217.027" y2="60.709" gradientUnits="userSpaceOnUse">
<stop/>
<stop offset="1" stop-color="white"/>
</linearGradient>
<linearGradient id="paint26_linear" x1="238.552" y1="72.1842" x2="231.542" y2="65.9005" gradientUnits="userSpaceOnUse">
<stop/>
<stop offset="1" stop-color="white"/>
</linearGradient>
<linearGradient id="paint27_linear" x1="200.154" y1="54.3572" x2="193.69" y2="48.5628" gradientUnits="userSpaceOnUse">
<stop/>
<stop offset="1" stop-color="white"/>
</linearGradient>
<linearGradient id="paint28_linear" x1="195.404" y1="14.3711" x2="191.958" y2="11.2824" gradientUnits="userSpaceOnUse">
<stop/>
<stop offset="1" stop-color="white"/>
</linearGradient>
<linearGradient id="paint29_linear" x1="200.29" y1="17.7345" x2="197.924" y2="15.6129" gradientUnits="userSpaceOnUse">
<stop/>
<stop offset="1" stop-color="white"/>
</linearGradient>
<linearGradient id="paint30_linear" x1="189.196" y1="33.5254" x2="186.709" y2="31.2967" gradientUnits="userSpaceOnUse">
<stop/>
<stop offset="1" stop-color="white"/>
</linearGradient>
<linearGradient id="paint31_linear" x1="64.4767" y1="48.0766" x2="57.4956" y2="41.8184" gradientUnits="userSpaceOnUse">
<stop/>
<stop offset="1" stop-color="white"/>
</linearGradient>
<linearGradient id="paint32_linear" x1="52.2613" y1="58.9507" x2="48.0516" y2="55.1769" gradientUnits="userSpaceOnUse">
<stop/>
<stop offset="1" stop-color="white"/>
</linearGradient>
<linearGradient id="paint33_linear" x1="65.8013" y1="71.5385" x2="60.0245" y2="66.3598" gradientUnits="userSpaceOnUse">
<stop/>
<stop offset="1" stop-color="white"/>
</linearGradient>
<linearGradient id="paint34_linear" x1="24.6037" y1="69.2337" x2="18.7407" y2="63.9781" gradientUnits="userSpaceOnUse">
<stop/>
<stop offset="1" stop-color="white"/>
</linearGradient>
<linearGradient id="paint35_linear" x1="7.47109" y1="65.6557" x2="4.59038" y2="63.0733" gradientUnits="userSpaceOnUse">
<stop/>
<stop offset="1" stop-color="white"/>
</linearGradient>
<linearGradient id="paint36_linear" x1="17.3534" y1="74.8822" x2="9.81598" y2="68.1253" gradientUnits="userSpaceOnUse">
<stop/>
<stop offset="1" stop-color="white"/>
</linearGradient>
<linearGradient id="paint37_linear" x1="30.7538" y1="74.3051" x2="25.8054" y2="69.8693" gradientUnits="userSpaceOnUse">
<stop/>
<stop offset="1" stop-color="white"/>
</linearGradient>
<linearGradient id="paint38_linear" x1="21.5087" y1="45.9819" x2="13.7861" y2="39.059" gradientUnits="userSpaceOnUse">
<stop/>
<stop offset="1" stop-color="white"/>
</linearGradient>
<linearGradient id="paint39_linear" x1="33.9994" y1="65.3828" x2="31.2017" y2="62.8749" gradientUnits="userSpaceOnUse">
<stop/>
<stop offset="1" stop-color="white"/>
</linearGradient>
<linearGradient id="paint40_linear" x1="84.6597" y1="10.4676" x2="78.8643" y2="5.27244" gradientUnits="userSpaceOnUse">
<stop/>
<stop offset="1" stop-color="white"/>
</linearGradient>
<linearGradient id="paint41_linear" x1="95.0708" y1="13.4014" x2="85.405" y2="4.73656" gradientUnits="userSpaceOnUse">
<stop/>
<stop offset="1" stop-color="white"/>
</linearGradient>
<linearGradient id="paint42_linear" x1="72.5642" y1="22.748" x2="65.8367" y2="16.7171" gradientUnits="userSpaceOnUse">
<stop/>
<stop offset="1" stop-color="white"/>
</linearGradient>
<linearGradient id="paint43_linear" x1="55.5289" y1="17.813" x2="53.7916" y2="16.2557" gradientUnits="userSpaceOnUse">
<stop/>
<stop offset="1" stop-color="white"/>
</linearGradient>
</defs>
</svg>
