<svg width="285" height="78" viewBox="0 0 285 78" fill="none" xmlns="http://www.w3.org/2000/svg">
<path d="M6.41136 69.6073C7.07733 69.9772 7.00333 70.7171 9.5932 71.679C12.2571 72.6409 20.6927 72.4929 20.6927 73.5288C20.6927 74.5647 24.3185 73.5288 29.7202 73.5288C35.122 73.5288 46.2954 73.8987 46.5914 74.7126C46.8134 75.5265 55.619 74.4167 57.9129 74.4167C60.1328 74.4167 66.4225 73.7508 65.9785 74.7866C65.5345 75.8225 95.2071 75.0826 95.2071 75.0826C95.2071 75.0826 96.317 75.7485 97.871 75.4525C99.3509 75.0826 105.049 75.6745 104.013 76.1924C103.051 76.6364 129.245 76.6364 129.245 76.6364C129.245 76.6364 166.614 76.6364 169.278 77.0803C171.941 77.5243 171.349 76.3404 172.607 75.6005C173.939 74.7866 182.301 76.0445 182.967 75.6005C183.633 75.1566 188.887 75.6745 190.293 75.6005C191.698 75.5265 192.29 74.6386 194.288 74.1207C196.286 73.6028 201.244 75.5265 203.316 75.6005C205.388 75.6745 208.348 75.0086 210.198 74.8606C212.048 74.7126 221.889 74.4907 222.629 73.3808C226.551 73.9727 243.866 72.9369 244.088 72.4929C244.31 72.049 248.676 71.383 251.266 72.3449C253.855 73.2328 267.323 70.4212 269.321 70.0512C271.319 69.6813 279.68 68.7934 282.936 68.4974C284.342 68.3495 284.268 67.9055 283.676 67.3876C282.936 66.7956 281.234 66.1297 280.642 66.1297C279.532 66.1297 271.985 63.688 270.209 63.762C268.433 63.91 268.359 63.2441 266.731 62.5782C265.103 61.9123 259.479 62.0602 259.479 62.0602C257.851 57.6208 254.521 57.1768 253.855 57.7688C253.116 58.4347 253.042 55.3271 251.488 55.1051C250.008 54.8091 251.71 57.5468 250.896 57.5468C250.082 57.5468 250.156 59.9885 250.156 59.9885C247.862 59.2486 243.422 60.8764 241.646 60.9504C239.87 61.0983 232.693 60.8024 232.619 60.2844C232.471 59.7665 226.995 58.8786 225.367 58.5087C223.813 58.1387 222.185 56.4369 221.593 55.327C221.001 54.1432 219.521 54.8091 218.559 54.9571C217.671 55.1051 216.931 53.6253 214.933 52.8114C213.083 51.9975 212.27 54.2172 210.938 55.4011C210.864 55.475 210.79 55.549 210.716 55.549C209.236 56.6589 212.417 59.1746 211.826 59.1746C211.234 59.1746 209.532 59.0266 209.754 59.6185C209.976 60.2105 198.062 60.2844 198.062 60.2844C198.062 60.2844 197.988 60.0625 197.84 59.6925C197.47 58.8046 196.73 57.1768 196.434 56.7329C196.064 56.141 195.472 58.1387 194.954 58.7306C194.436 59.3226 194.066 57.9907 193.4 57.6208C192.734 57.2508 191.772 59.9145 189.923 60.2844C188.073 60.5804 187.851 57.4728 186.889 57.0289C186.741 56.9549 186.519 56.9549 186.371 57.0289C185.853 57.1768 185.261 57.7688 185.039 58.1387C184.891 58.2867 184.817 58.3607 184.817 58.3607C184.817 58.3607 184.817 58.3607 184.743 58.3607C184.521 58.2867 184.003 58.1387 183.485 58.4347C182.819 58.8046 178.823 55.919 178.453 56.8069C178.083 57.6208 176.677 57.6208 175.863 57.5468C175.271 57.4728 175.271 54.2172 175.641 51.3316C175.789 50.1477 176.011 49.0378 176.307 48.2979C177.195 45.6343 176.233 42.4527 175.493 40.9729C175.493 40.8989 175.419 40.8989 175.419 40.8249C174.605 39.567 172.607 41.1208 172.533 42.4527C172.459 43.9325 171.941 43.4885 170.313 44.3024C168.686 45.1163 169.5 46.5222 169.5 48.5939C169.5 50.6656 171.201 49.9258 172.829 50.3697C174.457 50.8136 173.495 55.697 172.903 57.9167C172.311 60.1364 170.24 58.5086 169.426 57.9167C168.612 57.3248 167.354 57.4728 166.022 57.9167C164.69 58.3607 164.468 57.1028 163.358 56.4369C162.248 55.771 161.952 57.9167 161.952 57.9167C161.952 57.9167 161.508 57.3248 161.138 56.7329C160.916 56.3629 160.62 55.919 160.472 55.697C160.176 55.0311 159.806 55.993 158.4 56.7329C156.994 57.4728 156.55 56.0669 156.106 54.9571C155.662 53.8472 153.812 54.1432 152.702 56.0669C151.592 57.9907 150.408 54.6611 150.038 53.9952C149.668 53.3293 150.852 52.5154 151.888 51.6275C152.85 50.7396 152.48 49.4078 151.74 47.484C151 45.5603 151.592 46.3002 152.258 43.7105C152.628 42.3047 152.258 41.3428 151.592 40.5289C151 39.789 150.186 39.2711 149.446 38.7531C147.819 37.7173 148.633 40.6769 148.707 42.1567C148.781 43.6365 148.337 44.7464 146.709 46.4481C145.081 48.1499 146.413 50.9616 147.153 51.5535C147.893 52.1455 147.375 53.4033 146.117 53.0333C144.859 52.6634 143.009 56.8808 142.269 57.5468C141.529 58.2867 141.455 55.4011 140.937 54.8831C140.493 54.4392 137.163 55.475 135.461 56.3629C135.165 56.5109 134.943 56.6589 134.721 56.8069C133.685 57.6947 133.389 55.4011 132.575 54.6612C131.687 53.8473 131.465 54.8831 130.281 55.1051C129.097 55.401 127.84 54.7351 126.878 55.4011C125.916 56.141 126.582 56.8809 125.176 56.9548C123.696 57.1028 120.81 57.3248 119.7 58.2127C118.664 59.0266 117.258 56.215 116.518 55.919C115.704 55.549 114.52 58.3607 113.484 58.8046C112.448 59.2486 111.634 54.8831 109.932 54.2912C108.23 53.6993 107.712 58.2127 107.712 58.2127C107.712 58.2127 86.4755 59.1746 85.3656 59.1746C84.1816 59.1746 80.9258 58.7307 79.8158 57.7688C78.7059 56.8809 77.8919 56.7329 76.634 57.7688C75.376 58.8046 71.1582 60.2845 69.2343 60.5804C67.2364 60.9504 62.1307 60.9504 59.9108 61.6903C57.6909 62.4302 52.0672 62.4302 50.1433 61.9122C48.1454 61.4683 43.9276 59.8405 42.8176 59.6925C41.7817 59.5445 41.4117 61.3203 40.3757 61.9122C39.3398 62.5782 35.196 62.8741 33.79 62.7261C32.3841 62.5041 32.4581 64.3539 32.4581 64.3539C32.2361 64.132 30.8302 62.3562 30.4602 61.3943C30.0902 60.3584 29.4243 61.8383 28.9063 62.9481C28.3883 64.058 27.7223 61.7643 27.2044 60.7284C26.6864 59.6925 25.2805 59.3226 24.6145 60.2105C24.0965 60.8764 24.6145 63.614 24.8365 64.6499C24.9105 64.8719 24.9105 65.0199 24.9105 65.0199C24.9105 65.0199 22.4686 64.9459 21.8766 65.7598C21.2846 66.5737 17.2148 65.9817 15.9569 65.5378C14.699 65.0939 14.773 64.206 14.033 64.7979C13.293 65.3898 11.6651 65.8337 10.0372 65.9817C8.40926 66.1297 7.89129 68.0535 6.78134 68.0535C6.70735 68.0535 6.63335 68.0535 6.55935 68.0535C5.22742 67.9055 1.52759 66.9436 0.861624 67.5355C0.269652 68.2014 5.74539 69.1634 6.41136 69.6073ZM259.479 65.3898C259.479 65.1678 259.553 64.9459 259.627 64.7979C259.775 64.5019 260.071 64.28 260.441 64.28C261.181 64.28 260.663 65.2418 262.661 65.4638C264.733 65.6858 269.617 65.7598 269.617 65.7598C269.617 65.7598 270.579 65.4638 271.319 65.4638C271.319 65.4638 271.615 65.5378 272.207 65.6118C272.281 65.6858 272.281 65.7597 272.281 65.8337C272.281 66.5736 270.283 67.9055 268.359 67.6095C266.361 67.3136 260.367 68.5714 260.441 67.6095C260.515 66.5737 259.479 65.9077 259.479 65.3898ZM197.618 65.6857C197.618 65.6857 199.764 65.5378 199.616 63.836C199.468 62.2822 198.432 61.5423 198.21 61.3943H198.136C198.136 61.3943 201.466 61.4683 204.648 61.6163C206.794 61.6902 208.866 61.8382 209.68 61.9862C211.678 62.3562 230.029 61.5423 231.435 62.2082C232.766 62.8001 246.382 62.3562 246.9 63.2441C246.9 63.3181 246.9 63.3181 246.9 63.3921C246.456 64.2799 246.16 64.2799 246.234 65.2418C246.308 66.2037 246.9 67.6835 245.198 67.9055C243.496 68.1274 231.139 70.4212 229.807 70.7911C228.475 71.1611 225.811 71.605 224.997 71.3091C224.183 71.0131 216.487 70.6431 214.785 70.7911C213.157 70.9391 206.794 70.2732 204.278 69.3853C201.762 68.4974 197.618 68.2755 197.618 67.3876C197.618 67.2396 197.618 67.1656 197.618 67.0176C197.618 66.2777 197.618 65.6857 197.618 65.6857ZM181.413 69.1633C181.413 69.1633 195.176 66.4997 195.176 67.2396C195.176 67.3136 194.584 67.8315 193.918 68.3494C193.548 68.6454 193.104 69.0154 192.808 69.3113L192.734 69.3853C192.66 69.4593 192.586 69.5333 192.512 69.6073C191.698 70.4952 188.517 72.4929 185.853 72.4929C183.189 72.4929 181.487 71.975 181.413 71.0131C181.339 70.1252 181.413 69.1633 181.413 69.1633ZM104.161 73.0109C105.345 72.7149 113.188 70.4212 116.666 69.9032C120.144 69.3853 120.588 68.7194 125.546 69.3113C130.503 69.9032 143.083 69.1634 144.341 69.6073C145.525 69.9772 168.612 70.1992 171.201 69.9772H171.423C171.423 69.9772 171.793 71.901 170.757 72.197C169.722 72.4929 165.208 72.049 164.098 72.7149C162.988 73.3808 162.174 73.6768 160.842 73.6028C159.51 73.5288 155.218 73.4548 155.07 73.6028C154.922 73.8247 146.635 74.1207 146.635 74.1207C146.635 74.1207 145.377 73.0848 144.119 73.0848C142.861 73.0848 141.085 72.7889 140.493 72.7149C139.901 72.6409 133.907 73.5288 133.611 73.0109C133.241 72.5669 131.169 70.4212 129.837 71.0131C128.506 71.531 124.88 72.4929 123.4 72.7149C121.92 72.9368 111.19 73.6028 109.192 73.4548C107.343 73.1588 102.977 73.3068 104.161 73.0109ZM40.6717 65.5378C42.1516 64.8719 55.175 65.9077 55.693 65.2418C56.211 64.5019 54.805 64.3539 55.397 63.91C56.063 63.54 67.5324 63.3181 68.7164 63.0221C69.9003 62.7261 68.2724 61.6903 69.4563 61.6903C70.6403 61.6903 79.8158 61.2463 79.6678 61.9862C79.5199 62.8001 80.5558 62.5781 83.4417 62.5042C86.4015 62.4302 87.8075 63.1701 89.6574 64.132C91.5813 65.0938 96.983 66.2037 96.613 65.1678C96.243 64.206 88.5474 62.1342 89.3614 61.6163C90.2493 61.0983 100.387 62.2082 101.275 61.3943C102.163 60.5804 106.159 60.6544 106.159 60.6544C106.159 60.6544 103.273 66.7956 104.383 67.4615C105.493 68.1275 112.744 68.4234 111.634 68.8674C110.524 69.3113 100.461 70.7171 99.2029 71.383C98.9809 71.457 98.6109 71.605 98.019 71.679C94.9111 72.123 87.3635 72.2709 86.4755 71.383C85.4396 70.3472 82.7017 67.6835 81.4438 68.8674C80.1118 70.0512 79.3719 71.0871 78.8539 70.7172C78.4099 70.3472 75.894 68.7194 75.0801 69.2373C74.2661 69.7553 74.2661 68.9414 72.7122 68.7934C71.2322 68.6454 68.8644 68.5714 68.3464 69.3113C67.9024 70.0512 65.0165 71.2351 63.6846 71.3091C62.3527 71.3831 50.1433 72.1969 48.8853 71.975C47.5534 71.753 43.4836 70.7171 42.7436 69.5333C42.9656 69.4593 43.1136 69.4593 43.3356 69.3853C46.3694 68.7934 52.0672 68.8674 55.471 68.7934C59.0968 68.7934 66.6445 67.7575 67.9764 67.6835C69.3823 67.6095 78.9279 68.4974 79.1499 68.7934C79.1499 68.7934 78.4839 67.7575 75.968 67.2396C73.4521 66.7216 66.6445 65.7598 64.1286 66.2777C61.6127 66.7956 56.063 67.3876 53.9171 67.3876C51.7712 67.3876 45.6295 67.1656 43.7796 67.1656C42.0777 67.3875 39.1918 66.2037 40.6717 65.5378Z" fill="#D9F7FF"/>
<path d="M6.41136 69.6073C7.07733 69.9772 7.00333 70.7171 9.5932 71.679C12.2571 72.6409 20.6927 72.4929 20.6927 73.5288C20.6927 74.5647 24.3185 73.5288 29.7202 73.5288C35.122 73.5288 46.2954 73.8987 46.5914 74.7126C46.8134 75.5265 55.619 74.4167 57.9129 74.4167C60.1328 74.4167 66.4225 73.7508 65.9785 74.7866C65.5345 75.8225 95.2071 75.0826 95.2071 75.0826C95.2071 75.0826 96.317 75.7485 97.871 75.4525C99.3509 75.0826 105.049 75.6745 104.013 76.1924C103.051 76.6364 129.245 76.6364 129.245 76.6364C129.245 76.6364 166.614 76.6364 169.278 77.0803C171.941 77.5243 171.349 76.3404 172.607 75.6005C173.939 74.7866 182.301 76.0445 182.967 75.6005C183.633 75.1566 188.887 75.6745 190.293 75.6005C191.698 75.5265 192.29 74.6386 194.288 74.1207C196.286 73.6028 201.244 75.5265 203.316 75.6005C205.388 75.6745 208.348 75.0086 210.198 74.8606C212.048 74.7126 221.889 74.4907 222.629 73.3808C226.551 73.9727 243.866 72.9369 244.088 72.4929C244.31 72.049 248.676 71.383 251.266 72.3449C253.855 73.2328 267.323 70.4212 269.321 70.0512C271.319 69.6813 279.68 68.7934 282.936 68.4974C284.342 68.3495 284.268 67.9055 283.676 67.3876C282.936 66.7956 281.234 66.1297 280.642 66.1297C279.532 66.1297 271.985 63.688 270.209 63.762C268.433 63.91 268.359 63.2441 266.731 62.5782C265.103 61.9123 259.479 62.0602 259.479 62.0602C257.851 57.6208 254.521 57.1768 253.855 57.7688C253.116 58.4347 253.042 55.3271 251.488 55.1051C250.008 54.8091 251.71 57.5468 250.896 57.5468C250.082 57.5468 250.156 59.9885 250.156 59.9885C247.862 59.2486 243.422 60.8764 241.646 60.9504C239.87 61.0983 232.693 60.8024 232.619 60.2844C232.471 59.7665 226.995 58.8786 225.367 58.5087C223.813 58.1387 222.185 56.4369 221.593 55.327C221.001 54.1432 219.521 54.8091 218.559 54.9571C217.671 55.1051 216.931 53.6253 214.933 52.8114C213.083 51.9975 212.27 54.2172 210.938 55.4011C210.864 55.475 210.79 55.549 210.716 55.549C209.236 56.6589 212.417 59.1746 211.826 59.1746C211.234 59.1746 209.532 59.0266 209.754 59.6185C209.976 60.2105 198.062 60.2844 198.062 60.2844C198.062 60.2844 197.988 60.0625 197.84 59.6925C197.47 58.8046 196.73 57.1768 196.434 56.7329C196.064 56.141 195.472 58.1387 194.954 58.7306C194.436 59.3226 194.066 57.9907 193.4 57.6208C192.734 57.2508 191.772 59.9145 189.923 60.2844C188.073 60.5804 187.851 57.4728 186.889 57.0289C186.741 56.9549 186.519 56.9549 186.371 57.0289C185.853 57.1768 185.261 57.7688 185.039 58.1387C184.891 58.2867 184.817 58.3607 184.817 58.3607C184.817 58.3607 184.817 58.3607 184.743 58.3607C184.521 58.2867 184.003 58.1387 183.485 58.4347C182.819 58.8046 178.823 55.919 178.453 56.8069C178.083 57.6208 176.677 57.6208 175.863 57.5468C175.271 57.4728 175.271 54.2172 175.641 51.3316C175.789 50.1477 176.011 49.0378 176.307 48.2979C177.195 45.6343 176.233 42.4527 175.493 40.9729C175.493 40.8989 175.419 40.8989 175.419 40.8249C174.605 39.567 172.607 41.1208 172.533 42.4527C172.459 43.9325 171.941 43.4885 170.313 44.3024C168.686 45.1163 169.5 46.5222 169.5 48.5939C169.5 50.6656 171.201 49.9258 172.829 50.3697C174.457 50.8136 173.495 55.697 172.903 57.9167C172.311 60.1364 170.24 58.5086 169.426 57.9167C168.612 57.3248 167.354 57.4728 166.022 57.9167C164.69 58.3607 164.468 57.1028 163.358 56.4369C162.248 55.771 161.952 57.9167 161.952 57.9167C161.952 57.9167 161.508 57.3248 161.138 56.7329C160.916 56.3629 160.62 55.919 160.472 55.697C160.176 55.0311 159.806 55.993 158.4 56.7329C156.994 57.4728 156.55 56.0669 156.106 54.9571C155.662 53.8472 153.812 54.1432 152.702 56.0669C151.592 57.9907 150.408 54.6611 150.038 53.9952C149.668 53.3293 150.852 52.5154 151.888 51.6275C152.85 50.7396 152.48 49.4078 151.74 47.484C151 45.5603 151.592 46.3002 152.258 43.7105C152.628 42.3047 152.258 41.3428 151.592 40.5289C151 39.789 150.186 39.2711 149.446 38.7531C147.819 37.7173 148.633 40.6769 148.707 42.1567C148.781 43.6365 148.337 44.7464 146.709 46.4481C145.081 48.1499 146.413 50.9616 147.153 51.5535C147.893 52.1455 147.375 53.4033 146.117 53.0333C144.859 52.6634 143.009 56.8808 142.269 57.5468C141.529 58.2867 141.455 55.4011 140.937 54.8831C140.493 54.4392 137.163 55.475 135.461 56.3629C135.165 56.5109 134.943 56.6589 134.721 56.8069C133.685 57.6947 133.389 55.4011 132.575 54.6612C131.687 53.8473 131.465 54.8831 130.281 55.1051C129.097 55.401 127.84 54.7351 126.878 55.4011C125.916 56.141 126.582 56.8809 125.176 56.9548C123.696 57.1028 120.81 57.3248 119.7 58.2127C118.664 59.0266 117.258 56.215 116.518 55.919C115.704 55.549 114.52 58.3607 113.484 58.8046C112.448 59.2486 111.634 54.8831 109.932 54.2912C108.23 53.6993 107.712 58.2127 107.712 58.2127C107.712 58.2127 86.4755 59.1746 85.3656 59.1746C84.1816 59.1746 80.9258 58.7307 79.8158 57.7688C78.7059 56.8809 77.8919 56.7329 76.634 57.7688C75.376 58.8046 71.1582 60.2845 69.2343 60.5804C67.2364 60.9504 62.1307 60.9504 59.9108 61.6903C57.6909 62.4302 52.0672 62.4302 50.1433 61.9122C48.1454 61.4683 43.9276 59.8405 42.8176 59.6925C41.7817 59.5445 41.4117 61.3203 40.3757 61.9122C39.3398 62.5782 35.196 62.8741 33.79 62.7261C32.3841 62.5041 32.4581 64.3539 32.4581 64.3539C32.2361 64.132 30.8302 62.3562 30.4602 61.3943C30.0902 60.3584 29.4243 61.8383 28.9063 62.9481C28.3883 64.058 27.7223 61.7643 27.2044 60.7284C26.6864 59.6925 25.2805 59.3226 24.6145 60.2105C24.0965 60.8764 24.6145 63.614 24.8365 64.6499C24.9105 64.8719 24.9105 65.0199 24.9105 65.0199C24.9105 65.0199 22.4686 64.9459 21.8766 65.7598C21.2846 66.5737 17.2148 65.9817 15.9569 65.5378C14.699 65.0939 14.773 64.206 14.033 64.7979C13.293 65.3898 11.6651 65.8337 10.0372 65.9817C8.40926 66.1297 7.89129 68.0535 6.78134 68.0535C6.70735 68.0535 6.63335 68.0535 6.55935 68.0535C5.22742 67.9055 1.52759 66.9436 0.861624 67.5355C0.269652 68.2014 5.74539 69.1634 6.41136 69.6073ZM259.479 65.3898C259.479 65.1678 259.553 64.9459 259.627 64.7979C259.775 64.5019 260.071 64.28 260.441 64.28C261.181 64.28 260.663 65.2418 262.661 65.4638C264.733 65.6858 269.617 65.7598 269.617 65.7598C269.617 65.7598 270.579 65.4638 271.319 65.4638C271.319 65.4638 271.615 65.5378 272.207 65.6118C272.281 65.6858 272.281 65.7597 272.281 65.8337C272.281 66.5736 270.283 67.9055 268.359 67.6095C266.361 67.3136 260.367 68.5714 260.441 67.6095C260.515 66.5737 259.479 65.9077 259.479 65.3898ZM197.618 65.6857C197.618 65.6857 199.764 65.5378 199.616 63.836C199.468 62.2822 198.432 61.5423 198.21 61.3943H198.136C198.136 61.3943 201.466 61.4683 204.648 61.6163C206.794 61.6902 208.866 61.8382 209.68 61.9862C211.678 62.3562 230.029 61.5423 231.435 62.2082C232.766 62.8001 246.382 62.3562 246.9 63.2441C246.9 63.3181 246.9 63.3181 246.9 63.3921C246.456 64.2799 246.16 64.2799 246.234 65.2418C246.308 66.2037 246.9 67.6835 245.198 67.9055C243.496 68.1274 231.139 70.4212 229.807 70.7911C228.475 71.1611 225.811 71.605 224.997 71.3091C224.183 71.0131 216.487 70.6431 214.785 70.7911C213.157 70.9391 206.794 70.2732 204.278 69.3853C201.762 68.4974 197.618 68.2755 197.618 67.3876C197.618 67.2396 197.618 67.1656 197.618 67.0176C197.618 66.2777 197.618 65.6857 197.618 65.6857ZM181.413 69.1633C181.413 69.1633 195.176 66.4997 195.176 67.2396C195.176 67.3136 194.584 67.8315 193.918 68.3494C193.548 68.6454 193.104 69.0154 192.808 69.3113L192.734 69.3853C192.66 69.4593 192.586 69.5333 192.512 69.6073C191.698 70.4952 188.517 72.4929 185.853 72.4929C183.189 72.4929 181.487 71.975 181.413 71.0131C181.339 70.1252 181.413 69.1633 181.413 69.1633ZM104.161 73.0109C105.345 72.7149 113.188 70.4212 116.666 69.9032C120.144 69.3853 120.588 68.7194 125.546 69.3113C130.503 69.9032 143.083 69.1634 144.341 69.6073C145.525 69.9772 168.612 70.1992 171.201 69.9772H171.423C171.423 69.9772 171.793 71.901 170.757 72.197C169.722 72.4929 165.208 72.049 164.098 72.7149C162.988 73.3808 162.174 73.6768 160.842 73.6028C159.51 73.5288 155.218 73.4548 155.07 73.6028C154.922 73.8247 146.635 74.1207 146.635 74.1207C146.635 74.1207 145.377 73.0848 144.119 73.0848C142.861 73.0848 141.085 72.7889 140.493 72.7149C139.901 72.6409 133.907 73.5288 133.611 73.0109C133.241 72.5669 131.169 70.4212 129.837 71.0131C128.506 71.531 124.88 72.4929 123.4 72.7149C121.92 72.9368 111.19 73.6028 109.192 73.4548C107.343 73.1588 102.977 73.3068 104.161 73.0109ZM40.6717 65.5378C42.1516 64.8719 55.175 65.9077 55.693 65.2418C56.211 64.5019 54.805 64.3539 55.397 63.91C56.063 63.54 67.5324 63.3181 68.7164 63.0221C69.9003 62.7261 68.2724 61.6903 69.4563 61.6903C70.6403 61.6903 79.8158 61.2463 79.6678 61.9862C79.5199 62.8001 80.5558 62.5781 83.4417 62.5042C86.4015 62.4302 87.8075 63.1701 89.6574 64.132C91.5813 65.0938 96.983 66.2037 96.613 65.1678C96.243 64.206 88.5474 62.1342 89.3614 61.6163C90.2493 61.0983 100.387 62.2082 101.275 61.3943C102.163 60.5804 106.159 60.6544 106.159 60.6544C106.159 60.6544 103.273 66.7956 104.383 67.4615C105.493 68.1275 112.744 68.4234 111.634 68.8674C110.524 69.3113 100.461 70.7171 99.2029 71.383C98.9809 71.457 98.6109 71.605 98.019 71.679C94.9111 72.123 87.3635 72.2709 86.4755 71.383C85.4396 70.3472 82.7017 67.6835 81.4438 68.8674C80.1118 70.0512 79.3719 71.0871 78.8539 70.7172C78.4099 70.3472 75.894 68.7194 75.0801 69.2373C74.2661 69.7553 74.2661 68.9414 72.7122 68.7934C71.2322 68.6454 68.8644 68.5714 68.3464 69.3113C67.9024 70.0512 65.0165 71.2351 63.6846 71.3091C62.3527 71.3831 50.1433 72.1969 48.8853 71.975C47.5534 71.753 43.4836 70.7171 42.7436 69.5333C42.9656 69.4593 43.1136 69.4593 43.3356 69.3853C46.3694 68.7934 52.0672 68.8674 55.471 68.7934C59.0968 68.7934 66.6445 67.7575 67.9764 67.6835C69.3823 67.6095 78.9279 68.4974 79.1499 68.7934C79.1499 68.7934 78.4839 67.7575 75.968 67.2396C73.4521 66.7216 66.6445 65.7598 64.1286 66.2777C61.6127 66.7956 56.063 67.3876 53.9171 67.3876C51.7712 67.3876 45.6295 67.1656 43.7796 67.1656C42.0777 67.3875 39.1918 66.2037 40.6717 65.5378Z" fill="url(#paint0_radial)"/>
<g opacity="0.1">
<path opacity="0.1" d="M6.41136 69.6073C7.07733 69.9772 7.00333 70.7171 9.5932 71.679C12.2571 72.6409 20.6927 72.4929 20.6927 73.5288C20.6927 74.5647 24.3185 73.5288 29.7202 73.5288C35.122 73.5288 46.2954 73.8987 46.5914 74.7126C46.8134 75.5265 55.619 74.4167 57.9129 74.4167C60.1328 74.4167 66.4225 73.7508 65.9785 74.7866C65.5345 75.8225 95.2071 75.0826 95.2071 75.0826C95.2071 75.0826 96.317 75.7485 97.871 75.4525C99.3509 75.0826 105.049 75.6745 104.013 76.1924C103.051 76.6364 129.245 76.6364 129.245 76.6364C129.245 76.6364 166.614 76.6364 169.278 77.0803C171.941 77.5243 171.349 76.3404 172.607 75.6005C173.939 74.7866 182.301 76.0445 182.967 75.6005C183.633 75.1566 188.887 75.6745 190.293 75.6005C191.698 75.5265 192.29 74.6386 194.288 74.1207C196.286 73.6028 201.244 75.5265 203.316 75.6005C205.388 75.6745 208.348 75.0086 210.198 74.8606C212.048 74.7126 221.889 74.4907 222.629 73.3808C226.551 73.9727 243.866 72.9369 244.088 72.4929C244.31 72.049 248.676 71.383 251.266 72.3449C253.855 73.2328 267.323 70.4212 269.321 70.0512C271.319 69.6813 279.68 68.7934 282.936 68.4974C284.342 68.3495 284.268 67.9055 283.676 67.3876C282.936 66.7956 281.234 66.1297 280.642 66.1297C279.532 66.1297 271.985 63.688 270.209 63.762C268.433 63.91 268.359 63.2441 266.731 62.5782C265.103 61.9123 259.479 62.0602 259.479 62.0602C257.851 57.6208 254.521 57.1768 253.855 57.7688C253.116 58.4347 253.042 55.3271 251.488 55.1051C250.008 54.8091 251.71 57.5468 250.896 57.5468C250.082 57.5468 250.156 59.9885 250.156 59.9885C247.862 59.2486 243.422 60.8764 241.646 60.9504C239.87 61.0983 232.693 60.8024 232.619 60.2844C232.471 59.7665 226.995 58.8786 225.367 58.5087C223.813 58.1387 222.185 56.4369 221.593 55.327C221.001 54.1432 219.521 54.8091 218.559 54.9571C217.671 55.1051 216.931 53.6253 214.933 52.8114C213.083 51.9975 212.27 54.2172 210.938 55.4011C210.864 55.475 210.79 55.549 210.716 55.549C209.236 56.6589 212.417 59.1746 211.826 59.1746C211.234 59.1746 209.532 59.0266 209.754 59.6185C209.976 60.2105 198.062 60.2844 198.062 60.2844C198.062 60.2844 197.988 60.0625 197.84 59.6925C197.47 58.8046 196.73 57.1768 196.434 56.7329C196.064 56.141 195.472 58.1387 194.954 58.7306C194.436 59.3226 194.066 57.9907 193.4 57.6208C192.734 57.2508 191.772 59.9145 189.923 60.2844C188.073 60.5804 187.851 57.4728 186.889 57.0289C186.741 56.9549 186.519 56.9549 186.371 57.0289C185.853 57.1768 185.261 57.7688 185.039 58.1387C184.891 58.2867 184.817 58.3607 184.817 58.3607C184.817 58.3607 184.817 58.3607 184.743 58.3607C184.521 58.2867 184.003 58.1387 183.485 58.4347C182.819 58.8046 178.823 55.919 178.453 56.8069C178.083 57.6208 176.677 57.6208 175.863 57.5468C175.271 57.4728 175.271 54.2172 175.641 51.3316C175.789 50.1477 176.011 49.0378 176.307 48.2979C177.195 45.6343 176.233 42.4527 175.493 40.9729C175.493 40.8989 175.419 40.8989 175.419 40.8249C174.605 39.567 172.607 41.1208 172.533 42.4527C172.459 43.9325 171.941 43.4885 170.313 44.3024C168.686 45.1163 169.5 46.5222 169.5 48.5939C169.5 50.6656 171.201 49.9258 172.829 50.3697C174.457 50.8136 173.495 55.697 172.903 57.9167C172.311 60.1364 170.24 58.5086 169.426 57.9167C168.612 57.3248 167.354 57.4728 166.022 57.9167C164.69 58.3607 164.468 57.1028 163.358 56.4369C162.248 55.771 161.952 57.9167 161.952 57.9167C161.952 57.9167 161.508 57.3248 161.138 56.7329C160.916 56.3629 160.62 55.919 160.472 55.697C160.176 55.0311 159.806 55.993 158.4 56.7329C156.994 57.4728 156.55 56.0669 156.106 54.9571C155.662 53.8472 153.812 54.1432 152.702 56.0669C151.592 57.9907 150.408 54.6611 150.038 53.9952C149.668 53.3293 150.852 52.5154 151.888 51.6275C152.85 50.7396 152.48 49.4078 151.74 47.484C151 45.5603 151.592 46.3002 152.258 43.7105C152.628 42.3047 152.258 41.3428 151.592 40.5289C151 39.789 150.186 39.2711 149.446 38.7531C147.819 37.7173 148.633 40.6769 148.707 42.1567C148.781 43.6365 148.337 44.7464 146.709 46.4481C145.081 48.1499 146.413 50.9616 147.153 51.5535C147.893 52.1455 147.375 53.4033 146.117 53.0333C144.859 52.6634 143.009 56.8808 142.269 57.5468C141.529 58.2867 141.455 55.4011 140.937 54.8831C140.493 54.4392 137.163 55.475 135.461 56.3629C135.165 56.5109 134.943 56.6589 134.721 56.8069C133.685 57.6947 133.389 55.4011 132.575 54.6612C131.687 53.8473 131.465 54.8831 130.281 55.1051C129.097 55.401 127.84 54.7351 126.878 55.4011C125.916 56.141 126.582 56.8809 125.176 56.9548C123.696 57.1028 120.81 57.3248 119.7 58.2127C118.664 59.0266 117.258 56.215 116.518 55.919C115.704 55.549 114.52 58.3607 113.484 58.8046C112.448 59.2486 111.634 54.8831 109.932 54.2912C108.23 53.6993 107.712 58.2127 107.712 58.2127C107.712 58.2127 86.4755 59.1746 85.3656 59.1746C84.1816 59.1746 80.9258 58.7307 79.8158 57.7688C78.7059 56.8809 77.8919 56.7329 76.634 57.7688C75.376 58.8046 71.1582 60.2845 69.2343 60.5804C67.2364 60.9504 62.1307 60.9504 59.9108 61.6903C57.6909 62.4302 52.0672 62.4302 50.1433 61.9122C48.1454 61.4683 43.9276 59.8405 42.8176 59.6925C41.7817 59.5445 41.4117 61.3203 40.3757 61.9122C39.3398 62.5782 35.196 62.8741 33.79 62.7261C32.3841 62.5041 32.4581 64.3539 32.4581 64.3539C32.2361 64.132 30.8302 62.3562 30.4602 61.3943C30.0902 60.3584 29.4243 61.8383 28.9063 62.9481C28.3883 64.058 27.7223 61.7643 27.2044 60.7284C26.6864 59.6925 25.2805 59.3226 24.6145 60.2105C24.0965 60.8764 24.6145 63.614 24.8365 64.6499C24.9105 64.8719 24.9105 65.0199 24.9105 65.0199C24.9105 65.0199 22.4686 64.9459 21.8766 65.7598C21.2846 66.5737 17.2148 65.9817 15.9569 65.5378C14.699 65.0939 14.773 64.206 14.033 64.7979C13.293 65.3898 11.6651 65.8337 10.0372 65.9817C8.40926 66.1297 7.89129 68.0535 6.78134 68.0535C6.70735 68.0535 6.63335 68.0535 6.55935 68.0535C5.22742 67.9055 1.52759 66.9436 0.861624 67.5355C0.269652 68.2014 5.74539 69.1634 6.41136 69.6073ZM259.479 65.3898C259.479 65.1678 259.553 64.9459 259.627 64.7979C259.775 64.5019 260.071 64.28 260.441 64.28C261.181 64.28 260.663 65.2418 262.661 65.4638C264.733 65.6858 269.617 65.7598 269.617 65.7598C269.617 65.7598 270.579 65.4638 271.319 65.4638C271.319 65.4638 271.615 65.5378 272.207 65.6118C272.281 65.6858 272.281 65.7597 272.281 65.8337C272.281 66.5736 270.283 67.9055 268.359 67.6095C266.361 67.3136 260.367 68.5714 260.441 67.6095C260.515 66.5737 259.479 65.9077 259.479 65.3898ZM197.618 65.6857C197.618 65.6857 199.764 65.5378 199.616 63.836C199.468 62.2822 198.432 61.5423 198.21 61.3943H198.136C198.136 61.3943 201.466 61.4683 204.648 61.6163C206.794 61.6902 208.866 61.8382 209.68 61.9862C211.678 62.3562 230.029 61.5423 231.435 62.2082C232.766 62.8001 246.382 62.3562 246.9 63.2441C246.9 63.3181 246.9 63.3181 246.9 63.3921C246.456 64.2799 246.16 64.2799 246.234 65.2418C246.308 66.2037 246.9 67.6835 245.198 67.9055C243.496 68.1274 231.139 70.4212 229.807 70.7911C228.475 71.1611 225.811 71.605 224.997 71.3091C224.183 71.0131 216.487 70.6431 214.785 70.7911C213.157 70.9391 206.794 70.2732 204.278 69.3853C201.762 68.4974 197.618 68.2755 197.618 67.3876C197.618 67.2396 197.618 67.1656 197.618 67.0176C197.618 66.2777 197.618 65.6857 197.618 65.6857ZM181.413 69.1633C181.413 69.1633 195.176 66.4997 195.176 67.2396C195.176 67.3136 194.584 67.8315 193.918 68.3494C193.548 68.6454 193.104 69.0154 192.808 69.3113L192.734 69.3853C192.66 69.4593 192.586 69.5333 192.512 69.6073C191.698 70.4952 188.517 72.4929 185.853 72.4929C183.189 72.4929 181.487 71.975 181.413 71.0131C181.339 70.1252 181.413 69.1633 181.413 69.1633ZM104.161 73.0109C105.345 72.7149 113.188 70.4212 116.666 69.9032C120.144 69.3853 120.588 68.7194 125.546 69.3113C130.503 69.9032 143.083 69.1634 144.341 69.6073C145.525 69.9772 168.612 70.1992 171.201 69.9772H171.423C171.423 69.9772 171.793 71.901 170.757 72.197C169.722 72.4929 165.208 72.049 164.098 72.7149C162.988 73.3808 162.174 73.6768 160.842 73.6028C159.51 73.5288 155.218 73.4548 155.07 73.6028C154.922 73.8247 146.635 74.1207 146.635 74.1207C146.635 74.1207 145.377 73.0848 144.119 73.0848C142.861 73.0848 141.085 72.7889 140.493 72.7149C139.901 72.6409 133.907 73.5288 133.611 73.0109C133.241 72.5669 131.169 70.4212 129.837 71.0131C128.506 71.531 124.88 72.4929 123.4 72.7149C121.92 72.9368 111.19 73.6028 109.192 73.4548C107.343 73.1588 102.977 73.3068 104.161 73.0109ZM40.6717 65.5378C42.1516 64.8719 55.175 65.9077 55.693 65.2418C56.211 64.5019 54.805 64.3539 55.397 63.91C56.063 63.54 67.5324 63.3181 68.7164 63.0221C69.9003 62.7261 68.2724 61.6903 69.4563 61.6903C70.6403 61.6903 79.8158 61.2463 79.6678 61.9862C79.5199 62.8001 80.5558 62.5781 83.4417 62.5042C86.4015 62.4302 87.8075 63.1701 89.6574 64.132C91.5813 65.0938 96.983 66.2037 96.613 65.1678C96.243 64.206 88.5474 62.1342 89.3614 61.6163C90.2493 61.0983 100.387 62.2082 101.275 61.3943C102.163 60.5804 106.159 60.6544 106.159 60.6544C106.159 60.6544 103.273 66.7956 104.383 67.4615C105.493 68.1275 112.744 68.4234 111.634 68.8674C110.524 69.3113 100.461 70.7171 99.2029 71.383C98.9809 71.457 98.6109 71.605 98.019 71.679C94.9111 72.123 87.3635 72.2709 86.4755 71.383C85.4396 70.3472 82.7017 67.6835 81.4438 68.8674C80.1118 70.0512 79.3719 71.0871 78.8539 70.7172C78.4099 70.3472 75.894 68.7194 75.0801 69.2373C74.2661 69.7553 74.2661 68.9414 72.7122 68.7934C71.2322 68.6454 68.8644 68.5714 68.3464 69.3113C67.9024 70.0512 65.0165 71.2351 63.6846 71.3091C62.3527 71.3831 50.1433 72.1969 48.8853 71.975C47.5534 71.753 43.4836 70.7171 42.7436 69.5333C42.9656 69.4593 43.1136 69.4593 43.3356 69.3853C46.3694 68.7934 52.0672 68.8674 55.471 68.7934C59.0968 68.7934 66.6445 67.7575 67.9764 67.6835C69.3823 67.6095 78.9279 68.4974 79.1499 68.7934C79.1499 68.7934 78.4839 67.7575 75.968 67.2396C73.4521 66.7216 66.6445 65.7598 64.1286 66.2777C61.6127 66.7956 56.063 67.3876 53.9171 67.3876C51.7712 67.3876 45.6295 67.1656 43.7796 67.1656C42.0777 67.3875 39.1918 66.2037 40.6717 65.5378Z" fill="url(#paint1_linear)"/>
</g>
<path d="M255.705 43.7845C255.705 43.7845 256.519 47.706 255.705 48.5939C254.891 49.4818 254.077 50.2957 254.077 51.5536C254.077 52.8114 253.781 53.9953 252.968 52.8854C252.154 51.7015 250.378 50.1477 250.452 47.6321C250.526 45.1164 251.414 43.7105 250.452 42.6747C249.49 41.5648 247.714 37.0514 250.896 36.5334C254.003 36.0155 254.891 37.0514 254.891 37.0514C254.891 37.0514 258.739 39.1231 255.705 43.7845Z" fill="#D9F7FF"/>
<path opacity="0.1" d="M255.705 43.7845C255.705 43.7845 256.519 47.706 255.705 48.5939C254.891 49.4818 254.077 50.2957 254.077 51.5536C254.077 52.8114 253.781 53.9953 252.968 52.8854C252.154 51.7015 250.378 50.1477 250.452 47.6321C250.526 45.1164 251.414 43.7105 250.452 42.6747C249.49 41.5648 247.714 37.0514 250.896 36.5334C254.003 36.0155 254.891 37.0514 254.891 37.0514C254.891 37.0514 258.739 39.1231 255.705 43.7845Z" fill="url(#paint2_linear)"/>
<path d="M246.9 49.7778C247.122 50.2958 247.788 52.8855 247.788 53.7734C247.788 54.6612 247.344 56.511 246.9 56.733C246.456 56.955 244.976 56.0671 244.976 54.5133C244.976 52.9595 244.68 51.8496 244.976 51.0357C245.272 50.1478 246.9 49.7778 246.9 49.7778Z" fill="#D9F7FF"/>
<path opacity="0.1" d="M246.9 49.7778C247.122 50.2958 247.788 52.8855 247.788 53.7734C247.788 54.6612 247.344 56.511 246.9 56.733C246.456 56.955 244.976 56.0671 244.976 54.5133C244.976 52.9595 244.68 51.8496 244.976 51.0357C245.272 50.1478 246.9 49.7778 246.9 49.7778Z" fill="url(#paint3_linear)"/>
<path d="M211.456 42.8966C211.899 43.2666 211.012 44.8204 211.234 46.5962C211.456 48.3719 211.678 49.3338 211.16 50.1477C210.716 50.9616 209.828 51.7015 209.606 51.9975C209.384 52.2934 208.274 50.7397 208.274 49.2599C208.274 47.78 208.496 47.1881 208.792 45.4863C209.162 43.7845 209.828 41.4908 211.456 42.8966Z" fill="#D9F7FF"/>
<path opacity="0.1" d="M211.456 42.8966C211.899 43.2666 211.012 44.8204 211.234 46.5962C211.456 48.3719 211.678 49.3338 211.16 50.1477C210.716 50.9616 209.828 51.7015 209.606 51.9975C209.384 52.2934 208.274 50.7397 208.274 49.2599C208.274 47.78 208.496 47.1881 208.792 45.4863C209.162 43.7845 209.828 41.4908 211.456 42.8966Z" fill="url(#paint4_linear)"/>
<path d="M212.27 32.316C212.27 32.316 212.713 34.6836 212.27 35.3496C211.826 35.9415 210.124 36.7554 209.236 36.0155C208.348 35.2756 207.608 34.3877 207.46 33.8697C207.312 33.3518 207.904 32.242 208.274 31.798C208.644 31.3541 208.348 30.9841 209.606 30.9841C210.864 30.9841 212.048 31.2801 212.27 32.316Z" fill="#D9F7FF"/>
<path opacity="0.1" d="M212.27 32.316C212.27 32.316 212.713 34.6836 212.27 35.3496C211.826 35.9415 210.124 36.7554 209.236 36.0155C208.348 35.2756 207.608 34.3877 207.46 33.8697C207.312 33.3518 207.904 32.242 208.274 31.798C208.644 31.3541 208.348 30.9841 209.606 30.9841C210.864 30.9841 212.048 31.2801 212.27 32.316Z" fill="url(#paint5_linear)"/>
<path d="M220.853 11.9685C220.927 12.3384 220.409 14.8541 220.409 16.7039C220.409 18.6277 220.631 19.7375 219.743 20.1814C218.855 20.6254 217.893 19.5895 217.079 19.7375C216.265 19.9595 215.673 21.5133 215.081 19.7375C214.563 17.9617 213.601 14.1882 215.451 12.2645C217.301 10.3407 220.335 9.67476 220.853 11.9685Z" fill="#D9F7FF"/>
<path opacity="0.1" d="M220.853 11.9685C220.927 12.3384 220.409 14.8541 220.409 16.7039C220.409 18.6277 220.631 19.7375 219.743 20.1814C218.855 20.6254 217.893 19.5895 217.079 19.7375C216.265 19.9595 215.673 21.5133 215.081 19.7375C214.563 17.9617 213.601 14.1882 215.451 12.2645C217.301 10.3407 220.335 9.67476 220.853 11.9685Z" fill="url(#paint6_linear)"/>
<path d="M217.597 21.5874C217.301 22.3273 217.523 22.7712 217.301 23.2892C217.005 23.8071 216.339 24.0291 216.043 23.9551C215.747 23.8811 214.711 23.1412 215.451 22.4753C216.117 21.8094 217.597 21.5874 217.597 21.5874Z" fill="#D9F7FF"/>
<path opacity="0.1" d="M217.597 21.5874C217.301 22.3273 217.523 22.7712 217.301 23.2892C217.005 23.8071 216.339 24.0291 216.043 23.9551C215.747 23.8811 214.711 23.1412 215.451 22.4753C216.117 21.8094 217.597 21.5874 217.597 21.5874Z" fill="url(#paint7_linear)"/>
<path d="M209.088 15.594C209.088 16.4819 209.976 17.2958 209.236 19.1456C208.496 20.9953 208.792 21.8832 207.904 21.5873C206.942 21.2913 206.572 20.2554 206.498 18.9236C206.35 17.5918 207.09 15.298 207.534 15.1501C207.904 15.0761 209.088 15.594 209.088 15.594Z" fill="#D9F7FF"/>
<path opacity="0.1" d="M209.088 15.594C209.088 16.4819 209.976 17.2958 209.236 19.1456C208.496 20.9953 208.792 21.8832 207.904 21.5873C206.942 21.2913 206.572 20.2554 206.498 18.9236C206.35 17.5918 207.09 15.298 207.534 15.1501C207.904 15.0761 209.088 15.594 209.088 15.594Z" fill="url(#paint8_linear)"/>
<path d="M201.022 17.74C201.022 17.74 202.65 17.666 201.466 19.3678C200.208 21.0696 199.986 22.1054 199.764 21.5875C199.542 21.1436 198.95 19.8117 199.246 19.0718C199.394 18.3319 201.022 17.74 201.022 17.74Z" fill="#D9F7FF"/>
<path opacity="0.1" d="M201.022 17.74C201.022 17.74 202.65 17.666 201.466 19.3678C200.208 21.0696 199.986 22.1054 199.764 21.5875C199.542 21.1436 198.95 19.8117 199.246 19.0718C199.394 18.3319 201.022 17.74 201.022 17.74Z" fill="url(#paint9_linear)"/>
<path d="M149.742 24.917C149.742 25.6569 149.964 27.1367 149.668 28.3206C149.372 29.5044 148.781 31.0582 148.485 30.0964C148.189 29.1345 148.781 28.0246 148.189 27.6547C147.671 27.2847 147.005 26.6188 147.671 25.8789C148.263 25.139 149.668 23.9551 149.742 24.917Z" fill="#D9F7FF"/>
<path opacity="0.1" d="M149.742 24.917C149.742 25.6569 149.964 27.1367 149.668 28.3206C149.372 29.5044 148.781 31.0582 148.485 30.0964C148.189 29.1345 148.781 28.0246 148.189 27.6547C147.671 27.2847 147.005 26.6188 147.671 25.8789C148.263 25.139 149.668 23.9551 149.742 24.917Z" fill="url(#paint10_linear)"/>
<path d="M149.816 14.9282C150.26 15.7421 150.704 17.5179 149.816 19.0717C148.928 20.6255 149.15 22.2533 148.632 21.4394C148.115 20.6255 148.337 19.2937 147.449 18.7017C146.561 18.1098 146.191 17.6659 146.339 16.408C146.413 15.1502 148.485 12.5605 149.816 14.9282Z" fill="#D9F7FF"/>
<path opacity="0.1" d="M149.816 14.9282C150.26 15.7421 150.704 17.5179 149.816 19.0717C148.928 20.6255 149.15 22.2533 148.632 21.4394C148.115 20.6255 148.337 19.2937 147.449 18.7017C146.561 18.1098 146.191 17.6659 146.339 16.408C146.413 15.1502 148.485 12.5605 149.816 14.9282Z" fill="url(#paint11_linear)"/>
<path d="M111.856 43.3405C111.93 43.8584 112.596 45.7822 112.152 46.818C111.708 47.8539 110.968 48.6678 110.894 49.4077C110.82 50.1476 110.746 51.7754 110.228 51.5535C109.71 51.3315 107.712 50.0737 108.008 48.5199C108.304 47.04 108.748 46.3741 109.34 45.2642C109.858 44.2284 111.634 42.2306 111.856 43.3405Z" fill="#D9F7FF"/>
<path opacity="0.1" d="M111.856 43.3405C111.93 43.8584 112.596 45.7822 112.152 46.818C111.708 47.8539 110.968 48.6678 110.894 49.4077C110.82 50.1476 110.746 51.7754 110.228 51.5535C109.71 51.3315 107.712 50.0737 108.008 48.5199C108.304 47.04 108.748 46.3741 109.34 45.2642C109.858 44.2284 111.634 42.2306 111.856 43.3405Z" fill="url(#paint12_linear)"/>
<path d="M110.154 37.0514C110.154 37.0514 110.894 40.8249 110.154 41.4168C109.414 42.0087 108.452 42.0088 108.008 41.1209C107.565 40.233 106.159 38.6052 106.159 37.4953C106.233 36.4595 108.748 33.0559 110.154 37.0514Z" fill="#D9F7FF"/>
<path opacity="0.1" d="M110.154 37.0514C110.154 37.0514 110.894 40.8249 110.154 41.4168C109.414 42.0087 108.452 42.0088 108.008 41.1209C107.565 40.233 106.159 38.6052 106.159 37.4953C106.233 36.4595 108.748 33.0559 110.154 37.0514Z" fill="url(#paint13_linear)"/>
<path d="M112.3 14.3362C112.3 14.3362 113.336 16.482 112.3 18.5537C111.264 20.6994 111.634 21.0694 111.486 23.3631C111.338 25.6568 109.784 27.2106 109.34 26.3227C108.896 25.4348 106.973 21.2173 108.009 19.5895C109.044 17.9617 109.266 16.26 109.192 15.2241C109.118 14.1882 109.118 11.8945 109.784 12.0425C110.45 12.1165 111.856 12.1165 112.3 14.3362Z" fill="#D9F7FF"/>
<path opacity="0.1" d="M112.3 14.3362C112.3 14.3362 113.336 16.482 112.3 18.5537C111.264 20.6994 111.634 21.0694 111.486 23.3631C111.338 25.6568 109.784 27.2106 109.34 26.3227C108.896 25.4348 106.973 21.2173 108.009 19.5895C109.044 17.9617 109.266 16.26 109.192 15.2241C109.118 14.1882 109.118 11.8945 109.784 12.0425C110.45 12.1165 111.856 12.1165 112.3 14.3362Z" fill="url(#paint14_linear)"/>
<path d="M107.638 5.23546C107.638 5.23546 107.712 6.56726 106.159 7.38116C104.605 8.12107 104.087 7.60314 104.013 9.37892C103.865 11.1547 102.829 11.6727 101.275 11.1547C99.7208 10.6368 97.6489 5.90136 99.6468 4.34756C101.645 2.79375 100.905 1.01798 102.311 0.426056C103.717 -0.16587 108.23 2.4978 107.638 5.23546Z" fill="#D9F7FF"/>
<path opacity="0.1" d="M107.638 5.23546C107.638 5.23546 107.712 6.56726 106.159 7.38116C104.605 8.12107 104.087 7.60314 104.013 9.37892C103.865 11.1547 102.829 11.6727 101.275 11.1547C99.7208 10.6368 97.6489 5.90136 99.6468 4.34756C101.645 2.79375 100.905 1.01798 102.311 0.426056C103.717 -0.16587 108.23 2.4978 107.638 5.23546Z" fill="url(#paint15_linear)"/>
<path d="M93.2092 51.6277C93.5792 53.4035 93.7272 54.2914 92.6172 54.8833C91.4333 55.4752 89.5834 56.6591 90.2494 54.4394C90.9153 52.2196 91.3593 51.1837 91.8033 51.1837C92.1733 51.1098 93.2092 51.6277 93.2092 51.6277Z" fill="#D9F7FF"/>
<path opacity="0.1" d="M93.2092 51.6277C93.5792 53.4035 93.7272 54.2914 92.6172 54.8833C91.4333 55.4752 89.5834 56.6591 90.2494 54.4394C90.9153 52.2196 91.3593 51.1837 91.8033 51.1837C92.1733 51.1098 93.2092 51.6277 93.2092 51.6277Z" fill="url(#paint16_linear)"/>
<path d="M79.6678 45.7822C79.5938 46.4482 80.1858 48.5199 79.5938 49.9257C79.0018 51.3315 79.3718 55.549 77.3739 55.1051C75.302 54.6611 73.6741 53.4773 74.1181 50.7396C74.562 48.002 73.3781 46.8181 74.562 44.8943C75.746 42.8966 75.08 42.0087 76.116 42.3047C77.0039 42.6006 79.8158 43.5625 79.6678 45.7822Z" fill="#D9F7FF"/>
<path opacity="0.1" d="M79.6678 45.7822C79.5938 46.4482 80.1858 48.5199 79.5938 49.9257C79.0018 51.3315 79.3718 55.549 77.3739 55.1051C75.302 54.6611 73.6741 53.4773 74.1181 50.7396C74.562 48.002 73.3781 46.8181 74.562 44.8943C75.746 42.8966 75.08 42.0087 76.116 42.3047C77.0039 42.6006 79.8158 43.5625 79.6678 45.7822Z" fill="url(#paint17_linear)"/>
<path d="M75.0801 30.5401C74.3401 31.502 73.9701 33.7957 73.3042 34.6096C72.6382 35.4235 71.9722 37.0513 71.3063 36.2374C70.6403 35.4235 69.0864 35.5715 69.9743 33.7957C70.9363 32.02 71.8242 31.502 72.0462 30.1702C72.2682 28.8383 71.5282 28.3944 71.8242 27.4326C72.1942 26.4707 72.6382 25.1388 73.2302 25.8787C73.8961 26.6186 76.042 29.2823 75.0801 30.5401Z" fill="#D9F7FF"/>
<path opacity="0.1" d="M75.0801 30.5401C74.3401 31.502 73.9701 33.7957 73.3042 34.6096C72.6382 35.4235 71.9722 37.0513 71.3063 36.2374C70.6403 35.4235 69.0864 35.5715 69.9743 33.7957C70.9363 32.02 71.8242 31.502 72.0462 30.1702C72.2682 28.8383 71.5282 28.3944 71.8242 27.4326C72.1942 26.4707 72.6382 25.1388 73.2302 25.8787C73.8961 26.6186 76.042 29.2823 75.0801 30.5401Z" fill="url(#paint18_linear)"/>
<path d="M88.5474 17.6659C88.5474 17.6659 89.5094 18.9977 89.0654 20.1815C88.6214 21.3654 88.9914 22.5492 87.0675 22.1793C85.1436 21.7353 85.0696 21.6614 84.8476 20.2555C84.5516 18.9237 84.5516 17.5179 85.2916 17.2219C86.1055 16.8519 88.1034 16.63 88.5474 17.6659Z" fill="#D9F7FF"/>
<path opacity="0.1" d="M88.5474 17.6659C88.5474 17.6659 89.5094 18.9977 89.0654 20.1815C88.6214 21.3654 88.9914 22.5492 87.0675 22.1793C85.1436 21.7353 85.0696 21.6614 84.8476 20.2555C84.5516 18.9237 84.5516 17.5179 85.2916 17.2219C86.1055 16.8519 88.1034 16.63 88.5474 17.6659Z" fill="url(#paint19_linear)"/>
<path d="M76.93 15.5202C76.782 15.8902 76.338 16.3342 76.042 17.814C75.746 19.2938 75.968 19.9597 75.3021 20.9216C74.6361 21.9574 72.2682 21.9574 71.9722 20.1817C71.6762 18.4059 72.0462 15.8162 73.2302 15.4463C74.3401 15.2243 77.596 14.1884 76.93 15.5202Z" fill="#D9F7FF"/>
<path opacity="0.1" d="M76.93 15.5202C76.782 15.8902 76.338 16.3342 76.042 17.814C75.746 19.2938 75.968 19.9597 75.3021 20.9216C74.6361 21.9574 72.2682 21.9574 71.9722 20.1817C71.6762 18.4059 72.0462 15.8162 73.2302 15.4463C74.3401 15.2243 77.596 14.1884 76.93 15.5202Z" fill="url(#paint20_linear)"/>
<path d="M59.3928 60.2845C60.2808 60.7284 60.2808 59.6186 60.5768 58.7307C60.8728 57.8428 60.1328 57.2508 59.7628 56.8069C59.7628 56.8069 58.9489 57.3248 58.2089 58.2867C57.3949 59.2486 58.5049 59.8405 59.3928 60.2845Z" fill="#D9F7FF"/>
<path opacity="0.1" d="M59.3928 60.2845C60.2808 60.7284 60.2808 59.6186 60.5768 58.7307C60.8728 57.8428 60.1328 57.2508 59.7628 56.8069C59.7628 56.8069 58.9489 57.3248 58.2089 58.2867C57.3949 59.2486 58.5049 59.8405 59.3928 60.2845Z" fill="url(#paint21_linear)"/>
<path d="M54.287 60.8026C54.509 61.0246 54.879 59.9147 55.619 59.3228C56.3589 58.8049 55.249 57.769 55.249 57.3991C55.249 57.3991 53.6951 57.2511 53.1031 58.2129C52.5111 59.1748 54.065 60.5067 54.287 60.8026Z" fill="#D9F7FF"/>
<path opacity="0.1" d="M54.287 60.8026C54.509 61.0246 54.879 59.9147 55.619 59.3228C56.3589 58.8049 55.249 57.769 55.249 57.3991C55.249 57.3991 53.6951 57.2511 53.1031 58.2129C52.5111 59.1748 54.065 60.5067 54.287 60.8026Z" fill="url(#paint22_linear)"/>
<path d="M36.5279 37.7174C36.5279 37.7174 39.4878 39.1972 38.3778 42.6008C37.2679 46.0044 34.974 46.0783 34.9 44.8945C34.826 43.7106 35.9359 47.1882 34.9 48.742C33.864 50.2218 33.938 51.6277 34.456 52.5895C34.9 53.5514 34.086 54.8092 34.086 55.2532C34.16 55.6231 35.344 56.807 34.604 58.6567C33.864 60.5065 30.4602 61.2464 30.6822 59.1747C30.9782 57.1029 30.2382 55.9931 30.2382 55.7711C30.1642 55.6231 32.6801 54.2173 32.7541 53.4774C32.8281 52.7375 31.2001 52.0716 31.4961 50.3698C31.8661 48.668 33.1981 47.7061 33.1981 47.1882C33.1981 46.6702 32.7541 44.8205 31.8661 43.9326C31.0522 43.0447 28.6103 40.0111 30.1642 36.2376C31.7181 32.464 32.8281 33.204 34.086 33.3519C35.4179 33.4259 37.0459 35.4976 36.5279 37.7174Z" fill="#D9F7FF"/>
<path opacity="0.1" d="M36.5279 37.7174C36.5279 37.7174 39.4878 39.1972 38.3778 42.6008C37.2679 46.0044 34.974 46.0783 34.9 44.8945C34.826 43.7106 35.9359 47.1882 34.9 48.742C33.864 50.2218 33.938 51.6277 34.456 52.5895C34.9 53.5514 34.086 54.8092 34.086 55.2532C34.16 55.6231 35.344 56.807 34.604 58.6567C33.864 60.5065 30.4602 61.2464 30.6822 59.1747C30.9782 57.1029 30.2382 55.9931 30.2382 55.7711C30.1642 55.6231 32.6801 54.2173 32.7541 53.4774C32.8281 52.7375 31.2001 52.0716 31.4961 50.3698C31.8661 48.668 33.1981 47.7061 33.1981 47.1882C33.1981 46.6702 32.7541 44.8205 31.8661 43.9326C31.0522 43.0447 28.6103 40.0111 30.1642 36.2376C31.7181 32.464 32.8281 33.204 34.086 33.3519C35.4179 33.4259 37.0459 35.4976 36.5279 37.7174Z" fill="url(#paint23_linear)"/>
<path opacity="0.2" d="M6.70734 68.0535C7.07732 68.2755 7.5213 68.4235 8.26127 68.2755C9.81519 67.8315 9.5192 67.3876 10.9251 67.3876C12.3311 67.3136 13.515 68.5715 15.2169 68.9414C16.8448 69.3114 17.2888 69.0894 19.2127 69.0894C21.0626 69.0894 22.7646 69.6813 23.5045 69.0894C24.1705 68.4235 25.5764 65.2419 25.5764 65.2419L25.0585 64.65C25.1325 64.8719 25.1325 65.0199 25.1325 65.0199C25.1325 65.0199 22.6906 64.9459 22.0986 65.7598C21.5066 66.5737 17.4368 65.9818 16.1789 65.5378C14.9209 65.0939 14.9949 64.206 14.255 64.7979C13.515 65.3899 11.8871 65.8338 10.2592 65.9818C8.63125 66.1298 8.11327 68.0535 7.00332 68.0535C6.85533 68.0535 6.78133 68.0535 6.70734 68.0535Z" fill="#476B82"/>
<path d="M60.5028 58.6567C60.7988 57.7688 60.0588 57.1769 59.6888 56.7329C59.6888 56.7329 58.8749 57.2508 58.1349 58.2127C57.3949 59.1746 58.5049 59.7665 59.3928 60.2105C60.2808 60.6544 60.2808 59.5445 60.5028 58.6567Z" fill="#D9F7FF"/>
<path opacity="0.1" d="M60.5028 58.6567C60.7988 57.7688 60.0588 57.1769 59.6888 56.7329C59.6888 56.7329 58.8749 57.2508 58.1349 58.2127C57.3949 59.1746 58.5049 59.7665 59.3928 60.2105C60.2808 60.6544 60.2808 59.5445 60.5028 58.6567Z" fill="url(#paint24_linear)"/>
<path d="M55.323 57.3991C55.323 57.3991 53.7691 57.2511 53.1771 58.2129C52.5851 59.1748 54.1391 60.5067 54.3611 60.7286C54.5831 60.9506 54.953 59.8408 55.693 59.2488C56.359 58.7309 55.323 57.769 55.323 57.3991Z" fill="#D9F7FF"/>
<path opacity="0.1" d="M55.323 57.3991C55.323 57.3991 53.7691 57.2511 53.1771 58.2129C52.5851 59.1748 54.1391 60.5067 54.3611 60.7286C54.5831 60.9506 54.953 59.8408 55.693 59.2488C56.359 58.7309 55.323 57.769 55.323 57.3991Z" fill="url(#paint25_linear)"/>
<path opacity="0.2" d="M193.918 68.4233C193.548 68.7193 193.104 69.0892 192.808 69.3852L193.918 68.4233Z" fill="#476B82"/>
<path opacity="0.2" d="M32.5321 64.354L32.6061 64.7239C32.6061 64.7239 34.234 68.4235 35.7879 68.2015C37.3419 67.9795 37.8598 66.4257 39.1918 67.0177C40.5237 67.6096 41.7077 68.9414 42.2256 69.3114C42.2996 69.3853 42.7436 69.4593 43.3356 69.5333C46.3694 68.9414 52.0672 69.0154 55.471 68.9414C59.0968 68.9414 66.6445 67.9055 67.9764 67.8315C69.3823 67.7575 78.9279 68.6454 79.1499 68.9414C79.1499 68.9414 78.4839 67.9055 75.968 67.3876C73.4521 66.8697 66.6445 65.9078 64.1286 66.4257C61.6127 66.9436 56.063 67.5356 53.9171 67.5356C51.7712 67.5356 45.6295 67.3136 43.7796 67.3136C41.9297 67.3136 39.0438 66.1297 40.5237 65.4638C42.0037 64.7979 55.027 65.8338 55.545 65.1679C56.063 64.428 54.657 64.28 55.249 63.836C55.915 63.4661 67.3844 63.2441 68.5684 62.9482C69.7523 62.6522 68.1244 61.6163 69.3083 61.6163C70.4923 61.6163 79.6678 61.1724 79.5199 61.9123C79.3719 62.7262 80.4078 62.5042 83.2937 62.4302C86.2535 62.3562 87.6595 63.0961 89.5094 64.058C91.4333 65.0199 96.835 66.1297 96.465 65.0939C96.0951 64.132 88.3994 62.0603 89.2134 61.5423C90.1013 61.0244 100.239 62.1343 101.127 61.3204C102.015 60.5065 106.011 60.5805 106.011 60.5805C106.011 60.5805 103.125 66.7217 104.235 67.3876C105.345 68.0535 112.596 68.3495 111.486 68.7934C110.376 69.2374 100.313 70.6432 99.0549 71.3091C98.8329 71.3831 98.4629 71.5311 97.871 71.605C97.871 71.605 102.385 72.567 104.013 72.7889C105.197 72.493 113.04 70.1992 116.518 69.6813C119.996 69.1634 120.44 68.4975 125.398 69.0894C130.355 69.6813 142.935 68.9414 144.193 69.3853C145.451 69.7553 169.5 70.0512 171.201 69.7553H171.275C171.275 69.7553 171.127 68.5715 171.867 68.3495C172.607 68.0535 172.607 66.9437 172.755 66.2778C172.977 65.6118 172.681 64.28 173.865 65.0939C175.049 65.9078 174.531 68.1275 175.641 66.5737C176.751 65.0939 176.751 64.7239 177.047 63.984C177.343 63.2441 177.343 63.3181 177.713 62.8741C178.009 62.3562 178.083 61.1724 178.379 62.2083C178.675 63.2441 178.527 64.354 178.823 65.2419C179.119 66.1298 178.601 67.0916 179.341 66.4997C180.081 65.8338 180.377 65.0939 180.525 65.3899C180.673 65.6858 180.673 66.5737 180.821 67.0177C180.969 67.5356 181.265 69.0894 181.265 69.0894C181.265 69.0894 195.028 66.4257 195.028 67.1656C195.028 67.1656 195.398 68.4975 197.47 66.8697C197.47 66.1298 197.47 65.5378 197.47 65.5378C197.47 65.5378 199.616 65.3899 199.468 63.6881C199.32 62.1343 198.284 61.3943 198.062 61.2463H197.988C197.988 61.2463 201.318 61.3204 204.5 61.4684C206.646 61.5423 208.718 61.6903 209.532 61.8383C211.529 62.2083 229.881 61.3944 231.287 62.0603C232.618 62.6522 246.234 62.2082 246.752 63.0961C246.752 62.7262 246.826 61.5423 248.454 61.7643C250.378 62.0603 250.082 59.8405 250.082 59.8405C247.788 59.1006 243.348 60.7284 241.572 60.8024C239.796 60.9504 232.618 60.6544 232.544 60.1365C232.396 59.6185 226.921 58.7307 225.293 58.3607C223.739 57.9908 222.111 56.289 221.519 55.1791C220.927 53.9953 219.447 54.6612 218.485 54.8092C217.597 54.9572 216.857 53.4773 214.859 52.6634C213.009 51.8495 212.195 54.0693 210.864 55.2531C210.79 55.3271 210.716 55.4011 210.642 55.4011C209.162 56.511 212.343 59.0266 211.751 59.0266C211.16 59.0266 209.458 58.8787 209.68 59.4706C209.902 60.0625 197.988 60.1365 197.988 60.1365C197.988 60.1365 197.914 59.9145 197.766 59.5446C197.396 58.6567 196.656 57.0289 196.36 56.5849C195.99 55.993 195.398 57.9908 194.88 58.5827C194.362 59.1746 193.992 57.8428 193.326 57.4728C192.66 57.1029 191.698 59.7665 189.849 60.1365C187.999 60.4324 187.777 57.3249 186.815 56.8809C186.667 56.8069 186.445 56.8069 186.297 56.8809C185.779 57.0289 185.187 57.6208 184.965 57.9908C184.891 58.0648 184.817 58.1388 184.669 58.2127C184.447 58.1388 183.929 57.9908 183.411 58.2867C182.745 58.6567 178.749 55.7711 178.379 56.659C178.009 57.4729 176.603 57.4729 175.789 57.3989C175.197 57.3249 175.197 54.0693 175.567 51.1836C175.715 49.9998 175.937 48.8899 176.233 48.15C177.121 45.4863 176.159 42.3047 175.419 40.8249C175.419 40.7509 175.345 40.7509 175.345 40.6769C174.531 39.4191 172.533 40.9729 172.459 42.3047C172.385 43.7845 171.867 43.3406 170.24 44.1545C168.612 44.9684 169.426 46.3742 169.426 48.446C169.426 50.5177 171.127 49.7778 172.755 50.2217C174.383 50.6657 173.421 55.5491 172.829 57.7688C172.237 59.9885 170.165 58.3607 169.352 57.7688C168.538 57.1769 167.28 57.3249 165.948 57.7688C164.616 58.2128 164.394 56.9549 163.284 56.289C162.174 55.6231 161.878 57.7688 161.878 57.7688C161.878 57.7688 161.434 57.1769 161.064 56.5849C160.842 56.215 160.546 55.7711 160.398 55.5491C160.102 54.8832 159.732 55.845 158.326 56.5849C156.92 57.3248 156.476 55.919 156.032 54.8092C155.588 53.6993 153.738 53.9953 152.628 55.919C151.518 57.8428 150.334 54.5132 149.964 53.8473C149.594 53.1814 150.778 52.3675 151.814 51.4796C152.776 50.5917 152.406 49.2598 151.666 47.3361C150.926 45.4123 151.518 46.1523 152.184 43.5626C152.554 42.1568 152.184 41.1949 151.518 40.381C150.926 39.6411 150.112 39.1231 149.372 38.6052C147.745 37.5693 148.559 40.5289 148.633 42.0087C148.707 43.4886 148.263 44.5985 146.635 46.3002C145.007 48.002 146.339 50.8137 147.079 51.4056C147.819 51.9975 147.301 53.2554 146.043 52.8854C144.785 52.5154 142.935 56.7329 142.195 57.3989C141.455 58.1388 141.381 55.2531 140.863 54.7352C140.419 54.2912 137.089 55.3271 135.387 56.215C135.091 56.363 134.869 56.511 134.647 56.659C133.611 57.5468 133.315 55.2531 132.501 54.5132C131.613 53.6993 131.391 54.7352 130.207 54.9571C129.023 55.2531 127.766 54.5872 126.804 55.2531C125.842 55.993 126.508 56.7329 125.102 56.8069C123.622 56.9549 120.736 57.1769 119.626 58.0648C118.59 58.8786 117.184 56.067 116.444 55.7711C115.63 55.4011 114.446 58.2127 113.41 58.6567C112.374 59.1006 111.56 54.7352 109.858 54.1432C108.156 53.5513 107.639 58.0648 107.639 58.0648C107.639 58.0648 86.4015 59.0266 85.2916 59.0266C84.1076 59.0266 80.8518 58.5827 79.7418 57.6208C78.6319 56.7329 77.8179 56.585 76.56 57.6208C75.3021 58.6567 71.0843 60.1365 69.1604 60.4325C67.1624 60.8024 62.0567 60.8024 59.8368 61.5423C57.6169 62.2822 51.9932 62.2822 50.0693 61.7643C48.0714 61.3203 43.8536 59.6925 42.7436 59.5446C41.7077 59.3966 41.3377 61.1724 40.3017 61.7643C39.2658 62.4302 35.122 62.7262 33.716 62.5782C32.5321 62.5782 32.6061 64.354 32.5321 64.354C32.6061 64.354 32.6061 64.354 32.5321 64.354Z" fill="#476B82"/>
<path d="M185.039 57.9907C185.483 57.6208 186.001 57.2508 186.371 56.8809C185.853 57.0288 185.335 57.6208 185.039 57.9907Z" fill="#D9F7FF"/>
<path opacity="0.1" d="M185.039 57.9907C185.483 57.6208 186.001 57.2508 186.371 56.8809C185.853 57.0288 185.335 57.6208 185.039 57.9907Z" fill="url(#paint26_linear)"/>
<path opacity="0.2" d="M197.914 59.6186V61.3944C197.914 61.3944 198.062 61.3944 198.21 61.3944H198.136C198.136 61.3944 201.466 61.4683 204.648 61.6163C206.498 61.2464 211.234 60.5805 212.417 60.2105C213.897 59.6926 214.045 59.5446 215.303 59.1746C216.561 58.7307 216.117 57.6208 215.747 57.2509C215.377 56.8809 213.823 57.6208 211.826 57.9168C210.568 58.0648 210.642 56.659 210.938 55.4011C210.864 55.4751 210.79 55.5491 210.716 55.5491C209.236 56.659 212.417 59.1746 211.826 59.1746C211.234 59.1746 209.532 59.0267 209.754 59.6186C209.976 60.2105 198.062 60.2845 198.062 60.2845C198.062 60.2845 198.062 59.9146 197.914 59.6186Z" fill="#476B82"/>
<path opacity="0.2" d="M259.627 64.7238C259.775 64.4278 260.071 64.2059 260.441 64.2059C261.181 64.2059 260.663 65.1678 262.661 65.3897C264.733 65.6117 269.617 65.6857 269.617 65.6857C269.617 65.6857 270.579 65.3897 271.319 65.3897C271.319 65.3897 271.615 65.4637 272.207 65.5377C274.574 65.8337 281.086 66.7956 283.676 67.3875C282.936 66.7956 281.234 66.1296 280.642 66.1296C279.532 66.1296 271.985 63.6879 270.209 63.7619C268.433 63.9099 268.359 63.244 266.731 62.5781C265.103 61.9122 259.479 62.0602 259.479 62.0602C259.479 62.0602 259.775 64.1319 259.627 64.7238Z" fill="#476B82"/>
<path opacity="0.8" d="M179.859 67.0917C179.859 66.6478 179.341 68.4236 178.971 67.3877C178.601 66.3518 178.453 62.8743 178.231 64.0581C178.009 65.242 176.085 68.6455 175.863 68.3496C175.641 68.0536 174.013 65.5379 173.939 66.2778C173.791 67.0917 173.643 70.0513 172.977 69.7554C172.311 69.4594 173.199 71.8271 172.311 72.493C171.423 73.1589 164.024 74.4168 164.542 74.4908C165.06 74.5648 172.089 74.4908 173.421 73.307C174.753 72.1231 174.605 67.9056 175.123 68.7935C175.641 69.7554 175.493 70.5693 176.825 69.0895C178.157 67.6837 177.491 66.6478 178.157 67.6836C178.675 68.7935 179.785 68.8675 179.859 67.0917Z" fill="url(#paint27_linear)"/>
<path opacity="0.8" d="M175.567 42.4527C175.049 41.6388 173.939 41.0468 173.643 41.7868C173.347 42.5267 173.199 43.4886 172.163 44.0805C171.201 44.6724 169.204 47.3361 170.461 47.706C171.719 48.076 171.719 44.4504 172.163 44.5984C172.681 44.6724 175.567 42.4527 175.567 42.4527Z" fill="url(#paint28_linear)"/>
<path opacity="0.8" d="M172.755 59.3965C172.311 59.4704 168.538 59.5445 168.316 59.1005C168.094 58.6566 166.762 59.5445 165.652 59.4705C164.542 59.3965 163.358 56.7328 163.062 57.4727C162.766 58.1386 160.768 58.5826 160.768 57.8427C160.768 57.1028 161.36 55.7709 160.176 56.9548C158.992 58.1386 155.144 66.3516 156.92 63.9839C158.696 61.5422 159.584 58.1386 160.028 59.1005C160.472 60.0624 160.842 60.4323 162.026 59.4705C163.21 58.5086 163.876 59.4705 164.616 60.4323C165.356 61.3942 166.762 60.2844 167.428 60.4323C168.168 60.5063 172.755 59.3965 172.755 59.3965Z" fill="url(#paint29_linear)"/>
<path opacity="0.8" d="M153.146 56.881C152.85 56.733 152.258 59.0267 151.37 57.7689C150.482 56.511 149.669 56.1411 149.077 54.5872C148.485 53.0334 151.148 51.4057 151.148 49.9999C151.074 48.594 150.112 45.5604 150.112 46.3003C150.112 47.0402 149.299 50.8877 147.745 53.4034C146.191 55.9191 149.669 59.9146 151.296 59.7666C152.924 59.6186 153.146 56.881 153.146 56.881Z" fill="url(#paint30_linear)"/>
<path opacity="0.8" d="M138.199 56.437C138.199 56.437 134.129 61.2464 133.907 59.7666C133.759 58.2868 132.871 56.2151 132.205 56.881C131.613 57.6209 129.689 59.8406 129.097 58.5088C128.506 57.177 130.799 57.103 125.694 58.5088C120.588 59.9146 119.034 61.5424 123.03 60.3586C127.026 59.1747 127.544 57.6209 127.914 58.5828C128.284 59.5446 129.541 60.8025 130.947 59.3227C132.353 57.9168 133.463 62.8742 134.425 61.6904C135.461 60.5805 138.199 56.437 138.199 56.437Z" fill="url(#paint31_linear)"/>
<path opacity="0.8" d="M198.506 64.2801C198.506 64.1321 197.026 58.2128 196.656 58.5088C196.286 58.8047 196.212 60.5805 195.25 59.7666C194.288 58.9527 193.622 57.9168 192.882 59.1007C192.068 60.2846 188.665 60.6545 188.369 60.3586C188.073 60.0626 187.999 62.2083 189.923 61.7644C191.772 61.3204 193.178 59.9886 193.992 60.3586C194.88 60.7285 196.656 61.2464 196.73 61.0244C196.804 60.8025 198.506 64.2801 198.506 64.2801Z" fill="url(#paint32_linear)"/>
<path opacity="0.8" d="M256.445 60.2845C256.445 60.2845 254.595 58.5827 253.707 59.3966C252.82 60.2105 251.34 58.7307 251.34 59.1746C251.414 59.6185 251.636 62.5782 250.674 63.0961C249.638 63.614 248.528 64.058 248.454 64.7239C248.38 65.3898 249.86 69.3113 248.01 69.9033C246.16 70.4952 228.623 72.6409 228.623 72.6409C228.623 72.6409 247.344 69.3853 247.344 68.4975C247.344 67.5356 246.678 63.91 247.492 63.5401C248.232 63.2441 250.008 62.7262 250.452 61.3943C250.896 60.1365 250.156 58.2127 251.118 58.1388C252.08 58.0648 252.08 56.7329 252.228 56.7329C252.45 56.8069 252.894 58.5087 254.003 58.4347C255.039 58.2867 256.445 60.2845 256.445 60.2845Z" fill="url(#paint33_linear)"/>
<path opacity="0.8" d="M279.31 67.5357C279.31 67.5357 273.835 65.9079 273.021 66.5738C272.207 67.2398 267.915 68.3496 265.029 68.3496C262.143 68.4236 257.925 69.0155 257.925 67.8317C257.925 66.6478 257.037 66.7218 257.111 67.8317C257.185 68.9416 257.555 70.7173 263.623 69.6815C269.543 68.5716 278.94 67.3137 279.31 67.5357Z" fill="url(#paint34_linear)"/>
<path opacity="0.8" d="M209.976 71.3831C210.346 71.0871 199.394 70.4952 198.136 69.3853C196.878 68.2755 195.176 67.5356 194.288 68.4235C193.4 69.3113 191.328 72.123 188.369 72.567C185.409 73.0849 189.331 73.2329 190.736 72.567C192.142 71.9011 194.436 69.6813 195.768 69.8293C196.952 69.9773 207.904 72.9369 209.976 71.3831Z" fill="url(#paint35_linear)"/>
<path opacity="0.8" d="M134.647 74.0468C134.647 74.0468 132.945 74.7127 132.205 73.4549C131.465 72.123 130.947 71.8271 129.911 72.271C128.875 72.641 116 74.6388 116 74.6388C116 74.6388 127.544 73.6769 129.541 74.1208C131.465 74.4168 132.945 76.3406 134.647 74.0468Z" fill="url(#paint36_linear)"/>
<path opacity="0.8" d="M88.0294 73.6028C87.2895 73.6028 84.6256 71.0131 83.5897 70.7172C82.6277 70.4212 81.1478 72.4929 79.8898 72.271C78.6319 72.049 77.152 69.9773 76.042 70.3472C74.8581 70.7172 74.3401 70.2732 71.9722 70.2732C69.6043 70.3472 67.4584 71.1611 66.4965 71.531C65.5345 71.901 63.9066 73.9727 67.9764 73.0109C72.0462 71.975 72.4162 71.1611 75.302 71.975C78.1879 72.7889 79.7418 73.6028 81.2958 73.6768C82.9237 73.6768 88.0294 73.6028 88.0294 73.6028Z" fill="url(#paint37_linear)"/>
<path opacity="0.8" d="M41.9297 69.6813C41.9297 69.6813 39.8578 66.5737 38.3778 67.6836C36.8979 68.7934 35.122 69.3114 34.456 68.5715C33.7901 67.8315 30.3122 62.2082 30.2382 63.2441C30.1642 64.28 32.0141 71.3091 34.678 70.4952C37.3419 69.6813 39.9318 68.4235 40.3017 68.8674C40.5977 69.4594 41.9297 69.6813 41.9297 69.6813Z" fill="url(#paint38_linear)"/>
<path opacity="0.8" d="M25.8725 60.3584C25.2805 60.6544 26.3904 64.8718 26.1684 65.9077C25.9465 66.9436 23.1346 71.235 24.5405 70.2731C25.9465 69.3113 28.2403 67.2395 27.7224 65.7597C27.2784 64.2799 25.8725 60.3584 25.8725 60.3584Z" fill="url(#paint39_linear)"/>
<path opacity="0.8" d="M14.847 69.3113C14.847 69.3113 12.3311 67.7575 11.2211 67.9795C10.1112 68.2014 7.29934 68.4974 6.78136 68.6454C6.26339 68.7933 7.15134 69.5333 8.70527 70.2732C10.2592 70.9391 15.4389 70.8651 17.2149 71.3091C18.9168 71.679 14.847 69.3113 14.847 69.3113Z" fill="url(#paint40_linear)"/>
<path opacity="0.8" d="M35.27 35.7194C35.27 35.9414 31.7921 37.9392 32.1621 39.271C32.5321 40.6028 33.864 45.1903 33.716 46.3741C33.716 46.3741 32.2361 43.6365 31.5702 41.3427C30.8302 39.049 30.6822 36.3853 32.0881 35.1275C33.4201 33.8697 35.196 34.9055 35.27 35.7194Z" fill="url(#paint41_linear)"/>
<path opacity="0.8" d="M52.9551 63.1702C52.9551 63.1702 45.9994 62.4303 44.8895 61.5424C43.8535 60.7285 42.7436 60.8025 41.9296 61.8383C41.1157 62.8742 37.1938 63.1702 37.1938 63.1702C37.1938 63.1702 39.0438 64.058 40.5977 63.8361C42.1516 63.6141 52.9551 63.1702 52.9551 63.1702Z" fill="url(#paint42_linear)"/>
<path opacity="0.8" d="M77.6699 43.6365C78.1879 44.0064 79.0759 45.6342 78.4099 45.9302C77.7439 46.2262 75.302 53.1073 75.302 52.6633C75.302 52.2194 74.7841 51.0356 74.932 49.6297C75.08 48.2239 75.006 47.41 75.302 46.1522C75.672 44.8943 76.338 42.5266 77.6699 43.6365Z" fill="url(#paint43_linear)"/>
<path opacity="0.8" d="M215.895 54.3652C215.895 54.3652 214.119 55.919 213.231 56.4369C212.343 56.9549 212.491 55.4011 212.491 55.4011C212.491 55.4011 214.859 53.7733 215.895 54.3652Z" fill="url(#paint44_linear)"/>
<path opacity="0.8" d="M228.179 59.9885C228.179 59.9885 223.813 59.1005 222.703 57.9167C221.593 56.7328 221.075 55.475 220.187 55.623C219.373 55.771 215.451 56.1409 217.597 56.8068C219.743 57.5467 226.699 61.3203 228.179 59.9885Z" fill="url(#paint45_linear)"/>
<path opacity="0.8" d="M219.817 11.7466C219.817 11.7466 215.747 15.89 216.931 16.9999C218.115 18.1098 216.709 19.5156 216.413 18.9237C216.117 18.3318 212.195 12.6345 219.817 11.7466Z" fill="url(#paint46_linear)"/>
<path opacity="0.8" d="M210.715 31.5022C210.715 31.5022 209.828 33.574 210.271 34.6838C210.789 35.7937 207.978 35.3497 208.274 34.2399C208.496 33.13 209.458 31.2063 210.715 31.5022Z" fill="url(#paint47_linear)"/>
<path opacity="0.8" d="M254.595 37.2735C254.595 37.2735 250.082 41.417 251.192 42.3789C252.302 43.3407 251.932 45.6345 252.08 47.6322C252.228 49.63 250.896 48.0762 251.044 46.8923C251.192 45.7085 251.562 44.3027 250.822 42.6009C249.934 40.8251 248.898 34.9058 254.595 37.2735Z" fill="url(#paint48_linear)"/>
<path opacity="0.8" d="M104.827 2.05381C104.975 2.20179 105.937 3.60761 104.383 4.27353C102.755 4.93945 101.497 5.82736 101.941 7.67713C102.311 9.60089 101.571 10.4148 100.683 9.5269C99.7949 8.63901 98.3149 7.45515 99.8689 5.67937C101.423 3.9036 101.497 2.71974 102.237 1.97984C102.903 1.31392 104.827 2.05381 104.827 2.05381Z" fill="url(#paint49_linear)"/>
<path opacity="0.8" d="M110.228 12.7825C110.228 12.7825 109.71 16.4081 109.488 17.8139C109.34 19.2197 108.156 19.7376 108.304 20.9215C108.452 22.0313 109.562 25.7309 109.562 25.7309C109.562 25.7309 109.192 22.6973 109.71 21.3654C110.228 19.9596 111.486 14.2623 110.228 12.7825Z" fill="url(#paint50_linear)"/>
<path opacity="0.8" d="M149.151 15.0022C149.151 15.0022 147.967 16.852 148.263 17.8139C148.559 18.7758 147.967 18.5538 147.375 17.8139C146.857 17.074 148.189 14.1143 149.151 15.0022Z" fill="url(#paint51_linear)"/>
<path opacity="0.8" d="M108.896 35.8674C108.748 36.0154 107.638 37.9392 108.304 38.9011C108.97 39.863 109.562 40.7508 109.562 40.7508C109.562 40.7508 107.047 39.937 107.047 38.5311C106.973 37.1253 108.896 35.8674 108.896 35.8674Z" fill="url(#paint52_linear)"/>
<path opacity="0.2" d="M101.275 72.567L104.161 72.9369C105.345 72.641 113.188 70.3472 116.666 69.8293C120.144 69.3114 120.588 68.6455 125.546 69.2374C130.503 69.8293 143.083 69.0894 144.341 69.5333C145.525 69.9033 168.612 70.1252 171.201 69.9033H171.423V69.3114C171.423 69.3114 160.546 69.9773 159.806 68.9414C159.066 67.9795 158.326 65.6118 157.882 66.4257C157.438 67.2396 155.44 69.2374 152.48 68.4975C149.446 67.6836 147.153 65.9818 146.561 66.4257C145.895 66.8696 131.613 69.8293 129.171 69.0894C126.73 68.3495 122.808 67.3876 121.476 67.6096C120.144 67.8315 101.275 72.567 101.275 72.567Z" fill="#476B82"/>
<defs>
<radialGradient id="paint0_radial" cx="0" cy="0" r="1" gradientUnits="userSpaceOnUse" gradientTransform="translate(146.593 29.1428) rotate(180) scale(142.379 142.368)">
<stop stop-color="#1B1464"/>
<stop offset="0.0669379" stop-color="#453F81"/>
<stop offset="0.1475" stop-color="#706C9E"/>
<stop offset="0.2339" stop-color="#9793B8"/>
<stop offset="0.3249" stop-color="#B7B5CE"/>
<stop offset="0.4219" stop-color="#D1D0E0"/>
<stop offset="0.5269" stop-color="#E6E5EE"/>
<stop offset="0.6441" stop-color="#F4F4F8"/>
<stop offset="0.7831" stop-color="#FCFCFD"/>
<stop offset="1" stop-color="white"/>
</radialGradient>
<linearGradient id="paint1_linear" x1="142.526" y1="77.1465" x2="142.526" y2="38.3693" gradientUnits="userSpaceOnUse">
<stop stop-color="#1B1464"/>
<stop offset="0.0669379" stop-color="#453F81"/>
<stop offset="0.1475" stop-color="#706C9E"/>
<stop offset="0.2339" stop-color="#9793B8"/>
<stop offset="0.3249" stop-color="#B7B5CE"/>
<stop offset="0.4219" stop-color="#D1D0E0"/>
<stop offset="0.5269" stop-color="#E6E5EE"/>
<stop offset="0.6441" stop-color="#F4F4F8"/>
<stop offset="0.7831" stop-color="#FCFCFD"/>
<stop offset="1" stop-color="white"/>
</linearGradient>
<linearGradient id="paint2_linear" x1="252.95" y1="53.2888" x2="252.95" y2="36.3091" gradientUnits="userSpaceOnUse">
<stop stop-color="#1B1464"/>
<stop offset="0.0669379" stop-color="#453F81"/>
<stop offset="0.1475" stop-color="#706C9E"/>
<stop offset="0.2339" stop-color="#9793B8"/>
<stop offset="0.3249" stop-color="#B7B5CE"/>
<stop offset="0.4219" stop-color="#D1D0E0"/>
<stop offset="0.5269" stop-color="#E6E5EE"/>
<stop offset="0.6441" stop-color="#F4F4F8"/>
<stop offset="0.7831" stop-color="#FCFCFD"/>
<stop offset="1" stop-color="white"/>
</linearGradient>
<linearGradient id="paint3_linear" x1="246.302" y1="56.7392" x2="246.302" y2="49.7562" gradientUnits="userSpaceOnUse">
<stop stop-color="#1B1464"/>
<stop offset="0.0669379" stop-color="#453F81"/>
<stop offset="0.1475" stop-color="#706C9E"/>
<stop offset="0.2339" stop-color="#9793B8"/>
<stop offset="0.3249" stop-color="#B7B5CE"/>
<stop offset="0.4219" stop-color="#D1D0E0"/>
<stop offset="0.5269" stop-color="#E6E5EE"/>
<stop offset="0.6441" stop-color="#F4F4F8"/>
<stop offset="0.7831" stop-color="#FCFCFD"/>
<stop offset="1" stop-color="white"/>
</linearGradient>
<linearGradient id="paint4_linear" x1="209.946" y1="51.97" x2="209.946" y2="42.4505" gradientUnits="userSpaceOnUse">
<stop stop-color="#1B1464"/>
<stop offset="0.0669379" stop-color="#453F81"/>
<stop offset="0.1475" stop-color="#706C9E"/>
<stop offset="0.2339" stop-color="#9793B8"/>
<stop offset="0.3249" stop-color="#B7B5CE"/>
<stop offset="0.4219" stop-color="#D1D0E0"/>
<stop offset="0.5269" stop-color="#E6E5EE"/>
<stop offset="0.6441" stop-color="#F4F4F8"/>
<stop offset="0.7831" stop-color="#FCFCFD"/>
<stop offset="1" stop-color="white"/>
</linearGradient>
<linearGradient id="paint5_linear" x1="209.948" y1="36.2847" x2="209.948" y2="30.8714" gradientUnits="userSpaceOnUse">
<stop stop-color="#1B1464"/>
<stop offset="0.0669379" stop-color="#453F81"/>
<stop offset="0.1475" stop-color="#706C9E"/>
<stop offset="0.2339" stop-color="#9793B8"/>
<stop offset="0.3249" stop-color="#B7B5CE"/>
<stop offset="0.4219" stop-color="#D1D0E0"/>
<stop offset="0.5269" stop-color="#E6E5EE"/>
<stop offset="0.6441" stop-color="#F4F4F8"/>
<stop offset="0.7831" stop-color="#FCFCFD"/>
<stop offset="1" stop-color="white"/>
</linearGradient>
<linearGradient id="paint6_linear" x1="217.601" y1="20.6621" x2="217.601" y2="10.5238" gradientUnits="userSpaceOnUse">
<stop stop-color="#1B1464"/>
<stop offset="0.0669379" stop-color="#453F81"/>
<stop offset="0.1475" stop-color="#706C9E"/>
<stop offset="0.2339" stop-color="#9793B8"/>
<stop offset="0.3249" stop-color="#B7B5CE"/>
<stop offset="0.4219" stop-color="#D1D0E0"/>
<stop offset="0.5269" stop-color="#E6E5EE"/>
<stop offset="0.6441" stop-color="#F4F4F8"/>
<stop offset="0.7831" stop-color="#FCFCFD"/>
<stop offset="1" stop-color="white"/>
</linearGradient>
<linearGradient id="paint7_linear" x1="216.406" y1="23.9983" x2="216.406" y2="21.5995" gradientUnits="userSpaceOnUse">
<stop stop-color="#1B1464"/>
<stop offset="0.0669379" stop-color="#453F81"/>
<stop offset="0.1475" stop-color="#706C9E"/>
<stop offset="0.2339" stop-color="#9793B8"/>
<stop offset="0.3249" stop-color="#B7B5CE"/>
<stop offset="0.4219" stop-color="#D1D0E0"/>
<stop offset="0.5269" stop-color="#E6E5EE"/>
<stop offset="0.6441" stop-color="#F4F4F8"/>
<stop offset="0.7831" stop-color="#FCFCFD"/>
<stop offset="1" stop-color="white"/>
</linearGradient>
<linearGradient id="paint8_linear" x1="207.982" y1="21.6479" x2="207.982" y2="15.1687" gradientUnits="userSpaceOnUse">
<stop stop-color="#1B1464"/>
<stop offset="0.0669379" stop-color="#453F81"/>
<stop offset="0.1475" stop-color="#706C9E"/>
<stop offset="0.2339" stop-color="#9793B8"/>
<stop offset="0.3249" stop-color="#B7B5CE"/>
<stop offset="0.4219" stop-color="#D1D0E0"/>
<stop offset="0.5269" stop-color="#E6E5EE"/>
<stop offset="0.6441" stop-color="#F4F4F8"/>
<stop offset="0.7831" stop-color="#FCFCFD"/>
<stop offset="1" stop-color="white"/>
</linearGradient>
<linearGradient id="paint9_linear" x1="200.466" y1="21.717" x2="200.466" y2="17.7132" gradientUnits="userSpaceOnUse">
<stop stop-color="#1B1464"/>
<stop offset="0.0669379" stop-color="#453F81"/>
<stop offset="0.1475" stop-color="#706C9E"/>
<stop offset="0.2339" stop-color="#9793B8"/>
<stop offset="0.3249" stop-color="#B7B5CE"/>
<stop offset="0.4219" stop-color="#D1D0E0"/>
<stop offset="0.5269" stop-color="#E6E5EE"/>
<stop offset="0.6441" stop-color="#F4F4F8"/>
<stop offset="0.7831" stop-color="#FCFCFD"/>
<stop offset="1" stop-color="white"/>
</linearGradient>
<linearGradient id="paint10_linear" x1="148.604" y1="30.4165" x2="148.604" y2="24.5505" gradientUnits="userSpaceOnUse">
<stop stop-color="#1B1464"/>
<stop offset="0.0669379" stop-color="#453F81"/>
<stop offset="0.1475" stop-color="#706C9E"/>
<stop offset="0.2339" stop-color="#9793B8"/>
<stop offset="0.3249" stop-color="#B7B5CE"/>
<stop offset="0.4219" stop-color="#D1D0E0"/>
<stop offset="0.5269" stop-color="#E6E5EE"/>
<stop offset="0.6441" stop-color="#F4F4F8"/>
<stop offset="0.7831" stop-color="#FCFCFD"/>
<stop offset="1" stop-color="white"/>
</linearGradient>
<linearGradient id="paint11_linear" x1="148.29" y1="21.6812" x2="148.29" y2="13.9448" gradientUnits="userSpaceOnUse">
<stop stop-color="#1B1464"/>
<stop offset="0.0669379" stop-color="#453F81"/>
<stop offset="0.1475" stop-color="#706C9E"/>
<stop offset="0.2339" stop-color="#9793B8"/>
<stop offset="0.3249" stop-color="#B7B5CE"/>
<stop offset="0.4219" stop-color="#D1D0E0"/>
<stop offset="0.5269" stop-color="#E6E5EE"/>
<stop offset="0.6441" stop-color="#F4F4F8"/>
<stop offset="0.7831" stop-color="#FCFCFD"/>
<stop offset="1" stop-color="white"/>
</linearGradient>
<linearGradient id="paint12_linear" x1="110.126" y1="51.6143" x2="110.126" y2="43.0121" gradientUnits="userSpaceOnUse">
<stop stop-color="#1B1464"/>
<stop offset="0.0669379" stop-color="#453F81"/>
<stop offset="0.1475" stop-color="#706C9E"/>
<stop offset="0.2339" stop-color="#9793B8"/>
<stop offset="0.3249" stop-color="#B7B5CE"/>
<stop offset="0.4219" stop-color="#D1D0E0"/>
<stop offset="0.5269" stop-color="#E6E5EE"/>
<stop offset="0.6441" stop-color="#F4F4F8"/>
<stop offset="0.7831" stop-color="#FCFCFD"/>
<stop offset="1" stop-color="white"/>
</linearGradient>
<linearGradient id="paint13_linear" x1="108.307" y1="41.8694" x2="108.307" y2="35.1648" gradientUnits="userSpaceOnUse">
<stop stop-color="#1B1464"/>
<stop offset="0.0669379" stop-color="#453F81"/>
<stop offset="0.1475" stop-color="#706C9E"/>
<stop offset="0.2339" stop-color="#9793B8"/>
<stop offset="0.3249" stop-color="#B7B5CE"/>
<stop offset="0.4219" stop-color="#D1D0E0"/>
<stop offset="0.5269" stop-color="#E6E5EE"/>
<stop offset="0.6441" stop-color="#F4F4F8"/>
<stop offset="0.7831" stop-color="#FCFCFD"/>
<stop offset="1" stop-color="white"/>
</linearGradient>
<linearGradient id="paint14_linear" x1="110.198" y1="26.5616" x2="110.198" y2="11.9808" gradientUnits="userSpaceOnUse">
<stop stop-color="#1B1464"/>
<stop offset="0.0669379" stop-color="#453F81"/>
<stop offset="0.1475" stop-color="#706C9E"/>
<stop offset="0.2339" stop-color="#9793B8"/>
<stop offset="0.3249" stop-color="#B7B5CE"/>
<stop offset="0.4219" stop-color="#D1D0E0"/>
<stop offset="0.5269" stop-color="#E6E5EE"/>
<stop offset="0.6441" stop-color="#F4F4F8"/>
<stop offset="0.7831" stop-color="#FCFCFD"/>
<stop offset="1" stop-color="white"/>
</linearGradient>
<linearGradient id="paint15_linear" x1="103.242" y1="11.3028" x2="103.242" y2="0.325059" gradientUnits="userSpaceOnUse">
<stop stop-color="#1B1464"/>
<stop offset="0.0669379" stop-color="#453F81"/>
<stop offset="0.1475" stop-color="#706C9E"/>
<stop offset="0.2339" stop-color="#9793B8"/>
<stop offset="0.3249" stop-color="#B7B5CE"/>
<stop offset="0.4219" stop-color="#D1D0E0"/>
<stop offset="0.5269" stop-color="#E6E5EE"/>
<stop offset="0.6441" stop-color="#F4F4F8"/>
<stop offset="0.7831" stop-color="#FCFCFD"/>
<stop offset="1" stop-color="white"/>
</linearGradient>
<linearGradient id="paint16_linear" x1="91.7551" y1="55.7191" x2="91.7551" y2="51.1197" gradientUnits="userSpaceOnUse">
<stop stop-color="#1B1464"/>
<stop offset="0.0669379" stop-color="#453F81"/>
<stop offset="0.1475" stop-color="#706C9E"/>
<stop offset="0.2339" stop-color="#9793B8"/>
<stop offset="0.3249" stop-color="#B7B5CE"/>
<stop offset="0.4219" stop-color="#D1D0E0"/>
<stop offset="0.5269" stop-color="#E6E5EE"/>
<stop offset="0.6441" stop-color="#F4F4F8"/>
<stop offset="0.7831" stop-color="#FCFCFD"/>
<stop offset="1" stop-color="white"/>
</linearGradient>
<linearGradient id="paint17_linear" x1="76.9436" y1="55.1793" x2="76.9436" y2="42.2766" gradientUnits="userSpaceOnUse">
<stop stop-color="#1B1464"/>
<stop offset="0.0669379" stop-color="#453F81"/>
<stop offset="0.1475" stop-color="#706C9E"/>
<stop offset="0.2339" stop-color="#9793B8"/>
<stop offset="0.3249" stop-color="#B7B5CE"/>
<stop offset="0.4219" stop-color="#D1D0E0"/>
<stop offset="0.5269" stop-color="#E6E5EE"/>
<stop offset="0.6441" stop-color="#F4F4F8"/>
<stop offset="0.7831" stop-color="#FCFCFD"/>
<stop offset="1" stop-color="white"/>
</linearGradient>
<linearGradient id="paint18_linear" x1="72.5064" y1="36.4802" x2="72.5064" y2="25.6779" gradientUnits="userSpaceOnUse">
<stop stop-color="#1B1464"/>
<stop offset="0.0669379" stop-color="#453F81"/>
<stop offset="0.1475" stop-color="#706C9E"/>
<stop offset="0.2339" stop-color="#9793B8"/>
<stop offset="0.3249" stop-color="#B7B5CE"/>
<stop offset="0.4219" stop-color="#D1D0E0"/>
<stop offset="0.5269" stop-color="#E6E5EE"/>
<stop offset="0.6441" stop-color="#F4F4F8"/>
<stop offset="0.7831" stop-color="#FCFCFD"/>
<stop offset="1" stop-color="white"/>
</linearGradient>
<linearGradient id="paint19_linear" x1="86.9565" y1="22.2252" x2="86.9565" y2="16.8992" gradientUnits="userSpaceOnUse">
<stop stop-color="#1B1464"/>
<stop offset="0.0669379" stop-color="#453F81"/>
<stop offset="0.1475" stop-color="#706C9E"/>
<stop offset="0.2339" stop-color="#9793B8"/>
<stop offset="0.3249" stop-color="#B7B5CE"/>
<stop offset="0.4219" stop-color="#D1D0E0"/>
<stop offset="0.5269" stop-color="#E6E5EE"/>
<stop offset="0.6441" stop-color="#F4F4F8"/>
<stop offset="0.7831" stop-color="#FCFCFD"/>
<stop offset="1" stop-color="white"/>
</linearGradient>
<linearGradient id="paint20_linear" x1="74.4663" y1="21.6783" x2="74.4663" y2="14.8386" gradientUnits="userSpaceOnUse">
<stop stop-color="#1B1464"/>
<stop offset="0.0669379" stop-color="#453F81"/>
<stop offset="0.1475" stop-color="#706C9E"/>
<stop offset="0.2339" stop-color="#9793B8"/>
<stop offset="0.3249" stop-color="#B7B5CE"/>
<stop offset="0.4219" stop-color="#D1D0E0"/>
<stop offset="0.5269" stop-color="#E6E5EE"/>
<stop offset="0.6441" stop-color="#F4F4F8"/>
<stop offset="0.7831" stop-color="#FCFCFD"/>
<stop offset="1" stop-color="white"/>
</linearGradient>
<linearGradient id="paint21_linear" x1="59.2469" y1="60.3429" x2="59.2469" y2="56.7774" gradientUnits="userSpaceOnUse">
<stop stop-color="#1B1464"/>
<stop offset="0.0669379" stop-color="#453F81"/>
<stop offset="0.1475" stop-color="#706C9E"/>
<stop offset="0.2339" stop-color="#9793B8"/>
<stop offset="0.3249" stop-color="#B7B5CE"/>
<stop offset="0.4219" stop-color="#D1D0E0"/>
<stop offset="0.5269" stop-color="#E6E5EE"/>
<stop offset="0.6441" stop-color="#F4F4F8"/>
<stop offset="0.7831" stop-color="#FCFCFD"/>
<stop offset="1" stop-color="white"/>
</linearGradient>
<linearGradient id="paint22_linear" x1="54.4254" y1="60.799" x2="54.4254" y2="57.3854" gradientUnits="userSpaceOnUse">
<stop stop-color="#1B1464"/>
<stop offset="0.0669379" stop-color="#453F81"/>
<stop offset="0.1475" stop-color="#706C9E"/>
<stop offset="0.2339" stop-color="#9793B8"/>
<stop offset="0.3249" stop-color="#B7B5CE"/>
<stop offset="0.4219" stop-color="#D1D0E0"/>
<stop offset="0.5269" stop-color="#E6E5EE"/>
<stop offset="0.6441" stop-color="#F4F4F8"/>
<stop offset="0.7831" stop-color="#FCFCFD"/>
<stop offset="1" stop-color="white"/>
</linearGradient>
<linearGradient id="paint23_linear" x1="34.1833" y1="60.3181" x2="34.1833" y2="33.0755" gradientUnits="userSpaceOnUse">
<stop stop-color="#1B1464"/>
<stop offset="0.0669379" stop-color="#453F81"/>
<stop offset="0.1475" stop-color="#706C9E"/>
<stop offset="0.2339" stop-color="#9793B8"/>
<stop offset="0.3249" stop-color="#B7B5CE"/>
<stop offset="0.4219" stop-color="#D1D0E0"/>
<stop offset="0.5269" stop-color="#E6E5EE"/>
<stop offset="0.6441" stop-color="#F4F4F8"/>
<stop offset="0.7831" stop-color="#FCFCFD"/>
<stop offset="1" stop-color="white"/>
</linearGradient>
<linearGradient id="paint24_linear" x1="59.2469" y1="60.3429" x2="59.2469" y2="56.7774" gradientUnits="userSpaceOnUse">
<stop stop-color="#1B1464"/>
<stop offset="0.0669379" stop-color="#453F81"/>
<stop offset="0.1475" stop-color="#706C9E"/>
<stop offset="0.2339" stop-color="#9793B8"/>
<stop offset="0.3249" stop-color="#B7B5CE"/>
<stop offset="0.4219" stop-color="#D1D0E0"/>
<stop offset="0.5269" stop-color="#E6E5EE"/>
<stop offset="0.6441" stop-color="#F4F4F8"/>
<stop offset="0.7831" stop-color="#FCFCFD"/>
<stop offset="1" stop-color="white"/>
</linearGradient>
<linearGradient id="paint25_linear" x1="54.4254" y1="60.799" x2="54.4254" y2="57.3854" gradientUnits="userSpaceOnUse">
<stop stop-color="#1B1464"/>
<stop offset="0.0669379" stop-color="#453F81"/>
<stop offset="0.1475" stop-color="#706C9E"/>
<stop offset="0.2339" stop-color="#9793B8"/>
<stop offset="0.3249" stop-color="#B7B5CE"/>
<stop offset="0.4219" stop-color="#D1D0E0"/>
<stop offset="0.5269" stop-color="#E6E5EE"/>
<stop offset="0.6441" stop-color="#F4F4F8"/>
<stop offset="0.7831" stop-color="#FCFCFD"/>
<stop offset="1" stop-color="white"/>
</linearGradient>
<linearGradient id="paint26_linear" x1="185.709" y1="57.9686" x2="185.709" y2="56.8735" gradientUnits="userSpaceOnUse">
<stop stop-color="#1B1464"/>
<stop offset="0.0669379" stop-color="#453F81"/>
<stop offset="0.1475" stop-color="#706C9E"/>
<stop offset="0.2339" stop-color="#9793B8"/>
<stop offset="0.3249" stop-color="#B7B5CE"/>
<stop offset="0.4219" stop-color="#D1D0E0"/>
<stop offset="0.5269" stop-color="#E6E5EE"/>
<stop offset="0.6441" stop-color="#F4F4F8"/>
<stop offset="0.7831" stop-color="#FCFCFD"/>
<stop offset="1" stop-color="white"/>
</linearGradient>
<linearGradient id="paint27_linear" x1="175.434" y1="72.8117" x2="170.363" y2="68.2665" gradientUnits="userSpaceOnUse">
<stop/>
<stop offset="1" stop-color="white"/>
</linearGradient>
<linearGradient id="paint28_linear" x1="173.136" y1="45.1639" x2="171.718" y2="43.8929" gradientUnits="userSpaceOnUse">
<stop/>
<stop offset="1" stop-color="white"/>
</linearGradient>
<linearGradient id="paint29_linear" x1="167.956" y1="64.8059" x2="159.936" y2="57.6164" gradientUnits="userSpaceOnUse">
<stop/>
<stop offset="1" stop-color="white"/>
</linearGradient>
<linearGradient id="paint30_linear" x1="154.555" y1="56.7499" x2="147.055" y2="50.0269" gradientUnits="userSpaceOnUse">
<stop/>
<stop offset="1" stop-color="white"/>
</linearGradient>
<linearGradient id="paint31_linear" x1="133.902" y1="62.4498" x2="125.949" y2="55.3202" gradientUnits="userSpaceOnUse">
<stop/>
<stop offset="1" stop-color="white"/>
</linearGradient>
<linearGradient id="paint32_linear" x1="198.024" y1="64.869" x2="190.541" y2="58.1605" gradientUnits="userSpaceOnUse">
<stop/>
<stop offset="1" stop-color="white"/>
</linearGradient>
<linearGradient id="paint33_linear" x1="247.512" y1="70.7421" x2="238.23" y2="62.4211" gradientUnits="userSpaceOnUse">
<stop/>
<stop offset="1" stop-color="white"/>
</linearGradient>
<linearGradient id="paint34_linear" x1="274.062" y1="73.4575" x2="261.909" y2="62.5636" gradientUnits="userSpaceOnUse">
<stop/>
<stop offset="1" stop-color="white"/>
</linearGradient>
<linearGradient id="paint35_linear" x1="204.527" y1="77.4439" x2="192.973" y2="67.0862" gradientUnits="userSpaceOnUse">
<stop/>
<stop offset="1" stop-color="white"/>
</linearGradient>
<linearGradient id="paint36_linear" x1="130.419" y1="78.8369" x2="120.589" y2="70.0249" gradientUnits="userSpaceOnUse">
<stop/>
<stop offset="1" stop-color="white"/>
</linearGradient>
<linearGradient id="paint37_linear" x1="83.1717" y1="79.0818" x2="70.3523" y2="67.5901" gradientUnits="userSpaceOnUse">
<stop/>
<stop offset="1" stop-color="white"/>
</linearGradient>
<linearGradient id="paint38_linear" x1="39.9529" y1="71.9615" x2="30.4761" y2="63.466" gradientUnits="userSpaceOnUse">
<stop/>
<stop offset="1" stop-color="white"/>
</linearGradient>
<linearGradient id="paint39_linear" x1="27.4713" y1="67.5481" x2="23.1005" y2="63.6298" gradientUnits="userSpaceOnUse">
<stop/>
<stop offset="1" stop-color="white"/>
</linearGradient>
<linearGradient id="paint40_linear" x1="15.7591" y1="73.3434" x2="8.56761" y2="66.8965" gradientUnits="userSpaceOnUse">
<stop/>
<stop offset="1" stop-color="white"/>
</linearGradient>
<linearGradient id="paint41_linear" x1="36.775" y1="42.9583" x2="30.4196" y2="37.2612" gradientUnits="userSpaceOnUse">
<stop/>
<stop offset="1" stop-color="white"/>
</linearGradient>
<linearGradient id="paint42_linear" x1="49.4728" y1="67.0868" x2="40.9662" y2="59.461" gradientUnits="userSpaceOnUse">
<stop/>
<stop offset="1" stop-color="white"/>
</linearGradient>
<linearGradient id="paint43_linear" x1="78.0923" y1="49.5921" x2="74.2958" y2="46.1887" gradientUnits="userSpaceOnUse">
<stop/>
<stop offset="1" stop-color="white"/>
</linearGradient>
<linearGradient id="paint44_linear" x1="214.669" y1="55.7365" x2="213.3" y2="54.5091" gradientUnits="userSpaceOnUse">
<stop/>
<stop offset="1" stop-color="white"/>
</linearGradient>
<linearGradient id="paint45_linear" x1="226.54" y1="61.8475" x2="218.754" y2="54.8675" gradientUnits="userSpaceOnUse">
<stop/>
<stop offset="1" stop-color="white"/>
</linearGradient>
<linearGradient id="paint46_linear" x1="219.263" y1="16.3377" x2="215.959" y2="13.3761" gradientUnits="userSpaceOnUse">
<stop/>
<stop offset="1" stop-color="white"/>
</linearGradient>
<linearGradient id="paint47_linear" x1="210.958" y1="34.3835" x2="208.967" y2="32.5981" gradientUnits="userSpaceOnUse">
<stop/>
<stop offset="1" stop-color="white"/>
</linearGradient>
<linearGradient id="paint48_linear" x1="255.233" y1="44.8474" x2="249.19" y2="39.4303" gradientUnits="userSpaceOnUse">
<stop/>
<stop offset="1" stop-color="white"/>
</linearGradient>
<linearGradient id="paint49_linear" x1="104.128" y1="7.03511" x2="100.659" y2="3.92465" gradientUnits="userSpaceOnUse">
<stop/>
<stop offset="1" stop-color="white"/>
</linearGradient>
<linearGradient id="paint50_linear" x1="112.889" y1="21.9535" x2="107.011" y2="16.6841" gradientUnits="userSpaceOnUse">
<stop/>
<stop offset="1" stop-color="white"/>
</linearGradient>
<linearGradient id="paint51_linear" x1="149.295" y1="17.3483" x2="147.617" y2="15.8434" gradientUnits="userSpaceOnUse">
<stop/>
<stop offset="1" stop-color="white"/>
</linearGradient>
<linearGradient id="paint52_linear" x1="110.441" y1="39.7191" x2="107.615" y2="37.1863" gradientUnits="userSpaceOnUse">
<stop/>
<stop offset="1" stop-color="white"/>
</linearGradient>
</defs>
</svg>
