<svg width="30" height="30" viewBox="0 0 30 30" fill="none" xmlns="http://www.w3.org/2000/svg">
<g opacity="0.5">
<path d="M15 30C23.2843 30 30 23.2843 30 15C30 6.71573 23.2843 0 15 0C6.71573 0 0 6.71573 0 15C0 23.2843 6.71573 30 15 30Z" fill="url(#paint0_radial)"/>
<path opacity="0.24" d="M15.1674 0.632324C11.7917 0.632324 8.69498 1.81335 6.26782 3.79413C7.68134 4.64968 9.30874 5.81211 11.0012 7.34652C16.0136 11.9125 12.1172 17.1574 18.9151 20.3936C21.7328 21.7328 25.7316 20.9051 28.7725 18.5895C29.1166 17.3713 29.2932 16.088 29.2932 14.7582C29.2932 6.95594 22.9696 0.632324 15.1674 0.632324Z" fill="#B8FFF1"/>
<path opacity="0.53" d="M11.5313 1.87837C8.76936 2.65952 4.8822 4.36132 3.67327 9.20633C2.46434 14.0513 9.24364 14.0513 16.274 13.5678C23.3044 13.0842 27.424 16.2367 27.6658 12.1171C27.9076 7.9974 21.7514 -1.00446 11.5313 1.87837Z" fill="#66E9FF"/>
<path d="M14.1352 2.57596C14.1352 2.57596 10.0155 4.51024 14.1352 5.2449C18.2548 5.97026 20.1984 5.00311 20.1984 5.00311C20.1984 5.00311 19.129 1.30194 14.1352 2.57596Z" fill="white"/>
<path d="M21.4631 4.71473C21.4631 4.71473 20.5704 5.01231 21.3143 5.60748C22.0583 6.20264 22.2722 7.41157 23.2765 6.73271C24.2716 6.05385 22.6442 4.56594 21.4631 4.71473Z" fill="white"/>
<path opacity="0.53" d="M1.85989 21.0447C1.85989 21.0447 4.44514 26.5313 11.2244 27.9821C18.0037 29.4328 12.9169 29.6746 10.7409 28.9492C8.55549 28.2331 3.95227 26.3733 1.85989 21.0447Z" fill="#0ABAEF"/>
</g>
<defs>
<radialGradient id="paint0_radial" cx="0" cy="0" r="1" gradientUnits="userSpaceOnUse" gradientTransform="translate(16.2149 6.52059) scale(24.5171)">
<stop stop-color="#39A9DC"/>
<stop offset="0.249" stop-color="#38A6DA"/>
<stop offset="0.4254" stop-color="#349DD3"/>
<stop offset="0.5794" stop-color="#2F8DC7"/>
<stop offset="0.7205" stop-color="#2677B7"/>
<stop offset="0.8529" stop-color="#1C5BA2"/>
<stop offset="0.9771" stop-color="#0F3888"/>
<stop offset="1" stop-color="#0C3183"/>
</radialGradient>
</defs>
</svg>
